<?xml version="1.0" encoding="UTF-8"?>
<svg xmlns="http://www.w3.org/2000/svg" xmlns:xlink="http://www.w3.org/1999/xlink" width="612pt" height="792pt" viewBox="0 0 612 792" version="1.1">
<defs>
<clipPath id="clip1">
  <path d="M 217 343 L 392 343 L 392 396 L 217 396 Z M 217 343 "/>
</clipPath>
<clipPath id="clip2">
  <path d="M 335.640625 388.921875 C 334.425781 389.730469 332.605469 390.339844 330.382813 390.339844 C 326.945313 390.339844 323.710938 389.933594 320.472656 388.921875 C 319.664063 388.71875 319.058594 388.519531 318.652344 388.519531 C 318.046875 388.519531 317.84375 388.921875 317.84375 389.730469 L 317.84375 391.753906 C 317.84375 392.359375 318.046875 392.765625 318.25 393.167969 C 318.453125 393.371094 318.855469 393.777344 319.464844 393.976563 C 322.699219 395.394531 326.339844 396 330.382813 396 C 334.628906 396 337.863281 394.988281 340.492188 392.96875 C 343.121094 390.945313 344.335938 388.316406 344.335938 384.878906 C 344.335938 382.453125 343.726563 380.632813 342.515625 379.015625 C 341.300781 377.597656 339.277344 376.183594 336.449219 375.171875 L 330.785156 372.949219 C 328.5625 372.140625 326.945313 371.328125 326.339844 370.519531 C 325.527344 369.710938 325.125 368.902344 325.125 367.488281 C 325.125 364.453125 327.347656 362.835938 332 362.835938 C 334.628906 362.835938 337.257813 363.242188 339.683594 364.050781 C 340.492188 364.253906 341.097656 364.453125 341.300781 364.453125 C 341.90625 364.453125 342.3125 364.050781 342.3125 363.242188 L 342.3125 361.21875 C 342.3125 360.613281 342.109375 360.210938 341.90625 359.804688 C 341.707031 359.398438 341.300781 359.199219 340.695313 358.996094 C 337.660156 357.984375 334.628906 357.378906 331.59375 357.378906 C 327.753906 357.378906 324.519531 358.390625 322.089844 360.210938 C 319.664063 362.027344 318.453125 364.65625 318.453125 367.691406 C 318.453125 372.339844 321.078125 375.777344 326.339844 377.800781 L 332.402344 380.023438 C 334.425781 380.835938 335.640625 381.441406 336.449219 382.25 C 337.257813 383.058594 337.460938 383.867188 337.460938 385.078125 C 337.460938 386.699219 336.851563 388.113281 335.640625 388.921875 Z M 357.277344 344.636719 C 356.46875 343.828125 355.253906 343.425781 353.839844 343.425781 C 352.421875 343.425781 351.410156 343.828125 350.601563 344.636719 C 349.796875 345.449219 349.390625 346.457031 349.390625 347.671875 C 349.390625 348.886719 349.796875 350.097656 350.601563 350.703125 C 351.410156 351.515625 352.421875 351.917969 353.839844 351.917969 C 355.253906 351.917969 356.265625 351.515625 357.074219 350.703125 C 357.882813 349.894531 358.289063 348.886719 358.289063 347.671875 C 358.289063 346.457031 358.085938 345.246094 357.277344 344.636719 Z M 356.0625 358.390625 L 351.816406 358.390625 C 350.804688 358.390625 350.402344 358.792969 350.402344 359.804688 L 350.402344 393.371094 C 350.402344 394.382813 350.804688 394.785156 351.816406 394.785156 L 356.0625 394.785156 C 357.074219 394.785156 357.476563 394.382813 357.476563 393.371094 L 357.476563 359.804688 C 357.476563 358.996094 357.074219 358.390625 356.0625 358.390625 Z M 375.070313 366.476563 C 376.890625 364.453125 379.722656 363.445313 383.765625 363.445313 C 385.789063 363.445313 387.808594 363.644531 389.628906 364.253906 C 390.238281 364.453125 390.4375 364.453125 390.84375 364.453125 C 391.449219 364.453125 391.855469 364.050781 391.855469 363.039063 L 391.855469 361.019531 C 391.855469 360.410156 391.652344 359.804688 391.449219 359.601563 C 391.246094 359.398438 390.84375 358.996094 390.4375 358.792969 C 387.808594 358.1875 385.179688 357.578125 382.753906 357.578125 C 377.09375 357.578125 372.847656 359.199219 369.609375 362.636719 C 366.578125 365.871094 364.960938 370.722656 364.960938 376.789063 C 364.960938 382.855469 366.375 387.507813 369.410156 390.742188 C 372.441406 393.976563 376.6875 395.59375 382.351563 395.59375 C 385.382813 395.59375 388.214844 395.191406 390.4375 394.179688 C 391.046875 393.976563 391.449219 393.777344 391.652344 393.371094 C 391.855469 393.167969 391.855469 392.5625 391.855469 391.957031 L 391.855469 389.933594 C 391.855469 388.921875 391.449219 388.519531 390.84375 388.519531 C 390.640625 388.519531 390.238281 388.519531 389.832031 388.71875 C 387.609375 389.328125 385.382813 389.730469 383.359375 389.730469 C 379.519531 389.730469 376.6875 388.71875 374.867188 386.699219 C 373.050781 384.675781 372.238281 381.441406 372.238281 377.195313 L 372.238281 376.183594 C 372.441406 371.734375 373.25 368.5 375.070313 366.476563 Z M 265.472656 394.785156 L 269.71875 394.785156 C 270.730469 394.785156 271.132813 394.382813 271.132813 393.371094 L 271.132813 368.09375 C 271.132813 364.65625 270.324219 362.027344 268.503906 360.210938 C 266.6875 358.390625 264.257813 357.378906 260.820313 357.378906 C 256.171875 357.378906 251.316406 358.996094 246.667969 362.433594 C 245.050781 358.996094 242.015625 357.378906 237.566406 357.378906 C 233.117188 357.378906 228.671875 358.996094 224.222656 362.027344 L 223.816406 359.804688 C 223.816406 359.199219 223.613281 358.996094 223.210938 358.792969 C 223.007813 358.589844 222.605469 358.589844 222.199219 358.589844 L 218.964844 358.589844 C 217.953125 358.589844 217.546875 358.996094 217.546875 360.007813 L 217.546875 393.574219 C 217.546875 394.585938 217.953125 394.988281 218.964844 394.988281 L 223.210938 394.988281 C 224.222656 394.988281 224.625 394.585938 224.625 393.574219 L 224.625 366.273438 C 228.0625 364.253906 231.5 363.039063 235.140625 363.039063 C 237.164063 363.039063 238.578125 363.644531 239.386719 364.859375 C 240.195313 366.074219 240.804688 367.691406 240.804688 370.117188 L 240.804688 393.371094 C 240.804688 394.382813 241.207031 394.785156 242.21875 394.785156 L 246.464844 394.785156 C 247.476563 394.785156 247.878906 394.382813 247.878906 393.371094 L 247.878906 367.285156 C 247.878906 366.882813 247.878906 366.476563 247.878906 366.273438 C 251.519531 364.050781 254.957031 363.039063 258.394531 363.039063 C 260.417969 363.039063 261.832031 363.644531 262.640625 364.859375 C 263.449219 366.074219 264.058594 367.691406 264.058594 370.117188 L 264.058594 393.371094 C 264.058594 394.382813 264.460938 394.785156 265.472656 394.785156 Z M 303.894531 359.804688 L 303.894531 386.699219 C 300.453125 388.921875 297.015625 390.136719 293.578125 390.136719 C 291.355469 390.136719 289.738281 389.527344 288.726563 388.316406 C 287.714844 387.101563 287.3125 385.28125 287.3125 382.652344 L 287.3125 359.804688 C 287.3125 358.792969 286.90625 358.390625 285.894531 358.390625 L 281.648438 358.390625 C 280.636719 358.390625 280.234375 358.792969 280.234375 359.804688 L 280.234375 384.878906 C 280.234375 388.316406 281.042969 391.148438 282.863281 392.96875 C 284.683594 394.785156 287.3125 395.796875 290.75 395.796875 C 295.398438 395.796875 300.050781 394.179688 304.5 390.945313 L 304.902344 393.371094 C 304.902344 393.976563 305.105469 394.179688 305.511719 394.382813 C 305.714844 394.585938 306.117188 394.585938 306.722656 394.585938 L 309.757813 394.585938 C 310.769531 394.585938 311.171875 394.179688 311.171875 393.167969 L 311.171875 359.804688 C 311.171875 358.792969 310.769531 358.390625 309.757813 358.390625 L 305.511719 358.390625 C 304.296875 358.390625 303.894531 358.996094 303.894531 359.804688 Z M 303.894531 359.804688 "/>
</clipPath>
<clipPath id="clip3">
  <path d="M 335.640625 388.921875 C 334.425781 389.730469 332.605469 390.339844 330.382813 390.339844 C 326.945313 390.339844 323.710938 389.933594 320.472656 388.921875 C 319.664063 388.71875 319.058594 388.519531 318.652344 388.519531 C 318.046875 388.519531 317.84375 388.921875 317.84375 389.730469 L 317.84375 391.753906 C 317.84375 392.359375 318.046875 392.765625 318.25 393.167969 C 318.453125 393.371094 318.855469 393.777344 319.464844 393.976563 C 322.699219 395.394531 326.339844 396 330.382813 396 C 334.628906 396 337.863281 394.988281 340.492188 392.96875 C 343.121094 390.945313 344.335938 388.316406 344.335938 384.878906 C 344.335938 382.453125 343.726563 380.632813 342.515625 379.015625 C 341.300781 377.597656 339.277344 376.183594 336.449219 375.171875 L 330.785156 372.949219 C 328.5625 372.140625 326.945313 371.328125 326.339844 370.519531 C 325.527344 369.710938 325.125 368.902344 325.125 367.488281 C 325.125 364.453125 327.347656 362.835938 332 362.835938 C 334.628906 362.835938 337.257813 363.242188 339.683594 364.050781 C 340.492188 364.253906 341.097656 364.453125 341.300781 364.453125 C 341.90625 364.453125 342.3125 364.050781 342.3125 363.242188 L 342.3125 361.21875 C 342.3125 360.613281 342.109375 360.210938 341.90625 359.804688 C 341.707031 359.398438 341.300781 359.199219 340.695313 358.996094 C 337.660156 357.984375 334.628906 357.378906 331.59375 357.378906 C 327.753906 357.378906 324.519531 358.390625 322.089844 360.210938 C 319.664063 362.027344 318.453125 364.65625 318.453125 367.691406 C 318.453125 372.339844 321.078125 375.777344 326.339844 377.800781 L 332.402344 380.023438 C 334.425781 380.835938 335.640625 381.441406 336.449219 382.25 C 337.257813 383.058594 337.460938 383.867188 337.460938 385.078125 C 337.460938 386.699219 336.851563 388.113281 335.640625 388.921875 Z M 357.277344 344.636719 C 356.46875 343.828125 355.253906 343.425781 353.839844 343.425781 C 352.421875 343.425781 351.410156 343.828125 350.601563 344.636719 C 349.796875 345.449219 349.390625 346.457031 349.390625 347.671875 C 349.390625 348.886719 349.796875 350.097656 350.601563 350.703125 C 351.410156 351.515625 352.421875 351.917969 353.839844 351.917969 C 355.253906 351.917969 356.265625 351.515625 357.074219 350.703125 C 357.882813 349.894531 358.289063 348.886719 358.289063 347.671875 C 358.289063 346.457031 358.085938 345.246094 357.277344 344.636719 Z M 356.0625 358.390625 L 351.816406 358.390625 C 350.804688 358.390625 350.402344 358.792969 350.402344 359.804688 L 350.402344 393.371094 C 350.402344 394.382813 350.804688 394.785156 351.816406 394.785156 L 356.0625 394.785156 C 357.074219 394.785156 357.476563 394.382813 357.476563 393.371094 L 357.476563 359.804688 C 357.476563 358.996094 357.074219 358.390625 356.0625 358.390625 Z M 375.070313 366.476563 C 376.890625 364.453125 379.722656 363.445313 383.765625 363.445313 C 385.789063 363.445313 387.808594 363.644531 389.628906 364.253906 C 390.238281 364.453125 390.4375 364.453125 390.84375 364.453125 C 391.449219 364.453125 391.855469 364.050781 391.855469 363.039063 L 391.855469 361.019531 C 391.855469 360.410156 391.652344 359.804688 391.449219 359.601563 C 391.246094 359.398438 390.84375 358.996094 390.4375 358.792969 C 387.808594 358.1875 385.179688 357.578125 382.753906 357.578125 C 377.09375 357.578125 372.847656 359.199219 369.609375 362.636719 C 366.578125 365.871094 364.960938 370.722656 364.960938 376.789063 C 364.960938 382.855469 366.375 387.507813 369.410156 390.742188 C 372.441406 393.976563 376.6875 395.59375 382.351563 395.59375 C 385.382813 395.59375 388.214844 395.191406 390.4375 394.179688 C 391.046875 393.976563 391.449219 393.777344 391.652344 393.371094 C 391.855469 393.167969 391.855469 392.5625 391.855469 391.957031 L 391.855469 389.933594 C 391.855469 388.921875 391.449219 388.519531 390.84375 388.519531 C 390.640625 388.519531 390.238281 388.519531 389.832031 388.71875 C 387.609375 389.328125 385.382813 389.730469 383.359375 389.730469 C 379.519531 389.730469 376.6875 388.71875 374.867188 386.699219 C 373.050781 384.675781 372.238281 381.441406 372.238281 377.195313 L 372.238281 376.183594 C 372.441406 371.734375 373.25 368.5 375.070313 366.476563 Z M 265.472656 394.785156 L 269.71875 394.785156 C 270.730469 394.785156 271.132813 394.382813 271.132813 393.371094 L 271.132813 368.09375 C 271.132813 364.65625 270.324219 362.027344 268.503906 360.210938 C 266.6875 358.390625 264.257813 357.378906 260.820313 357.378906 C 256.171875 357.378906 251.316406 358.996094 246.667969 362.433594 C 245.050781 358.996094 242.015625 357.378906 237.566406 357.378906 C 233.117188 357.378906 228.671875 358.996094 224.222656 362.027344 L 223.816406 359.804688 C 223.816406 359.199219 223.613281 358.996094 223.210938 358.792969 C 223.007813 358.589844 222.605469 358.589844 222.199219 358.589844 L 218.964844 358.589844 C 217.953125 358.589844 217.546875 358.996094 217.546875 360.007813 L 217.546875 393.574219 C 217.546875 394.585938 217.953125 394.988281 218.964844 394.988281 L 223.210938 394.988281 C 224.222656 394.988281 224.625 394.585938 224.625 393.574219 L 224.625 366.273438 C 228.0625 364.253906 231.5 363.039063 235.140625 363.039063 C 237.164063 363.039063 238.578125 363.644531 239.386719 364.859375 C 240.195313 366.074219 240.804688 367.691406 240.804688 370.117188 L 240.804688 393.371094 C 240.804688 394.382813 241.207031 394.785156 242.21875 394.785156 L 246.464844 394.785156 C 247.476563 394.785156 247.878906 394.382813 247.878906 393.371094 L 247.878906 367.285156 C 247.878906 366.882813 247.878906 366.476563 247.878906 366.273438 C 251.519531 364.050781 254.957031 363.039063 258.394531 363.039063 C 260.417969 363.039063 261.832031 363.644531 262.640625 364.859375 C 263.449219 366.074219 264.058594 367.691406 264.058594 370.117188 L 264.058594 393.371094 C 264.058594 394.382813 264.460938 394.785156 265.472656 394.785156 Z M 303.894531 359.804688 L 303.894531 386.699219 C 300.453125 388.921875 297.015625 390.136719 293.578125 390.136719 C 291.355469 390.136719 289.738281 389.527344 288.726563 388.316406 C 287.714844 387.101563 287.3125 385.28125 287.3125 382.652344 L 287.3125 359.804688 C 287.3125 358.792969 286.90625 358.390625 285.894531 358.390625 L 281.648438 358.390625 C 280.636719 358.390625 280.234375 358.792969 280.234375 359.804688 L 280.234375 384.878906 C 280.234375 388.316406 281.042969 391.148438 282.863281 392.96875 C 284.683594 394.785156 287.3125 395.796875 290.75 395.796875 C 295.398438 395.796875 300.050781 394.179688 304.5 390.945313 L 304.902344 393.371094 C 304.902344 393.976563 305.105469 394.179688 305.511719 394.382813 C 305.714844 394.585938 306.117188 394.585938 306.722656 394.585938 L 309.757813 394.585938 C 310.769531 394.585938 311.171875 394.179688 311.171875 393.167969 L 311.171875 359.804688 C 311.171875 358.792969 310.769531 358.390625 309.757813 358.390625 L 305.511719 358.390625 C 304.296875 358.390625 303.894531 358.996094 303.894531 359.804688 "/>
</clipPath>
<linearGradient id="linear0" gradientUnits="userSpaceOnUse" x1="217.548" y1="422.287" x2="391.854" y2="422.287" gradientTransform="matrix(1,0,0,-1,0,792)">
<stop offset="0" style="stop-color:rgb(4.705811%,41.960144%,70.195007%);stop-opacity:1;"/>
<stop offset="0.0078125" style="stop-color:rgb(4.795837%,42.086792%,70.278931%);stop-opacity:1;"/>
<stop offset="0.015625" style="stop-color:rgb(4.975891%,42.341614%,70.448303%);stop-opacity:1;"/>
<stop offset="0.0234375" style="stop-color:rgb(5.155945%,42.59491%,70.619202%);stop-opacity:1;"/>
<stop offset="0.03125" style="stop-color:rgb(5.335999%,42.849731%,70.788574%);stop-opacity:1;"/>
<stop offset="0.0390625" style="stop-color:rgb(5.516052%,43.104553%,70.957947%);stop-opacity:1;"/>
<stop offset="0.046875" style="stop-color:rgb(5.696106%,43.357849%,71.127319%);stop-opacity:1;"/>
<stop offset="0.0546875" style="stop-color:rgb(5.87616%,43.612671%,71.296692%);stop-opacity:1;"/>
<stop offset="0.0625" style="stop-color:rgb(6.056213%,43.867493%,71.466064%);stop-opacity:1;"/>
<stop offset="0.0703125" style="stop-color:rgb(6.236267%,44.120789%,71.635437%);stop-opacity:1;"/>
<stop offset="0.078125" style="stop-color:rgb(6.416321%,44.37561%,71.80481%);stop-opacity:1;"/>
<stop offset="0.0859375" style="stop-color:rgb(6.596375%,44.630432%,71.975708%);stop-opacity:1;"/>
<stop offset="0.09375" style="stop-color:rgb(6.776428%,44.885254%,72.145081%);stop-opacity:1;"/>
<stop offset="0.101563" style="stop-color:rgb(6.956482%,45.13855%,72.314453%);stop-opacity:1;"/>
<stop offset="0.109375" style="stop-color:rgb(7.138062%,45.393372%,72.483826%);stop-opacity:1;"/>
<stop offset="0.117188" style="stop-color:rgb(7.318115%,45.648193%,72.653198%);stop-opacity:1;"/>
<stop offset="0.125" style="stop-color:rgb(7.498169%,45.901489%,72.822571%);stop-opacity:1;"/>
<stop offset="0.132812" style="stop-color:rgb(7.678223%,46.156311%,72.991943%);stop-opacity:1;"/>
<stop offset="0.140625" style="stop-color:rgb(7.858276%,46.411133%,73.162842%);stop-opacity:1;"/>
<stop offset="0.148438" style="stop-color:rgb(8.03833%,46.665955%,73.332214%);stop-opacity:1;"/>
<stop offset="0.15625" style="stop-color:rgb(8.218384%,46.91925%,73.501587%);stop-opacity:1;"/>
<stop offset="0.164063" style="stop-color:rgb(8.398438%,47.174072%,73.670959%);stop-opacity:1;"/>
<stop offset="0.171875" style="stop-color:rgb(8.578491%,47.428894%,73.840332%);stop-opacity:1;"/>
<stop offset="0.179687" style="stop-color:rgb(8.758545%,47.68219%,74.009705%);stop-opacity:1;"/>
<stop offset="0.1875" style="stop-color:rgb(8.938599%,47.937012%,74.179077%);stop-opacity:1;"/>
<stop offset="0.195313" style="stop-color:rgb(9.118652%,48.191833%,74.349976%);stop-opacity:1;"/>
<stop offset="0.203125" style="stop-color:rgb(9.300232%,48.445129%,74.519348%);stop-opacity:1;"/>
<stop offset="0.210938" style="stop-color:rgb(9.480286%,48.699951%,74.688721%);stop-opacity:1;"/>
<stop offset="0.21875" style="stop-color:rgb(9.660339%,48.954773%,74.858093%);stop-opacity:1;"/>
<stop offset="0.226563" style="stop-color:rgb(9.840393%,49.209595%,75.027466%);stop-opacity:1;"/>
<stop offset="0.234375" style="stop-color:rgb(10.020447%,49.462891%,75.196838%);stop-opacity:1;"/>
<stop offset="0.242188" style="stop-color:rgb(10.2005%,49.717712%,75.366211%);stop-opacity:1;"/>
<stop offset="0.25" style="stop-color:rgb(10.380554%,49.972534%,75.537109%);stop-opacity:1;"/>
<stop offset="0.257812" style="stop-color:rgb(10.560608%,50.22583%,75.706482%);stop-opacity:1;"/>
<stop offset="0.265625" style="stop-color:rgb(10.740662%,50.480652%,75.875854%);stop-opacity:1;"/>
<stop offset="0.273438" style="stop-color:rgb(10.920715%,50.735474%,76.045227%);stop-opacity:1;"/>
<stop offset="0.28125" style="stop-color:rgb(11.100769%,50.990295%,76.2146%);stop-opacity:1;"/>
<stop offset="0.289063" style="stop-color:rgb(11.280823%,51.243591%,76.383972%);stop-opacity:1;"/>
<stop offset="0.296875" style="stop-color:rgb(11.488342%,51.524353%,76.580811%);stop-opacity:1;"/>
<stop offset="0.304688" style="stop-color:rgb(11.723328%,51.829529%,76.805115%);stop-opacity:1;"/>
<stop offset="0.3125" style="stop-color:rgb(11.956787%,52.134705%,77.029419%);stop-opacity:1;"/>
<stop offset="0.320313" style="stop-color:rgb(12.191772%,52.441406%,77.253723%);stop-opacity:1;"/>
<stop offset="0.328125" style="stop-color:rgb(12.425232%,52.746582%,77.478027%);stop-opacity:1;"/>
<stop offset="0.335938" style="stop-color:rgb(12.660217%,53.051758%,77.700806%);stop-opacity:1;"/>
<stop offset="0.34375" style="stop-color:rgb(12.893677%,53.356934%,77.92511%);stop-opacity:1;"/>
<stop offset="0.351563" style="stop-color:rgb(13.128662%,53.663635%,78.149414%);stop-opacity:1;"/>
<stop offset="0.359375" style="stop-color:rgb(13.362122%,53.968811%,78.373718%);stop-opacity:1;"/>
<stop offset="0.367188" style="stop-color:rgb(13.597107%,54.273987%,78.598022%);stop-opacity:1;"/>
<stop offset="0.375" style="stop-color:rgb(13.830566%,54.580688%,78.822327%);stop-opacity:1;"/>
<stop offset="0.382812" style="stop-color:rgb(14.065552%,54.885864%,79.046631%);stop-opacity:1;"/>
<stop offset="0.390625" style="stop-color:rgb(14.299011%,55.19104%,79.270935%);stop-opacity:1;"/>
<stop offset="0.398438" style="stop-color:rgb(14.533997%,55.496216%,79.493713%);stop-opacity:1;"/>
<stop offset="0.40625" style="stop-color:rgb(14.768982%,55.802917%,79.718018%);stop-opacity:1;"/>
<stop offset="0.414062" style="stop-color:rgb(15.002441%,56.108093%,79.942322%);stop-opacity:1;"/>
<stop offset="0.421875" style="stop-color:rgb(15.237427%,56.413269%,80.166626%);stop-opacity:1;"/>
<stop offset="0.429687" style="stop-color:rgb(15.470886%,56.718445%,80.39093%);stop-opacity:1;"/>
<stop offset="0.4375" style="stop-color:rgb(15.705872%,57.025146%,80.615234%);stop-opacity:1;"/>
<stop offset="0.445313" style="stop-color:rgb(15.939331%,57.330322%,80.839539%);stop-opacity:1;"/>
<stop offset="0.453125" style="stop-color:rgb(16.174316%,57.635498%,81.062317%);stop-opacity:1;"/>
<stop offset="0.460937" style="stop-color:rgb(16.407776%,57.940674%,81.286621%);stop-opacity:1;"/>
<stop offset="0.46875" style="stop-color:rgb(16.642761%,58.247375%,81.510925%);stop-opacity:1;"/>
<stop offset="0.476563" style="stop-color:rgb(16.876221%,58.552551%,81.735229%);stop-opacity:1;"/>
<stop offset="0.484375" style="stop-color:rgb(17.111206%,58.857727%,81.959534%);stop-opacity:1;"/>
<stop offset="0.492188" style="stop-color:rgb(17.344666%,59.162903%,82.183838%);stop-opacity:1;"/>
<stop offset="0.5" style="stop-color:rgb(17.579651%,59.469604%,82.408142%);stop-opacity:1;"/>
<stop offset="0.507813" style="stop-color:rgb(17.814636%,59.77478%,82.63092%);stop-opacity:1;"/>
<stop offset="0.515625" style="stop-color:rgb(18.048096%,60.079956%,82.855225%);stop-opacity:1;"/>
<stop offset="0.523438" style="stop-color:rgb(18.283081%,60.386658%,83.079529%);stop-opacity:1;"/>
<stop offset="0.53125" style="stop-color:rgb(18.516541%,60.691833%,83.303833%);stop-opacity:1;"/>
<stop offset="0.539063" style="stop-color:rgb(18.751526%,60.997009%,83.528137%);stop-opacity:1;"/>
<stop offset="0.546875" style="stop-color:rgb(18.984985%,61.302185%,83.752441%);stop-opacity:1;"/>
<stop offset="0.554688" style="stop-color:rgb(19.219971%,61.608887%,83.976746%);stop-opacity:1;"/>
<stop offset="0.5625" style="stop-color:rgb(19.45343%,61.914063%,84.199524%);stop-opacity:1;"/>
<stop offset="0.570313" style="stop-color:rgb(19.688416%,62.219238%,84.423828%);stop-opacity:1;"/>
<stop offset="0.578125" style="stop-color:rgb(19.921875%,62.524414%,84.648132%);stop-opacity:1;"/>
<stop offset="0.585938" style="stop-color:rgb(20.15686%,62.831116%,84.872437%);stop-opacity:1;"/>
<stop offset="0.59375" style="stop-color:rgb(20.39032%,63.136292%,85.096741%);stop-opacity:1;"/>
<stop offset="0.601563" style="stop-color:rgb(20.625305%,63.441467%,85.321045%);stop-opacity:1;"/>
<stop offset="0.609375" style="stop-color:rgb(20.858765%,63.746643%,85.545349%);stop-opacity:1;"/>
<stop offset="0.617188" style="stop-color:rgb(21.09375%,64.053345%,85.768127%);stop-opacity:1;"/>
<stop offset="0.625" style="stop-color:rgb(21.328735%,64.358521%,85.992432%);stop-opacity:1;"/>
<stop offset="0.632813" style="stop-color:rgb(21.562195%,64.663696%,86.216736%);stop-opacity:1;"/>
<stop offset="0.640625" style="stop-color:rgb(21.79718%,64.970398%,86.44104%);stop-opacity:1;"/>
<stop offset="0.648438" style="stop-color:rgb(22.03064%,65.275574%,86.665344%);stop-opacity:1;"/>
<stop offset="0.65625" style="stop-color:rgb(22.265625%,65.58075%,86.889648%);stop-opacity:1;"/>
<stop offset="0.664063" style="stop-color:rgb(22.499084%,65.885925%,87.113953%);stop-opacity:1;"/>
<stop offset="0.671875" style="stop-color:rgb(22.73407%,66.192627%,87.336731%);stop-opacity:1;"/>
<stop offset="0.679688" style="stop-color:rgb(22.967529%,66.497803%,87.561035%);stop-opacity:1;"/>
<stop offset="0.6875" style="stop-color:rgb(23.202515%,66.802979%,87.785339%);stop-opacity:1;"/>
<stop offset="0.695313" style="stop-color:rgb(23.435974%,67.108154%,88.009644%);stop-opacity:1;"/>
<stop offset="0.703125" style="stop-color:rgb(23.670959%,67.414856%,88.233948%);stop-opacity:1;"/>
<stop offset="0.710938" style="stop-color:rgb(23.904419%,67.720032%,88.458252%);stop-opacity:1;"/>
<stop offset="0.71875" style="stop-color:rgb(24.139404%,68.025208%,88.682556%);stop-opacity:1;"/>
<stop offset="0.726563" style="stop-color:rgb(24.37439%,68.330383%,88.905334%);stop-opacity:1;"/>
<stop offset="0.734375" style="stop-color:rgb(24.607849%,68.637085%,89.129639%);stop-opacity:1;"/>
<stop offset="0.742188" style="stop-color:rgb(24.842834%,68.942261%,89.353943%);stop-opacity:1;"/>
<stop offset="0.75" style="stop-color:rgb(25.076294%,69.247437%,89.578247%);stop-opacity:1;"/>
<stop offset="0.757813" style="stop-color:rgb(25.311279%,69.552612%,89.802551%);stop-opacity:1;"/>
<stop offset="0.765625" style="stop-color:rgb(25.544739%,69.859314%,90.026855%);stop-opacity:1;"/>
<stop offset="0.773438" style="stop-color:rgb(25.779724%,70.16449%,90.25116%);stop-opacity:1;"/>
<stop offset="0.78125" style="stop-color:rgb(26.013184%,70.469666%,90.475464%);stop-opacity:1;"/>
<stop offset="0.789063" style="stop-color:rgb(26.248169%,70.776367%,90.698242%);stop-opacity:1;"/>
<stop offset="0.796875" style="stop-color:rgb(26.481628%,71.081543%,90.922546%);stop-opacity:1;"/>
<stop offset="0.804688" style="stop-color:rgb(26.716614%,71.386719%,91.146851%);stop-opacity:1;"/>
<stop offset="0.8125" style="stop-color:rgb(26.950073%,71.691895%,91.371155%);stop-opacity:1;"/>
<stop offset="0.820313" style="stop-color:rgb(27.185059%,71.998596%,91.595459%);stop-opacity:1;"/>
<stop offset="0.828125" style="stop-color:rgb(27.418518%,72.303772%,91.819763%);stop-opacity:1;"/>
<stop offset="0.835938" style="stop-color:rgb(27.653503%,72.608948%,92.044067%);stop-opacity:1;"/>
<stop offset="0.84375" style="stop-color:rgb(27.888489%,72.914124%,92.266846%);stop-opacity:1;"/>
<stop offset="0.851563" style="stop-color:rgb(28.121948%,73.220825%,92.49115%);stop-opacity:1;"/>
<stop offset="0.859375" style="stop-color:rgb(28.356934%,73.526001%,92.715454%);stop-opacity:1;"/>
<stop offset="0.867188" style="stop-color:rgb(28.590393%,73.831177%,92.939758%);stop-opacity:1;"/>
<stop offset="0.875" style="stop-color:rgb(28.825378%,74.136353%,93.164063%);stop-opacity:1;"/>
<stop offset="0.882813" style="stop-color:rgb(29.058838%,74.443054%,93.388367%);stop-opacity:1;"/>
<stop offset="0.890625" style="stop-color:rgb(29.293823%,74.74823%,93.612671%);stop-opacity:1;"/>
<stop offset="0.90625" style="stop-color:rgb(29.411316%,74.900818%,93.72406%);stop-opacity:1;"/>
<stop offset="0.9375" style="stop-color:rgb(29.411316%,74.900818%,93.72406%);stop-opacity:1;"/>
<stop offset="1" style="stop-color:rgb(29.411316%,74.900818%,93.72406%);stop-opacity:1;"/>
</linearGradient>
<clipPath id="clip4">
  <path d="M 216 408 L 396 408 L 396 449 L 216 449 Z M 216 408 "/>
</clipPath>
<clipPath id="clip5">
  <path d="M 384.171875 440.6875 C 394.683594 431.789063 397.515625 413.390625 395.292969 410.558594 C 394.28125 409.347656 389.429688 408.132813 383.359375 408.132813 C 376.890625 408.132813 369.207031 409.546875 363.34375 413.59375 C 361.523438 414.804688 361.925781 416.421875 363.746094 416.222656 C 370.015625 415.410156 384.171875 413.796875 386.800781 417.03125 C 389.226563 420.265625 383.96875 433.609375 381.542969 439.476563 C 380.933594 441.296875 382.351563 441.902344 384.171875 440.6875 Z M 375.675781 421.679688 C 353.636719 430.984375 329.574219 435.632813 307.734375 435.632813 C 275.382813 435.632813 244.039063 426.734375 218.761719 411.976563 C 218.355469 411.773438 217.953125 411.570313 217.546875 411.570313 C 216.132813 411.570313 215.324219 413.1875 216.738281 414.605469 C 240.195313 435.835938 271.335938 448.574219 305.710938 448.574219 C 330.382813 448.574219 358.894531 440.890625 378.507813 426.332031 C 381.945313 423.90625 379.113281 420.265625 375.675781 421.679688 Z M 375.675781 421.679688 "/>
</clipPath>
<clipPath id="clip6">
  <path d="M 384.171875 440.6875 C 394.683594 431.789063 397.515625 413.390625 395.292969 410.558594 C 394.28125 409.347656 389.429688 408.132813 383.359375 408.132813 C 376.890625 408.132813 369.207031 409.546875 363.34375 413.59375 C 361.523438 414.804688 361.925781 416.421875 363.746094 416.222656 C 370.015625 415.410156 384.171875 413.796875 386.800781 417.03125 C 389.226563 420.265625 383.96875 433.609375 381.542969 439.476563 C 380.933594 441.296875 382.351563 441.902344 384.171875 440.6875 Z M 375.675781 421.679688 C 353.636719 430.984375 329.574219 435.632813 307.734375 435.632813 C 275.382813 435.632813 244.039063 426.734375 218.761719 411.976563 C 218.355469 411.773438 217.953125 411.570313 217.546875 411.570313 C 216.132813 411.570313 215.324219 413.1875 216.738281 414.605469 C 240.195313 435.835938 271.335938 448.574219 305.710938 448.574219 C 330.382813 448.574219 358.894531 440.890625 378.507813 426.332031 C 381.945313 423.90625 379.113281 420.265625 375.675781 421.679688 "/>
</clipPath>
<linearGradient id="linear1" gradientUnits="userSpaceOnUse" x1="215.324" y1="363.646" x2="397.516" y2="363.646" gradientTransform="matrix(1,0,0,-1,0,792)">
<stop offset="0" style="stop-color:rgb(4.705811%,41.960144%,70.195007%);stop-opacity:1;"/>
<stop offset="0.0078125" style="stop-color:rgb(4.753113%,42.027283%,70.239258%);stop-opacity:1;"/>
<stop offset="0.015625" style="stop-color:rgb(4.891968%,42.224121%,70.370483%);stop-opacity:1;"/>
<stop offset="0.0234375" style="stop-color:rgb(5.073547%,42.480469%,70.542908%);stop-opacity:1;"/>
<stop offset="0.03125" style="stop-color:rgb(5.256653%,42.738342%,70.713806%);stop-opacity:1;"/>
<stop offset="0.0390625" style="stop-color:rgb(5.438232%,42.996216%,70.88623%);stop-opacity:1;"/>
<stop offset="0.046875" style="stop-color:rgb(5.621338%,43.252563%,71.057129%);stop-opacity:1;"/>
<stop offset="0.0546875" style="stop-color:rgb(5.802917%,43.510437%,71.229553%);stop-opacity:1;"/>
<stop offset="0.0625" style="stop-color:rgb(5.986023%,43.768311%,71.400452%);stop-opacity:1;"/>
<stop offset="0.0703125" style="stop-color:rgb(6.167603%,44.026184%,71.572876%);stop-opacity:1;"/>
<stop offset="0.078125" style="stop-color:rgb(6.350708%,44.282532%,71.743774%);stop-opacity:1;"/>
<stop offset="0.0859375" style="stop-color:rgb(6.533813%,44.540405%,71.916199%);stop-opacity:1;"/>
<stop offset="0.09375" style="stop-color:rgb(6.715393%,44.798279%,72.087097%);stop-opacity:1;"/>
<stop offset="0.101562" style="stop-color:rgb(6.898499%,45.056152%,72.259521%);stop-opacity:1;"/>
<stop offset="0.109375" style="stop-color:rgb(7.080078%,45.3125%,72.43042%);stop-opacity:1;"/>
<stop offset="0.117188" style="stop-color:rgb(7.263184%,45.570374%,72.602844%);stop-opacity:1;"/>
<stop offset="0.125" style="stop-color:rgb(7.444763%,45.828247%,72.773743%);stop-opacity:1;"/>
<stop offset="0.132813" style="stop-color:rgb(7.627869%,46.086121%,72.946167%);stop-opacity:1;"/>
<stop offset="0.140625" style="stop-color:rgb(7.809448%,46.342468%,73.117065%);stop-opacity:1;"/>
<stop offset="0.148438" style="stop-color:rgb(7.992554%,46.600342%,73.28949%);stop-opacity:1;"/>
<stop offset="0.15625" style="stop-color:rgb(8.174133%,46.858215%,73.460388%);stop-opacity:1;"/>
<stop offset="0.164062" style="stop-color:rgb(8.357239%,47.114563%,73.632813%);stop-opacity:1;"/>
<stop offset="0.171875" style="stop-color:rgb(8.538818%,47.372437%,73.803711%);stop-opacity:1;"/>
<stop offset="0.179688" style="stop-color:rgb(8.721924%,47.63031%,73.976135%);stop-opacity:1;"/>
<stop offset="0.1875" style="stop-color:rgb(8.903503%,47.888184%,74.147034%);stop-opacity:1;"/>
<stop offset="0.195312" style="stop-color:rgb(9.086609%,48.144531%,74.319458%);stop-opacity:1;"/>
<stop offset="0.203125" style="stop-color:rgb(9.268188%,48.402405%,74.490356%);stop-opacity:1;"/>
<stop offset="0.210938" style="stop-color:rgb(9.451294%,48.660278%,74.662781%);stop-opacity:1;"/>
<stop offset="0.21875" style="stop-color:rgb(9.632874%,48.918152%,74.833679%);stop-opacity:1;"/>
<stop offset="0.226563" style="stop-color:rgb(9.815979%,49.1745%,75.004578%);stop-opacity:1;"/>
<stop offset="0.234375" style="stop-color:rgb(9.997559%,49.432373%,75.177002%);stop-opacity:1;"/>
<stop offset="0.242187" style="stop-color:rgb(10.180664%,49.690247%,75.3479%);stop-opacity:1;"/>
<stop offset="0.25" style="stop-color:rgb(10.362244%,49.94812%,75.520325%);stop-opacity:1;"/>
<stop offset="0.257812" style="stop-color:rgb(10.545349%,50.204468%,75.691223%);stop-opacity:1;"/>
<stop offset="0.265625" style="stop-color:rgb(10.726929%,50.462341%,75.863647%);stop-opacity:1;"/>
<stop offset="0.273437" style="stop-color:rgb(10.910034%,50.720215%,76.034546%);stop-opacity:1;"/>
<stop offset="0.28125" style="stop-color:rgb(11.09314%,50.978088%,76.20697%);stop-opacity:1;"/>
<stop offset="0.289063" style="stop-color:rgb(11.274719%,51.234436%,76.377869%);stop-opacity:1;"/>
<stop offset="0.296875" style="stop-color:rgb(11.483765%,51.51825%,76.576233%);stop-opacity:1;"/>
<stop offset="0.304688" style="stop-color:rgb(11.720276%,51.826477%,76.802063%);stop-opacity:1;"/>
<stop offset="0.3125" style="stop-color:rgb(11.956787%,52.134705%,77.029419%);stop-opacity:1;"/>
<stop offset="0.320313" style="stop-color:rgb(12.194824%,52.444458%,77.256775%);stop-opacity:1;"/>
<stop offset="0.328125" style="stop-color:rgb(12.431335%,52.754211%,77.482605%);stop-opacity:1;"/>
<stop offset="0.335938" style="stop-color:rgb(12.667847%,53.062439%,77.709961%);stop-opacity:1;"/>
<stop offset="0.34375" style="stop-color:rgb(12.905884%,53.372192%,77.937317%);stop-opacity:1;"/>
<stop offset="0.351562" style="stop-color:rgb(13.142395%,53.681946%,78.163147%);stop-opacity:1;"/>
<stop offset="0.359375" style="stop-color:rgb(13.380432%,53.991699%,78.390503%);stop-opacity:1;"/>
<stop offset="0.367188" style="stop-color:rgb(13.616943%,54.299927%,78.617859%);stop-opacity:1;"/>
<stop offset="0.375" style="stop-color:rgb(13.853455%,54.60968%,78.843689%);stop-opacity:1;"/>
<stop offset="0.382813" style="stop-color:rgb(14.091492%,54.919434%,79.071045%);stop-opacity:1;"/>
<stop offset="0.390625" style="stop-color:rgb(14.328003%,55.227661%,79.298401%);stop-opacity:1;"/>
<stop offset="0.398438" style="stop-color:rgb(14.56604%,55.537415%,79.524231%);stop-opacity:1;"/>
<stop offset="0.40625" style="stop-color:rgb(14.802551%,55.847168%,79.751587%);stop-opacity:1;"/>
<stop offset="0.414062" style="stop-color:rgb(15.039063%,56.155396%,79.978943%);stop-opacity:1;"/>
<stop offset="0.421875" style="stop-color:rgb(15.2771%,56.465149%,80.204773%);stop-opacity:1;"/>
<stop offset="0.429687" style="stop-color:rgb(15.513611%,56.774902%,80.432129%);stop-opacity:1;"/>
<stop offset="0.4375" style="stop-color:rgb(15.751648%,57.084656%,80.657959%);stop-opacity:1;"/>
<stop offset="0.445313" style="stop-color:rgb(15.988159%,57.392883%,80.885315%);stop-opacity:1;"/>
<stop offset="0.453125" style="stop-color:rgb(16.22467%,57.702637%,81.112671%);stop-opacity:1;"/>
<stop offset="0.460938" style="stop-color:rgb(16.462708%,58.01239%,81.338501%);stop-opacity:1;"/>
<stop offset="0.46875" style="stop-color:rgb(16.699219%,58.320618%,81.565857%);stop-opacity:1;"/>
<stop offset="0.476562" style="stop-color:rgb(16.937256%,58.630371%,81.793213%);stop-opacity:1;"/>
<stop offset="0.484375" style="stop-color:rgb(17.173767%,58.940125%,82.019043%);stop-opacity:1;"/>
<stop offset="0.492187" style="stop-color:rgb(17.410278%,59.249878%,82.246399%);stop-opacity:1;"/>
<stop offset="0.5" style="stop-color:rgb(17.648315%,59.558105%,82.473755%);stop-opacity:1;"/>
<stop offset="0.507813" style="stop-color:rgb(17.884827%,59.867859%,82.699585%);stop-opacity:1;"/>
<stop offset="0.515625" style="stop-color:rgb(18.122864%,60.177612%,82.926941%);stop-opacity:1;"/>
<stop offset="0.523438" style="stop-color:rgb(18.359375%,60.48584%,83.154297%);stop-opacity:1;"/>
<stop offset="0.53125" style="stop-color:rgb(18.597412%,60.795593%,83.380127%);stop-opacity:1;"/>
<stop offset="0.539063" style="stop-color:rgb(18.833923%,61.105347%,83.607483%);stop-opacity:1;"/>
<stop offset="0.546875" style="stop-color:rgb(19.070435%,61.413574%,83.834839%);stop-opacity:1;"/>
<stop offset="0.554687" style="stop-color:rgb(19.308472%,61.723328%,84.060669%);stop-opacity:1;"/>
<stop offset="0.5625" style="stop-color:rgb(19.544983%,62.033081%,84.288025%);stop-opacity:1;"/>
<stop offset="0.570313" style="stop-color:rgb(19.78302%,62.342834%,84.515381%);stop-opacity:1;"/>
<stop offset="0.578125" style="stop-color:rgb(20.019531%,62.651062%,84.741211%);stop-opacity:1;"/>
<stop offset="0.585937" style="stop-color:rgb(20.256042%,62.960815%,84.968567%);stop-opacity:1;"/>
<stop offset="0.59375" style="stop-color:rgb(20.49408%,63.270569%,85.194397%);stop-opacity:1;"/>
<stop offset="0.601562" style="stop-color:rgb(20.730591%,63.578796%,85.421753%);stop-opacity:1;"/>
<stop offset="0.609375" style="stop-color:rgb(20.968628%,63.88855%,85.649109%);stop-opacity:1;"/>
<stop offset="0.617187" style="stop-color:rgb(21.205139%,64.198303%,85.874939%);stop-opacity:1;"/>
<stop offset="0.625" style="stop-color:rgb(21.44165%,64.506531%,86.102295%);stop-opacity:1;"/>
<stop offset="0.632812" style="stop-color:rgb(21.679688%,64.816284%,86.329651%);stop-opacity:1;"/>
<stop offset="0.640625" style="stop-color:rgb(21.916199%,65.126038%,86.555481%);stop-opacity:1;"/>
<stop offset="0.648438" style="stop-color:rgb(22.154236%,65.435791%,86.782837%);stop-opacity:1;"/>
<stop offset="0.65625" style="stop-color:rgb(22.390747%,65.744019%,87.010193%);stop-opacity:1;"/>
<stop offset="0.664063" style="stop-color:rgb(22.627258%,66.053772%,87.236023%);stop-opacity:1;"/>
<stop offset="0.671875" style="stop-color:rgb(22.865295%,66.363525%,87.463379%);stop-opacity:1;"/>
<stop offset="0.679688" style="stop-color:rgb(23.101807%,66.671753%,87.690735%);stop-opacity:1;"/>
<stop offset="0.6875" style="stop-color:rgb(23.339844%,66.981506%,87.916565%);stop-opacity:1;"/>
<stop offset="0.695313" style="stop-color:rgb(23.576355%,67.29126%,88.143921%);stop-opacity:1;"/>
<stop offset="0.703125" style="stop-color:rgb(23.812866%,67.599487%,88.371277%);stop-opacity:1;"/>
<stop offset="0.710938" style="stop-color:rgb(24.050903%,67.909241%,88.597107%);stop-opacity:1;"/>
<stop offset="0.71875" style="stop-color:rgb(24.287415%,68.218994%,88.824463%);stop-opacity:1;"/>
<stop offset="0.726563" style="stop-color:rgb(24.525452%,68.528748%,89.050293%);stop-opacity:1;"/>
<stop offset="0.734375" style="stop-color:rgb(24.761963%,68.836975%,89.277649%);stop-opacity:1;"/>
<stop offset="0.742188" style="stop-color:rgb(24.998474%,69.146729%,89.505005%);stop-opacity:1;"/>
<stop offset="0.75" style="stop-color:rgb(25.236511%,69.456482%,89.730835%);stop-opacity:1;"/>
<stop offset="0.757813" style="stop-color:rgb(25.473022%,69.764709%,89.958191%);stop-opacity:1;"/>
<stop offset="0.765625" style="stop-color:rgb(25.71106%,70.074463%,90.185547%);stop-opacity:1;"/>
<stop offset="0.773437" style="stop-color:rgb(25.947571%,70.384216%,90.411377%);stop-opacity:1;"/>
<stop offset="0.78125" style="stop-color:rgb(26.184082%,70.692444%,90.638733%);stop-opacity:1;"/>
<stop offset="0.789062" style="stop-color:rgb(26.422119%,71.002197%,90.866089%);stop-opacity:1;"/>
<stop offset="0.796875" style="stop-color:rgb(26.65863%,71.311951%,91.091919%);stop-opacity:1;"/>
<stop offset="0.804688" style="stop-color:rgb(26.896667%,71.621704%,91.319275%);stop-opacity:1;"/>
<stop offset="0.8125" style="stop-color:rgb(27.133179%,71.929932%,91.546631%);stop-opacity:1;"/>
<stop offset="0.820313" style="stop-color:rgb(27.36969%,72.239685%,91.772461%);stop-opacity:1;"/>
<stop offset="0.828125" style="stop-color:rgb(27.607727%,72.549438%,91.999817%);stop-opacity:1;"/>
<stop offset="0.835938" style="stop-color:rgb(27.844238%,72.857666%,92.227173%);stop-opacity:1;"/>
<stop offset="0.84375" style="stop-color:rgb(28.082275%,73.167419%,92.453003%);stop-opacity:1;"/>
<stop offset="0.851563" style="stop-color:rgb(28.318787%,73.477173%,92.680359%);stop-opacity:1;"/>
<stop offset="0.859375" style="stop-color:rgb(28.556824%,73.7854%,92.906189%);stop-opacity:1;"/>
<stop offset="0.867188" style="stop-color:rgb(28.793335%,74.095154%,93.133545%);stop-opacity:1;"/>
<stop offset="0.875" style="stop-color:rgb(29.029846%,74.404907%,93.360901%);stop-opacity:1;"/>
<stop offset="1" style="stop-color:rgb(29.28009%,74.729919%,93.598938%);stop-opacity:1;"/>
</linearGradient>
</defs>
<g id="surface1">
<g clip-path="url(#clip1)" clip-rule="nonzero">
<g clip-path="url(#clip2)" clip-rule="evenodd">
<g clip-path="url(#clip3)" clip-rule="nonzero">
<path style=" stroke:none;fill-rule:nonzero;fill:url(#linear0);" d="M 217.546875 396 L 217.546875 343.425781 L 391.855469 343.425781 L 391.855469 396 Z M 217.546875 396 "/>
</g>
</g>
</g>
<g clip-path="url(#clip4)" clip-rule="nonzero">
<g clip-path="url(#clip5)" clip-rule="evenodd">
<g clip-path="url(#clip6)" clip-rule="nonzero">
<path style=" stroke:none;fill-rule:nonzero;fill:url(#linear1);" d="M 215.324219 448.574219 L 215.324219 408.132813 L 397.515625 408.132813 L 397.515625 448.574219 Z M 215.324219 448.574219 "/>
</g>
</g>
</g>
</g>
</svg>
