<?xml version="1.0" ?><svg style="enable-background:new 0 0 64 64;" version="1.1" viewBox="0 0 64 64" xml:space="preserve" xmlns="http://www.w3.org/2000/svg" xmlns:xlink="http://www.w3.org/1999/xlink"><style type="text/css">
	.st0{fill:#0072FF;}
</style><g id="GUIDES_64"/><g id="Layer_3"/><g id="Layer_2"><path class="st0" d="M30.1,56.4c13.3,0,21-4.5,24.6-7.4c0.6-0.5,0.1-1.5-0.7-1.2C49.5,49.4,40.6,52,29.8,52c-10.5,0-20-3.8-25-6.3   c-0.7-0.4-1.4,0.6-0.8,1.1C8.2,50.6,16.8,56.4,30.1,56.4z"/><path class="st0" d="M59.4,44c-5.2-1.6-8.7,0.2-10.1,1.3c-0.3,0.2-0.1,0.6,0.2,0.6c2.1,0,7.4,0,7.8,0.7c0.4,0.6-0.8,5.1-1.4,7.2   c-0.1,0.3,0.3,0.5,0.5,0.3c3.3-3.3,3.7-7.3,3.7-9C60.2,44.5,59.9,44.1,59.4,44z"/><path class="st0" d="M34.7,22.7h-3.8C28,22.7,17,24.1,17,35.1c0,11,11.7,9.7,12.4,9.5c1.1-0.3,2.8-0.9,4.7-2.1   c1.7-1.2,4-0.8,5.4,0.8c1,1.2,2.4,1.3,3.4,0.4l3.4-3.1c0.7-0.7,0.9-1.8,0.4-2.7c-1.5-2.6-2.5-5.4-2.5-8.3l0-8   C44.1,17.3,44.5,8,32,8c-7.3,0-11,2.8-12.8,5.7c-1.6,2.5,0.1,5.8,3,6.1l0.1,0c1.6,0.2,3.2-0.6,4-2c0.8-1.4,2.3-3,5.7-3   c1.6,0,3.8,0.7,3.8,2.6c0,2.8,0,4.2,0,4.2C35.8,22.2,35.3,22.7,34.7,22.7z M35.9,27.5c0,0,0.9-0.1,2.8-0.1c0.7,0,1.3,0.6,1.3,1.3   c0,0.7-0.6,1.3-1.3,1.3c-0.5,0-1.1,0-1.8,0.1c-0.6,0.1-1,0.5-1,1c-0.2,1.8-1.1,3.6-2.6,4.7c-1.1,0.8-2.3,1.4-3.5,1.4   c-3.9,0-3.8-3.5-2.9-5.2C27.7,30.5,29.9,27.7,35.9,27.5z"/></g></svg>