<?xml version="1.0" encoding="utf-8"?>
<!-- Generator: Adobe Illustrator 16.0.0, SVG Export Plug-In . SVG Version: 6.00 Build 0)  -->
<!DOCTYPE svg PUBLIC "-//W3C//DTD SVG 1.1//EN" "http://www.w3.org/Graphics/SVG/1.1/DTD/svg11.dtd">
<svg version="1.1" id="Layer_1" xmlns="http://www.w3.org/2000/svg" xmlns:xlink="http://www.w3.org/1999/xlink" x="0px" y="0px"
	 width="595px" height="841px" viewBox="0 0 595 841" enable-background="new 0 0 595 841" xml:space="preserve">
<g>
	<path fill-rule="evenodd" clip-rule="evenodd" fill="#F530A6" d="M8.826,459.732v10.49c0,2.029,2.15,3.68,4.8,3.68h0.19
		c2.65,0,4.81-1.65,4.81-3.68v-10.49c0-2.04-2.16-3.69-4.81-3.69h-0.19C10.976,456.042,8.826,457.692,8.826,459.732z"/>
	<path fill-rule="evenodd" clip-rule="evenodd" fill="#F530A6" d="M22.125,453.433v23.53c0,2.029,2.16,3.68,4.81,3.68h0.19
		c2.65,0,4.8-1.65,4.8-3.68v-23.53c0-2.04-2.15-3.69-4.8-3.69h-0.19C24.286,449.742,22.125,451.393,22.125,453.433z"/>
	<path fill-rule="evenodd" clip-rule="evenodd" fill="#F530A6" d="M35.905,456.303v17.34c0,2.04,2.16,3.689,4.81,3.689h0.18
		c2.65,0,4.81-1.649,4.81-3.689v-17.34c0-2.03-2.16-3.681-4.81-3.681h-0.18C38.065,452.622,35.905,454.272,35.905,456.303z"/>
	<path fill-rule="evenodd" clip-rule="evenodd" fill="#F530A6" d="M49.416,430.772v68.51c0,2.04,2.15,3.69,4.81,3.69h0.19
		c2.65,0,4.8-1.65,4.8-3.69v-68.51c0-2.03-2.15-3.68-4.8-3.68h-0.19C51.565,427.093,49.416,428.742,49.416,430.772z"/>
	<path fill-rule="evenodd" clip-rule="evenodd" fill="#1FC7A1" d="M62.786,441.162v48.07c0,2.03,2.15,3.68,4.8,3.68h0.19
		c2.65,0,4.8-1.649,4.8-3.68v-48.07c0-2.04-2.15-3.689-4.8-3.689h-0.19C64.936,437.473,62.786,439.122,62.786,441.162z"/>
	<path fill-rule="evenodd" clip-rule="evenodd" fill="#1FC7A1" d="M76.456,453.093v23.43c0,2.03,2.16,3.68,4.81,3.68h0.18
		c2.65,0,4.81-1.649,4.81-3.68v-23.43c0-2.03-2.16-3.681-4.81-3.681h-0.18C78.616,449.412,76.456,451.063,76.456,453.093z"/>
	<path fill-rule="evenodd" clip-rule="evenodd" fill="#1FC7A1" d="M89.965,440.452v48.24c0,2.04,2.15,3.69,4.81,3.69h0.18
		c2.65,0,4.8-1.65,4.8-3.69v-48.24c0-2.029-2.15-3.68-4.8-3.68h-0.18C92.116,436.772,89.965,438.423,89.965,440.452z"/>
	<path fill-rule="evenodd" clip-rule="evenodd" fill="#1FC7A1" d="M103.266,415.433v99.87c0,2.04,2.15,3.689,4.8,3.689h0.19
		c2.65,0,4.8-1.649,4.8-3.689v-99.87c0-2.03-2.15-3.69-4.8-3.69h-0.19C105.416,411.742,103.266,413.402,103.266,415.433z"/>
	<path fill-rule="evenodd" clip-rule="evenodd" fill="#1FC7A1" d="M116.885,426.133v78.04c0,2.029,2.16,3.68,4.81,3.68h0.18
		c2.66,0,4.81-1.65,4.81-3.68v-78.04c0-2.04-2.15-3.69-4.81-3.69h-0.18C119.045,422.442,116.885,424.093,116.885,426.133z"/>
	<path fill-rule="evenodd" clip-rule="evenodd" fill="#1FC7A1" d="M130.646,450.532v29.24c0,2.03,2.15,3.68,4.8,3.68h0.19
		c2.65,0,4.8-1.649,4.8-3.68v-29.24c0-2.03-2.15-3.68-4.8-3.68h-0.19C132.795,446.853,130.646,448.502,130.646,450.532z"/>
	<path fill-rule="evenodd" clip-rule="evenodd" fill="#FCC94F" d="M143.775,405.973v119.06c0,2.04,2.15,3.69,4.81,3.69h0.18
		c2.65,0,4.81-1.65,4.81-3.69v-119.06c0-2.04-2.16-3.69-4.81-3.69h-0.18C145.925,402.282,143.775,403.933,143.775,405.973z"/>
	<path fill-rule="evenodd" clip-rule="evenodd" fill="#FCC94F" d="M157.366,394.963v139.8c0,2.029,2.15,3.68,4.8,3.68h0.19
		c2.65,0,4.8-1.65,4.8-3.68v-139.8c0-2.03-2.15-3.69-4.8-3.69h-0.19C159.516,391.272,157.366,392.933,157.366,394.963z"/>
	<path fill-rule="evenodd" clip-rule="evenodd" fill="#FCC94F" d="M171.215,430.553v68.84c0,2.03,2.16,3.689,4.81,3.689h0.18
		c2.65,0,4.81-1.659,4.81-3.689v-68.84c0-2.04-2.16-3.69-4.81-3.69h-0.18C173.375,426.862,171.215,428.513,171.215,430.553z"/>
	<path fill-rule="evenodd" clip-rule="evenodd" fill="#FCC94F" d="M184.385,445.362v40.11c0,2.029,2.15,3.68,4.8,3.68h0.19
		c2.65,0,4.8-1.65,4.8-3.68v-40.11c0-2.04-2.15-3.689-4.8-3.689h-0.19C186.536,441.673,184.385,443.322,184.385,445.362z"/>
	<path fill-rule="evenodd" clip-rule="evenodd" fill="#FCC94F" d="M198.186,431.093v68.63c0,2.029,2.15,3.68,4.8,3.68h0.19
		c2.65,0,4.81-1.65,4.81-3.68v-68.63c0-2.03-2.16-3.681-4.81-3.681h-0.19C200.335,427.412,198.186,429.063,198.186,431.093z"/>
	<path fill-rule="evenodd" clip-rule="evenodd" fill="#FCC94F" d="M211.596,419.383v91.609c0,2.04,2.15,3.69,4.8,3.69h0.19
		c2.65,0,4.8-1.65,4.8-3.69v-91.609c0-2.03-2.15-3.681-4.8-3.681h-0.19C213.746,415.702,211.596,417.353,211.596,419.383z"/>
	<path fill-rule="evenodd" clip-rule="evenodd" fill="#FCC94F" d="M225.315,428.442v73.93c0,2.04,2.15,3.69,4.8,3.69h0.19
		c2.65,0,4.8-1.65,4.8-3.69v-73.93c0-2.03-2.15-3.68-4.8-3.68h-0.19C227.465,424.763,225.315,426.412,225.315,428.442z"/>
	<path fill-rule="evenodd" clip-rule="evenodd" fill="#FCC94F" d="M238.585,436.402v57.79c0,2.04,2.16,3.69,4.81,3.69h0.18
		c2.66,0,4.81-1.65,4.81-3.69v-57.79c0-2.03-2.15-3.68-4.81-3.68h-0.18C240.746,432.723,238.585,434.372,238.585,436.402z"/>
	<path fill-rule="evenodd" clip-rule="evenodd" fill="#FCC94F" d="M252.315,454.752v21.98c0,2.03,2.16,3.68,4.81,3.68h0.19
		c2.65,0,4.8-1.649,4.8-3.68v-21.98c0-2.039-2.15-3.689-4.8-3.689h-0.19C254.476,451.063,252.315,452.713,252.315,454.752z"/>
	<path fill-rule="evenodd" clip-rule="evenodd" fill="#FCC94F" d="M265.866,428.442v73.49c0,2.04,2.16,3.689,4.81,3.689h0.19
		c2.65,0,4.8-1.649,4.8-3.689v-73.49c0-2.03-2.15-3.68-4.8-3.68h-0.19C268.025,424.763,265.866,426.412,265.866,428.442z"/>
	<path fill-rule="evenodd" clip-rule="evenodd" fill="#1C1F57" d="M279.226,402.692v125.54c0,2.03,2.15,3.69,4.8,3.69h0.19
		c2.65,0,4.8-1.66,4.8-3.69v-125.54c0-2.04-2.15-3.69-4.8-3.69h-0.19C281.375,399.002,279.226,400.652,279.226,402.692z"/>
	<path fill-rule="evenodd" clip-rule="evenodd" fill="#1C1F57" d="M292.445,411.872v107.13c0,2.04,2.15,3.69,4.8,3.69h0.19
		c2.65,0,4.8-1.65,4.8-3.69v-107.13c0-2.04-2.149-3.689-4.8-3.689h-0.19C294.596,408.183,292.445,409.832,292.445,411.872z"/>
	<path fill-rule="evenodd" clip-rule="evenodd" fill="#1C1F57" d="M306.385,390.652v148.36c0,2.04,2.16,3.689,4.811,3.689h0.19
		c2.65,0,4.8-1.649,4.8-3.689v-148.36c0-2.03-2.149-3.689-4.8-3.689h-0.19C308.545,386.963,306.385,388.622,306.385,390.652z"/>
	<path fill-rule="evenodd" clip-rule="evenodd" fill="#1C1F57" d="M319.695,436.563v57.17c0,2.04,2.15,3.69,4.8,3.69h0.19
		c2.649,0,4.81-1.65,4.81-3.69v-57.17c0-2.03-2.16-3.68-4.81-3.68h-0.19C321.846,432.883,319.695,434.532,319.695,436.563z"/>
	<path fill-rule="evenodd" clip-rule="evenodd" fill="#1C1F57" d="M333.476,414.813v99.97c0,2.03,2.15,3.681,4.8,3.681h0.19
		c2.65,0,4.8-1.65,4.8-3.681v-99.97c0-2.03-2.149-3.68-4.8-3.68h-0.19C335.626,411.133,333.476,412.782,333.476,414.813z"/>
	<path fill-rule="evenodd" clip-rule="evenodd" fill="#1C1F57" d="M346.985,440.982v47.98c0,2.029,2.15,3.689,4.801,3.689h0.189
		c2.65,0,4.8-1.66,4.8-3.689v-47.98c0-2.03-2.149-3.68-4.8-3.68h-0.189C349.136,437.303,346.985,438.952,346.985,440.982z"/>
	<path fill-rule="evenodd" clip-rule="evenodd" fill="#1C1F57" d="M360.346,395.362v140.28c0,2.04,2.149,3.689,4.8,3.689h0.189
		c2.65,0,4.801-1.649,4.801-3.689v-140.28c0-2.04-2.15-3.689-4.801-3.689h-0.189C362.495,391.673,360.346,393.322,360.346,395.362z"
		/>
	<path fill-rule="evenodd" clip-rule="evenodd" fill="#1C1F57" d="M374.025,411.542v106.86c0,2.03,2.149,3.69,4.8,3.69h0.19
		c2.649,0,4.8-1.66,4.8-3.69v-106.86c0-2.029-2.15-3.689-4.8-3.689h-0.19C376.175,407.853,374.025,409.513,374.025,411.542z"/>
	<path fill-rule="evenodd" clip-rule="evenodd" fill="#70CFF2" d="M387.536,436.303v58.67c0,2.04,2.149,3.689,4.799,3.689h0.19
		c2.649,0,4.8-1.649,4.8-3.689v-58.67c0-2.04-2.15-3.69-4.8-3.69h-0.19C389.686,432.612,387.536,434.263,387.536,436.303z"/>
	<path fill-rule="evenodd" clip-rule="evenodd" fill="#70CFF2" d="M400.835,430.992v69.061c0,2.04,2.16,3.689,4.811,3.689h0.18
		c2.65,0,4.811-1.649,4.811-3.689v-69.061c0-2.029-2.16-3.68-4.811-3.68h-0.18C402.995,427.313,400.835,428.963,400.835,430.992z"/>
	<path fill-rule="evenodd" clip-rule="evenodd" fill="#70CFF2" d="M414.466,441.603v47.18c0,2.04,2.15,3.69,4.799,3.69h0.191
		c2.65,0,4.799-1.65,4.799-3.69v-47.18c0-2.03-2.148-3.68-4.799-3.68h-0.191C416.616,437.923,414.466,439.572,414.466,441.603z"/>
	<path fill-rule="evenodd" clip-rule="evenodd" fill="#70CFF2" d="M428.216,418.393v91.83c0,2.04,2.15,3.689,4.811,3.689h0.18
		c2.66,0,4.809-1.649,4.809-3.689v-91.83c0-2.03-2.148-3.68-4.809-3.68h-0.18C430.366,414.713,428.216,416.362,428.216,418.393z"/>
	<path fill-rule="evenodd" clip-rule="evenodd" fill="#70CFF2" d="M441.325,444.702v40.33c0,2.03,2.16,3.681,4.811,3.681h0.18
		c2.66,0,4.811-1.65,4.811-3.681v-40.33c0-2.04-2.15-3.689-4.811-3.689h-0.18C443.485,441.013,441.325,442.662,441.325,444.702z"/>
	<path fill-rule="evenodd" clip-rule="evenodd" fill="#70CFF2" d="M454.636,425.463v79.239c0,2.03,2.15,3.681,4.799,3.681h0.191
		c2.65,0,4.799-1.65,4.799-3.681v-79.239c0-2.03-2.148-3.681-4.799-3.681h-0.191C456.786,421.782,454.636,423.433,454.636,425.463z"
		/>
	<path fill-rule="evenodd" clip-rule="evenodd" fill="#692EA1" d="M468.405,411.542v107.301c0,2.04,2.16,3.689,4.811,3.689h0.18
		c2.66,0,4.811-1.649,4.811-3.689V411.542c0-2.029-2.15-3.689-4.811-3.689h-0.18C470.565,407.853,468.405,409.513,468.405,411.542z"
		/>
	<path fill-rule="evenodd" clip-rule="evenodd" fill="#692EA1" d="M481.915,431.652v67.521c0,2.029,2.16,3.689,4.811,3.689h0.18
		c2.66,0,4.811-1.66,4.811-3.689v-67.521c0-2.03-2.15-3.68-4.811-3.68h-0.18C484.075,427.973,481.915,429.622,481.915,431.652z"/>
	<path fill-rule="evenodd" clip-rule="evenodd" fill="#692EA1" d="M495.286,436.522v58.229c0,2.03,2.148,3.69,4.799,3.69h0.191
		c2.648,0,4.799-1.66,4.799-3.69v-58.229c0-2.04-2.15-3.69-4.799-3.69h-0.191C497.435,432.832,495.286,434.482,495.286,436.522z"/>
	<path fill-rule="evenodd" clip-rule="evenodd" fill="#692EA1" d="M508.956,452.683v24.72c0,2.03,2.16,3.68,4.809,3.68h0.191
		c2.65,0,4.799-1.649,4.799-3.68v-24.72c0-2.04-2.148-3.69-4.799-3.69h-0.191C511.116,448.992,508.956,450.643,508.956,452.683z"/>
	<path fill-rule="evenodd" clip-rule="evenodd" fill="#F530A6" d="M522.476,448.122v33.841c0,2.029,2.15,3.68,4.801,3.68h0.189
		c2.65,0,4.799-1.65,4.799-3.68v-33.841c0-2.029-2.148-3.689-4.799-3.689h-0.189C524.626,444.433,522.476,446.093,522.476,448.122z"
		/>
	<path fill-rule="evenodd" clip-rule="evenodd" fill="#F530A6" d="M535.776,435.692v58.43c0,2.03,2.148,3.681,4.799,3.681h0.189
		c2.65,0,4.801-1.65,4.801-3.681v-58.43c0-2.03-2.15-3.68-4.801-3.68h-0.189C537.925,432.013,535.776,433.662,535.776,435.692z"/>
	<path fill-rule="evenodd" clip-rule="evenodd" fill="#F530A6" d="M549.405,452.652v24.64c0,2.03,2.15,3.69,4.801,3.69h0.189
		c2.65,0,4.801-1.66,4.801-3.69v-24.64c0-2.03-2.15-3.68-4.801-3.68h-0.189C551.556,448.973,549.405,450.622,549.405,452.652z"/>
	<path fill-rule="evenodd" clip-rule="evenodd" fill="#F530A6" d="M563.155,448.292v33.25c0,2.04,2.15,3.69,4.801,3.69h0.189
		c2.65,0,4.801-1.65,4.801-3.69v-33.25c0-2.04-2.15-3.689-4.801-3.689h-0.189C565.306,444.603,563.155,446.252,563.155,448.292z"/>
	<path fill-rule="evenodd" clip-rule="evenodd" fill="#F530A6" d="M576.386,456.803v15.85c0,2.03,2.15,3.68,4.799,3.68h0.191
		c2.65,0,4.799-1.649,4.799-3.68v-15.85c0-2.03-2.148-3.69-4.799-3.69h-0.191C578.536,453.112,576.386,454.772,576.386,456.803z"/>
</g>
</svg>
