<?xml version="1.0" encoding="utf-8"?>
<!-- Generator: Adobe Illustrator 16.0.0, SVG Export Plug-In . SVG Version: 6.00 Build 0)  -->
<!DOCTYPE svg PUBLIC "-//W3C//DTD SVG 1.1//EN" "http://www.w3.org/Graphics/SVG/1.1/DTD/svg11.dtd">
<svg version="1.1" id="Layer_1" xmlns="http://www.w3.org/2000/svg" xmlns:xlink="http://www.w3.org/1999/xlink" x="0px" y="0px"
	 width="1173.658px" height="1465.727px" viewBox="0 0 1173.658 1465.727" enable-background="new 0 0 1173.658 1465.727"
	 xml:space="preserve">
<g>
	<path fill-rule="evenodd" clip-rule="evenodd" d="M335.552,669.415c154.411-154.134,405.063-154.134,559.476,0
		c154.4,154.159,154.4,404.383,0,558.53c-154.412,154.157-405.065,154.157-559.476,0
		C181.146,1073.798,181.146,823.574,335.552,669.415L335.552,669.415z"/>
</g>
<g id="Negativo_3">
	<g>
		<g>
			<rect x="490.214" y="654.661" fill="#FFFFFF" width="250.147" height="305.282"/>
			<rect x="501.502" y="665.911" width="227.569" height="282.777"/>
			<polygon fill="#FFFFFF" points="648.974,869.918 648.974,677.167 581.456,677.167 581.456,869.918 512.756,869.918 
				512.756,937.435 717.82,937.435 717.82,869.918 			"/>
		</g>
		<g>
			<path fill="#FFFFFF" d="M383.859,1050.641c-2.964-5.617-8.566-8.655-14.311-8.655c-12.779,0-18.795,12.919-18.795,25.698
				c0,14.774,9.22,24.347,18.888,24.347c5.507,0,11.161-3.103,15.337-10.117l13.228,7.847c-5.652,11.773-17.252,17.958-29,17.958
				c-17.01,0-34.323-12.967-34.323-40.713c0-27.111,17.752-40.637,35.08-40.637c11.402,0,22.615,5.855,28.468,17.548
				L383.859,1050.641z"/>
			<path fill="#FFFFFF" d="M407.845,1106.231v-78.457h15.577v78.457H407.845z"/>
			<path fill="#FFFFFF" d="M487.006,1106.231c-28.923-43.089-32.528-48.279-34.22-51.67c0,0,0.225,4.473,0.225,51.67h-15.58v-78.457
				h15.133c27.989,42.043,31.39,46.968,33.063,50.324c0,0-0.222-4.962-0.222-50.324h15.579v78.457H487.006z"/>
			<path fill="#FFFFFF" d="M513.758,1106.231v-78.457h54.359v15.357h-38.781v13.448h22.527v15.358h-22.527v18.939H569.8v15.354
				H513.758z"/>
			<path fill="#FFFFFF" d="M602.32,1027.407c20.914,0,38.09,2.926,38.09,25.253c0,29.333-28.165,25.775-45.615,25.775v27.798h-15.58
				v-78.457C586.985,1027.774,594.888,1027.407,602.32,1027.407z M624.27,1052.995c0-12.892-14.518-9.863-29.476-9.863v19.949
				C613.55,1063.081,624.27,1065.344,624.27,1052.995z"/>
			<path fill="#FFFFFF" d="M649.154,1106.231v-78.457h15.576v78.457H649.154z"/>
			<path fill="#FFFFFF" d="M730.968,1106.231l-6.162-17.484h-28.695l-6.16,17.484h-16.813l30.037-78.457h15.242l29.814,78.457
				H730.968z M710.458,1047.387c-1.211,4.843-3.754,11.734-8.965,26.454h17.936C714.865,1060.976,711.704,1052.401,710.458,1047.387
				z"/>
			<path fill="#FFFFFF" d="M804.978,1106.231c-28.301-42.162-32.434-48.09-34.219-51.67c0,0,0.223,4.572,0.223,51.67h-15.578
				v-78.457h15.131c27.211,40.873,31.33,46.836,33.064,50.324c0,0-0.223-4.962-0.223-50.324h15.576v78.457H804.978z"/>
			<path fill="#FFFFFF" d="M895.818,1067.083c0,19.584-9.613,40.382-34.162,40.382c-22.836,0-34.385-20.383-34.385-40.689
				c0-20.152,11.377-40.23,34.385-40.23C884.351,1026.543,895.818,1044.768,895.818,1067.083z M879.818,1066.215
				c0-15.863-9.301-24.395-18.461-24.395c-8.881,0-17.633,8.028-17.633,25.186c0,19.46,9.713,24.943,17.9,24.943
				C874.964,1091.948,879.818,1079.557,879.818,1066.215z"/>
		</g>
		<g>
			<path fill="#FFFFFF" d="M367.906,1140.915h-11.654v46.623h-10.047v-46.623h-11.654v-9.646h33.357v9.646H367.906z"/>
			<path fill="#FFFFFF" d="M392.243,1130.243c9.011,0,18.269,7.959,18.269,29.081c0,14.16-4.533,29.096-18.729,29.096
				c-13.727,0-18.711-14.427-18.711-28.343C373.071,1145.552,377.787,1130.243,392.243,1130.243z M400.221,1159.485
				c0-12.702-2.813-19.052-8.44-19.052c-5.574,0-8.36,6.297-8.36,18.891c0,12.698,2.84,19.051,8.521,19.051
				C397.462,1178.375,400.221,1172.077,400.221,1159.485z"/>
			<path fill="#FFFFFF" d="M452.226,1187.538h-9.645c-10.438-25.247-12.559-30.059-14.63-36.497
				c0.207,8.895,0.161,11.335,0.161,36.497h-9.164v-56.269h10.128c11.149,27.833,12.715,31.553,14.307,36.414
				c-0.404-17.329-0.321-8.289-0.321-36.414h9.164V1187.538z"/>
			<path fill="#FFFFFF" d="M497.88,1131.269l-14.55,35.049v21.22h-10.045v-21.062l-14.471-35.207h11.093
				c4.479,11.778,7.657,19.712,8.52,24.519c1.375-6.237,4.846-14.853,8.522-24.519H497.88L497.88,1131.269z"/>
			<path fill="#FFFFFF" d="M556.237,1170.093c0,19.734-16.163,17.445-33.278,17.445v-56.269h15.191
				c11.58,0,16.844,7.479,16.844,14.568c0,4.844-2.458,9.508-7.037,11.476C553.476,1159.456,556.237,1163.718,556.237,1170.093z
				 M544.902,1146.704c0-7.11-6.008-6.188-12.137-6.188v12.295C539.157,1152.811,544.902,1153.742,544.902,1146.704z
				 M546.267,1170.335c0-9.479-7.214-8.522-13.502-8.522v16.479C538.987,1178.293,546.267,1179.358,546.267,1170.335z"/>
			<path fill="#FFFFFF" d="M593.773,1187.538h-29.579v-56.269h28.854v9.646h-18.809v11.896h12.621v9.486h-12.621v15.593h19.534
				V1187.538z"/>
			<path fill="#FFFFFF" d="M635.486,1187.538h-10.93l-8.764-21.386h-3.295v21.386h-10.049v-56.269h14.955
				c12.412,0,18.122,8.303,18.122,16.771c0,6.51-3.379,13.113-9.686,16.107L635.486,1187.538z M625.279,1148.953
				c0-8.75-7.297-7.876-12.781-7.876v15.672C618.285,1156.751,625.279,1157.777,625.279,1148.953z"/>
			<path fill="#FFFFFF" d="M675.841,1174.033c-2.732,9.59-8.121,14.387-16.154,14.387c-13.236,0-18.303-14.475-18.303-28.494
				c0-35.933,28.553-37.218,34.377-15.314l-9.406,3.056c-1.822-6.511-3.895-7.233-6.668-7.233c-5.307,0-7.963,6.297-7.963,18.891
				c0,15.186,4.379,19.174,8.086,19.174c4.275,0,5.988-4.083,7.348-8.161L675.841,1174.033z"/>
			<path fill="#FFFFFF" d="M716.593,1187.538h-10.051v-24.274h-12.859v24.274h-10.047v-56.269h10.047v22.187h12.859v-22.187h10.051
				V1187.538z"/>
			<path fill="#FFFFFF" d="M768.034,1187.538h-9.164c0-5.201-0.002-9.425-0.002-13.014c0-9.675,0.02-14.778,0.162-22.194
				c-3.201,11.388-5.148,17.087-11.494,36.654c-6.393-19.7-8.309-25.317-11.496-36.654c0,18.424,0,17.175,0,35.208h-9.002v-56.269
				h10.125c8.139,25.389,8.283,25.516,10.451,33.52c0.629-3.146,4.232-14.121,10.447-33.52h9.969v56.269H768.034z"/>
			<path fill="#FFFFFF" d="M814.095,1187.538h-10.369l-2.65-11.737h-12.621l-2.652,11.737h-10.289l14.389-56.269h9.807
				L814.095,1187.538z M798.902,1166.396c-1.496-6.55-3.221-13.704-4.176-20.337c-0.83,6.078-2.428,12.84-4.1,20.337H798.902z"/>
			<path fill="#FFFFFF" d="M854.847,1187.538h-9.648c-10.559-25.541-12.582-30.128-14.629-36.497
				c0.143,6.108,0.164,8.879,0.164,19.195c0,4.24-0.004,9.755-0.004,17.3h-9.164v-56.269h10.127
				c11.17,27.877,12.729,31.582,14.311,36.414c-0.203-8.757-0.311-13.139-0.32-13.139c0,0-0.002,0.011-0.002,0.036v-23.31h9.166
				V1187.538z"/>
			<path fill="#FFFFFF" d="M895.757,1172.345c0,10.104-7.641,16.149-16.396,16.149c-5.928,0-12.359-2.767-17.283-8.916l6.832-7.313
				c3.605,4.653,7.533,6.461,10.674,6.461c3.506,0,6.023-2.25,6.023-5.321c0-2.995-2.406-6.771-8.658-9.985
				c-8.387-4.387-13.422-8.577-13.422-17.925c0-15.56,20.242-21.175,31.105-7.073l-6.668,6.675c-2.611-2.938-4.719-5.004-8.59-5.004
				c-2.838,0-5.641,1.338-5.641,4.921C873.734,1155.346,895.757,1153.301,895.757,1172.345z"/>
		</g>
	</g>
</g>
</svg>
