<?xml version="1.0" encoding="utf-8"?>
<!-- Generator: Adobe Illustrator 16.0.0, SVG Export Plug-In . SVG Version: 6.00 Build 0)  -->
<!DOCTYPE svg PUBLIC "-//W3C//DTD SVG 1.1//EN" "http://www.w3.org/Graphics/SVG/1.1/DTD/svg11.dtd">
<svg version="1.1" id="Capa_1" xmlns="http://www.w3.org/2000/svg" xmlns:xlink="http://www.w3.org/1999/xlink" x="0px" y="0px"
	 width="500px" height="500px" viewBox="0 0 500 500" enable-background="new 0 0 500 500" xml:space="preserve">
<g id="XMLID_1419_">
	<path id="XMLID_1421_" fill="#3E5C9A" d="M273.875,208.508L273.875,208.508c-35.455,0-64.197-28.742-64.197-64.197l0,0
		c0-35.455,28.742-64.197,64.197-64.197l0,0c35.454,0,64.196,28.742,64.196,64.197l0,0
		C338.071,179.766,309.329,208.508,273.875,208.508z"/>
	<path id="XMLID_1420_" fill="#FFFFFF" d="M264.094,183.115h15.627v-39.133h10.902l1.162-13.103h-12.064c0,0,0-4.892,0-7.462
		c0-3.089,0.62-4.31,3.607-4.31c2.404,0,8.457,0,8.457,0v-13.598c0,0-8.917,0-10.82,0c-11.628,0-16.871,5.122-16.871,14.924
		c0,8.539,0,10.446,0,10.446h-8.13v13.267h8.13V183.115z"/>
</g>
</svg>
