<?xml version="1.0" encoding="utf-8"?>
<!-- Generator: Adobe Illustrator 16.0.0, SVG Export Plug-In . SVG Version: 6.00 Build 0)  -->
<!DOCTYPE svg PUBLIC "-//W3C//DTD SVG 1.1//EN" "http://www.w3.org/Graphics/SVG/1.1/DTD/svg11.dtd">
<svg version="1.1" id="Layer_1" xmlns="http://www.w3.org/2000/svg" xmlns:xlink="http://www.w3.org/1999/xlink" x="0px" y="0px"
	 width="595px" height="841px" viewBox="0 0 595 841" enable-background="new 0 0 595 841" xml:space="preserve">
<g>
	<polygon fill="#FCC94F" points="366.64,379.79 348.75,364.46 349.16,387.42 331.75,396.5 351.88,403.95 358.81,425.63 
		367.57,401.32 394.25,406.29 379.89,389 384.36,372.65 	"/>
	<path fill="#1FC7A1" d="M472.15,154.71c14.119-52.66,1.609-101.99,1.609-101.99S398.36,79.87,368.62,137.2
		c-8.07,15.68-9.33,33.19-4.51,47.85c2.899,9.32,21.27,30.07,39.939,33.16c3.23,0.56,6.84,0.65,10.09,0
		C418.01,217.59,459.99,200.81,472.15,154.71"/>
	<path fill="#70CFF2" d="M282.82,412.39c9.87-10.57,7.19-28.91,4.46-45.44c-2.73-16.53-9.95-56.48,51.72-86.96
		c-44.81-35.94-7.15-77.69,29.84-96.87c28.11-14.71,48.66-19.63,63.771-23.47c-15.341,8.4-24.091,27.66-26.771,44.06
		c-2.82,17.36-2.38,29.03-12.63,40.68c-5.81,6.59,0.78,12.4,6.8,6.89c9.71-9.021,12.561-22.53,15.62-40
		c1.98-12.21,10.521-42.65,31.67-52.6c21.021-9.59,38.45,0.32,48.54,0.33c-19.01,6.271-24.109,18.16-31.39,36.14
		c-7.41,18.33-9.61,25.01-23.03,33.09c-7.56,4.75-3.07,13.03,4.11,9.35c10.7-5.63,18.22-13.02,27.54-36.11
		c8.689-21.3,21.43-36.5,36.229-37.22c14.8-0.729,25.29,12.74,35.931,15.16c-21.99,5-31.99,20.98-35.07,39.05
		c-1.391,7.78,6.979,9.79,9.29,3.35c5.51-14.16,19.14-36.31,36.79-35.41c15,0.96,16.59,24.55,33.45,28.21
		c-11.54,5.13-5.2,36.29-23.561,45.22c-18.36,8.93-41-19.01-61.41-20.11c-6.47-0.51-7.029,7.77-1.18,9.48
		c26.62,7.36,41.729,33.8,68.87,19.55c-14.58,21.4-41.07,33.87-64.84,22.48c-26.37-12.53-35.12-28.6-57-33.46
		c-6.931-1.48-8.811,6.52-2.601,8.36c33.17,9.93,56.5,49.42,87.48,40.19c-14.15,14.08-35.04,32.81-62.561,22.9
		c-30.25-11.31-53.649-47.8-88.81-55.01c-5.26-1.09-7.73,6.3-2,8.36c55.42,19.36,69.74,68.13,111.46,57.71
		c-17.82,11.36-47.39,31.8-73.73,12.42c-26.09-19.5-24-41.56-50.93-55.91c-4.75-2.51-9.68,2.78-5.09,6.85
		c38.38,33.01,30.479,51.57,54.78,60.92c-23.2-0.07-58.29-0.19-76.67-20.34c-22.58-25.3-6.42-52.79-6.42-52.79
		c-34.7,18.39-44.221,44.84-39.181,75.13c4.79,30.4,3.36,45.03-4.14,52.41C284.53,426.14,277.77,417.44,282.82,412.39
		 M471.49,227.16c1.06,0.99,3.109,0.92,4.09-0.14c2.35-2.59,4.09-5.19,5.729-8.04c1.74-2.6,3.37-5.44,4.761-8.18
		c1.39-2.73,2.77-5.46,4.39-7.7c1.5-2.49,3.23-4.49,5.32-6.36c1.359-1.53,1.42-3.94,0.13-5.41c-1.29-1.47-3.69-1.53-5.17-0.24
		c-0.23,0.12-0.23,0.12-0.23,0.12l0,0c-2.46,2.34-4.45,5.05-6.33,8.02c-1.63,2.84-2.899,5.81-4.29,8.55
		c-1.27,2.97-2.42,5.58-3.92,8.07c-1.39,2.73-3,4.98-4.62,7.22l0,0C470.12,224.24,470.44,226.17,471.49,227.16 M414.57,270.86
		L414.57,270.86c3.21,1.16,6.41,2.92,9.38,4.79c2.95,1.88,5.78,4.11,8.729,6.59c2.83,2.22,5.78,4.7,8.96,7.06
		c3.44,2.24,6.99,4.13,10.681,5.66l0,0c2.029,0.53,4.34-0.26,4.859-2.29c0.891-1.9-0.14-4.08-2.279-4.86l0,0
		c-3.221-1.16-6.311-2.67-9.271-4.55c-2.96-1.87-5.79-4.1-8.86-6.22c-2.939-2.47-6.13-4.83-9.449-6.84
		c-3.561-1.88-7.011-3.53-10.58-4.81c-1.79-0.65-3.25,0.04-3.891,1.82C412.33,268.65,413.02,270.1,414.57,270.86 M359.57,263.77
		c1.189,0.63,2.76,0.19,3.51-0.75c2.62-3.91,3.689-8.57,4.03-12.88c0.34-4.32,0.199-8.41-0.181-12.39
		c-0.149-4.09-0.279-8.18-0.08-11.53c0.44-3.48,1.71-6.45,3.44-8.46c1.979-2.11,1.69-5.24-0.31-6.979c-2-1.73-5-1.8-6.74,0.2
		c-0.12,0.36-0.37,0.48-0.37,0.48c-0.13,0.35-0.13,0.35-0.13,0.35c-1.48,1.89-2.63,4.51-3.29,6.89c-0.66,2.39-1.07,4.66-0.88,6.95
		c-0.23,4.57,0.51,8.67,1.01,12.89c0.63,3.85,1.26,7.72,1.17,11.32c0.03,3.85-0.42,7.32-2.18,10.52l0,0
		C357.95,261.57,358.39,263.14,359.57,263.77"/>
	<path fill="#F230A6" d="M59.69,365.94c1.14,2.43,4,3.46,6.43,2.32c2.19-1.03,3.22-3.89,2.08-6.32c-1.15-2.43-4-3.47-6.19-2.44
		C59.58,360.64,58.55,363.51,59.69,365.94"/>
	<path fill="none" stroke="#1C1F57" stroke-width="3.22" stroke-linecap="round" stroke-miterlimit="10" d="M282.82,412.39
		c9.87-10.57,7.19-28.91,4.46-45.44c-2.73-16.53-9.95-56.48,51.72-86.96c-44.81-35.94-7.15-77.69,29.84-96.87
		c28.11-14.71,48.66-19.63,63.771-23.47c-15.341,8.4-24.091,27.66-26.771,44.06c-2.82,17.36-2.38,29.03-12.63,40.68
		c-5.81,6.59,0.78,12.4,6.8,6.89c9.71-9.021,12.561-22.53,15.62-40c1.98-12.21,10.521-42.65,31.67-52.6
		c21.021-9.59,38.45,0.32,48.54,0.33c-19.01,6.271-24.109,18.16-31.39,36.14c-7.41,18.33-9.61,25.01-23.03,33.09
		c-7.56,4.75-3.07,13.03,4.11,9.35c10.7-5.63,18.22-13.02,27.54-36.11c8.689-21.3,21.43-36.5,36.229-37.22
		c14.8-0.729,25.29,12.74,35.931,15.16c-21.99,5-31.99,20.98-35.07,39.05c-1.391,7.78,6.979,9.79,9.29,3.35
		c5.51-14.16,19.14-36.31,36.79-35.41c15,0.96,16.59,24.55,33.45,28.21c-11.54,5.13-5.2,36.29-23.561,45.22
		c-18.36,8.93-41-19.01-61.41-20.11c-6.47-0.51-7.029,7.77-1.18,9.48c26.37,7.47,41.729,33.8,68.87,19.55
		c-14.58,21.4-41.07,33.87-64.84,22.48c-26.37-12.53-35.12-28.6-57-33.46c-6.931-1.48-8.811,6.52-2.601,8.36
		c33.17,9.93,56.5,49.42,87.48,40.19c-14.15,14.08-35.04,32.81-62.561,22.9c-30.25-11.31-53.649-47.8-88.81-55.01
		c-5.26-1.09-7.73,6.3-2,8.36c55.42,19.36,69.74,68.13,111.46,57.71c-17.82,11.36-47.39,31.8-73.73,12.42
		c-26.09-19.5-24-41.56-50.93-55.91c-4.75-2.51-9.68,2.78-5.09,6.85c38.38,33.01,30.479,51.57,54.78,60.92
		c-23.2-0.07-58.29-0.19-76.67-20.34c-22.58-25.3-6.42-52.79-6.42-52.79c-34.7,18.39-44.221,44.84-39.181,75.13
		c4.79,30.4,3.36,45.03-4.14,52.41C284.53,426.14,277.77,417.44,282.82,412.39z"/>
	
		<path fill="none" stroke="#1C1F57" stroke-width="3.22" stroke-linecap="round" stroke-linejoin="round" stroke-miterlimit="10" d="
		M404.05,218.21c3.12,0.32,6.72,0.41,10.09,0"/>
	<path fill="none" stroke="#1C1F57" stroke-width="3.22" stroke-linecap="round" stroke-miterlimit="10" d="M472.15,154.71
		c14.119-52.66,1.609-101.99,1.609-101.99S398.36,79.87,368.62,137.2c-8.07,15.68-9.33,33.19-4.51,47.85"/>
	
		<line fill="none" stroke="#1C1F57" stroke-width="1.07" stroke-linecap="round" stroke-linejoin="round" stroke-miterlimit="10" x1="473.76" y1="52.72" x2="411.21" y2="165.27"/>
	
		<line fill="none" stroke="#1C1F57" stroke-width="1.07" stroke-linecap="round" stroke-linejoin="round" stroke-miterlimit="10" x1="409.52" y1="90.36" x2="428.05" y2="134.79"/>
	
		<line fill="none" stroke="#1C1F57" stroke-width="1.07" stroke-linecap="round" stroke-linejoin="round" stroke-miterlimit="10" x1="392.33" y1="105.57" x2="415.23" y2="158.03"/>
	<path fill="none" stroke="#1C1F57" stroke-width="3.22" stroke-miterlimit="10" d="M490.51,191.21c-2.46,2.34-4.45,5.05-6.33,8.02
		c-1.63,2.84-2.899,5.81-4.29,8.55c-1.27,2.97-2.42,5.58-3.92,8.07c-1.39,2.73-3,4.98-4.62,7.22l0,0
		c-1.229,1.17-0.909,3.1,0.141,4.09c1.06,0.99,3.109,0.92,4.09-0.14c2.35-2.59,4.09-5.19,5.729-8.04c1.74-2.6,3.37-5.44,4.761-8.18
		c1.39-2.73,2.77-5.46,4.39-7.7c1.5-2.49,3.23-4.49,5.32-6.36c1.359-1.53,1.42-3.94,0.13-5.41c-1.29-1.47-3.69-1.53-5.17-0.24
		C490.51,191.21,490.51,191.21,490.51,191.21z"/>
	<path fill="none" stroke="#1C1F57" stroke-width="3.22" stroke-miterlimit="10" d="M362.74,211.81c-1.48,1.89-2.63,4.51-3.29,6.89
		c-0.66,2.39-1.07,4.66-0.88,6.95c-0.23,4.57,0.51,8.67,1.01,12.89c0.63,3.85,1.26,7.72,1.17,11.32c0.03,3.85-0.42,7.32-2.18,10.52
		l0,0c-0.62,1.19-0.181,2.76,1,3.39c1.189,0.63,2.76,0.19,3.51-0.75c2.62-3.91,3.689-8.57,4.03-12.88
		c0.34-4.32,0.199-8.41-0.181-12.39c-0.149-4.09-0.279-8.18-0.08-11.53c0.44-3.48,1.71-6.45,3.44-8.46
		c1.979-2.11,1.69-5.24-0.31-6.979c-2-1.73-5-1.8-6.74,0.2C363.12,211.34,362.87,211.46,362.74,211.81z"/>
	
		<path fill="none" stroke="#1C1F57" stroke-width="3.22" stroke-linecap="round" stroke-linejoin="round" stroke-miterlimit="10" d="
		M414.57,270.86c3.21,1.16,6.41,2.92,9.38,4.79c2.95,1.88,5.78,4.11,8.729,6.59c2.83,2.22,5.78,4.7,8.96,7.06
		c3.44,2.24,6.99,4.13,10.681,5.66l0,0c2.029,0.53,4.34-0.26,4.859-2.29c0.891-1.9-0.14-4.08-2.279-4.86l0,0
		c-3.221-1.16-6.311-2.67-9.271-4.55c-2.96-1.87-5.79-4.1-8.86-6.22c-2.939-2.47-6.13-4.83-9.449-6.84
		c-3.561-1.88-7.011-3.53-10.58-4.81c-1.79-0.65-3.25,0.04-3.891,1.82C412.33,268.65,413.02,270.1,414.57,270.86z"/>
	
		<path fill="none" stroke="#1C1F57" stroke-width="1.07" stroke-linecap="round" stroke-linejoin="round" stroke-miterlimit="10" d="
		M331.79,284.86c12.64-5.95,54.64-28.37,97.67-23.98c11.48-17.27,34.67-22.24,52.05-15.57c10.62-21.62,27-13.29,41.891-12.57
		c23.27,1.51,25.58-19.46,64.72-17.68"/>
	
		<path fill="none" stroke="#1C1F57" stroke-width="1.07" stroke-linecap="round" stroke-linejoin="round" stroke-miterlimit="10" d="
		M350.59,282.55c0,0-9.47,3.85-23.01,12.3"/>
	
		<path fill="none" stroke="#1C1F57" stroke-width="1.07" stroke-linecap="round" stroke-linejoin="round" stroke-miterlimit="10" d="
		M283.04,413.48c4.09-5.19,11.88,0.64,7.56,5.35"/>
	<polygon fill="none" stroke="#1C1F57" stroke-width="3.22" stroke-linecap="round" stroke-miterlimit="10" points="366.64,379.79 
		348.75,364.46 349.16,387.42 331.75,396.5 351.88,403.95 358.81,425.63 367.57,401.32 394.25,406.29 379.89,389 384.36,372.65 	"/>
	<path fill="none" stroke="#1C1F57" stroke-width="3.22" stroke-linecap="round" stroke-miterlimit="10" d="M340.46,344.31
		c-10.97,11.39-25.87,21.38-42.53,29.5"/>
	<path fill="none" stroke="#1C1F57" stroke-width="1.07" stroke-linecap="round" stroke-miterlimit="10" d="M311.09,310.92
		c4.391,27.63,7.92,50.9,7.92,50.9"/>
	<path fill="none" stroke="#1FC7A1" stroke-width="4.29" stroke-linecap="round" stroke-miterlimit="10" d="M335.17,369.06
		c-13.21,9.78-15.03,30.53-20.34,56.48c-9.67,47.6-42.05,74.7-76.17,89.26c-54.62,22.73-133.1,2.94-165.59-65.5"/>
	<path fill="none" stroke="#1FC7A1" stroke-width="3.22" stroke-linecap="round" stroke-miterlimit="10" d="M314.83,425.54
		c-4.85,21.87-44.56,44.12-90.41,26.79"/>
	<path fill="none" stroke="#1FC7A1" stroke-width="3.22" stroke-linecap="round" stroke-miterlimit="10" d="M301.65,444.21
		c-12.831,8.7-30.45,6.6-38.24-9.33"/>
	<path fill="none" stroke="#1FC7A1" stroke-width="3.22" stroke-linecap="round" stroke-miterlimit="10" d="M239.24,440.91
		c10.97,8.189,34.02,19.33,54.59,8.76"/>
	<path fill="none" stroke="#1FC7A1" stroke-width="3.22" stroke-linecap="round" stroke-miterlimit="10" d="M257.32,458.53
		c0,0-17.51,13.279-33.11,12.31"/>
	<path fill="none" stroke="#1FC7A1" stroke-width="3.22" stroke-linecap="round" stroke-miterlimit="10" d="M318.94,404.61
		c-3.08,23.121,20.079,44.581,20.739,62.38"/>
	<path fill="none" stroke="#1FC7A1" stroke-width="3.22" stroke-linecap="round" stroke-miterlimit="10" d="M321.94,424.87
		c3.5,14.38,11.069,54.46-12.23,78.78"/>
	<path fill="none" stroke="#1FC7A1" stroke-width="3.22" stroke-linecap="round" stroke-miterlimit="10" d="M325.11,442.97
		c0.83,15.641-3.41,26.84-19.17,37.521"/>
	<path fill="none" stroke="#1FC7A1" stroke-width="3.22" stroke-linecap="round" stroke-miterlimit="10" d="M302.1,460.32
		c-6.01,9.96-23.47,26.479-50.919,28.71"/>
	<path fill="none" stroke="#1FC7A1" stroke-width="3.22" stroke-linecap="round" stroke-miterlimit="10" d="M291.5,476.3
		c-13.8,14.2-58.36,43.181-90.44,17.891"/>
	<path fill="none" stroke="#1FC7A1" stroke-width="3.22" stroke-linecap="round" stroke-miterlimit="10" d="M241.58,513.43
		c-30.23,12.74-84.92-1.92-106.11-65.279"/>
	<path fill="none" stroke="#1FC7A1" stroke-width="3.22" stroke-linecap="round" stroke-miterlimit="10" d="M187.69,510.58
		c-16.3-6.89-23.59-28.69-26.23-48.83"/>
	<path fill="none" stroke="#1FC7A1" stroke-width="3.22" stroke-linecap="round" stroke-miterlimit="10" d="M167.33,497.59
		c-8.33-8.25-25.62-9.03-35.59-19.479"/>
	<path fill="none" stroke="#1FC7A1" stroke-width="3.22" stroke-linecap="round" stroke-miterlimit="10" d="M110.05,495.74
		c-8.48-7.3-17.07-19.88-16.4-42.46"/>
	<path fill="none" stroke="#1FC7A1" stroke-width="3.22" stroke-linecap="round" stroke-miterlimit="10" d="M125.67,506.2
		c-9.71-6.12-27.56-13.75-44.59-15.25"/>
	<path fill="none" stroke="#1FC7A1" stroke-width="3.22" stroke-linecap="round" stroke-miterlimit="10" d="M168.91,521.78
		c-13.62-3.09-44.21,14.56-44.21,14.56"/>
	<path fill="none" stroke="#1FC7A1" stroke-width="3.22" stroke-linecap="round" stroke-miterlimit="10" d="M162.93,520.44
		c-16.52-2.32-39.71,2.649-39.71,2.649"/>
	<path fill="none" stroke="#1FC7A1" stroke-width="3.22" stroke-linecap="round" stroke-miterlimit="10" d="M221.95,520.29
		c-16.78,2.84-22.94,19.4-41.49,26.04"/>
	<path fill="none" stroke="#1FC7A1" stroke-width="3.22" stroke-linecap="round" stroke-miterlimit="10" d="M272.18,495.18
		c-16.4,12.46-21.02,29.771-17.8,45.48"/>
	<path fill="none" stroke="#1FC7A1" stroke-width="3.22" stroke-linecap="round" stroke-miterlimit="10" d="M268.51,498.09
		c-20.32,15.5-30.19,41.22-37.55,62.19"/>
	<path fill="none" stroke="#1FC7A1" stroke-width="3.22" stroke-linecap="round" stroke-miterlimit="10" d="M245.24,526.26
		c-7.12,11.36-14.2,15.88-24.2,21.771"/>
	<path fill="#1FC7A1" d="M57.22,398.57c8.97-3.03,16.23,4.83,18.94,16.91c2.5,11-1.93,35.65,8.05,50.55
		C82,467.66,82,467.66,82,467.66c-6.27-8.92-26.51-31.76-32.1-44.271C44.44,410.52,49.59,401.27,57.22,398.57"/>
	<path fill="#1FC7A1" d="M99.77,423.38c-5.85-1.7-11.82,2-13.3,8.33c-1.87,8.01,5.21,23.08,6.55,32.85c2.52-0.3,2.52-0.3,2.52-0.3
		c1.11-10.91,8.6-17.7,10.52-27.51C107.16,430.89,105.26,424.96,99.77,423.38"/>
	<path fill="#1FC7A1" d="M35.66,485.9c-0.07,8.05,4.94,14.3,16.11,14.68c13.8,0.939,30.2-11.53,47.1-4.63
		c-1.49-3.16-1.49-3.16-1.49-3.16c-14.44-4.2-27.96-16.54-43.18-18.59C45.34,473.03,35.73,477.85,35.66,485.9"/>
	<path fill="#1FC7A1" d="M133.04,429.11c5.91-0.7,8.38,6.449,7.75,12.68c-0.63,6.24-1.08,14.76,2.94,22.67
		c-2.07,1.271-2.07,1.271-2.07,1.271c-3.81-6.82-13.2-16.061-15.33-22.48C123.96,436.94,125.45,430.01,133.04,429.11"/>
	<path fill="#1FC7A1" d="M120.72,466.67c3.94-3.63,9.17-1.35,12.2,2.57c2.91,3.68,6.52,13.859,15.33,17.439
		c-0.78,2.141-0.78,2.141-0.78,2.141c-7.4-1.86-19.83-4.92-25.11-10.46C118.13,474.42,117.89,469.48,120.72,466.67"/>
	<path fill="#1FC7A1" d="M161.09,436.99c6.51-0.681,10.3,6.74,10.75,12.76c1.29,11.56-9.32,23.08-2.56,36.83
		c-3.02,0.53-3.02,0.53-3.02,0.53c-2.74-10.88-10.72-24.051-13.15-33.011C150.68,445.15,152.77,438.23,161.09,436.99"/>
	<path fill="#1FC7A1" d="M85.44,519.78c-0.74,5.989,5.75,10.95,15.63,9.87c9.87-1.091,24.05-5.681,33.82-7
		c-0.42-2.78-0.42-2.78-0.42-2.78c-12.41,1.39-20.65-6.021-31.8-7.01C93.2,511.67,86.28,514.63,85.44,519.78"/>
	<path fill="#1FC7A1" d="M99.49,550.28c2.77,4.64,8.3,4.41,14.64,0.83c9.01-4.83,15.29-16.091,26.71-21.471
		c-1.38-2.31-1.38-2.31-1.38-2.31c-10.21,4.8-24.64,5.05-33.03,9.3C98.15,541.11,96.94,546.13,99.49,550.28"/>
	<path fill="#1FC7A1" d="M146.87,553.82c1.41,6.17,6.29,8.319,14.26,6.949c7.85-1.609,25.74-10.92,36.49-23.399
		c-1.87-2.09-1.87-2.09-1.87-2.09c-9.3,6.76-25.97,5.39-35.51,7.2C150.59,544.06,145.8,548.39,146.87,553.82"/>
	<path fill="#1FC7A1" d="M182.35,477.76c-4.76,3.13-3.48,9.65,0.59,15.15c4.44,5.64,14.39,11.649,35.55,11.189
		c0.41-2.27,0.41-2.27,0.41-2.27c-11.45-3.521-15.19-12.74-21.04-19.49C192.48,475.96,186.98,474.99,182.35,477.76"/>
	<path fill="#1FC7A1" d="M231.42,486.15c-1.8,5,2.77,9.68,8.16,10.409c7.19,0.771,14.56-5.659,27.39-9.319
		c-1.64-2.2-1.64-2.2-1.64-2.2c-7.37,1.979-13.41-2-19.61-3.84C237.84,478.97,232.7,482.58,231.42,486.15"/>
	<path fill="#1FC7A1" d="M204.46,467.96c-0.58,3.83,2.34,7.5,6.4,8.56c4.66,1.07,12.85,0.19,24.41-5.539
		c-0.78-2.9-0.78-2.9-0.78-2.9c-5.43,1.07-13.09-5.12-19.55-6.24C209.55,461.11,204.91,463.88,204.46,467.96"/>
	<path fill="#1FC7A1" d="M198.73,436.21c-3.48,4.61-0.59,9.48,2.48,11.6c3.19,2.36,16.27,8.08,29.73,8.28
		c1.03-2.859,1.03-2.859,1.03-2.859c-5.56-3.62-15.66-13.711-20.26-17.19C206.86,432.68,201.59,432.19,198.73,436.21"/>
	<path fill="#1FC7A1" d="M223.8,428.28c-3.44,2.8-1.15,7.66,2.25,11.109c4.82,4.57,16.28,7.48,24.99,10.221
		c1.03-2.86,1.03-2.86,1.03-2.86c-6.14-4.24-11.33-13.37-16.29-16.98C231.17,426.3,227.11,425.23,223.8,428.28"/>
	<path fill="#1FC7A1" d="M252.88,408.07c4.47-1.21,8.47,2.85,10.02,8.05c1.81,5.09,1.33,19.86,7.79,26.02
		c-2.45,1.75-2.45,1.75-2.45,1.75c-4.6-3.47-16.68-15.899-19.77-22.47C245.75,414.99,247.79,409.87,252.88,408.07"/>
	<path fill="#1FC7A1" d="M340.72,483.72c4.2,0.101,6.82-3.8,6.811-8.25c-0.221-6.13-6.21-16.97-10.271-23.069
		c-2.67,1.25-2.67,1.25-2.67,1.25c1.51,7.01-1.13,17.159-0.54,22.22C334.41,481.05,336.87,483.75,340.72,483.72"/>
	<path fill="#1FC7A1" d="M289.87,494.28c2.55,4.149,6.52,3.76,11.149,0.989c5.49-3.479,10.2-14.3,15.421-21.5
		c-1.99-2.329-1.99-2.329-1.99-2.329c-5.17,5.399-14.97,7.93-20.46,11.399C288.25,486.43,287.32,490.13,289.87,494.28"/>
	<path fill="#1FC7A1" d="M279.78,529.01c3.12,5.36,9.34,6.59,15.67,3.021c6.689-3.44,21.06-15.84,26.68-44.91
		c-2.729-1.38-2.729-1.38-2.729-1.38c-6.851,10.05-23.68,20.34-33.67,25.63C275.75,516.65,276.56,523.4,279.78,529.01"/>
	<path fill="#1FC7A1" d="M262.15,557.79c3.77-2.08,4.6-6.62,2.3-10.88c-2.2-3.42-9.93-11.66-9.26-19.69
		c-3.25,0.04-3.25,0.04-3.25,0.04c-2.6,8.351-4.03,17.931-0.13,25.601C254.44,558.45,258.61,559.75,262.15,557.79"/>
	<path fill="#1FC7A1" d="M220.03,590.07c-5.83-2.311-7.36-8.71-5.43-14.07c2.45-6.8,15.18-16.34,18.54-26.24
		c2.85,1.03,2.85,1.03,2.85,1.03c-3.08,8.58-0.21,24.15-3.16,31.77C230.51,589,224.55,592.1,220.03,590.07"/>
	<path fill="#1FC7A1" d="M197.29,556.23c1.31,5.319,5.81,7.949,12.36,5.47c8.62-3.16,9.69-7.82,23.19-19.521
		c-1.74-2.439-1.74-2.439-1.74-2.439c-7.24,6.069-18.58,2.8-25.24,5.04C200.05,546.33,195.65,549.58,197.29,556.23"/>
</g>
</svg>
