<?xml version="1.0" encoding="utf-8"?>
<!-- Generator: Adobe Illustrator 16.0.0, SVG Export Plug-In . SVG Version: 6.00 Build 0)  -->
<!DOCTYPE svg PUBLIC "-//W3C//DTD SVG 1.1//EN" "http://www.w3.org/Graphics/SVG/1.1/DTD/svg11.dtd">
<svg version="1.1" id="Capa_1" xmlns="http://www.w3.org/2000/svg" xmlns:xlink="http://www.w3.org/1999/xlink" x="0px" y="0px"
	 width="500px" height="500px" viewBox="0 0 500 500" enable-background="new 0 0 500 500" xml:space="preserve">
<g id="XMLID_1449_" display="none">
	<path id="XMLID_1_" display="inline" fill="#29A9E1" d="M93.331,151.841L93.331,151.841"/>
</g>
<g id="XMLID_1424_" display="none">
	<path id="XMLID_2_" display="inline" fill="#1EC85A" d="M57.467,217.601L57.467,217.601"/>
</g>
<g id="XMLID_1346_">
	<radialGradient id="XMLID_5_" cx="301.9316" cy="218.2983" r="254.6431" gradientUnits="userSpaceOnUse">
		<stop  offset="0" style="stop-color:#F5EC53"/>
		<stop  offset="0.2412" style="stop-color:#E48244"/>
		<stop  offset="0.3974" style="stop-color:#D15767"/>
		<stop  offset="0.4888" style="stop-color:#C84278"/>
		<stop  offset="1" style="stop-color:#192CFA"/>
	</radialGradient>
	<path id="XMLID_1418_" fill="url(#XMLID_5_)" d="M374.241,217.841L374.241,217.841c-38.031,0-68.863-30.831-68.863-68.864l0,0
		c0-38.032,30.832-68.863,68.863-68.863l0,0c38.032,0,68.863,30.831,68.863,68.863l0,0
		C443.104,187.01,412.273,217.841,374.241,217.841z"/>
	<g id="XMLID_1347_">
		<path id="XMLID_1352_" fill="#FFFFFF" d="M374.241,118.023c10.083,0,11.275,0.038,15.259,0.22c3.681,0.168,5.68,0.783,7.011,1.3
			c1.763,0.685,3.019,1.503,4.341,2.824c1.322,1.322,2.14,2.579,2.824,4.341c0.518,1.332,1.133,3.33,1.301,7.012
			c0.181,3.981,0.22,5.175,0.22,15.257c0,10.082-0.039,11.276-0.22,15.257c-0.168,3.682-0.783,5.681-1.301,7.01
			c-0.685,1.764-1.502,3.021-2.824,4.342c-1.322,1.321-2.578,2.14-4.341,2.825c-1.331,0.518-3.33,1.132-7.011,1.3
			c-3.983,0.181-5.176,0.219-15.259,0.219c-10.082,0-11.275-0.038-15.258-0.219c-3.681-0.168-5.68-0.783-7.01-1.3
			c-1.763-0.686-3.021-1.504-4.343-2.825c-1.32-1.321-2.14-2.578-2.823-4.342c-0.517-1.33-1.133-3.328-1.302-7.01
			c-0.18-3.981-0.22-5.175-0.22-15.257c0-10.082,0.04-11.276,0.22-15.257c0.169-3.682,0.785-5.681,1.302-7.012
			c0.684-1.762,1.503-3.019,2.823-4.341c1.322-1.321,2.58-2.14,4.343-2.824c1.33-0.518,3.329-1.132,7.01-1.3
			C362.966,118.062,364.16,118.023,374.241,118.023 M374.241,111.22c-10.255,0-11.539,0.044-15.567,0.227
			c-4.019,0.184-6.764,0.822-9.166,1.755c-2.482,0.965-4.588,2.256-6.687,4.355c-2.101,2.1-3.391,4.206-4.354,6.688
			c-0.934,2.402-1.572,5.146-1.755,9.166c-0.186,4.027-0.229,5.313-0.229,15.567c0,10.254,0.043,11.54,0.229,15.568
			c0.183,4.019,0.821,6.763,1.755,9.165c0.964,2.483,2.254,4.588,4.354,6.688c2.099,2.099,4.204,3.39,6.687,4.355
			c2.402,0.933,5.147,1.572,9.166,1.755c4.028,0.184,5.313,0.227,15.567,0.227c10.256,0,11.54-0.043,15.567-0.227
			c4.019-0.183,6.764-0.822,9.166-1.755c2.482-0.965,4.589-2.256,6.687-4.355c2.101-2.1,3.391-4.205,4.356-6.688
			c0.932-2.402,1.571-5.146,1.755-9.165c0.184-4.028,0.227-5.313,0.227-15.568c0-10.255-0.043-11.541-0.227-15.567
			c-0.184-4.019-0.823-6.764-1.755-9.166c-0.966-2.482-2.256-4.588-4.356-6.688c-2.098-2.099-4.204-3.39-6.687-4.355
			c-2.402-0.933-5.147-1.571-9.166-1.755C385.781,111.264,384.497,111.22,374.241,111.22"/>
		<path id="XMLID_1349_" fill="#FFFFFF" d="M374.241,129.589c-10.707,0-19.389,8.68-19.389,19.389
			c0,10.708,8.682,19.389,19.389,19.389c10.709,0,19.39-8.681,19.39-19.389C393.631,138.269,384.95,129.589,374.241,129.589
			 M374.241,161.564c-6.951,0-12.586-5.636-12.586-12.586c0-6.951,5.635-12.586,12.586-12.586s12.586,5.635,12.586,12.586
			C386.827,155.929,381.192,161.564,374.241,161.564"/>
		<path id="XMLID_1348_" fill="#FFFFFF" d="M398.928,128.822c0,2.502-2.029,4.531-4.53,4.531c-2.503,0-4.532-2.029-4.532-4.531
			c0-2.501,2.029-4.53,4.532-4.53C396.898,124.292,398.928,126.321,398.928,128.822"/>
	</g>
</g>
</svg>
