<svg id="svg" version="1.1" xmlns="http://www.w3.org/2000/svg" xmlns:xlink="http://www.w3.org/1999/xlink" width="400" height="247.61904761904762" viewBox="0, 0, 400,247.61904761904762"><g id="svgg"><path id="path0" d="M303.382 44.572 C 303.165 44.782,302.664 45.148,302.268 45.386 C 301.366 45.928,300.208 46.688,296.669 49.057 C 295.130 50.089,293.336 51.259,292.683 51.658 C 289.777 53.435,286.465 55.589,284.706 56.847 C 283.308 57.846,280.824 59.489,279.074 60.573 C 277.253 61.701,269.423 66.793,268.740 67.293 C 268.404 67.539,267.775 67.963,267.342 68.235 C 266.909 68.508,266.236 68.947,265.847 69.211 C 265.065 69.742,260.749 72.530,259.195 73.509 C 258.650 73.852,257.926 74.321,257.585 74.551 C 257.245 74.781,256.598 75.160,256.148 75.393 C 255.698 75.625,255.141 75.984,254.909 76.190 C 254.678 76.396,254.126 76.808,253.682 77.106 C 253.238 77.404,251.790 78.387,250.462 79.291 C 249.135 80.195,247.325 81.365,246.440 81.892 C 245.554 82.418,244.551 83.047,244.211 83.291 C 242.582 84.455,241.798 84.961,241.115 85.288 C 240.706 85.484,239.993 85.969,239.530 86.365 L 238.688 87.086 239.112 89.425 C 240.180 95.316,240.322 96.773,240.343 102.043 C 240.356 105.198,240.238 108.176,240.054 109.350 C 239.359 113.790,238.762 116.602,238.027 118.885 C 237.918 119.226,237.686 120.006,237.512 120.619 C 237.223 121.639,236.281 124.151,235.376 126.316 C 233.996 129.619,228.971 137.960,227.617 139.195 C 227.542 139.263,226.928 139.988,226.251 140.805 C 224.260 143.209,221.912 145.600,220.159 147.009 C 219.259 147.732,218.367 148.478,218.178 148.667 C 215.090 151.738,204.129 157.668,199.009 159.038 C 198.601 159.147,197.653 159.418,196.904 159.639 C 195.358 160.095,192.456 160.751,189.721 161.262 C 188.398 161.510,185.798 161.610,180.681 161.610 C 175.564 161.610,172.964 161.510,171.641 161.262 C 168.906 160.751,166.004 160.095,164.458 159.639 C 163.709 159.418,162.762 159.147,162.353 159.038 C 158.778 158.081,151.723 154.622,147.291 151.652 C 145.409 150.391,143.781 149.305,143.674 149.239 C 143.566 149.172,142.362 149.866,140.998 150.782 C 135.127 154.721,133.472 155.806,130.898 157.400 C 127.878 159.270,128.011 159.184,125.112 161.177 C 122.604 162.902,122.841 162.744,119.909 164.632 C 118.597 165.477,117.189 166.401,116.780 166.685 C 116.372 166.969,115.480 167.549,114.799 167.974 C 114.118 168.399,113.003 169.096,112.322 169.522 C 111.641 169.949,110.900 170.406,110.676 170.536 C 110.062 170.895,105.526 174.010,104.396 174.850 C 103.851 175.255,103.015 175.816,102.539 176.098 C 100.248 177.450,97.222 179.363,94.892 180.932 C 93.479 181.884,91.905 182.941,91.394 183.282 C 90.882 183.622,90.144 184.116,89.752 184.378 C 88.181 185.432,83.045 188.731,81.115 189.926 C 80.433 190.348,79.542 190.928,79.133 191.215 C 78.724 191.502,78.010 191.980,77.546 192.277 C 76.119 193.191,74.930 193.978,71.897 196.020 C 70.292 197.101,68.533 198.261,67.988 198.599 C 67.443 198.937,66.551 199.513,66.006 199.880 C 65.461 200.247,64.904 200.591,64.768 200.645 C 64.563 200.726,60.967 203.114,59.071 204.427 C 57.939 205.211,49.471 210.698,48.511 211.269 C 47.939 211.610,46.935 212.251,46.280 212.693 C 45.625 213.136,44.989 213.498,44.866 213.498 C 44.743 213.498,44.507 213.662,44.341 213.862 C 44.107 214.144,38.217 218.118,35.886 219.567 C 35.667 219.703,35.165 220.027,34.772 220.287 C 34.378 220.548,33.666 221.003,33.189 221.301 C 32.712 221.598,31.319 222.509,30.093 223.325 C 28.867 224.142,27.697 224.883,27.492 224.973 C 27.147 225.125,24.979 226.598,24.377 227.090 C 24.230 227.210,23.673 227.599,23.138 227.955 C 22.604 228.311,21.889 228.788,21.548 229.016 C 21.207 229.245,20.483 229.710,19.938 230.050 C 19.393 230.390,18.483 230.985,17.916 231.371 C 17.349 231.758,16.807 232.074,16.712 232.074 C 16.407 232.074,6.062 239.072,5.343 239.766 C 4.305 240.766,0.118 240.746,200.129 240.682 C 404.964 240.616,395.156 240.672,394.358 239.560 C 394.190 239.325,393.926 238.854,393.771 238.514 C 391.703 233.954,388.910 227.701,388.074 225.759 C 387.664 224.805,387.046 223.412,386.702 222.663 C 384.859 218.659,384.574 218.045,384.370 217.647 C 384.248 217.409,384.048 217.019,383.925 216.780 C 383.802 216.542,383.372 215.622,382.970 214.737 C 382.568 213.851,381.764 212.124,381.185 210.898 C 379.992 208.372,379.304 206.850,378.391 204.706 C 378.042 203.889,377.022 201.598,376.123 199.615 C 375.225 197.632,374.489 195.922,374.489 195.814 C 374.489 195.706,374.282 195.322,374.028 194.961 C 373.775 194.599,373.424 193.858,373.249 193.313 C 373.074 192.768,372.724 192.056,372.472 191.731 C 372.219 191.406,372.012 191.016,372.013 190.864 C 372.013 190.713,371.627 189.808,371.157 188.854 C 370.283 187.084,369.406 185.157,368.171 182.291 C 367.034 179.651,366.314 178.056,365.424 176.204 C 364.961 175.241,364.582 174.287,364.582 174.085 C 364.582 173.884,364.309 173.349,363.976 172.897 C 363.642 172.445,363.297 171.743,363.207 171.336 C 363.118 170.930,362.778 170.203,362.451 169.722 C 362.125 169.241,361.858 168.760,361.858 168.654 C 361.858 168.548,361.259 167.198,360.528 165.655 C 359.262 162.983,358.274 160.767,356.626 156.904 C 356.219 155.950,355.679 154.724,355.426 154.180 C 355.173 153.635,354.612 152.409,354.180 151.455 C 353.748 150.502,352.719 148.328,351.895 146.625 C 350.086 142.887,349.563 141.755,348.238 138.700 C 347.677 137.406,347.004 135.901,346.743 135.356 C 346.483 134.811,345.864 133.418,345.369 132.260 C 344.294 129.748,343.447 127.900,341.621 124.087 C 340.871 122.520,339.948 120.570,339.572 119.752 C 339.195 118.935,338.523 117.486,338.078 116.533 C 336.775 113.737,336.417 112.945,335.363 110.526 C 334.814 109.266,334.365 108.172,334.365 108.096 C 334.365 107.852,331.781 102.253,331.230 101.300 C 331.032 100.960,330.698 100.291,330.487 99.814 C 330.276 99.337,329.615 97.921,329.019 96.668 C 327.493 93.456,325.944 89.996,325.944 89.797 C 325.944 89.704,325.603 88.883,325.187 87.972 C 324.770 87.061,324.227 85.870,323.980 85.325 C 322.877 82.889,321.831 80.653,320.507 77.895 C 319.722 76.260,318.797 74.310,318.452 73.560 C 318.106 72.811,317.422 71.338,316.930 70.286 C 316.439 69.234,316.037 68.298,316.037 68.205 C 316.037 68.113,315.764 67.469,315.431 66.774 C 315.097 66.079,314.308 64.341,313.677 62.910 C 312.235 59.643,311.676 58.402,310.943 56.842 C 310.623 56.161,310.192 55.214,309.985 54.737 C 309.777 54.260,309.499 53.703,309.367 53.498 C 309.235 53.294,308.665 52.124,308.100 50.898 C 307.535 49.672,306.874 48.279,306.630 47.802 C 306.386 47.325,306.104 46.656,306.002 46.316 C 305.511 44.670,304.190 43.790,303.382 44.572 M222.786 97.250 C 221.697 97.993,220.506 98.830,220.141 99.108 C 219.450 99.635,218.474 100.265,212.951 103.748 C 211.141 104.890,209.393 106.005,209.067 106.225 C 208.742 106.445,208.309 106.737,208.105 106.873 C 207.901 107.009,206.607 107.874,205.229 108.796 C 198.114 113.554,196.334 114.712,193.560 116.389 C 192.607 116.966,190.656 118.261,189.226 119.268 C 187.796 120.274,186.228 121.316,185.742 121.583 C 185.256 121.850,184.713 122.244,184.535 122.459 C 184.357 122.673,184.099 122.848,183.960 122.848 C 183.822 122.848,182.749 123.484,181.576 124.260 C 180.403 125.037,178.885 126.022,178.204 126.449 C 177.523 126.876,175.933 127.913,174.669 128.752 C 173.406 129.592,172.299 130.279,172.209 130.279 C 172.118 130.279,171.791 130.517,171.480 130.808 C 171.170 131.100,170.706 131.462,170.449 131.613 C 170.192 131.765,168.711 132.736,167.158 133.772 C 165.605 134.807,164.000 135.844,163.591 136.076 C 162.492 136.698,160.520 137.939,158.684 139.163 C 156.649 140.519,156.709 140.649,160.149 142.381 C 164.690 144.667,167.510 145.589,173.870 146.867 C 192.530 150.618,216.338 137.202,222.430 119.505 C 222.524 119.232,222.738 118.675,222.906 118.266 C 225.279 112.495,226.673 101.347,225.553 97.108 C 225.172 95.668,225.100 95.672,222.786 97.250 " stroke="none" fill="#251d54" fill-rule="evenodd"></path><path id="path1" d="M175.232 42.644 C 172.719 42.864,171.842 43.002,168.297 43.734 C 151.071 47.295,136.016 58.764,127.682 74.675 C 120.828 87.759,119.037 105.266,123.221 118.266 C 123.397 118.811,123.681 119.759,123.854 120.372 C 128.752 137.787,145.576 154.303,163.591 159.383 C 164.409 159.613,165.412 159.898,165.820 160.015 C 166.229 160.133,167.399 160.395,168.421 160.597 C 169.443 160.800,171.003 161.111,171.889 161.288 C 172.988 161.508,175.777 161.610,180.681 161.610 C 185.585 161.610,188.375 161.508,189.474 161.288 C 194.969 160.188,195.262 160.120,198.390 159.200 C 209.938 155.806,221.525 147.513,229.171 137.168 C 229.542 136.666,229.845 136.208,229.845 136.150 C 229.845 136.092,230.410 135.187,231.101 134.139 C 233.414 130.631,236.010 125.233,237.265 121.319 C 238.100 118.714,238.215 118.325,238.596 116.780 C 239.909 111.470,240.372 107.622,240.369 102.043 C 240.365 93.980,239.226 88.099,236.002 79.505 C 235.392 77.880,232.329 72.048,231.148 70.263 C 230.500 69.284,229.924 68.372,229.869 68.235 C 229.466 67.243,225.333 62.333,222.676 59.688 C 218.729 55.759,213.745 52.062,209.133 49.642 C 207.924 49.007,206.824 48.402,206.687 48.297 C 206.340 48.028,199.740 45.479,198.390 45.091 C 197.777 44.916,196.774 44.624,196.161 44.443 C 195.116 44.135,192.693 43.619,189.845 43.098 C 186.096 42.413,180.027 42.224,175.232 42.644 M186.006 57.203 C 188.267 57.448,190.866 57.894,191.703 58.181 C 192.043 58.298,192.991 58.589,193.808 58.829 C 195.575 59.347,195.718 59.399,198.266 60.464 C 219.711 69.424,230.668 93.026,223.834 115.542 C 223.421 116.904,222.988 118.124,222.873 118.254 C 222.757 118.383,222.663 118.679,222.663 118.911 C 222.663 121.336,215.440 131.845,211.335 135.394 C 210.413 136.190,209.604 136.908,209.536 136.987 C 209.342 137.215,205.815 139.751,204.624 140.518 C 202.372 141.970,199.516 143.341,195.542 144.878 C 194.020 145.467,190.843 146.273,187.616 146.889 C 185.310 147.329,176.060 147.342,173.870 146.908 C 164.816 145.115,158.180 142.133,151.827 137.004 C 146.715 132.877,141.132 125.306,138.922 119.505 C 138.818 119.232,138.576 118.619,138.383 118.142 C 136.614 113.762,135.484 107.539,135.484 102.167 C 135.484 83.839,147.041 66.603,163.591 60.245 C 164.272 59.983,165.053 59.677,165.325 59.564 C 170.357 57.482,179.237 56.468,186.006 57.203 " stroke="none" fill="#db3c93" fill-rule="evenodd"></path><path id="path2" d="M0.000 123.839 L 0.000 247.678 200.000 247.678 L 400.000 247.678 400.000 123.839 L 400.000 0.000 200.000 0.000 L 0.000 0.000 0.000 123.839 M187.988 42.560 C 191.460 42.917,197.898 44.433,200.743 45.564 C 201.015 45.672,201.684 45.933,202.229 46.143 C 202.774 46.353,203.602 46.673,204.068 46.854 C 205.524 47.418,211.147 50.295,211.876 50.848 C 212.019 50.956,213.103 51.681,214.285 52.458 C 215.467 53.234,216.694 54.093,217.010 54.365 C 217.327 54.638,218.088 55.249,218.701 55.724 C 219.313 56.199,219.934 56.700,220.081 56.839 C 220.228 56.977,220.729 57.433,221.196 57.853 C 222.450 58.983,226.139 62.880,227.079 64.067 C 227.529 64.636,228.168 65.416,228.501 65.801 C 228.833 66.186,229.515 67.170,230.016 67.988 C 230.516 68.805,230.993 69.529,231.075 69.598 C 231.380 69.851,232.798 72.273,233.976 74.551 C 235.088 76.703,235.401 77.391,236.454 80.000 C 236.647 80.477,236.910 81.060,237.040 81.297 C 237.169 81.533,237.276 81.945,237.276 82.211 C 237.276 82.477,237.377 82.758,237.502 82.835 C 237.626 82.912,237.805 83.429,237.898 83.985 C 238.091 85.125,238.684 85.182,239.979 84.182 C 242.202 82.465,249.360 77.865,252.073 76.409 C 252.581 76.136,253.112 75.768,253.253 75.591 C 253.395 75.414,253.920 75.023,254.420 74.724 C 255.532 74.059,259.010 71.666,259.690 71.099 C 260.388 70.517,263.185 68.854,263.466 68.854 C 263.595 68.854,263.893 68.642,264.128 68.382 C 264.363 68.122,264.910 67.769,265.343 67.598 C 265.776 67.427,266.333 67.114,266.580 66.903 C 266.828 66.691,267.398 66.292,267.846 66.015 C 268.909 65.359,271.071 63.863,272.322 62.917 C 272.867 62.506,273.649 62.011,274.061 61.817 C 274.472 61.623,275.019 61.233,275.276 60.949 C 275.532 60.666,275.858 60.433,276.000 60.433 C 276.142 60.433,276.654 60.175,277.138 59.858 C 277.622 59.542,279.133 58.558,280.495 57.673 C 281.858 56.787,283.296 55.848,283.691 55.585 C 284.087 55.323,284.767 54.885,285.204 54.613 C 285.641 54.341,286.376 53.867,286.838 53.561 C 287.300 53.255,287.817 53.005,287.988 53.004 C 288.158 53.004,288.297 52.899,288.297 52.771 C 288.297 52.644,289.272 51.891,290.464 51.099 C 291.656 50.307,292.687 49.601,292.755 49.530 C 292.824 49.459,293.659 48.912,294.613 48.314 C 295.567 47.716,296.737 46.973,297.214 46.663 C 297.690 46.353,298.375 46.028,298.734 45.940 C 299.094 45.852,299.623 45.511,299.909 45.181 C 300.196 44.852,300.552 44.582,300.702 44.582 C 300.851 44.582,301.567 44.075,302.292 43.455 C 303.861 42.115,305.117 41.784,305.910 42.502 C 306.355 42.905,308.098 46.259,308.119 46.755 C 308.124 46.854,308.458 47.601,308.862 48.415 C 309.267 49.229,309.598 50.131,309.598 50.420 C 309.598 50.709,309.809 51.136,310.067 51.370 C 310.326 51.604,310.667 52.310,310.825 52.939 C 310.983 53.568,311.332 54.390,311.599 54.765 C 311.866 55.140,312.253 55.923,312.458 56.504 C 312.663 57.085,312.976 57.733,313.155 57.944 C 313.333 58.155,313.627 58.718,313.809 59.195 C 313.991 59.672,314.388 60.508,314.691 61.053 C 314.994 61.598,315.325 62.322,315.426 62.663 C 315.527 63.003,315.808 63.536,316.051 63.846 C 316.293 64.157,316.565 64.843,316.654 65.372 C 316.743 65.901,317.025 66.522,317.280 66.753 C 317.534 66.983,317.819 67.523,317.913 67.951 C 318.006 68.380,318.403 69.331,318.794 70.066 C 319.185 70.800,319.506 71.580,319.508 71.800 C 319.509 72.019,319.788 72.683,320.127 73.276 C 320.466 73.869,320.745 74.482,320.747 74.638 C 320.749 74.795,321.193 75.814,321.734 76.904 C 322.274 77.994,322.718 79.011,322.720 79.165 C 322.723 79.318,322.891 79.582,323.095 79.751 C 323.299 79.920,323.598 80.519,323.761 81.082 C 323.924 81.645,324.314 82.420,324.629 82.805 C 324.944 83.190,325.201 83.750,325.201 84.048 C 325.201 84.347,325.474 84.993,325.808 85.483 C 326.141 85.974,326.493 86.697,326.589 87.089 C 326.686 87.481,327.026 88.190,327.345 88.664 C 327.664 89.139,327.926 89.681,327.926 89.869 C 327.926 90.058,328.202 90.728,328.540 91.360 C 329.235 92.659,330.442 95.527,331.186 97.647 C 331.461 98.430,331.773 99.071,331.879 99.071 C 331.985 99.071,332.216 99.601,332.391 100.248 C 332.567 100.895,332.906 101.614,333.144 101.847 C 333.383 102.079,333.659 102.635,333.757 103.083 C 333.855 103.530,334.199 104.242,334.522 104.665 C 334.844 105.088,335.108 105.559,335.108 105.712 C 335.108 105.865,335.542 106.858,336.073 107.918 C 336.604 108.978,337.400 110.625,337.843 111.579 C 338.287 112.533,338.911 113.864,339.232 114.538 C 339.552 115.212,339.814 115.974,339.814 116.232 C 339.814 116.491,340.034 116.982,340.303 117.324 C 340.572 117.665,340.863 118.352,340.949 118.849 C 341.036 119.346,341.360 120.142,341.670 120.619 C 341.980 121.096,342.310 121.814,342.403 122.214 C 342.496 122.614,342.779 123.234,343.033 123.591 C 343.287 123.947,343.691 124.734,343.930 125.339 C 344.169 125.945,344.560 126.718,344.799 127.059 C 345.037 127.399,345.355 128.152,345.505 128.731 C 345.655 129.310,345.876 129.783,345.995 129.783 C 346.115 129.783,346.409 130.313,346.649 130.960 C 346.889 131.607,347.289 132.433,347.539 132.796 C 347.788 133.160,348.064 133.828,348.152 134.283 C 348.240 134.737,348.517 135.374,348.768 135.698 C 349.019 136.022,349.348 136.746,349.498 137.306 C 349.649 137.866,349.969 138.603,350.210 138.945 C 350.450 139.287,350.726 139.845,350.822 140.186 C 350.918 140.526,351.379 141.606,351.845 142.585 C 352.312 143.565,352.693 144.499,352.693 144.661 C 352.693 144.824,352.916 145.317,353.188 145.756 C 353.459 146.196,353.852 147.040,354.061 147.631 C 354.270 148.222,354.594 148.879,354.782 149.090 C 354.970 149.301,355.247 149.934,355.397 150.497 C 355.547 151.061,355.835 151.659,356.037 151.827 C 356.240 151.995,356.528 152.590,356.679 153.149 C 356.830 153.708,357.220 154.484,357.548 154.873 C 357.875 155.262,358.142 155.753,358.142 155.965 C 358.142 156.177,358.365 156.710,358.637 157.150 C 358.908 157.589,359.290 158.383,359.484 158.913 C 359.678 159.443,360.412 161.158,361.114 162.724 C 361.817 164.291,362.550 166.089,362.744 166.720 C 362.939 167.350,363.256 167.998,363.449 168.158 C 363.642 168.318,363.877 168.917,363.972 169.488 C 364.066 170.059,364.349 170.722,364.601 170.961 C 364.853 171.200,365.175 171.826,365.317 172.353 C 365.458 172.879,365.776 173.575,366.022 173.900 C 366.638 174.712,369.710 181.037,369.924 181.933 C 370.019 182.334,370.236 182.830,370.404 183.034 C 370.573 183.238,370.852 183.851,371.024 184.396 C 371.196 184.941,371.587 185.833,371.894 186.378 C 372.201 186.923,372.523 187.772,372.609 188.265 C 372.695 188.759,372.984 189.414,373.251 189.721 C 373.517 190.029,373.808 190.684,373.895 191.177 C 373.983 191.671,374.299 192.409,374.596 192.817 C 374.893 193.226,375.331 194.081,375.569 194.717 C 375.807 195.354,376.163 196.008,376.360 196.172 C 376.557 196.335,376.718 196.607,376.718 196.776 C 376.718 196.944,377.037 197.683,377.426 198.417 C 377.815 199.151,378.267 200.161,378.429 200.661 C 378.592 201.161,378.884 201.702,379.077 201.863 C 379.271 202.023,379.500 202.562,379.587 203.059 C 379.673 203.556,380.004 204.353,380.321 204.830 C 380.638 205.307,380.977 206.031,381.073 206.440 C 381.170 206.848,381.458 207.482,381.713 207.847 C 381.969 208.213,382.332 208.949,382.520 209.484 C 382.709 210.018,383.152 211.087,383.506 211.860 C 383.859 212.633,384.149 213.370,384.149 213.498 C 384.149 213.742,385.220 216.019,386.264 217.993 C 386.599 218.626,386.875 219.295,386.878 219.479 C 386.880 219.663,387.214 220.305,387.621 220.904 C 388.027 221.504,388.359 222.208,388.359 222.469 C 388.359 222.730,388.638 223.309,388.978 223.755 C 389.319 224.202,389.598 224.709,389.598 224.884 C 389.598 225.058,389.919 225.827,390.311 226.594 C 391.838 229.577,392.264 230.513,392.697 231.827 C 392.943 232.576,393.336 233.531,393.571 233.949 C 393.805 234.367,394.080 235.087,394.181 235.549 C 394.283 236.011,394.582 236.682,394.847 237.040 C 395.890 238.451,396.125 241.471,395.239 242.091 C 394.422 242.664,4.196 242.684,2.826 242.112 C 0.802 241.266,2.118 239.134,5.820 237.259 C 6.833 236.746,8.030 235.968,9.203 235.060 C 9.565 234.780,9.979 234.551,10.123 234.551 C 10.267 234.551,10.751 234.236,11.199 233.850 C 12.181 233.004,17.482 229.423,18.779 228.731 C 19.289 228.458,20.024 227.985,20.413 227.678 C 20.801 227.372,21.254 227.121,21.419 227.121 C 21.584 227.121,21.924 226.894,22.175 226.616 C 22.426 226.339,23.084 225.911,23.638 225.666 C 24.191 225.421,24.797 225.035,24.984 224.808 C 25.171 224.582,25.449 224.395,25.603 224.394 C 25.757 224.393,26.372 224.002,26.970 223.527 C 27.568 223.052,28.165 222.663,28.296 222.663 C 28.428 222.663,28.755 222.384,29.023 222.043 C 29.290 221.703,29.651 221.424,29.824 221.424 C 29.997 221.424,30.407 221.196,30.735 220.916 C 31.600 220.179,32.954 219.256,33.808 218.819 C 34.217 218.610,35.833 217.605,37.399 216.584 C 38.966 215.564,40.631 214.536,41.099 214.300 C 41.567 214.063,42.203 213.619,42.512 213.313 C 42.821 213.006,43.226 212.755,43.413 212.755 C 43.600 212.755,44.014 212.477,44.334 212.136 C 44.654 211.796,45.060 211.517,45.236 211.517 C 45.412 211.517,45.936 211.183,46.402 210.774 C 46.867 210.365,47.363 210.031,47.504 210.031 C 47.645 210.031,47.798 209.935,47.843 209.817 C 47.889 209.700,48.985 208.926,50.279 208.098 C 51.573 207.269,52.773 206.467,52.947 206.315 C 53.120 206.163,53.622 205.888,54.061 205.704 C 54.501 205.520,55.148 205.144,55.499 204.868 C 55.851 204.591,56.430 204.292,56.787 204.202 C 57.143 204.113,57.611 203.772,57.825 203.444 C 58.040 203.116,58.336 202.848,58.484 202.848 C 58.632 202.848,59.207 202.486,59.762 202.043 C 60.317 201.601,61.016 201.071,61.315 200.867 C 62.630 199.969,64.916 198.473,65.668 198.019 C 66.762 197.358,67.904 196.636,68.766 196.060 C 70.156 195.133,71.464 194.309,72.025 194.007 C 72.338 193.839,72.882 193.474,73.235 193.197 C 73.587 192.920,74.008 192.693,74.170 192.693 C 74.332 192.693,74.718 192.424,75.028 192.094 C 75.337 191.765,75.929 191.355,76.341 191.184 C 76.754 191.013,77.351 190.614,77.668 190.297 C 77.985 189.980,78.464 189.721,78.734 189.721 C 79.003 189.721,79.289 189.515,79.369 189.264 C 79.449 189.012,79.780 188.685,80.106 188.536 C 80.431 188.388,81.488 187.703,82.455 187.013 C 83.421 186.323,84.272 185.759,84.346 185.759 C 84.419 185.759,85.166 185.313,86.004 184.768 C 86.843 184.223,87.626 183.777,87.744 183.777 C 87.862 183.777,88.324 183.498,88.771 183.158 C 89.217 182.817,89.754 182.539,89.964 182.539 C 90.174 182.539,90.528 182.260,90.751 181.920 C 90.974 181.579,91.308 181.300,91.492 181.300 C 91.677 181.300,91.969 181.130,92.142 180.922 C 92.438 180.565,93.189 180.020,95.480 178.498 C 96.025 178.136,96.604 177.728,96.766 177.592 C 96.929 177.456,97.506 177.112,98.050 176.829 C 98.593 176.546,99.170 176.154,99.332 175.959 C 99.495 175.764,99.772 175.604,99.949 175.604 C 100.127 175.604,100.605 175.324,101.011 174.981 C 101.418 174.639,102.126 174.202,102.584 174.011 C 103.041 173.820,103.626 173.431,103.882 173.147 C 104.139 172.864,104.451 172.632,104.575 172.632 C 104.699 172.632,105.156 172.361,105.590 172.029 C 106.025 171.698,106.658 171.305,106.998 171.155 C 107.338 171.005,108.285 170.384,109.102 169.775 C 109.920 169.165,110.955 168.496,111.404 168.288 C 111.853 168.080,112.279 167.757,112.351 167.569 C 112.423 167.381,112.836 167.081,113.269 166.902 C 113.702 166.723,114.279 166.384,114.551 166.150 C 115.457 165.370,116.771 164.466,117.523 164.106 C 117.932 163.910,118.650 163.463,119.119 163.113 C 119.589 162.763,120.068 162.477,120.185 162.477 C 120.302 162.477,121.184 161.947,122.144 161.300 C 123.104 160.653,124.185 159.957,124.545 159.752 C 124.906 159.548,125.237 159.300,125.282 159.201 C 125.406 158.925,128.536 156.780,128.815 156.780 C 128.951 156.780,129.349 156.514,129.701 156.188 C 130.052 155.862,131.190 155.112,132.229 154.521 C 133.268 153.930,134.338 153.245,134.608 152.998 C 134.878 152.752,135.379 152.482,135.723 152.398 C 136.066 152.314,136.577 152.011,136.859 151.726 C 137.340 151.239,138.016 150.790,139.756 149.802 C 141.474 148.825,142.198 147.569,141.222 147.259 C 140.720 147.100,136.070 142.402,134.731 140.702 C 134.257 140.101,133.753 139.488,133.610 139.340 C 133.253 138.971,131.269 136.267,131.269 136.149 C 131.269 136.097,130.666 135.131,129.928 134.004 C 129.191 132.876,128.104 130.992,127.513 129.816 C 126.923 128.640,126.356 127.641,126.254 127.595 C 126.152 127.550,126.068 127.359,126.068 127.170 C 126.068 126.982,125.885 126.406,125.662 125.891 C 124.295 122.732,123.363 120.182,123.352 119.563 C 123.347 119.323,123.240 118.933,123.114 118.696 C 122.701 117.924,122.105 115.713,122.105 114.954 C 122.105 114.546,121.984 113.898,121.836 113.515 C 121.554 112.786,121.316 111.030,120.851 106.254 C 120.425 101.872,120.805 95.573,121.747 91.393 C 121.946 90.508,122.108 89.482,122.107 89.114 C 122.106 88.746,122.209 88.188,122.336 87.875 C 122.463 87.563,122.755 86.638,122.984 85.820 C 123.411 84.300,123.989 82.494,124.331 81.610 C 125.518 78.545,126.042 77.248,126.284 76.780 C 126.885 75.618,127.346 74.720,127.654 74.118 C 130.208 69.106,134.424 63.494,138.867 59.190 C 140.205 57.893,141.769 56.462,142.341 56.010 C 142.913 55.557,143.638 54.962,143.951 54.687 C 146.194 52.718,153.841 48.245,157.399 46.821 C 159.746 45.882,160.855 45.481,162.353 45.029 C 167.923 43.349,169.971 42.913,173.703 42.613 C 175.178 42.494,176.460 42.322,176.552 42.230 C 176.757 42.023,185.105 42.265,187.988 42.560 M175.108 57.474 C 174.495 57.580,173.269 57.779,172.384 57.915 C 171.498 58.051,170.440 58.271,170.031 58.402 C 169.622 58.534,168.786 58.778,168.173 58.944 C 165.387 59.700,164.650 59.995,160.495 62.026 C 157.872 63.308,157.132 63.705,156.422 64.211 C 156.279 64.313,155.437 64.913,154.551 65.544 C 152.791 66.799,149.808 69.320,148.898 70.325 C 148.581 70.674,147.833 71.476,147.237 72.107 C 143.467 76.093,139.242 83.555,137.720 88.916 C 137.546 89.529,137.290 90.365,137.151 90.774 C 137.013 91.183,136.808 92.074,136.697 92.755 C 136.585 93.437,136.361 94.718,136.197 95.604 C 135.802 97.750,135.809 106.652,136.208 108.731 C 136.378 109.616,136.609 110.898,136.722 111.579 C 136.834 112.260,137.035 113.152,137.168 113.560 C 137.301 113.969,137.607 114.972,137.847 115.789 C 138.087 116.607,138.366 117.443,138.466 117.647 C 138.567 117.851,138.843 118.520,139.079 119.133 C 139.542 120.331,141.467 124.378,141.672 124.582 C 141.849 124.759,142.388 125.632,142.590 126.068 C 142.684 126.272,142.850 126.551,142.958 126.687 C 143.066 126.824,143.842 127.882,144.682 129.040 C 146.270 131.226,150.738 135.936,152.138 136.899 C 152.580 137.203,153.331 137.791,153.808 138.205 C 155.149 139.372,155.586 139.383,157.174 138.292 C 159.583 136.637,159.866 136.473,160.310 136.472 C 160.548 136.471,160.743 136.301,160.743 136.094 C 160.743 135.887,161.050 135.587,161.424 135.427 C 161.799 135.268,162.350 134.922,162.649 134.659 C 163.456 133.949,167.660 131.319,168.731 130.854 C 169.241 130.633,169.659 130.350,169.659 130.227 C 169.659 130.104,170.140 129.791,170.727 129.531 C 171.315 129.271,171.992 128.841,172.232 128.576 C 172.472 128.311,172.938 128.026,173.269 127.943 C 173.600 127.860,173.870 127.687,173.870 127.557 C 173.870 127.428,174.455 126.934,175.170 126.459 C 175.885 125.985,176.916 125.259,177.461 124.846 C 178.006 124.433,178.842 123.899,179.319 123.658 C 179.796 123.417,180.245 123.141,180.318 123.044 C 180.459 122.857,182.590 121.639,184.025 120.926 C 184.502 120.689,184.927 120.417,184.970 120.321 C 185.014 120.226,186.014 119.501,187.194 118.711 C 188.373 117.922,189.536 117.080,189.778 116.842 C 190.019 116.604,190.335 116.409,190.479 116.409 C 190.623 116.409,191.153 116.086,191.655 115.691 C 192.158 115.296,192.820 114.898,193.127 114.807 C 193.433 114.716,193.684 114.536,193.684 114.407 C 193.684 114.277,194.095 113.978,194.597 113.742 C 195.099 113.506,195.747 113.090,196.037 112.817 C 196.327 112.545,196.891 112.130,197.291 111.896 C 197.691 111.661,198.241 111.331,198.514 111.163 C 199.598 110.491,201.781 109.113,202.601 108.582 C 203.077 108.274,203.802 107.876,204.211 107.699 C 204.619 107.521,205.099 107.179,205.277 106.939 C 205.455 106.698,205.758 106.502,205.950 106.502 C 206.142 106.502,206.626 106.195,207.027 105.820 C 208.285 104.643,213.165 101.366,214.721 100.654 C 215.189 100.440,215.924 99.996,216.354 99.668 C 216.785 99.340,217.229 99.071,217.341 99.071 C 217.454 99.071,217.758 98.880,218.016 98.646 C 218.274 98.412,218.860 97.994,219.318 97.717 C 224.352 94.669,224.911 94.022,224.416 91.813 C 223.781 88.982,223.583 88.323,222.729 86.192 C 222.538 85.715,222.296 85.102,222.193 84.830 C 221.339 82.589,217.813 76.325,216.963 75.542 C 216.890 75.474,216.444 74.916,215.972 74.303 C 215.501 73.690,215.002 73.069,214.864 72.923 C 214.726 72.777,214.279 72.234,213.870 71.716 C 212.930 70.525,208.114 66.351,206.316 65.169 C 205.567 64.677,204.898 64.210,204.830 64.131 C 204.762 64.053,204.539 63.912,204.334 63.818 C 204.130 63.724,203.406 63.310,202.724 62.899 C 202.043 62.488,201.319 62.087,201.115 62.008 C 200.910 61.930,200.130 61.588,199.381 61.248 C 198.632 60.909,197.684 60.482,197.276 60.299 C 196.867 60.117,195.920 59.776,195.170 59.542 C 194.421 59.309,193.585 59.035,193.313 58.934 C 192.580 58.662,189.744 58.009,188.607 57.850 C 188.062 57.773,187.059 57.606,186.378 57.477 C 184.906 57.199,176.700 57.197,175.108 57.474 " stroke="none" fill="#f3cb6c" fill-rule="evenodd"></path><path id="path3" d="M303.081 43.693 C 302.727 44.022,301.986 44.544,301.435 44.853 C 300.884 45.163,300.433 45.489,300.433 45.579 C 300.433 45.668,300.127 45.878,299.752 46.045 C 299.085 46.343,298.730 46.559,295.975 48.343 C 295.226 48.829,293.666 49.831,292.508 50.572 C 291.350 51.312,290.082 52.134,289.691 52.399 C 289.299 52.663,288.548 53.158,288.022 53.498 C 287.495 53.839,285.809 54.969,284.275 56.009 C 280.541 58.541,277.864 60.269,277.342 60.485 C 277.107 60.582,275.323 61.745,273.380 63.069 C 271.436 64.393,269.455 65.732,268.978 66.044 C 268.502 66.356,267.777 66.842,267.368 67.124 C 266.960 67.405,266.124 67.946,265.511 68.326 C 260.182 71.631,258.882 72.460,258.452 72.829 C 258.180 73.063,257.622 73.440,257.214 73.666 C 256.461 74.082,255.145 74.963,254.241 75.654 C 253.432 76.274,249.666 78.748,247.802 79.884 C 241.605 83.661,238.230 85.989,238.381 86.382 C 238.454 86.572,238.521 86.969,238.530 87.265 C 238.545 87.793,238.549 87.794,238.751 87.294 C 238.972 86.749,240.345 85.611,241.283 85.195 C 241.808 84.963,242.510 84.506,244.211 83.291 C 244.551 83.047,245.554 82.418,246.440 81.892 C 247.325 81.365,249.135 80.195,250.462 79.291 C 251.790 78.387,253.238 77.404,253.682 77.106 C 254.126 76.808,254.678 76.396,254.909 76.190 C 255.141 75.984,255.698 75.625,256.148 75.393 C 256.598 75.160,257.245 74.781,257.585 74.551 C 257.926 74.321,258.650 73.852,259.195 73.509 C 260.749 72.530,265.065 69.742,265.847 69.211 C 266.236 68.947,266.909 68.508,267.342 68.235 C 267.775 67.963,268.404 67.539,268.740 67.293 C 269.423 66.793,277.253 61.701,279.074 60.573 C 280.824 59.489,283.308 57.846,284.706 56.847 C 286.465 55.589,289.777 53.435,292.683 51.658 C 293.336 51.259,295.130 50.089,296.669 49.057 C 300.208 46.688,301.366 45.928,302.268 45.386 C 302.664 45.148,303.165 44.786,303.382 44.582 C 304.212 43.801,305.508 44.659,306.002 46.316 C 306.104 46.656,306.386 47.325,306.630 47.802 C 306.874 48.279,307.535 49.672,308.100 50.898 C 308.665 52.124,309.235 53.294,309.367 53.498 C 309.499 53.703,309.777 54.260,309.985 54.737 C 310.192 55.214,310.623 56.161,310.943 56.842 C 311.676 58.402,312.235 59.643,313.677 62.910 C 314.308 64.341,315.097 66.079,315.431 66.774 C 315.764 67.469,316.037 68.113,316.037 68.205 C 316.037 68.298,316.439 69.234,316.930 70.286 C 317.422 71.338,318.106 72.811,318.452 73.560 C 318.797 74.310,319.722 76.260,320.507 77.895 C 321.831 80.653,322.877 82.889,323.980 85.325 C 324.227 85.870,324.770 87.061,325.187 87.972 C 325.603 88.883,325.944 89.704,325.944 89.797 C 325.944 89.996,327.493 93.456,329.019 96.668 C 329.615 97.921,330.276 99.337,330.487 99.814 C 330.698 100.291,331.032 100.960,331.230 101.300 C 331.781 102.253,334.365 107.852,334.365 108.096 C 334.365 108.172,334.814 109.266,335.363 110.526 C 336.373 112.845,336.673 113.509,338.015 116.409 C 339.779 120.218,340.331 121.393,341.621 124.087 C 343.447 127.900,344.294 129.748,345.369 132.260 C 345.864 133.418,346.483 134.811,346.743 135.356 C 347.004 135.901,347.677 137.406,348.238 138.700 C 349.563 141.755,350.086 142.887,351.895 146.625 C 352.719 148.328,353.748 150.502,354.180 151.455 C 354.612 152.409,355.174 153.635,355.429 154.180 C 355.684 154.724,356.294 156.118,356.786 157.276 C 358.257 160.737,359.134 162.698,360.531 165.655 C 361.261 167.198,361.858 168.548,361.858 168.654 C 361.858 168.760,362.125 169.241,362.451 169.722 C 362.778 170.203,363.118 170.930,363.207 171.336 C 363.297 171.743,363.642 172.445,363.976 172.897 C 364.309 173.349,364.582 173.884,364.582 174.085 C 364.582 174.287,364.961 175.241,365.424 176.204 C 366.314 178.056,367.034 179.651,368.171 182.291 C 369.406 185.157,370.283 187.084,371.157 188.854 C 371.627 189.808,372.013 190.713,372.013 190.864 C 372.012 191.016,372.219 191.406,372.472 191.731 C 372.724 192.056,373.074 192.768,373.249 193.313 C 373.424 193.858,373.775 194.599,374.028 194.961 C 374.282 195.322,374.489 195.706,374.489 195.814 C 374.489 195.922,375.225 197.632,376.123 199.615 C 377.022 201.598,378.042 203.889,378.391 204.706 C 379.304 206.850,379.992 208.372,381.185 210.898 C 381.764 212.124,382.568 213.851,382.970 214.737 C 383.372 215.622,383.802 216.542,383.925 216.780 C 384.605 218.098,384.459 217.789,386.702 222.663 C 387.046 223.412,387.664 224.805,388.074 225.759 C 388.910 227.701,391.703 233.954,393.771 238.514 C 393.926 238.854,394.190 239.325,394.358 239.560 C 395.156 240.672,404.964 240.616,200.129 240.682 C 0.118 240.746,4.305 240.766,5.343 239.766 C 6.062 239.072,16.407 232.074,16.712 232.074 C 16.807 232.074,17.349 231.758,17.916 231.371 C 18.483 230.985,19.393 230.390,19.938 230.050 C 20.483 229.710,21.207 229.245,21.548 229.016 C 21.889 228.788,22.604 228.311,23.138 227.955 C 23.673 227.599,24.230 227.210,24.377 227.090 C 24.979 226.598,27.147 225.125,27.492 224.973 C 27.697 224.883,28.867 224.142,30.093 223.325 C 31.319 222.509,32.712 221.598,33.189 221.301 C 33.666 221.003,34.378 220.548,34.772 220.287 C 35.165 220.027,35.667 219.703,35.886 219.567 C 38.217 218.118,44.107 214.144,44.341 213.862 C 44.507 213.662,44.743 213.498,44.866 213.498 C 44.989 213.498,45.625 213.136,46.280 212.693 C 46.935 212.251,47.939 211.610,48.511 211.269 C 49.471 210.698,57.939 205.211,59.071 204.427 C 60.967 203.114,64.563 200.726,64.768 200.645 C 64.904 200.591,65.461 200.247,66.006 199.880 C 66.551 199.513,67.443 198.937,67.988 198.599 C 68.533 198.261,70.292 197.101,71.897 196.020 C 74.930 193.978,76.119 193.191,77.546 192.277 C 78.010 191.980,78.724 191.502,79.133 191.215 C 79.542 190.928,80.433 190.348,81.115 189.926 C 83.045 188.731,88.181 185.432,89.752 184.378 C 90.144 184.116,90.882 183.622,91.394 183.282 C 91.905 182.941,93.479 181.884,94.892 180.932 C 97.222 179.363,100.248 177.450,102.539 176.098 C 103.015 175.816,103.851 175.255,104.396 174.850 C 105.526 174.010,110.062 170.895,110.676 170.536 C 110.900 170.406,111.641 169.949,112.322 169.522 C 113.003 169.096,114.118 168.399,114.799 167.974 C 115.480 167.549,116.372 166.969,116.780 166.685 C 117.189 166.401,118.597 165.477,119.909 164.632 C 122.841 162.744,122.604 162.902,125.112 161.177 C 128.011 159.184,127.878 159.270,130.898 157.400 C 133.472 155.806,135.127 154.721,140.998 150.782 C 142.362 149.866,143.573 149.176,143.689 149.248 C 144.209 149.569,143.836 149.071,143.288 148.712 C 142.721 148.341,142.644 148.342,142.258 148.728 C 142.028 148.958,141.393 149.428,140.847 149.773 C 140.300 150.118,139.733 150.505,139.586 150.633 C 139.439 150.761,138.939 151.109,138.475 151.408 C 138.011 151.706,137.204 152.229,136.683 152.570 C 136.161 152.910,134.758 153.792,133.564 154.530 C 131.160 156.016,127.850 158.192,124.458 160.518 C 123.232 161.358,120.724 162.996,118.885 164.158 C 117.046 165.320,115.486 166.348,115.418 166.442 C 115.350 166.536,115.015 166.756,114.675 166.930 C 113.840 167.358,107.949 171.208,105.663 172.820 C 104.317 173.770,103.272 174.441,99.509 176.775 C 97.702 177.896,95.666 179.205,94.985 179.685 C 94.303 180.164,92.464 181.409,90.898 182.450 C 89.331 183.492,87.585 184.662,87.018 185.051 C 86.451 185.440,85.925 185.759,85.850 185.759 C 85.732 185.759,84.547 186.521,81.734 188.406 C 79.865 189.658,70.086 196.074,69.350 196.531 C 65.432 198.964,60.774 202.066,60.446 202.462 C 60.270 202.674,59.999 202.849,59.846 202.851 C 59.692 202.852,59.100 203.214,58.530 203.656 C 57.960 204.097,56.927 204.793,56.235 205.201 C 54.729 206.091,50.406 208.841,49.536 209.464 C 49.195 209.707,48.638 210.074,48.297 210.278 C 47.957 210.483,47.305 210.873,46.849 211.146 C 46.394 211.418,45.646 211.920,45.188 212.260 C 43.412 213.580,38.583 216.773,36.198 218.204 C 34.539 219.200,29.437 222.575,28.359 223.389 C 27.814 223.801,27.146 224.240,26.873 224.364 C 26.601 224.489,25.944 224.937,25.415 225.360 C 24.885 225.784,24.335 226.130,24.192 226.130 C 24.050 226.130,23.703 226.331,23.422 226.577 C 23.140 226.822,22.186 227.457,21.300 227.988 C 18.551 229.635,13.042 233.228,12.226 233.906 C 11.799 234.261,11.387 234.551,11.311 234.551 C 11.120 234.551,4.188 239.132,3.653 239.611 C 3.115 240.094,3.096 240.832,3.609 241.345 C 3.962 241.698,22.080 241.734,199.261 241.734 L 394.523 241.734 394.909 241.183 C 395.602 240.194,395.234 238.922,393.049 234.750 C 392.786 234.246,392.570 233.701,392.570 233.539 C 392.570 233.143,389.656 226.668,386.504 220.062 C 385.121 217.163,384.181 215.145,383.042 212.632 C 382.733 211.950,382.198 210.780,381.851 210.031 C 381.505 209.282,380.821 207.749,380.332 206.625 C 379.843 205.502,379.042 203.663,378.552 202.539 C 377.675 200.528,375.198 195.272,374.671 194.303 C 374.397 193.799,374.304 193.608,373.174 191.207 C 372.510 189.799,371.516 187.504,369.903 183.653 C 369.389 182.427,368.428 180.282,367.766 178.886 C 367.105 177.490,366.563 176.252,366.563 176.134 C 366.563 176.017,366.298 175.530,365.975 175.053 C 365.651 174.576,365.244 173.752,365.072 173.223 C 364.899 172.693,364.551 171.994,364.298 171.669 C 364.046 171.345,363.839 170.963,363.839 170.821 C 363.839 170.602,361.637 165.603,360.110 162.353 C 359.853 161.808,359.244 160.415,358.754 159.257 C 358.265 158.099,357.495 156.372,357.043 155.418 C 356.591 154.464,355.939 153.071,355.594 152.322 C 355.249 151.573,354.278 149.511,353.436 147.740 C 352.594 145.969,351.629 143.907,351.292 143.158 C 350.955 142.409,350.466 141.350,350.206 140.805 C 349.945 140.260,349.576 139.366,349.386 138.819 C 349.196 138.272,348.804 137.382,348.514 136.841 C 348.225 136.301,347.988 135.770,347.988 135.662 C 347.988 135.554,347.585 134.605,347.092 133.553 C 344.839 128.740,343.400 125.740,342.154 123.260 C 341.412 121.783,340.805 120.467,340.805 120.334 C 340.805 120.201,340.483 119.403,340.089 118.560 C 339.695 117.717,338.953 116.025,338.441 114.799 C 337.396 112.298,335.550 108.308,332.310 101.548 C 331.559 99.981,330.608 97.920,330.196 96.966 C 329.180 94.613,326.271 88.033,325.706 86.811 C 325.454 86.266,324.915 85.096,324.507 84.211 C 324.100 83.325,323.021 81.040,322.109 79.133 C 319.772 74.241,319.396 73.427,318.503 71.331 C 318.068 70.310,317.446 68.895,317.122 68.189 C 316.798 67.482,316.533 66.841,316.533 66.765 C 316.533 66.542,314.015 61.160,311.311 55.604 C 310.913 54.786,310.588 53.993,310.588 53.841 C 310.588 53.690,310.381 53.299,310.127 52.975 C 309.873 52.650,309.584 52.105,309.484 51.765 C 309.384 51.424,308.994 50.477,308.618 49.659 C 308.242 48.842,307.456 47.095,306.872 45.778 C 305.799 43.356,305.556 43.108,304.247 43.099 C 303.960 43.097,303.436 43.365,303.081 43.693 M223.272 95.799 C 222.312 96.441,221.365 97.112,221.166 97.290 C 220.968 97.469,220.425 97.859,219.961 98.157 C 219.497 98.456,218.661 98.999,218.103 99.364 C 217.546 99.729,216.533 100.367,215.851 100.781 C 213.835 102.007,210.193 104.340,209.048 105.139 C 208.462 105.548,207.566 106.161,207.056 106.502 C 206.547 106.842,205.809 107.336,205.418 107.600 C 203.954 108.586,196.837 113.188,194.675 114.547 C 193.032 115.579,188.107 118.883,186.006 120.362 C 184.848 121.177,183.622 121.965,183.282 122.112 C 182.534 122.436,182.052 122.745,176.890 126.207 C 172.421 129.205,171.112 130.071,170.078 130.713 C 168.206 131.875,161.361 136.310,158.354 138.309 C 155.997 139.876,155.895 140.077,157.131 140.735 C 157.577 140.973,157.605 140.959,157.339 140.637 C 157.002 140.227,159.569 138.354,163.591 136.076 C 164.000 135.844,165.605 134.807,167.158 133.772 C 168.711 132.736,170.192 131.765,170.449 131.613 C 170.706 131.462,171.170 131.100,171.480 130.808 C 171.791 130.517,172.118 130.279,172.209 130.279 C 172.299 130.279,173.406 129.592,174.669 128.752 C 175.933 127.913,177.523 126.876,178.204 126.449 C 178.885 126.022,180.403 125.037,181.576 124.260 C 182.749 123.484,183.822 122.848,183.960 122.848 C 184.099 122.848,184.357 122.673,184.535 122.459 C 184.713 122.244,185.256 121.850,185.742 121.583 C 186.228 121.316,187.796 120.274,189.226 119.268 C 190.656 118.261,192.607 116.966,193.560 116.389 C 196.334 114.712,198.114 113.554,205.229 108.796 C 206.607 107.874,207.901 107.009,208.105 106.873 C 208.309 106.737,208.742 106.445,209.067 106.225 C 209.393 106.005,211.141 104.890,212.951 103.748 C 218.775 100.075,219.560 99.570,219.938 99.250 C 221.041 98.319,224.964 95.867,225.159 95.987 C 225.284 96.065,225.387 95.787,225.387 95.371 C 225.387 94.402,225.349 94.410,223.272 95.799 " stroke="none" fill="#a28663" fill-rule="evenodd"></path><path id="path4" d="M175.975 42.314 C 175.567 42.409,177.406 42.489,180.062 42.493 C 182.718 42.497,186.006 42.634,187.368 42.798 C 188.731 42.962,190.291 43.150,190.836 43.216 C 191.792 43.332,191.800 43.327,191.084 43.067 C 189.449 42.474,177.789 41.893,175.975 42.314 M303.901 42.283 C 303.697 42.359,302.954 42.907,302.252 43.502 C 301.549 44.096,300.851 44.582,300.702 44.582 C 300.552 44.582,300.196 44.852,299.909 45.181 C 299.623 45.511,299.094 45.852,298.734 45.940 C 298.375 46.028,297.690 46.353,297.214 46.663 C 296.737 46.973,295.567 47.716,294.613 48.314 C 293.659 48.912,292.824 49.459,292.755 49.530 C 292.687 49.601,291.656 50.307,290.464 51.099 C 289.272 51.891,288.297 52.644,288.297 52.771 C 288.297 52.899,288.158 53.004,287.988 53.004 C 287.817 53.005,287.300 53.255,286.838 53.561 C 286.376 53.867,285.641 54.341,285.204 54.613 C 284.767 54.885,284.087 55.323,283.691 55.585 C 283.296 55.848,281.858 56.787,280.495 57.673 C 279.133 58.558,277.622 59.542,277.138 59.858 C 276.654 60.175,276.142 60.433,276.000 60.433 C 275.858 60.433,275.532 60.666,275.276 60.949 C 275.019 61.233,274.472 61.623,274.061 61.817 C 273.649 62.011,272.867 62.506,272.322 62.917 C 271.071 63.863,268.909 65.359,267.846 66.015 C 267.398 66.292,266.828 66.691,266.580 66.903 C 266.333 67.114,265.776 67.427,265.343 67.598 C 264.910 67.769,264.363 68.122,264.128 68.382 C 263.893 68.642,263.595 68.854,263.466 68.854 C 263.185 68.854,260.388 70.517,259.690 71.099 C 259.010 71.666,255.532 74.059,254.420 74.724 C 253.920 75.023,253.395 75.414,253.253 75.591 C 253.112 75.768,252.581 76.136,252.073 76.409 C 249.360 77.865,242.202 82.465,239.979 84.182 C 238.684 85.182,238.091 85.125,237.898 83.985 C 237.805 83.429,237.626 82.912,237.502 82.835 C 237.377 82.758,237.276 82.477,237.276 82.211 C 237.276 81.945,237.169 81.533,237.040 81.297 C 236.910 81.060,236.647 80.477,236.454 80.000 C 235.401 77.391,235.088 76.703,233.976 74.551 C 232.798 72.273,231.380 69.851,231.075 69.598 C 230.993 69.529,230.516 68.805,230.016 67.988 C 229.515 67.170,228.833 66.186,228.501 65.801 C 228.168 65.416,227.529 64.636,227.079 64.067 C 226.139 62.880,222.450 58.983,221.196 57.853 C 220.729 57.433,220.228 56.977,220.081 56.839 C 219.934 56.700,219.313 56.199,218.701 55.724 C 218.088 55.249,217.327 54.638,217.010 54.365 C 216.694 54.093,215.467 53.234,214.285 52.458 C 213.103 51.681,212.019 50.956,211.876 50.848 C 211.147 50.295,205.524 47.418,204.068 46.854 C 203.602 46.673,202.774 46.353,202.229 46.143 C 201.684 45.933,201.015 45.672,200.743 45.564 C 200.144 45.326,198.300 44.764,196.285 44.205 C 195.467 43.979,194.456 43.692,194.038 43.569 C 193.620 43.445,192.951 43.353,192.552 43.364 C 192.095 43.377,192.422 43.520,193.437 43.750 C 194.322 43.951,195.548 44.263,196.161 44.444 C 196.774 44.624,197.777 44.916,198.390 45.091 C 199.740 45.479,206.340 48.028,206.687 48.297 C 206.824 48.402,207.924 49.007,209.133 49.642 C 213.745 52.062,218.729 55.759,222.676 59.688 C 225.333 62.333,229.466 67.243,229.869 68.235 C 229.924 68.372,230.500 69.284,231.148 70.263 C 232.330 72.050,235.394 77.883,236.001 79.505 C 237.128 82.511,237.762 84.385,237.766 84.720 C 237.783 86.069,238.305 86.012,240.720 84.402 C 243.276 82.696,245.160 81.495,247.802 79.884 C 249.666 78.748,253.432 76.274,254.241 75.654 C 255.145 74.963,256.461 74.082,257.214 73.666 C 257.622 73.440,258.180 73.063,258.452 72.829 C 258.882 72.460,260.182 71.631,265.511 68.326 C 266.124 67.946,266.960 67.405,267.368 67.124 C 267.777 66.842,268.502 66.356,268.978 66.044 C 269.455 65.732,271.436 64.393,273.380 63.069 C 275.323 61.745,277.107 60.582,277.342 60.485 C 277.864 60.269,280.541 58.541,284.275 56.009 C 285.809 54.969,287.495 53.839,288.022 53.498 C 288.548 53.158,289.299 52.663,289.691 52.399 C 290.082 52.134,291.350 51.312,292.508 50.572 C 293.666 49.831,295.226 48.829,295.975 48.343 C 298.730 46.559,299.085 46.343,299.752 46.045 C 300.127 45.878,300.433 45.668,300.433 45.579 C 300.433 45.489,300.884 45.163,301.435 44.853 C 301.986 44.544,302.727 44.022,303.081 43.693 C 303.436 43.365,303.960 43.097,304.247 43.099 C 305.556 43.108,305.799 43.356,306.872 45.778 C 307.456 47.095,308.242 48.842,308.618 49.659 C 308.994 50.477,309.384 51.424,309.484 51.765 C 309.584 52.105,309.873 52.650,310.127 52.975 C 310.381 53.299,310.588 53.690,310.588 53.841 C 310.588 53.993,310.913 54.786,311.311 55.604 C 314.015 61.160,316.533 66.542,316.533 66.765 C 316.533 66.841,316.798 67.482,317.122 68.189 C 317.446 68.895,318.068 70.310,318.503 71.331 C 319.396 73.427,319.772 74.241,322.109 79.133 C 323.021 81.040,324.100 83.325,324.507 84.211 C 324.915 85.096,325.454 86.266,325.706 86.811 C 326.271 88.033,329.180 94.613,330.196 96.966 C 330.608 97.920,331.559 99.981,332.310 101.548 C 335.550 108.308,337.396 112.298,338.441 114.799 C 338.953 116.025,339.695 117.717,340.089 118.560 C 340.483 119.403,340.805 120.201,340.805 120.334 C 340.805 120.467,341.412 121.783,342.154 123.260 C 343.400 125.740,344.839 128.740,347.092 133.553 C 347.585 134.605,347.988 135.554,347.988 135.662 C 347.988 135.770,348.225 136.301,348.514 136.841 C 348.804 137.382,349.197 138.268,349.389 138.810 C 349.821 140.036,350.448 141.417,353.442 147.740 C 354.281 149.511,355.249 151.573,355.594 152.322 C 355.939 153.071,356.591 154.464,357.043 155.418 C 357.495 156.372,358.265 158.099,358.754 159.257 C 359.244 160.415,359.853 161.808,360.110 162.353 C 361.637 165.603,363.839 170.602,363.839 170.821 C 363.839 170.963,364.046 171.345,364.298 171.669 C 364.551 171.994,364.899 172.693,365.072 173.223 C 365.244 173.752,365.651 174.576,365.975 175.053 C 366.298 175.530,366.563 176.017,366.563 176.134 C 366.563 176.252,367.105 177.490,367.766 178.886 C 368.428 180.282,369.389 182.427,369.903 183.653 C 371.516 187.504,372.510 189.799,373.174 191.207 C 374.304 193.608,374.397 193.799,374.671 194.303 C 375.194 195.265,377.671 200.521,378.524 202.477 C 378.998 203.567,379.800 205.406,380.304 206.563 C 380.809 207.721,381.505 209.282,381.851 210.031 C 382.198 210.780,382.733 211.950,383.042 212.632 C 384.181 215.145,385.121 217.163,386.504 220.062 C 389.656 226.668,392.570 233.143,392.570 233.539 C 392.570 233.701,392.786 234.246,393.049 234.750 C 395.234 238.922,395.602 240.194,394.909 241.183 L 394.523 241.734 199.261 241.734 C 22.080 241.734,3.962 241.698,3.609 241.345 C 3.096 240.832,3.115 240.094,3.653 239.611 C 4.188 239.132,11.120 234.551,11.311 234.551 C 11.387 234.551,11.799 234.261,12.226 233.906 C 13.042 233.228,18.551 229.635,21.300 227.988 C 22.186 227.457,23.140 226.822,23.422 226.577 C 23.703 226.331,24.050 226.130,24.192 226.130 C 24.335 226.130,24.885 225.784,25.415 225.360 C 25.944 224.937,26.601 224.489,26.873 224.364 C 27.146 224.240,27.814 223.801,28.359 223.389 C 29.437 222.575,34.539 219.200,36.198 218.204 C 38.583 216.773,43.412 213.580,45.188 212.260 C 45.646 211.920,46.394 211.418,46.849 211.146 C 47.305 210.873,47.957 210.483,48.297 210.278 C 48.638 210.074,49.195 209.707,49.536 209.464 C 50.406 208.841,54.729 206.091,56.235 205.201 C 56.927 204.793,57.960 204.097,58.530 203.656 C 59.100 203.214,59.692 202.852,59.846 202.851 C 59.999 202.849,60.270 202.674,60.446 202.462 C 60.774 202.066,65.432 198.964,69.350 196.531 C 70.086 196.074,79.865 189.658,81.734 188.406 C 84.547 186.521,85.732 185.759,85.850 185.759 C 85.925 185.759,86.451 185.440,87.018 185.051 C 87.585 184.662,89.331 183.492,90.898 182.450 C 92.464 181.409,94.303 180.164,94.985 179.685 C 95.666 179.205,97.702 177.896,99.509 176.775 C 103.272 174.441,104.317 173.770,105.663 172.820 C 107.949 171.208,113.840 167.358,114.675 166.930 C 115.015 166.756,115.350 166.536,115.418 166.442 C 115.486 166.348,117.046 165.320,118.885 164.158 C 120.724 162.996,123.232 161.358,124.458 160.518 C 127.850 158.192,131.160 156.016,133.564 154.530 C 134.758 153.792,136.161 152.910,136.683 152.570 C 137.204 152.229,138.011 151.706,138.475 151.408 C 138.939 151.109,139.439 150.761,139.586 150.633 C 139.733 150.505,140.300 150.118,140.847 149.773 C 142.962 148.438,142.996 148.606,140.039 145.803 C 134.671 140.716,130.781 135.589,127.536 129.325 C 126.806 127.915,126.163 126.897,126.108 127.062 C 126.053 127.228,126.105 127.434,126.224 127.521 C 126.342 127.607,126.923 128.640,127.513 129.816 C 128.104 130.992,129.191 132.876,129.928 134.004 C 130.666 135.131,131.269 136.097,131.269 136.149 C 131.269 136.267,133.253 138.971,133.610 139.340 C 133.753 139.488,134.257 140.101,134.731 140.702 C 136.070 142.402,140.720 147.100,141.222 147.259 C 142.198 147.569,141.474 148.825,139.756 149.802 C 138.016 150.790,137.340 151.239,136.859 151.726 C 136.577 152.011,136.066 152.314,135.723 152.398 C 135.379 152.482,134.878 152.752,134.608 152.998 C 134.338 153.245,133.268 153.930,132.229 154.521 C 131.190 155.112,130.052 155.862,129.701 156.188 C 129.349 156.514,128.951 156.780,128.815 156.780 C 128.536 156.780,125.406 158.925,125.282 159.201 C 125.237 159.300,124.906 159.548,124.545 159.752 C 124.185 159.957,123.104 160.653,122.144 161.300 C 121.184 161.947,120.302 162.477,120.185 162.477 C 120.068 162.477,119.589 162.763,119.119 163.113 C 118.650 163.463,117.932 163.910,117.523 164.106 C 116.771 164.466,115.457 165.370,114.551 166.150 C 114.279 166.384,113.702 166.723,113.269 166.902 C 112.836 167.081,112.423 167.381,112.351 167.569 C 112.279 167.757,111.853 168.080,111.404 168.288 C 110.955 168.496,109.920 169.165,109.102 169.775 C 108.285 170.384,107.338 171.005,106.998 171.155 C 106.658 171.305,106.025 171.698,105.590 172.029 C 105.156 172.361,104.699 172.632,104.575 172.632 C 104.451 172.632,104.139 172.864,103.882 173.147 C 103.626 173.431,103.041 173.820,102.584 174.011 C 102.126 174.202,101.418 174.639,101.011 174.981 C 100.605 175.324,100.127 175.604,99.949 175.604 C 99.772 175.604,99.495 175.764,99.332 175.959 C 99.170 176.154,98.593 176.546,98.050 176.829 C 97.506 177.112,96.929 177.456,96.766 177.592 C 96.604 177.728,96.025 178.136,95.480 178.498 C 93.189 180.020,92.438 180.565,92.142 180.922 C 91.969 181.130,91.677 181.300,91.492 181.300 C 91.308 181.300,90.974 181.579,90.751 181.920 C 90.528 182.260,90.174 182.539,89.964 182.539 C 89.754 182.539,89.217 182.817,88.771 183.158 C 88.324 183.498,87.862 183.777,87.744 183.777 C 87.626 183.777,86.843 184.223,86.004 184.768 C 85.166 185.313,84.419 185.759,84.346 185.759 C 84.272 185.759,83.421 186.323,82.455 187.013 C 81.488 187.703,80.431 188.388,80.106 188.536 C 79.780 188.685,79.449 189.012,79.369 189.264 C 79.289 189.515,79.003 189.721,78.734 189.721 C 78.464 189.721,77.985 189.980,77.668 190.297 C 77.351 190.614,76.754 191.013,76.341 191.184 C 75.929 191.355,75.337 191.765,75.028 192.094 C 74.718 192.424,74.332 192.693,74.170 192.693 C 74.008 192.693,73.587 192.920,73.235 193.197 C 72.882 193.474,72.338 193.839,72.025 194.007 C 71.464 194.309,70.156 195.133,68.766 196.060 C 67.904 196.636,66.762 197.358,65.668 198.019 C 64.916 198.473,62.630 199.969,61.315 200.867 C 61.016 201.071,60.317 201.601,59.762 202.043 C 59.207 202.486,58.632 202.848,58.484 202.848 C 58.336 202.848,58.040 203.116,57.825 203.444 C 57.611 203.772,57.143 204.113,56.787 204.202 C 56.430 204.292,55.851 204.591,55.499 204.868 C 55.148 205.144,54.501 205.520,54.061 205.704 C 53.622 205.888,53.120 206.163,52.947 206.315 C 52.773 206.467,51.573 207.269,50.279 208.098 C 48.985 208.926,47.889 209.700,47.843 209.817 C 47.798 209.935,47.645 210.031,47.504 210.031 C 47.363 210.031,46.867 210.365,46.402 210.774 C 45.936 211.183,45.412 211.517,45.236 211.517 C 45.060 211.517,44.654 211.796,44.334 212.136 C 44.014 212.477,43.600 212.755,43.413 212.755 C 43.226 212.755,42.821 213.006,42.512 213.313 C 42.203 213.619,41.567 214.063,41.099 214.300 C 40.631 214.536,38.966 215.564,37.399 216.584 C 35.833 217.605,34.217 218.610,33.808 218.819 C 32.954 219.256,31.600 220.179,30.735 220.916 C 30.407 221.196,29.997 221.424,29.824 221.424 C 29.651 221.424,29.290 221.703,29.023 222.043 C 28.755 222.384,28.428 222.663,28.296 222.663 C 28.165 222.663,27.568 223.052,26.970 223.527 C 26.372 224.002,25.757 224.393,25.603 224.394 C 25.449 224.395,25.171 224.582,24.984 224.808 C 24.797 225.035,24.191 225.421,23.638 225.666 C 23.084 225.911,22.426 226.339,22.175 226.616 C 21.924 226.894,21.584 227.121,21.419 227.121 C 21.254 227.121,20.801 227.372,20.413 227.678 C 20.024 227.985,19.289 228.458,18.779 228.731 C 17.482 229.423,12.181 233.004,11.199 233.850 C 10.751 234.236,10.267 234.551,10.123 234.551 C 9.979 234.551,9.565 234.780,9.203 235.060 C 8.030 235.968,6.833 236.746,5.820 237.259 C 2.118 239.134,0.802 241.266,2.826 242.112 C 4.196 242.684,394.422 242.664,395.239 242.091 C 396.125 241.471,395.890 238.451,394.847 237.040 C 394.582 236.682,394.283 236.011,394.181 235.549 C 394.080 235.087,393.805 234.367,393.571 233.949 C 393.336 233.531,392.943 232.576,392.697 231.827 C 392.264 230.513,391.838 229.577,390.311 226.594 C 389.919 225.827,389.598 225.058,389.598 224.884 C 389.598 224.709,389.319 224.202,388.978 223.755 C 388.638 223.309,388.359 222.730,388.359 222.469 C 388.359 222.208,388.027 221.504,387.621 220.904 C 387.214 220.305,386.880 219.663,386.878 219.479 C 386.875 219.295,386.599 218.626,386.264 217.993 C 385.220 216.019,384.149 213.742,384.149 213.498 C 384.149 213.370,383.859 212.633,383.506 211.860 C 383.152 211.087,382.709 210.018,382.520 209.484 C 382.332 208.949,381.969 208.213,381.713 207.847 C 381.458 207.482,381.170 206.848,381.073 206.440 C 380.977 206.031,380.638 205.307,380.321 204.830 C 380.004 204.353,379.673 203.556,379.587 203.059 C 379.500 202.562,379.271 202.023,379.077 201.863 C 378.884 201.702,378.592 201.161,378.429 200.661 C 378.267 200.161,377.815 199.151,377.426 198.417 C 377.037 197.683,376.718 196.944,376.718 196.776 C 376.718 196.607,376.557 196.335,376.360 196.172 C 376.163 196.008,375.807 195.354,375.569 194.717 C 375.331 194.081,374.893 193.226,374.596 192.817 C 374.299 192.409,373.983 191.671,373.895 191.177 C 373.808 190.684,373.517 190.029,373.251 189.721 C 372.984 189.414,372.695 188.759,372.609 188.265 C 372.523 187.772,372.201 186.923,371.894 186.378 C 371.587 185.833,371.196 184.941,371.024 184.396 C 370.852 183.851,370.573 183.238,370.404 183.034 C 370.236 182.830,370.019 182.334,369.924 181.933 C 369.710 181.037,366.638 174.712,366.022 173.900 C 365.776 173.575,365.458 172.879,365.317 172.353 C 365.175 171.826,364.853 171.200,364.601 170.961 C 364.349 170.722,364.066 170.059,363.972 169.488 C 363.877 168.917,363.642 168.318,363.449 168.158 C 363.256 167.998,362.939 167.350,362.744 166.720 C 362.550 166.089,361.817 164.291,361.114 162.724 C 360.412 161.158,359.678 159.443,359.484 158.913 C 359.290 158.383,358.908 157.589,358.637 157.150 C 358.365 156.710,358.142 156.177,358.142 155.965 C 358.142 155.753,357.875 155.262,357.548 154.873 C 357.220 154.484,356.830 153.708,356.679 153.149 C 356.528 152.590,356.240 151.995,356.037 151.827 C 355.835 151.659,355.547 151.061,355.397 150.497 C 355.247 149.934,354.970 149.301,354.782 149.090 C 354.594 148.879,354.270 148.222,354.061 147.631 C 353.852 147.040,353.459 146.196,353.188 145.756 C 352.916 145.317,352.693 144.824,352.693 144.661 C 352.693 144.499,352.312 143.565,351.845 142.585 C 351.379 141.606,350.918 140.526,350.822 140.186 C 350.726 139.845,350.450 139.287,350.210 138.945 C 349.969 138.603,349.649 137.866,349.498 137.306 C 349.348 136.746,349.019 136.022,348.768 135.698 C 348.517 135.374,348.240 134.737,348.152 134.283 C 348.064 133.828,347.788 133.160,347.539 132.796 C 347.289 132.433,346.889 131.607,346.649 130.960 C 346.409 130.313,346.115 129.783,345.995 129.783 C 345.876 129.783,345.655 129.310,345.505 128.731 C 345.355 128.152,345.037 127.399,344.799 127.059 C 344.560 126.718,344.169 125.945,343.930 125.339 C 343.691 124.734,343.287 123.947,343.033 123.591 C 342.779 123.234,342.496 122.614,342.403 122.214 C 342.310 121.814,341.980 121.096,341.670 120.619 C 341.360 120.142,341.036 119.346,340.949 118.849 C 340.863 118.352,340.572 117.665,340.303 117.324 C 340.034 116.982,339.814 116.491,339.814 116.232 C 339.814 115.974,339.552 115.212,339.232 114.538 C 338.911 113.864,338.287 112.533,337.843 111.579 C 337.400 110.625,336.604 108.978,336.073 107.918 C 335.542 106.858,335.108 105.865,335.108 105.712 C 335.108 105.559,334.844 105.088,334.522 104.665 C 334.199 104.242,333.855 103.530,333.757 103.083 C 333.659 102.635,333.383 102.079,333.144 101.847 C 332.906 101.614,332.567 100.895,332.391 100.248 C 332.216 99.601,331.985 99.071,331.879 99.071 C 331.773 99.071,331.461 98.430,331.186 97.647 C 330.442 95.527,329.235 92.659,328.540 91.360 C 328.202 90.728,327.926 90.058,327.926 89.869 C 327.926 89.681,327.664 89.139,327.345 88.664 C 327.026 88.190,326.686 87.481,326.589 87.089 C 326.493 86.697,326.141 85.974,325.808 85.483 C 325.474 84.993,325.201 84.347,325.201 84.048 C 325.201 83.750,324.944 83.190,324.629 82.805 C 324.314 82.420,323.924 81.645,323.761 81.082 C 323.598 80.519,323.299 79.920,323.095 79.751 C 322.891 79.582,322.723 79.318,322.720 79.165 C 322.718 79.011,322.274 77.994,321.734 76.904 C 321.193 75.814,320.749 74.795,320.747 74.638 C 320.745 74.482,320.466 73.869,320.127 73.276 C 319.788 72.683,319.509 72.019,319.508 71.800 C 319.506 71.580,319.185 70.800,318.794 70.066 C 318.403 69.331,318.006 68.380,317.913 67.951 C 317.819 67.523,317.534 66.983,317.280 66.753 C 317.025 66.522,316.743 65.901,316.654 65.372 C 316.565 64.843,316.293 64.157,316.051 63.846 C 315.808 63.536,315.527 63.003,315.426 62.663 C 315.325 62.322,314.994 61.598,314.691 61.053 C 314.388 60.508,313.991 59.672,313.809 59.195 C 313.627 58.718,313.333 58.155,313.155 57.944 C 312.976 57.733,312.663 57.085,312.458 56.504 C 312.253 55.923,311.866 55.140,311.599 54.765 C 311.332 54.390,310.983 53.568,310.825 52.939 C 310.667 52.310,310.326 51.604,310.067 51.370 C 309.809 51.136,309.598 50.709,309.598 50.420 C 309.598 50.131,309.267 49.229,308.862 48.415 C 308.458 47.601,308.124 46.852,308.119 46.750 C 308.101 46.312,306.512 43.171,306.052 42.663 C 305.569 42.128,304.720 41.978,303.901 42.283 M170.526 43.000 L 169.536 43.347 170.650 43.193 C 171.263 43.108,172.545 42.958,173.498 42.860 L 175.232 42.681 173.375 42.667 C 172.353 42.659,171.071 42.809,170.526 43.000 M167.183 43.594 C 166.842 43.703,165.895 43.984,165.077 44.218 C 163.186 44.759,161.764 45.296,162.178 45.312 C 162.355 45.319,163.358 45.059,164.408 44.734 C 165.457 44.409,167.040 43.972,167.926 43.764 C 169.143 43.477,169.324 43.386,168.669 43.391 C 168.192 43.394,167.523 43.485,167.183 43.594 M160.495 45.562 C 160.291 45.676,159.622 45.962,159.009 46.196 C 157.185 46.894,156.983 46.981,155.046 47.907 C 151.506 49.600,145.715 53.138,143.951 54.687 C 143.638 54.962,142.913 55.557,142.341 56.010 C 138.831 58.785,134.177 63.943,130.978 68.607 C 129.365 70.959,128.714 72.037,127.654 74.118 C 127.346 74.720,126.885 75.618,126.284 76.780 C 126.042 77.248,125.518 78.545,124.331 81.610 C 123.989 82.494,123.411 84.300,122.984 85.820 C 122.755 86.638,122.463 87.563,122.336 87.875 C 122.209 88.188,122.118 88.857,122.134 89.361 C 122.150 89.866,122.211 90.056,122.271 89.783 C 122.942 86.697,124.056 83.131,125.637 79.009 C 130.914 65.252,144.068 52.403,158.885 46.532 C 160.520 45.884,161.635 45.354,161.362 45.354 C 161.090 45.354,160.700 45.448,160.495 45.562 M178.762 57.150 C 179.885 57.196,181.724 57.196,182.848 57.150 C 183.972 57.104,183.053 57.067,180.805 57.067 C 178.557 57.067,177.638 57.104,178.762 57.150 M173.003 57.463 C 172.594 57.572,171.368 57.861,170.279 58.105 C 168.355 58.535,165.999 59.364,167.430 59.107 C 167.771 59.046,168.663 58.815,169.412 58.594 C 170.161 58.373,171.498 58.074,172.384 57.930 C 173.269 57.786,174.495 57.580,175.108 57.474 L 176.223 57.280 174.985 57.272 C 174.303 57.268,173.412 57.354,173.003 57.463 M186.378 57.455 C 186.923 57.574,187.870 57.742,188.483 57.829 C 190.026 58.049,192.729 58.695,193.247 58.968 C 193.484 59.093,193.874 59.188,194.114 59.179 C 195.763 59.120,189.385 57.525,186.749 57.337 C 185.491 57.247,185.463 57.256,186.378 57.455 M165.201 59.587 C 164.381 60.042,164.922 60.035,165.978 59.576 C 166.525 59.339,166.641 59.219,166.316 59.229 C 166.043 59.237,165.542 59.398,165.201 59.587 M195.542 59.604 C 196.819 60.097,197.699 60.480,199.384 61.275 C 200.136 61.630,200.857 61.920,200.987 61.920 C 201.450 61.920,200.221 61.259,198.266 60.457 C 197.176 60.010,196.091 59.543,195.855 59.420 C 195.618 59.296,195.228 59.201,194.988 59.208 C 194.748 59.215,194.997 59.393,195.542 59.604 M163.467 60.247 C 150.348 66.075,141.547 75.806,137.347 89.128 C 136.988 90.266,136.737 91.325,136.790 91.481 C 136.880 91.748,137.112 91.104,137.759 88.793 C 139.207 83.620,143.506 76.051,147.237 72.107 C 147.833 71.476,148.581 70.674,148.898 70.325 C 149.808 69.320,152.791 66.799,154.551 65.544 C 155.437 64.913,156.279 64.313,156.422 64.211 C 157.499 63.444,162.909 60.681,163.334 60.681 C 163.492 60.681,163.837 60.517,164.101 60.317 C 164.665 59.891,164.348 59.855,163.467 60.247 M201.453 62.114 C 201.520 62.221,202.056 62.560,202.644 62.867 C 203.833 63.486,204.642 63.960,204.830 64.149 C 204.898 64.218,205.567 64.677,206.316 65.169 C 208.114 66.351,212.930 70.525,213.870 71.716 C 214.279 72.234,214.726 72.777,214.864 72.923 C 215.002 73.069,215.501 73.690,215.972 74.303 C 216.444 74.916,216.890 75.474,216.963 75.542 C 217.880 76.387,221.141 82.228,222.288 85.077 C 222.507 85.622,222.793 86.262,222.922 86.498 C 223.052 86.735,223.162 87.125,223.167 87.365 C 223.176 87.833,223.877 89.210,223.892 88.789 C 223.901 88.542,223.542 87.538,222.391 84.582 C 219.076 76.074,211.278 67.327,202.776 62.580 C 201.539 61.890,201.252 61.789,201.453 62.114 M224.013 89.783 C 224.071 90.192,224.251 91.105,224.412 91.813 C 224.913 94.020,224.354 94.668,219.318 97.717 C 218.860 97.994,218.274 98.412,218.016 98.646 C 217.758 98.880,217.454 99.071,217.341 99.071 C 217.229 99.071,216.785 99.340,216.354 99.668 C 215.924 99.996,215.189 100.440,214.721 100.654 C 213.165 101.366,208.285 104.643,207.027 105.820 C 206.626 106.195,206.142 106.502,205.950 106.502 C 205.758 106.502,205.455 106.698,205.277 106.939 C 205.099 107.179,204.619 107.521,204.211 107.699 C 203.802 107.876,203.077 108.274,202.601 108.582 C 201.781 109.113,199.598 110.491,198.514 111.163 C 198.241 111.331,197.691 111.661,197.291 111.896 C 196.891 112.130,196.327 112.545,196.037 112.817 C 195.747 113.090,195.099 113.506,194.597 113.742 C 194.095 113.978,193.684 114.277,193.684 114.407 C 193.684 114.536,193.433 114.716,193.127 114.807 C 192.820 114.898,192.158 115.296,191.655 115.691 C 191.153 116.086,190.623 116.409,190.479 116.409 C 190.335 116.409,190.019 116.604,189.778 116.842 C 189.536 117.080,188.373 117.922,187.194 118.711 C 186.014 119.501,185.014 120.226,184.970 120.321 C 184.927 120.417,184.502 120.689,184.025 120.926 C 182.590 121.639,180.459 122.857,180.318 123.044 C 180.245 123.141,179.796 123.417,179.319 123.658 C 178.842 123.899,178.006 124.433,177.461 124.846 C 176.916 125.259,175.885 125.985,175.170 126.459 C 174.455 126.934,173.870 127.428,173.870 127.557 C 173.870 127.687,173.600 127.860,173.269 127.943 C 172.938 128.026,172.472 128.311,172.232 128.576 C 171.992 128.841,171.315 129.271,170.727 129.531 C 170.140 129.791,169.659 130.104,169.659 130.227 C 169.659 130.350,169.241 130.633,168.731 130.854 C 167.660 131.319,163.456 133.949,162.649 134.659 C 162.350 134.922,161.799 135.268,161.424 135.427 C 161.050 135.587,160.743 135.887,160.743 136.094 C 160.743 136.301,160.548 136.471,160.310 136.472 C 159.866 136.473,159.583 136.637,157.174 138.292 C 155.586 139.383,155.149 139.372,153.808 138.205 C 153.331 137.791,152.580 137.203,152.138 136.899 C 150.738 135.936,146.270 131.226,144.682 129.040 C 142.522 126.065,142.279 125.706,141.998 125.077 C 141.907 124.873,141.768 124.650,141.690 124.582 C 141.489 124.407,139.596 120.466,139.072 119.133 C 138.283 117.126,137.968 116.511,137.962 116.969 C 137.959 117.210,138.063 117.600,138.192 117.836 C 138.322 118.073,138.607 118.712,138.827 119.257 C 142.002 127.147,148.515 135.227,154.957 139.266 L 155.982 139.909 158.300 138.355 C 159.576 137.501,161.567 136.188,162.724 135.438 C 165.842 133.418,169.286 131.205,170.078 130.713 C 171.112 130.071,172.421 129.205,176.890 126.207 C 182.052 122.745,182.534 122.436,183.282 122.112 C 183.622 121.965,184.848 121.177,186.006 120.362 C 188.107 118.883,193.032 115.579,194.675 114.547 C 196.837 113.188,203.954 108.586,205.418 107.600 C 205.809 107.336,206.547 106.842,207.056 106.502 C 207.566 106.161,208.462 105.548,209.048 105.139 C 210.193 104.340,213.835 102.007,215.851 100.781 C 216.533 100.367,217.546 99.729,218.103 99.364 C 218.661 98.999,219.497 98.457,219.961 98.160 C 220.425 97.863,220.972 97.466,221.176 97.276 C 221.381 97.086,222.356 96.401,223.344 95.753 C 224.388 95.068,225.139 94.402,225.139 94.160 C 225.139 93.616,224.497 90.729,224.166 89.783 L 223.906 89.040 224.013 89.783 M121.650 91.684 C 121.158 94.263,120.867 96.620,120.898 97.775 C 120.918 98.533,121.051 97.940,121.274 96.099 C 121.464 94.533,121.747 92.665,121.902 91.949 C 122.058 91.233,122.121 90.584,122.043 90.506 C 121.965 90.428,121.789 90.958,121.650 91.684 M136.427 92.632 C 135.228 99.048,135.233 106.882,136.439 111.455 L 136.668 112.322 136.693 111.533 C 136.707 111.099,136.606 110.448,136.468 110.087 C 135.628 107.877,135.651 95.649,136.498 94.066 C 136.635 93.810,136.711 93.188,136.668 92.683 L 136.589 91.765 136.427 92.632 M120.714 102.167 C 120.714 103.802,120.754 104.438,120.803 103.582 C 120.851 102.725,120.851 101.387,120.802 100.609 C 120.753 99.832,120.713 100.533,120.714 102.167 M120.991 106.997 C 121.115 109.615,121.523 112.706,121.842 113.437 C 122.091 114.006,122.103 113.986,121.987 113.189 C 121.917 112.712,121.691 110.929,121.484 109.226 C 120.995 105.219,120.884 104.715,120.991 106.997 M136.738 112.744 C 136.727 112.976,136.819 113.422,136.941 113.734 C 137.064 114.047,137.294 114.788,137.454 115.380 C 137.613 115.972,137.802 116.399,137.873 116.327 C 137.944 116.256,137.884 115.828,137.739 115.375 C 136.884 112.698,136.756 112.361,136.738 112.744 M122.134 114.876 C 122.106 115.682,122.662 117.851,123.114 118.696 C 123.240 118.933,123.347 119.323,123.352 119.563 C 123.361 120.056,124.270 122.665,125.058 124.458 C 125.177 124.731,125.419 125.335,125.595 125.801 C 125.772 126.267,125.953 126.536,125.999 126.398 C 126.045 126.260,125.707 125.265,125.248 124.188 C 124.789 123.111,124.218 121.560,123.980 120.743 C 123.742 119.926,123.402 118.811,123.225 118.266 C 122.929 117.357,122.521 115.778,122.266 114.551 C 122.207 114.269,122.150 114.408,122.134 114.876 " stroke="none" fill="#c9a96a" fill-rule="evenodd"></path></g></svg>