<?xml version="1.0" encoding="utf-8"?>
<!-- Generator: Adobe Illustrator 16.0.0, SVG Export Plug-In . SVG Version: 6.00 Build 0)  -->
<!DOCTYPE svg PUBLIC "-//W3C//DTD SVG 1.1//EN" "http://www.w3.org/Graphics/SVG/1.1/DTD/svg11.dtd">
<svg version="1.1" xmlns="http://www.w3.org/2000/svg" xmlns:xlink="http://www.w3.org/1999/xlink" x="0px" y="0px"
	 width="1173.659px" height="1465.726px" viewBox="0 0 1173.659 1465.726" enable-background="new 0 0 1173.659 1465.726"
	 xml:space="preserve">
<g id="bg">
	<rect width="586.83" height="485.239"/>
	<rect x="586.83" fill="#FFFFFF" width="586.829" height="485.239"/>
	<rect y="490.243" width="586.83" height="485.239"/>
	<rect x="586.83" y="490.243" fill="#FFFFFF" width="586.829" height="485.239"/>
	<rect y="980.485" width="586.83" height="485.24"/>
	<rect x="586.83" y="980.485" fill="#FFFFFF" width="586.829" height="485.24"/>
</g>
<g id="Negativo_3">
	<g>
		<g>
			<rect x="230.299" y="1088.178" fill="#FFFFFF" width="126.335" height="154.181"/>
			<rect x="236" y="1093.86" width="114.933" height="142.814"/>
			<polygon fill="#FFFFFF" points="310.48,1196.892 310.48,1099.544 276.38,1099.544 276.38,1196.892 241.684,1196.892 
				241.684,1230.992 345.25,1230.992 345.25,1196.892 			"/>
		</g>
		<g>
			<path fill="#FFFFFF" d="M176.585,1288.165c-1.497-2.836-4.326-4.371-7.227-4.371c-6.454,0-9.493,6.525-9.493,12.979
				c0,7.462,4.657,12.296,9.54,12.296c2.781,0,5.636-1.567,7.746-5.11l6.68,3.963c-2.854,5.947-8.713,9.07-14.646,9.07
				c-8.591,0-17.335-6.549-17.335-20.562c0-13.692,8.966-20.523,17.717-20.523c5.758,0,11.422,2.957,14.378,8.862L176.585,1288.165z
				"/>
			<path fill="#FFFFFF" d="M188.699,1316.241v-39.624h7.868v39.624H188.699z"/>
			<path fill="#FFFFFF" d="M228.679,1316.241c-14.607-21.762-16.428-24.383-17.282-26.096c0,0,0.113,2.259,0.113,26.096h-7.868
				v-39.624h7.642c14.136,21.233,15.854,23.721,16.699,25.416c0,0-0.113-2.506-0.113-25.416h7.869v39.624H228.679z"/>
			<path fill="#FFFFFF" d="M242.19,1316.241v-39.624h27.454v7.756h-19.586v6.792h11.377v7.756h-11.377v9.566h20.435v7.754H242.19z"
				/>
			<path fill="#FFFFFF" d="M286.917,1276.431c10.563,0,19.238,1.478,19.238,12.754c0,14.815-14.225,13.018-23.039,13.018v14.039
				h-7.868v-39.624C279.173,1276.617,283.164,1276.431,286.917,1276.431z M298.003,1289.354c0-6.511-7.332-4.981-14.887-4.981
				v10.075C292.589,1294.448,298.003,1295.591,298.003,1289.354z"/>
			<path fill="#FFFFFF" d="M310.571,1316.241v-39.624h7.867v39.624H310.571z"/>
			<path fill="#FFFFFF" d="M351.891,1316.241l-3.112-8.83h-14.492l-3.112,8.83h-8.491l15.17-39.624h7.698l15.058,39.624H351.891z
				 M341.533,1286.522c-0.612,2.446-1.896,5.927-4.528,13.36h9.058C343.758,1293.385,342.162,1289.054,341.533,1286.522z"/>
			<path fill="#FFFFFF" d="M389.269,1316.241c-14.293-21.294-16.381-24.287-17.282-26.096c0,0,0.113,2.31,0.113,26.096h-7.868
				v-39.624h7.642c13.742,20.642,15.823,23.654,16.699,25.416c0,0-0.113-2.506-0.113-25.416h7.867v39.624H389.269z"/>
			<path fill="#FFFFFF" d="M435.147,1296.469c0,9.891-4.855,20.395-17.253,20.395c-11.533,0-17.366-10.294-17.366-20.55
				c0-10.178,5.746-20.318,17.366-20.318C429.356,1275.995,435.147,1285.2,435.147,1296.469z M427.066,1296.031
				c0-8.012-4.697-12.321-9.323-12.321c-4.486,0-8.906,4.055-8.906,12.72c0,9.828,4.906,12.598,9.041,12.598
				C424.615,1309.027,427.066,1302.769,427.066,1296.031z"/>
		</g>
		<g>
			<path fill="#FFFFFF" d="M168.529,1333.757h-5.886v23.547h-5.074v-23.547h-5.886v-4.871h16.847V1333.757z"/>
			<path fill="#FFFFFF" d="M180.82,1328.368c4.55,0,9.226,4.019,9.226,14.687c0,7.151-2.289,14.695-9.459,14.695
				c-6.932,0-9.45-7.287-9.45-14.315C171.137,1336.1,173.519,1328.368,180.82,1328.368z M184.849,1343.136
				c0-6.415-1.421-9.622-4.263-9.622c-2.815,0-4.222,3.181-4.222,9.541c0,6.413,1.434,9.621,4.303,9.621
				C183.455,1352.676,184.849,1349.496,184.849,1343.136z"/>
			<path fill="#FFFFFF" d="M211.114,1357.304h-4.872c-5.271-12.751-6.342-15.18-7.388-18.432c0.104,4.492,0.081,5.724,0.081,18.432
				h-4.628v-28.418h5.115c5.631,14.057,6.422,15.936,7.226,18.391c-0.204-8.752-0.162-4.187-0.162-18.391h4.628V1357.304z"/>
			<path fill="#FFFFFF" d="M234.171,1328.886l-7.348,17.701v10.717h-5.074v-10.637l-7.308-17.781h5.602
				c2.262,5.948,3.867,9.955,4.303,12.383c0.694-3.151,2.447-7.501,4.304-12.383H234.171z"/>
			<path fill="#FFFFFF" d="M263.644,1348.494c0,9.966-8.163,8.81-16.807,8.81v-28.418h7.672c5.849,0,8.507,3.777,8.507,7.358
				c0,2.446-1.241,4.801-3.554,5.795C262.249,1343.122,263.644,1345.274,263.644,1348.494z M257.919,1336.681
				c0-3.591-3.034-3.125-6.13-3.125v6.21C255.018,1339.766,257.919,1340.236,257.919,1336.681z M258.609,1348.616
				c0-4.787-3.644-4.304-6.82-4.304v8.322C254.932,1352.635,258.609,1353.173,258.609,1348.616z"/>
			<path fill="#FFFFFF" d="M282.601,1357.304h-14.939v-28.418h14.573v4.871h-9.499v6.009h6.374v4.791h-6.374v7.875h9.865V1357.304z"
				/>
			<path fill="#FFFFFF" d="M303.668,1357.304h-5.52l-4.426-10.8h-1.664v10.8h-5.075v-28.418h7.552c6.269,0,9.153,4.194,9.153,8.47
				c0,3.288-1.706,6.623-4.892,8.135L303.668,1357.304z M298.513,1337.817c0-4.419-3.686-3.978-6.455-3.978v7.915
				C294.981,1341.755,298.513,1342.274,298.513,1337.817z"/>
			<path fill="#FFFFFF" d="M324.049,1350.484c-1.38,4.843-4.101,7.266-8.159,7.266c-6.684,0-9.243-7.311-9.243-14.391
				c0-18.148,14.421-18.797,17.362-7.734l-4.751,1.543c-0.92-3.289-1.966-3.654-3.368-3.654c-2.68,0-4.021,3.181-4.021,9.541
				c0,7.669,2.212,9.684,4.084,9.684c2.159,0,3.024-2.063,3.711-4.122L324.049,1350.484z"/>
			<path fill="#FFFFFF" d="M344.63,1357.304h-5.075v-12.26h-6.495v12.26h-5.074v-28.418h5.074v11.205h6.495v-11.205h5.075V1357.304z
				"/>
			<path fill="#FFFFFF" d="M370.611,1357.304h-4.628c0-2.627-0.001-4.759-0.001-6.572c0-4.887,0.01-7.464,0.082-11.209
				c-1.617,5.751-2.601,8.629-5.806,18.512c-3.227-9.95-4.195-12.786-5.805-18.512c0,9.305,0,8.674,0,17.781h-4.547v-28.418h5.114
				c4.11,12.822,4.183,12.887,5.278,16.929c0.318-1.589,2.138-7.132,5.277-16.929h5.034V1357.304z"/>
			<path fill="#FFFFFF" d="M393.874,1357.304h-5.237l-1.339-5.928h-6.374l-1.34,5.928h-5.196l7.267-28.418h4.953L393.874,1357.304z
				 M386.201,1346.627c-0.756-3.308-1.627-6.921-2.11-10.271c-0.419,3.069-1.225,6.484-2.07,10.271H386.201z"/>
			<path fill="#FFFFFF" d="M414.455,1357.304h-4.872c-5.333-12.899-6.355-15.216-7.389-18.432c0.072,3.085,0.083,4.484,0.083,9.694
				c0,2.142-0.002,4.927-0.002,8.737h-4.628v-28.418h5.114c5.642,14.079,6.429,15.95,7.228,18.391
				c-0.103-4.423-0.157-6.636-0.162-6.636c0,0-0.001,0.006-0.001,0.019v-11.773h4.629V1357.304z"/>
			<path fill="#FFFFFF" d="M435.117,1349.631c0,5.104-3.86,8.157-8.282,8.157c-2.993,0-6.242-1.398-8.728-4.503l3.45-3.694
				c1.821,2.35,3.805,3.263,5.391,3.263c1.77,0,3.043-1.137,3.043-2.687c0-1.513-1.216-3.42-4.373-5.043
				c-4.237-2.216-6.779-4.332-6.779-9.053c0-7.859,10.223-10.695,15.709-3.572l-3.368,3.371c-1.318-1.484-2.383-2.528-4.338-2.528
				c-1.432,0-2.848,0.676-2.848,2.486C423.994,1341.046,435.117,1340.013,435.117,1349.631z"/>
		</g>
	</g>
</g>
<g id="Positivo_3">
	<g>
		<g>
			<rect x="817.128" y="1086.776" width="126.335" height="156.982"/>
			<polygon fill="#FFFFFF" points="898.998,1200.029 898.998,1093.024 861.514,1093.024 861.514,1200.029 823.375,1200.029 
				823.375,1237.512 937.216,1237.512 937.216,1200.029 			"/>
		</g>
		<g>
			<path d="M763.415,1289.565c-1.497-2.835-4.326-4.371-7.228-4.371c-6.453,0-9.493,6.525-9.493,12.979
				c0,7.462,4.657,12.295,9.54,12.295c2.781,0,5.636-1.567,7.746-5.11l6.68,3.963c-2.854,5.947-8.713,9.071-14.646,9.071
				c-8.59,0-17.335-6.55-17.335-20.562c0-13.693,8.966-20.523,17.717-20.523c5.758,0,11.422,2.957,14.378,8.861L763.415,1289.565z"
				/>
			<path d="M775.529,1317.642v-39.624h7.867v39.624H775.529z"/>
			<path d="M815.508,1317.642c-14.607-21.762-16.429-24.383-17.282-26.096c0,0,0.113,2.259,0.113,26.096h-7.867v-39.624h7.641
				c14.136,21.234,15.854,23.721,16.699,25.417c0,0-0.113-2.507-0.113-25.417h7.868v39.624H815.508z"/>
			<path d="M829.02,1317.642v-39.624h27.453v7.757h-19.586v6.791h11.378v7.756h-11.378v9.566h20.436v7.754H829.02z"/>
			<path d="M873.747,1277.831c10.563,0,19.237,1.479,19.237,12.754c0,14.816-14.225,13.019-23.038,13.019v14.038h-7.868v-39.624
				C866.002,1278.018,869.994,1277.831,873.747,1277.831z M884.833,1290.755c0-6.51-7.332-4.98-14.887-4.98v10.074
				C879.418,1295.849,884.833,1296.991,884.833,1290.755z"/>
			<path d="M897.4,1317.642v-39.624h7.867v39.624H897.4z"/>
			<path d="M938.721,1317.642l-3.113-8.83h-14.491l-3.113,8.83h-8.491l15.17-39.624h7.698l15.059,39.624H938.721z M928.363,1287.924
				c-0.613,2.445-1.896,5.926-4.529,13.359h9.058C930.588,1294.786,928.991,1290.454,928.363,1287.924z"/>
			<path d="M976.098,1317.642c-14.293-21.294-16.38-24.287-17.282-26.096c0,0,0.113,2.311,0.113,26.096h-7.867v-39.624h7.641
				c13.742,20.642,15.823,23.654,16.699,25.417c0,0-0.113-2.507-0.113-25.417h7.867v39.624H976.098z"/>
			<path d="M1021.976,1297.869c0,9.891-4.854,20.395-17.253,20.395c-11.533,0-17.365-10.294-17.365-20.55
				c0-10.178,5.745-20.318,17.365-20.318C1016.186,1277.396,1021.976,1286.601,1021.976,1297.869z M1013.895,1297.433
				c0-8.013-4.697-12.322-9.322-12.322c-4.487,0-8.907,4.056-8.907,12.721c0,9.827,4.906,12.597,9.041,12.597
				C1011.444,1310.428,1013.895,1304.169,1013.895,1297.433z"/>
		</g>
		<g>
			<path d="M755.359,1335.158h-5.887v23.546h-5.073v-23.546h-5.887v-4.872h16.847V1335.158z"/>
			<path d="M767.649,1329.769c4.551,0,9.226,4.019,9.226,14.688c0,7.151-2.289,14.694-9.459,14.694
				c-6.932,0-9.449-7.287-9.449-14.314C757.966,1337.501,760.347,1329.769,767.649,1329.769z M771.678,1344.536
				c0-6.414-1.421-9.622-4.263-9.622c-2.814,0-4.222,3.182-4.222,9.542c0,6.412,1.435,9.62,4.304,9.62
				C770.284,1354.076,771.678,1350.896,771.678,1344.536z"/>
			<path d="M797.943,1358.704h-4.871c-5.271-12.751-6.342-15.18-7.389-18.432c0.104,4.492,0.081,5.724,0.081,18.432h-4.628v-28.418
				h5.115c5.632,14.057,6.422,15.936,7.226,18.391c-0.204-8.752-0.162-4.187-0.162-18.391h4.628V1358.704z"/>
			<path d="M821,1330.286l-7.348,17.701v10.717h-5.074v-10.637l-7.308-17.781h5.603c2.262,5.948,3.866,9.955,4.303,12.383
				c0.694-3.151,2.447-7.501,4.304-12.383H821z"/>
			<path d="M850.473,1349.895c0,9.966-8.163,8.81-16.807,8.81v-28.418h7.672c5.849,0,8.508,3.778,8.508,7.358
				c0,2.446-1.241,4.801-3.555,5.795C849.079,1344.522,850.473,1346.675,850.473,1349.895z M844.749,1338.081
				c0-3.591-3.034-3.125-6.13-3.125v6.21C841.847,1341.166,844.749,1341.637,844.749,1338.081z M845.439,1350.018
				c0-4.788-3.644-4.304-6.82-4.304v8.322C841.761,1354.036,845.439,1354.573,845.439,1350.018z"/>
			<path d="M869.43,1358.704h-14.938v-28.418h14.572v4.872h-9.498v6.008h6.373v4.791h-6.373v7.876h9.864V1358.704z"/>
			<path d="M890.499,1358.704h-5.521l-4.426-10.799h-1.664v10.799h-5.075v-28.418h7.552c6.269,0,9.154,4.195,9.154,8.47
				c0,3.288-1.707,6.623-4.893,8.135L890.499,1358.704z M885.343,1339.218c0-4.419-3.686-3.978-6.455-3.978v7.916
				C881.81,1343.156,885.343,1343.676,885.343,1339.218z"/>
			<path d="M910.878,1351.885c-1.38,4.844-4.101,7.266-8.159,7.266c-6.684,0-9.243-7.31-9.243-14.391
				c0-18.148,14.421-18.797,17.362-7.734l-4.75,1.543c-0.921-3.289-1.967-3.654-3.369-3.654c-2.68,0-4.02,3.182-4.02,9.542
				c0,7.668,2.212,9.683,4.083,9.683c2.16,0,3.024-2.063,3.712-4.121L910.878,1351.885z"/>
			<path d="M931.459,1358.704h-5.074v-12.26h-6.495v12.26h-5.075v-28.418h5.075v11.206h6.495v-11.206h5.074V1358.704z"/>
			<path d="M957.441,1358.704h-4.628c0-2.627-0.002-4.759-0.002-6.572c0-4.887,0.01-7.464,0.082-11.209
				c-1.616,5.752-2.601,8.629-5.805,18.512c-3.227-9.95-4.196-12.786-5.806-18.512c0,9.305,0,8.675,0,17.781h-4.547v-28.418h5.115
				c4.109,12.822,4.182,12.887,5.277,16.929c0.319-1.589,2.138-7.131,5.277-16.929h5.035V1358.704z"/>
			<path d="M980.703,1358.704h-5.237l-1.339-5.928h-6.374l-1.34,5.928h-5.195l7.266-28.418h4.954L980.703,1358.704z
				 M973.031,1348.027c-0.757-3.308-1.627-6.921-2.111-10.271c-0.418,3.069-1.225,6.484-2.07,10.271H973.031z"/>
			<path d="M1001.284,1358.704h-4.872c-5.333-12.898-6.354-15.216-7.389-18.432c0.072,3.086,0.083,4.484,0.083,9.694
				c0,2.142-0.002,4.927-0.002,8.737h-4.628v-28.418h5.115c5.642,14.079,6.428,15.95,7.227,18.391
				c-0.103-4.423-0.157-6.636-0.162-6.636c0,0,0,0.007,0,0.019v-11.773h4.628V1358.704z"/>
			<path d="M1021.947,1351.031c0,5.104-3.86,8.157-8.283,8.157c-2.992,0-6.242-1.397-8.728-4.503l3.45-3.694
				c1.821,2.35,3.805,3.263,5.391,3.263c1.77,0,3.043-1.137,3.043-2.686c0-1.514-1.216-3.42-4.373-5.044
				c-4.237-2.216-6.779-4.332-6.779-9.053c0-7.859,10.223-10.695,15.71-3.571l-3.369,3.37c-1.318-1.484-2.382-2.528-4.338-2.528
				c-1.432,0-2.848,0.676-2.848,2.486C1010.823,1342.446,1021.947,1341.413,1021.947,1351.031z"/>
		</g>
	</g>
</g>
<g id="Negativo_2">
	<g>
		<g>
			<rect x="80.816" y="685.522" fill="#FFFFFF" width="77.563" height="94.659"/>
			<rect x="84.316" y="689.012" width="70.563" height="87.681"/>
			<polygon fill="#FFFFFF" points="130.043,752.268 130.043,692.501 109.107,692.501 109.107,752.268 87.806,752.268 
				87.806,773.203 151.39,773.203 151.39,752.268 			"/>
		</g>
		<g>
			<g>
				<path fill="#FFFFFF" d="M198.71,753.041h-6.785v27.139h-5.848v-27.139h-6.785v-5.615h19.418V753.041z"/>
				<path fill="#FFFFFF" d="M212.876,746.829c5.245,0,10.634,4.632,10.634,16.928c0,8.243-2.638,16.938-10.903,16.938
					c-7.99,0-10.892-8.399-10.892-16.499C201.715,755.741,204.46,746.829,212.876,746.829z M217.521,763.851
					c0-7.394-1.638-11.091-4.914-11.091c-3.244,0-4.866,3.667-4.866,10.997c0,7.392,1.653,11.089,4.959,11.089
					C215.913,774.846,217.521,771.181,217.521,763.851z"/>
				<path fill="#FFFFFF" d="M247.793,780.18h-5.615c-6.076-14.696-7.31-17.495-8.516-21.244c0.121,5.178,0.094,6.597,0.094,21.244
					h-5.334v-32.754h5.896c6.491,16.202,7.402,18.367,8.328,21.197c-0.235-10.088-0.187-4.826-0.187-21.197h5.334V780.18z"/>
				<path fill="#FFFFFF" d="M274.369,747.426l-8.469,20.401v12.353h-5.849v-12.259l-8.422-20.495h6.457
					c2.607,6.856,4.457,11.474,4.959,14.272c0.801-3.633,2.821-8.646,4.961-14.272H274.369z"/>
				<path fill="#FFFFFF" d="M308.338,770.026c0,11.486-9.409,10.153-19.371,10.153v-32.754h8.844c6.74,0,9.805,4.354,9.805,8.481
					c0,2.819-1.431,5.533-4.097,6.679C306.732,763.834,308.338,766.315,308.338,770.026z M301.741,756.41
					c0-4.139-3.497-3.602-7.065-3.602v7.157C298.396,759.966,301.741,760.508,301.741,756.41z M302.536,770.167
					c0-5.518-4.199-4.96-7.86-4.96v9.592C298.297,774.799,302.536,775.418,302.536,770.167z"/>
				<path fill="#FFFFFF" d="M330.189,780.18H312.97v-32.754h16.797v5.615h-10.948v6.925h7.347v5.521h-7.347v9.077h11.37V780.18z"/>
				<path fill="#FFFFFF" d="M354.472,780.18h-6.362l-5.102-12.447h-1.919v12.447h-5.849v-32.754h8.704
					c7.225,0,10.551,4.835,10.551,9.762c0,3.79-1.967,7.634-5.639,9.376L354.472,780.18z M348.53,757.721
					c0-5.094-4.248-4.585-7.44-4.585v9.123C344.458,762.259,348.53,762.858,348.53,757.721z"/>
				<path fill="#FFFFFF" d="M377.962,772.319c-1.591,5.583-4.727,8.375-9.404,8.375c-7.704,0-10.654-8.426-10.654-16.586
					c0-20.919,16.622-21.666,20.012-8.916l-5.475,1.779c-1.062-3.791-2.267-4.212-3.883-4.212c-3.089,0-4.634,3.667-4.634,10.997
					c0,8.839,2.55,11.161,4.706,11.161c2.49,0,3.486-2.378,4.278-4.751L377.962,772.319z"/>
				<path fill="#FFFFFF" d="M401.683,780.18h-5.849v-14.131h-7.486v14.131H382.5v-32.754h5.849v12.915h7.486v-12.915h5.849V780.18z"
					/>
				<path fill="#FFFFFF" d="M431.629,780.18h-5.334c0-3.028-0.002-5.484-0.002-7.575c0-5.632,0.012-8.603,0.095-12.92
					c-1.863,6.63-2.997,9.946-6.691,21.337c-3.719-11.468-4.836-14.737-6.69-21.337c0,10.726,0,9.999,0,20.495h-5.241v-32.754h5.896
					c4.736,14.779,4.82,14.854,6.083,19.512c0.367-1.831,2.464-8.22,6.083-19.512h5.803V780.18z"/>
				<path fill="#FFFFFF" d="M458.441,780.18h-6.036l-1.543-6.832h-7.347l-1.545,6.832h-5.988l8.375-32.754h5.709L458.441,780.18z
					 M449.598,767.874c-0.872-3.813-1.875-7.978-2.433-11.838c-0.483,3.538-1.412,7.474-2.387,11.838H449.598z"/>
				<path fill="#FFFFFF" d="M482.163,780.18h-5.615c-6.147-14.867-7.324-17.537-8.516-21.244c0.083,3.557,0.095,5.169,0.095,11.174
					c0,2.468-0.002,5.678-0.002,10.07h-5.334v-32.754h5.896c6.502,16.228,7.409,18.384,8.33,21.197
					c-0.119-5.098-0.182-7.648-0.188-7.648c0,0,0,0.007,0,0.021v-13.569h5.334V780.18z"/>
				<path fill="#FFFFFF" d="M505.978,771.337c0,5.883-4.449,9.401-9.546,9.401c-3.449,0-7.195-1.611-10.06-5.19l3.977-4.258
					c2.1,2.708,4.386,3.761,6.214,3.761c2.039,0,3.507-1.311,3.507-3.096c0-1.744-1.401-3.942-5.04-5.813
					c-4.885-2.554-7.813-4.993-7.813-10.434c0-9.059,11.782-12.328,18.106-4.117l-3.883,3.885c-1.521-1.711-2.746-2.914-5-2.914
					c-1.65,0-3.282,0.779-3.282,2.865C493.158,761.44,505.978,760.25,505.978,771.337z"/>
			</g>
			<g>
				<path fill="#FFFFFF" d="M207.995,698.833c-1.726-3.269-4.986-5.038-8.33-5.038c-7.438,0-10.941,7.521-10.941,14.959
					c0,8.601,5.367,14.172,10.996,14.172c3.206,0,6.496-1.807,8.928-5.89l7.699,4.567c-3.29,6.854-10.043,10.455-16.882,10.455
					c-9.901,0-19.981-7.55-19.981-23.699c0-15.782,10.334-23.655,20.421-23.655c6.636,0,13.165,3.408,16.572,10.214L207.995,698.833
					z"/>
				<path fill="#FFFFFF" d="M221.958,731.193v-45.671h9.068v45.671H221.958z"/>
				<path fill="#FFFFFF" d="M268.038,731.193c-16.836-25.082-18.935-28.104-19.919-30.077c0,0,0.131,2.603,0.131,30.077h-9.069
					v-45.671h8.808c16.293,24.475,18.272,27.341,19.247,29.295c0,0-0.131-2.889-0.131-29.295h9.069v45.671H268.038z"/>
				<path fill="#FFFFFF" d="M283.612,731.193v-45.671h31.643v8.939H292.68v7.828h13.113v8.939H292.68v11.026h23.554v8.938H283.612z"
					/>
				<path fill="#FFFFFF" d="M335.164,685.308c12.175,0,22.174,1.703,22.174,14.7c0,17.077-16.396,15.005-26.555,15.005v16.181
					h-9.068v-45.671C326.238,685.522,330.838,685.308,335.164,685.308z M347.942,700.204c0-7.504-8.451-5.742-17.159-5.742v11.612
					C341.701,706.074,347.942,707.392,347.942,700.204z"/>
				<path fill="#FFFFFF" d="M362.426,731.193v-45.671h9.068v45.671H362.426z"/>
				<path fill="#FFFFFF" d="M410.053,731.193l-3.588-10.178h-16.703l-3.588,10.178h-9.787l17.484-45.671h8.874l17.355,45.671
					H410.053z M398.114,696.94c-0.706,2.818-2.185,6.83-5.22,15.397h10.439C400.679,704.85,398.838,699.857,398.114,696.94z"/>
				<path fill="#FFFFFF" d="M453.134,731.193c-16.475-24.543-18.88-27.993-19.92-30.077c0,0,0.131,2.662,0.131,30.077h-9.068
					v-45.671h8.808c15.839,23.791,18.237,27.264,19.247,29.295c0,0-0.131-2.889-0.131-29.295h9.068v45.671H453.134z"/>
				<path fill="#FFFFFF" d="M506.013,708.403c0,11.4-5.596,23.507-19.886,23.507c-13.293,0-20.016-11.865-20.016-23.686
					c0-11.731,6.622-23.419,20.016-23.419C499.339,684.806,506.013,695.416,506.013,708.403z M496.699,707.899
					c0-9.234-5.414-14.202-10.745-14.202c-5.172,0-10.266,4.675-10.266,14.662c0,11.327,5.654,14.519,10.42,14.519
					C493.874,722.878,496.699,715.665,496.699,707.899z"/>
			</g>
		</g>
	</g>
</g>
<g id="Positivo_2">
	<g>
		<g>
			<rect x="668.337" y="685.522" width="76.18" height="94.66"/>
			<polygon fill="#FFFFFF" points="717.704,753.813 717.704,689.289 695.102,689.289 695.102,753.813 672.104,753.813 
				672.104,776.415 740.75,776.415 740.75,753.813 			"/>
		</g>
		<g>
			<path d="M784.848,753.041h-6.784v27.139h-5.849v-27.139h-6.785v-5.615h19.418V753.041z"/>
			<path d="M799.014,746.829c5.245,0,10.633,4.632,10.633,16.928c0,8.243-2.638,16.938-10.902,16.938
				c-7.989,0-10.892-8.399-10.892-16.499C787.853,755.741,790.598,746.829,799.014,746.829z M803.658,763.851
				c0-7.394-1.637-11.091-4.913-11.091c-3.244,0-4.865,3.667-4.865,10.997c0,7.392,1.652,11.089,4.959,11.089
				C802.051,774.846,803.658,771.181,803.658,763.851z"/>
			<path d="M833.931,780.18h-5.615c-6.076-14.696-7.31-17.495-8.516-21.244c0.12,5.178,0.094,6.597,0.094,21.244h-5.334v-32.754
				h5.896c6.49,16.202,7.401,18.367,8.328,21.197c-0.235-10.088-0.187-4.826-0.187-21.197h5.334V780.18z"/>
			<path d="M860.507,747.426l-8.469,20.401v12.353h-5.85v-12.259l-8.422-20.495h6.457c2.606,6.856,4.456,11.474,4.959,14.272
				c0.801-3.633,2.821-8.646,4.961-14.272H860.507z"/>
			<path d="M894.476,770.026c0,11.486-9.408,10.153-19.371,10.153v-32.754h8.844c6.74,0,9.805,4.354,9.805,8.481
				c0,2.819-1.431,5.533-4.097,6.679C892.87,763.834,894.476,766.315,894.476,770.026z M887.878,756.41
				c0-4.139-3.497-3.602-7.065-3.602v7.157C884.534,759.966,887.878,760.508,887.878,756.41z M888.674,770.167
				c0-5.518-4.199-4.96-7.861-4.96v9.592C884.436,774.799,888.674,775.418,888.674,770.167z"/>
			<path d="M916.327,780.18h-17.219v-32.754h16.797v5.615h-10.948v6.925h7.347v5.521h-7.347v9.077h11.37V780.18z"/>
			<path d="M940.61,780.18h-6.362l-5.102-12.447h-1.918v12.447h-5.85v-32.754h8.704c7.226,0,10.551,4.835,10.551,9.762
				c0,3.79-1.967,7.634-5.639,9.376L940.61,780.18z M934.667,757.721c0-5.094-4.248-4.585-7.439-4.585v9.123
				C930.595,762.259,934.667,762.858,934.667,757.721z"/>
			<path d="M964.1,772.319c-1.591,5.583-4.727,8.375-9.404,8.375c-7.704,0-10.654-8.426-10.654-16.586
				c0-20.919,16.622-21.666,20.012-8.916l-5.475,1.779c-1.062-3.791-2.267-4.212-3.883-4.212c-3.089,0-4.634,3.667-4.634,10.997
				c0,8.839,2.55,11.161,4.706,11.161c2.49,0,3.486-2.378,4.278-4.751L964.1,772.319z"/>
			<path d="M987.822,780.18h-5.85v-14.131h-7.486v14.131h-5.849v-32.754h5.849v12.915h7.486v-12.915h5.85V780.18z"/>
			<path d="M1017.767,780.18h-5.334c0-3.028-0.002-5.484-0.002-7.575c0-5.632,0.012-8.603,0.095-12.92
				c-1.863,6.63-2.997,9.946-6.691,21.337c-3.719-11.468-4.835-14.737-6.69-21.337c0,10.726,0,9.999,0,20.495h-5.241v-32.754h5.896
				c4.736,14.779,4.82,14.854,6.083,19.512c0.367-1.831,2.464-8.22,6.083-19.512h5.803V780.18z"/>
			<path d="M1044.58,780.18h-6.037l-1.543-6.832h-7.347l-1.545,6.832h-5.988l8.375-32.754h5.71L1044.58,780.18z M1035.736,767.874
				c-0.872-3.813-1.875-7.978-2.433-11.838c-0.482,3.538-1.412,7.474-2.387,11.838H1035.736z"/>
			<path d="M1068.3,780.18h-5.615c-6.146-14.867-7.324-17.537-8.516-21.244c0.083,3.557,0.095,5.169,0.095,11.174
				c0,2.468-0.002,5.678-0.002,10.07h-5.334v-32.754h5.896c6.502,16.228,7.409,18.384,8.33,21.197
				c-0.119-5.098-0.182-7.648-0.188-7.648c0,0,0,0.007,0,0.021v-13.569h5.334V780.18z"/>
			<path d="M1092.117,771.337c0,5.883-4.449,9.401-9.547,9.401c-3.449,0-7.195-1.611-10.06-5.19l3.978-4.258
				c2.099,2.708,4.385,3.761,6.213,3.761c2.039,0,3.508-1.311,3.508-3.096c0-1.744-1.402-3.942-5.041-5.813
				c-4.885-2.554-7.813-4.993-7.813-10.434c0-9.059,11.782-12.328,18.106-4.117l-3.883,3.885c-1.52-1.711-2.746-2.914-5-2.914
				c-1.649,0-3.282,0.779-3.282,2.865C1079.295,761.44,1092.117,760.25,1092.117,771.337z"/>
		</g>
		<g>
			<path d="M794.133,698.833c-1.726-3.269-4.986-5.038-8.33-5.038c-7.438,0-10.942,7.521-10.942,14.959
				c0,8.601,5.367,14.172,10.996,14.172c3.206,0,6.496-1.807,8.929-5.89l7.699,4.567c-3.29,6.854-10.044,10.455-16.882,10.455
				c-9.902,0-19.981-7.55-19.981-23.699c0-15.782,10.335-23.655,20.421-23.655c6.637,0,13.165,3.408,16.572,10.214L794.133,698.833z
				"/>
			<path d="M808.096,731.193v-45.671h9.068v45.671H808.096z"/>
			<path d="M854.176,731.193c-16.837-25.082-18.936-28.104-19.919-30.077c0,0,0.13,2.603,0.13,30.077h-9.068v-45.671h8.808
				c16.293,24.475,18.272,27.341,19.247,29.295c0,0-0.131-2.889-0.131-29.295h9.069v45.671H854.176z"/>
			<path d="M869.75,731.193v-45.671h31.643v8.939h-22.574v7.828h13.114v8.939h-13.114v11.026h23.554v8.938H869.75z"/>
			<path d="M921.301,685.308c12.175,0,22.174,1.703,22.174,14.7c0,17.077-16.396,15.005-26.555,15.005v16.181h-9.068v-45.671
				C912.375,685.522,916.976,685.308,921.301,685.308z M934.08,700.204c0-7.504-8.451-5.742-17.159-5.742v11.612
				C927.838,706.074,934.08,707.392,934.08,700.204z"/>
			<path d="M948.564,731.193v-45.671h9.068v45.671H948.564z"/>
			<path d="M996.191,731.193l-3.588-10.178H975.9l-3.588,10.178h-9.787l17.484-45.671h8.874l17.355,45.671H996.191z M984.251,696.94
				c-0.706,2.818-2.185,6.83-5.22,15.397h10.439C986.817,704.85,984.976,699.857,984.251,696.94z"/>
			<path d="M1039.272,731.193c-16.474-24.543-18.88-27.993-19.919-30.077c0,0,0.13,2.662,0.13,30.077h-9.068v-45.671h8.808
				c15.839,23.791,18.237,27.264,19.247,29.295c0,0-0.131-2.889-0.131-29.295h9.068v45.671H1039.272z"/>
			<path d="M1092.151,708.403c0,11.4-5.596,23.507-19.886,23.507c-13.293,0-20.016-11.865-20.016-23.686
				c0-11.731,6.622-23.419,20.016-23.419C1085.477,684.806,1092.151,695.416,1092.151,708.403z M1082.836,707.899
				c0-9.234-5.414-14.202-10.745-14.202c-5.172,0-10.266,4.675-10.266,14.662c0,11.327,5.654,14.519,10.421,14.519
				C1080.011,722.878,1082.836,715.665,1082.836,707.899z"/>
		</g>
	</g>
</g>
<g id="Negativo_1">
	<g>
		<g>
			<rect x="204.292" y="100.076" fill="#FFFFFF" width="178.351" height="217.663"/>
			<rect x="212.339" y="108.099" width="162.254" height="201.616"/>
			<polygon fill="#FFFFFF" points="317.485,253.552 317.485,116.123 269.345,116.123 269.345,253.552 220.363,253.552 
				220.363,301.691 366.57,301.691 366.57,253.552 			"/>
		</g>
		<g>
			<path fill="#FFFFFF" d="M214.779,369.878h-3.707v14.826h-3.195v-14.826h-3.707v-3.067h10.608V369.878z"/>
			<path fill="#FFFFFF" d="M222.518,366.484c2.865,0,5.809,2.53,5.809,9.248c0,4.503-1.441,9.253-5.956,9.253
				c-4.365,0-5.95-4.589-5.95-9.014C216.42,371.353,217.92,366.484,222.518,366.484z M225.055,375.783
				c0-4.039-0.895-6.059-2.684-6.059c-1.772,0-2.658,2.003-2.658,6.008c0,4.038,0.903,6.058,2.709,6.058
				C224.177,381.79,225.055,379.788,225.055,375.783z"/>
			<path fill="#FFFFFF" d="M241.593,384.704h-3.067c-3.319-8.028-3.994-9.558-4.652-11.605c0.066,2.828,0.051,3.604,0.051,11.605
				h-2.914v-17.894h3.221c3.546,8.851,4.043,10.034,4.55,11.58c-0.129-5.511-0.102-2.637-0.102-11.58h2.914V384.704z"/>
			<path fill="#FFFFFF" d="M256.111,366.811l-4.626,11.146v6.748h-3.195v-6.697l-4.601-11.196h3.527
				c1.424,3.745,2.435,6.268,2.709,7.797c0.437-1.984,1.541-4.724,2.71-7.797H256.111z"/>
			<path fill="#FFFFFF" d="M274.669,379.157c0,6.275-5.14,5.547-10.583,5.547v-17.894h4.831c3.683,0,5.356,2.379,5.356,4.633
				c0,1.541-0.782,3.023-2.238,3.649C273.791,375.774,274.669,377.13,274.669,379.157z M271.064,371.719
				c0-2.261-1.911-1.968-3.86-1.968v3.91C269.237,373.661,271.064,373.957,271.064,371.719z M271.499,379.234
				c0-3.015-2.294-2.71-4.294-2.71v5.24C269.184,381.765,271.499,382.103,271.499,379.234z"/>
			<path fill="#FFFFFF" d="M286.606,384.704h-9.407v-17.894h9.176v3.067h-5.981v3.783h4.013v3.017h-4.013v4.959h6.211V384.704z"/>
			<path fill="#FFFFFF" d="M299.872,384.704h-3.476l-2.787-6.8h-1.048v6.8h-3.195v-17.894h4.755c3.947,0,5.764,2.641,5.764,5.333
				c0,2.07-1.074,4.17-3.08,5.122L299.872,384.704z M296.625,372.435c0-2.782-2.321-2.505-4.064-2.505v4.984
				C294.401,374.914,296.625,375.241,296.625,372.435z"/>
			<path fill="#FFFFFF" d="M312.705,380.41c-0.869,3.05-2.582,4.575-5.138,4.575c-4.209,0-5.82-4.604-5.82-9.062
				c0-11.428,9.08-11.836,10.933-4.87l-2.991,0.972c-0.579-2.071-1.238-2.301-2.121-2.301c-1.688,0-2.531,2.003-2.531,6.008
				c0,4.828,1.393,6.097,2.571,6.097c1.359,0,1.904-1.299,2.337-2.595L312.705,380.41z"/>
			<path fill="#FFFFFF" d="M325.664,384.704h-3.195v-7.72h-4.09v7.72h-3.195v-17.894h3.195v7.056h4.09v-7.056h3.195V384.704z"/>
			<path fill="#FFFFFF" d="M342.023,384.704h-2.914c0-1.654-0.001-2.996-0.001-4.139c0-3.076,0.006-4.699,0.052-7.058
				c-1.018,3.621-1.638,5.434-3.655,11.656c-2.032-6.266-2.642-8.051-3.655-11.656c0,5.859,0,5.462,0,11.196h-2.863v-17.894h3.221
				c2.588,8.073,2.634,8.114,3.323,10.659c0.201-1,1.346-4.49,3.323-10.659h3.17V384.704z"/>
			<path fill="#FFFFFF" d="M356.67,384.704h-3.298l-0.843-3.732h-4.014l-0.844,3.732h-3.271l4.575-17.894h3.119L356.67,384.704z
				 M351.839,377.981c-0.477-2.083-1.024-4.358-1.329-6.467c-0.264,1.933-0.771,4.083-1.304,6.467H351.839z"/>
			<path fill="#FFFFFF" d="M369.629,384.704h-3.067c-3.358-8.122-4.002-9.581-4.652-11.605c0.045,1.942,0.052,2.823,0.052,6.104
				c0,1.349-0.001,3.103-0.001,5.502h-2.914v-17.894h3.221c3.552,8.865,4.048,10.043,4.551,11.58
				c-0.065-2.785-0.1-4.179-0.103-4.179c0,0,0,0.004,0,0.012v-7.413h2.914V384.704z"/>
			<path fill="#FFFFFF" d="M382.64,379.873c0,3.214-2.431,5.136-5.216,5.136c-1.884,0-3.931-0.88-5.495-2.835l2.173-2.326
				c1.146,1.479,2.396,2.055,3.394,2.055c1.114,0,1.917-0.716,1.917-1.691c0-0.953-0.766-2.153-2.754-3.176
				c-2.668-1.396-4.269-2.728-4.269-5.7c0-4.949,6.437-6.734,9.892-2.249l-2.121,2.122c-0.83-0.935-1.5-1.592-2.731-1.592
				c-0.901,0-1.793,0.426-1.793,1.565C375.636,374.467,382.64,373.816,382.64,379.873z"/>
		</g>
		<g>
			<path fill="#FFFFFF" d="M219.851,341.17c-0.943-1.785-2.724-2.752-4.551-2.752c-4.063,0-5.978,4.108-5.978,8.172
				c0,4.698,2.932,7.742,6.007,7.742c1.751,0,3.548-0.987,4.877-3.218l4.206,2.495c-1.797,3.745-5.487,5.712-9.223,5.712
				c-5.409,0-10.916-4.124-10.916-12.947c0-8.622,5.646-12.923,11.156-12.923c3.625,0,7.192,1.862,9.054,5.58L219.851,341.17z"/>
			<path fill="#FFFFFF" d="M227.479,358.849v-24.95h4.954v24.95H227.479z"/>
			<path fill="#FFFFFF" d="M252.653,358.849c-9.198-13.703-10.345-15.354-10.882-16.432c0,0,0.071,1.422,0.071,16.432h-4.954v-24.95
				h4.812c8.901,13.37,9.982,14.937,10.515,16.004c0,0-0.071-1.578-0.071-16.004h4.955v24.95H252.653z"/>
			<path fill="#FFFFFF" d="M261.161,358.849v-24.95h17.287v4.884h-12.333v4.276h7.164v4.884h-7.164v6.023h12.867v4.883H261.161z"/>
			<path fill="#FFFFFF" d="M289.323,333.781c6.651,0,12.114,0.931,12.114,8.03c0,9.329-8.957,8.197-14.507,8.197v8.84h-4.954v-24.95
				C284.447,333.898,286.96,333.781,289.323,333.781z M296.304,341.919c0-4.1-4.617-3.137-9.374-3.137v6.344
				C292.895,345.126,296.304,345.846,296.304,341.919z"/>
			<path fill="#FFFFFF" d="M304.217,358.849v-24.95h4.954v24.95H304.217z"/>
			<path fill="#FFFFFF" d="M330.236,358.849l-1.96-5.561h-9.125l-1.96,5.561h-5.347l9.552-24.95h4.848l9.481,24.95H330.236z
				 M323.713,340.136c-0.386,1.54-1.193,3.731-2.852,8.412h5.703C325.115,344.457,324.109,341.729,323.713,340.136z"/>
			<path fill="#FFFFFF" d="M353.771,358.849c-9-13.408-10.314-15.293-10.882-16.432c0,0,0.071,1.454,0.071,16.432h-4.954v-24.95
				h4.812c8.652,12.997,9.963,14.895,10.515,16.004c0,0-0.071-1.578-0.071-16.004h4.954v24.95H353.771z"/>
			<path fill="#FFFFFF" d="M382.659,346.398c0,6.228-3.057,12.842-10.863,12.842c-7.262,0-10.935-6.481-10.935-12.939
				c0-6.409,3.617-12.794,10.935-12.794C379.013,333.507,382.659,339.303,382.659,346.398z M377.571,346.123
				c0-5.045-2.958-7.759-5.87-7.759c-2.826,0-5.608,2.554-5.608,8.01c0,6.188,3.089,7.932,5.692,7.932
				C376.027,354.306,377.571,350.365,377.571,346.123z"/>
		</g>
	</g>
</g>
<g id="Positivo_1">
	<g>
		<g>
			<g>
				<rect x="791.121" y="96.122" width="178.351" height="221.617"/>
				<polygon fill="#FFFFFF" points="906.697,256.003 906.697,104.941 853.781,104.941 853.781,256.003 799.94,256.003 
					799.94,308.919 960.652,308.919 960.652,256.003 				"/>
			</g>
		</g>
		<g>
			<path d="M801.608,369.878h-3.706v14.826h-3.195v-14.826H791v-3.067h10.607V369.878z"/>
			<path d="M809.347,366.484c2.865,0,5.809,2.53,5.809,9.248c0,4.503-1.441,9.253-5.956,9.253c-4.365,0-5.95-4.589-5.95-9.014
				C803.25,371.353,804.75,366.484,809.347,366.484z M811.884,375.783c0-4.039-0.895-6.059-2.685-6.059
				c-1.772,0-2.658,2.003-2.658,6.008c0,4.038,0.903,6.058,2.71,6.058C811.006,381.79,811.884,379.788,811.884,375.783z"/>
			<path d="M828.422,384.704h-3.067c-3.319-8.028-3.994-9.558-4.652-11.605c0.065,2.828,0.051,3.604,0.051,11.605h-2.914v-17.894
				h3.221c3.546,8.851,4.044,10.034,4.55,11.58c-0.128-5.511-0.102-2.637-0.102-11.58h2.914V384.704z"/>
			<path d="M842.941,366.811l-4.627,11.146v6.748h-3.195v-6.697l-4.601-11.196h3.527c1.424,3.745,2.435,6.268,2.709,7.797
				c0.438-1.984,1.541-4.724,2.71-7.797H842.941z"/>
			<path d="M861.499,379.157c0,6.275-5.141,5.547-10.583,5.547v-17.894h4.831c3.683,0,5.356,2.379,5.356,4.633
				c0,1.541-0.781,3.023-2.237,3.649C860.621,375.774,861.499,377.13,861.499,379.157z M857.894,371.719
				c0-2.261-1.911-1.968-3.86-1.968v3.91C856.067,373.661,857.894,373.957,857.894,371.719z M858.329,379.234
				c0-3.015-2.294-2.71-4.295-2.71v5.24C856.013,381.765,858.329,382.103,858.329,379.234z"/>
			<path d="M873.435,384.704h-9.406v-17.894h9.176v3.067h-5.98v3.783h4.013v3.017h-4.013v4.959h6.211V384.704z"/>
			<path d="M886.701,384.704h-3.476l-2.787-6.8h-1.048v6.8h-3.195v-17.894h4.755c3.947,0,5.764,2.641,5.764,5.333
				c0,2.07-1.074,4.17-3.08,5.122L886.701,384.704z M883.455,372.435c0-2.782-2.32-2.505-4.064-2.505v4.984
				C881.23,374.914,883.455,375.241,883.455,372.435z"/>
			<path d="M899.534,380.41c-0.869,3.05-2.582,4.575-5.138,4.575c-4.208,0-5.82-4.604-5.82-9.062c0-11.428,9.081-11.836,10.933-4.87
				l-2.991,0.972c-0.579-2.071-1.238-2.301-2.121-2.301c-1.688,0-2.531,2.003-2.531,6.008c0,4.828,1.393,6.097,2.571,6.097
				c1.36,0,1.904-1.299,2.337-2.595L899.534,380.41z"/>
			<path d="M912.493,384.704h-3.195v-7.72h-4.09v7.72h-3.195v-17.894h3.195v7.056h4.09v-7.056h3.195V384.704z"/>
			<path d="M928.852,384.704h-2.914c0-1.654-0.001-2.996-0.001-4.139c0-3.076,0.006-4.699,0.052-7.058
				c-1.018,3.621-1.637,5.434-3.655,11.656c-2.031-6.266-2.642-8.051-3.655-11.656c0,5.859,0,5.462,0,11.196h-2.863v-17.894h3.221
				c2.588,8.073,2.634,8.114,3.323,10.659c0.201-1,1.346-4.49,3.323-10.659h3.17V384.704z"/>
			<path d="M943.5,384.704h-3.298l-0.843-3.732h-4.014l-0.844,3.732h-3.271l4.575-17.894h3.119L943.5,384.704z M938.668,377.981
				c-0.477-2.083-1.024-4.358-1.329-6.467c-0.264,1.933-0.771,4.083-1.304,6.467H938.668z"/>
			<path d="M956.458,384.704h-3.067c-3.358-8.122-4.002-9.581-4.652-11.605c0.046,1.942,0.052,2.823,0.052,6.104
				c0,1.349-0.001,3.103-0.001,5.502h-2.914v-17.894h3.221c3.553,8.865,4.048,10.043,4.551,11.58
				c-0.064-2.785-0.099-4.179-0.103-4.179c0,0,0,0.004,0,0.012v-7.413h2.914V384.704z"/>
			<path d="M969.469,379.873c0,3.214-2.431,5.136-5.215,5.136c-1.885,0-3.931-0.88-5.496-2.835l2.173-2.326
				c1.146,1.479,2.396,2.055,3.395,2.055c1.113,0,1.916-0.716,1.916-1.691c0-0.953-0.766-2.153-2.754-3.176
				c-2.668-1.396-4.269-2.728-4.269-5.7c0-4.949,6.437-6.734,9.892-2.249l-2.121,2.122c-0.83-0.935-1.5-1.592-2.731-1.592
				c-0.901,0-1.793,0.426-1.793,1.565C962.465,374.467,969.469,373.816,969.469,379.873z"/>
		</g>
		<g>
			<path d="M806.68,341.17c-0.942-1.785-2.724-2.752-4.551-2.752c-4.063,0-5.978,4.108-5.978,8.172c0,4.698,2.933,7.742,6.008,7.742
				c1.751,0,3.549-0.987,4.877-3.218l4.206,2.495c-1.797,3.745-5.486,5.712-9.223,5.712c-5.409,0-10.915-4.124-10.915-12.947
				c0-8.622,5.646-12.923,11.155-12.923c3.626,0,7.192,1.862,9.054,5.58L806.68,341.17z"/>
			<path d="M814.308,358.849v-24.95h4.954v24.95H814.308z"/>
			<path d="M839.482,358.849c-9.197-13.703-10.344-15.354-10.882-16.432c0,0,0.071,1.422,0.071,16.432h-4.954v-24.95h4.812
				c8.901,13.37,9.982,14.937,10.515,16.004c0,0-0.071-1.578-0.071-16.004h4.955v24.95H839.482z"/>
			<path d="M847.99,358.849v-24.95h17.287v4.884h-12.333v4.276h7.164v4.884h-7.164v6.023h12.867v4.883H847.99z"/>
			<path d="M876.153,333.781c6.65,0,12.113,0.931,12.113,8.03c0,9.329-8.957,8.197-14.507,8.197v8.84h-4.954v-24.95
				C871.277,333.898,873.79,333.781,876.153,333.781z M883.133,341.919c0-4.1-4.616-3.137-9.374-3.137v6.344
				C879.724,345.126,883.133,345.846,883.133,341.919z"/>
			<path d="M891.046,358.849v-24.95H896v24.95H891.046z"/>
			<path d="M917.065,358.849l-1.96-5.561h-9.125l-1.96,5.561h-5.347l9.552-24.95h4.848l9.481,24.95H917.065z M910.542,340.136
				c-0.386,1.54-1.193,3.731-2.852,8.412h5.703C911.944,344.457,910.939,341.729,910.542,340.136z"/>
			<path d="M940.6,358.849c-8.999-13.408-10.314-15.293-10.882-16.432c0,0,0.071,1.454,0.071,16.432h-4.954v-24.95h4.812
				c8.653,12.997,9.963,14.895,10.515,16.004c0,0-0.071-1.578-0.071-16.004h4.954v24.95H940.6z"/>
			<path d="M969.489,346.398c0,6.228-3.058,12.842-10.864,12.842c-7.262,0-10.935-6.481-10.935-12.939
				c0-6.409,3.618-12.794,10.935-12.794C965.842,333.507,969.489,339.303,969.489,346.398z M964.4,346.123
				c0-5.045-2.958-7.759-5.87-7.759c-2.825,0-5.608,2.554-5.608,8.01c0,6.188,3.089,7.932,5.693,7.932
				C962.856,354.306,964.4,350.365,964.4,346.123z"/>
		</g>
	</g>
</g>
</svg>
