<?xml version="1.0" encoding="utf-8"?>
<!-- Generator: Adobe Illustrator 16.0.0, SVG Export Plug-In . SVG Version: 6.00 Build 0)  -->
<!DOCTYPE svg PUBLIC "-//W3C//DTD SVG 1.1//EN" "http://www.w3.org/Graphics/SVG/1.1/DTD/svg11.dtd">
<svg version="1.1" id="Layer_1" xmlns="http://www.w3.org/2000/svg" xmlns:xlink="http://www.w3.org/1999/xlink" x="0px" y="0px"
	 width="595px" height="841px" viewBox="0 0 595 841" enable-background="new 0 0 595 841" xml:space="preserve">
<g>
	
		<polyline fill="none" stroke="#1C1F57" stroke-width="6.37" stroke-linecap="round" stroke-linejoin="round" stroke-miterlimit="10" points="
		219.33,123.09 129.85,205.67 48.37,479.55 136.25,479.55 225.73,396.97 	"/>
	
		<path fill="none" stroke="#1C1F57" stroke-width="6.37" stroke-linecap="round" stroke-linejoin="round" stroke-miterlimit="10" d="
		M198.57,422.02c49,43.69,84.14,86.311,154.97,89.521c43.69,2.12,75.12-12.8,96.97-31.47l0,0
		c86.271-79.37,86.271-79.37,86.271-79.37"/>
	<path fill="#1FC7A1" d="M585.27,331.43C455.3,439.06,384.97,313.84,356.23,301.59c20.239,0,20.239,0,20.239,0
		c14.9,0,28.74-10.13,33.04-25.05c36.75-124.15,36.75-124.15,36.75-124.15c4.25-14.38-6.42-29.3-21.87-29.3
		c-205.06,0-205.06,0-205.06,0c-81.5,273.88-81.5,273.88-81.5,273.88c87.9,0,87.9,0,87.9,0c26.09-86.31,26.09-86.31,26.09-86.31
		c70.85,51.13,104.411,114.54,191.23,118.82C552.75,434.79,585.27,331.43,585.27,331.43"/>
	<polygon fill="#1C1F57" points="217.2,125.22 129.85,205.67 49.95,477.94 138.37,394.84 	"/>
	<polygon fill="#1C1F57" points="224.15,398.55 136.25,479.55 49.95,477.94 137.83,396.97 	"/>
	<path fill="#1C1F57" d="M199.65,420.93c0,0,46.32,51.68,81.46,70.87c35.68,19.19,115.081,36.78,167.791-9.58
		c0,0,87.359-83.13,87.88-81.52c0,1.04-29.311,35.689-102.78,27.71c-73-7.48-124.67-76.72-182.18-117.75
		C225.73,396.97,225.73,396.97,199.65,420.93z"/>
	
		<line fill="none" stroke="#1C1F57" stroke-width="6.37" stroke-linecap="round" stroke-linejoin="round" stroke-miterlimit="10" x1="137.83" y1="396.97" x2="48.37" y2="479.55"/>
	<path fill="none" stroke="#1C1F57" stroke-width="6.37" stroke-linecap="round" stroke-miterlimit="10" d="M585.27,331.43
		C455.3,439.06,384.97,313.84,356.23,301.59c20.239,0,20.239,0,20.239,0c14.9,0,28.74-10.13,33.04-25.05
		c36.75-124.15,36.75-124.15,36.75-124.15c4.25-14.38-6.42-29.3-21.87-29.3c-205.06,0-205.06,0-205.06,0
		c-81.5,273.88-81.5,273.88-81.5,273.88c87.9,0,87.9,0,87.9,0c26.09-86.31,26.09-86.31,26.09-86.31
		c70.85,51.13,104.411,114.54,191.23,118.82C552.75,434.79,585.27,331.43,585.27,331.43z"/>
	
		<line fill="none" stroke="#1C1F57" stroke-width="6.37" stroke-linecap="round" stroke-linejoin="round" stroke-miterlimit="10" x1="295.51" y1="188.63" x2="337.6" y2="234.99"/>
	
		<line fill="none" stroke="#1C1F57" stroke-width="6.37" stroke-linecap="round" stroke-linejoin="round" stroke-miterlimit="10" x1="337.6" y1="188.63" x2="295.51" y2="234.99"/>
</g>
</svg>
