<?xml version="1.0" encoding="utf-8"?>
<!-- Generator: Adobe Illustrator 16.0.0, SVG Export Plug-In . SVG Version: 6.00 Build 0)  -->
<!DOCTYPE svg PUBLIC "-//W3C//DTD SVG 1.1//EN" "http://www.w3.org/Graphics/SVG/1.1/DTD/svg11.dtd">
<svg version="1.1" id="Layer_1" xmlns="http://www.w3.org/2000/svg" xmlns:xlink="http://www.w3.org/1999/xlink" x="0px" y="0px"
	 width="1010.13px" height="1153.98px" viewBox="0 0 1010.13 1153.98" enable-background="new 0 0 1010.13 1153.98"
	 xml:space="preserve">
<rect y="-0.002" display="none" fill="#E5E5E5" width="1010.128" height="1153.982"/>
<g>
	<defs>
		<rect id="SVGID_1_" y="-0.001" width="1010.129" height="1153.981"/>
	</defs>
	<clipPath id="SVGID_2_">
		<use xlink:href="#SVGID_1_"  overflow="visible"/>
	</clipPath>
	<path clip-path="url(#SVGID_2_)" fill="#20C7A3" d="M305.205,397.79c-69.357,77.284-32.697,141.357-32.697,141.357
		c-13.541-80.586,49.211-99.742,49.211-99.742c-46.679,78.385-29.945,164.476,35.229,203.449
		c-51.963-51.304-37.726-123.163,6.385-191.78c11.89-18.495,16.074-25.541,14.092-33.688c-2.16-8.881-10.997-12.848-46.899-17.174
		c-36.55-4.403-42.936-5.064-46.459-11.339c-7.121-12.685,17.732-68.175,112.294-88.844c116.708-25.51,217.92,33.131,283.127,70.104
		l5.546,3.139c0.438,0.247,0.874,0.494,1.308,0.738c153.568,86.562,215.339,54.385,225.908,25.101l65.262-207.576
		c-7.191,22.916-44.06,26.449-178.46-35.969l-6.528-3.048c-0.165-0.077-0.329-0.155-0.494-0.232
		c-159.413-74.862-274.348-82.789-411.522-40.514c-140.344,43.252-165.285,102.183-152.735,133.89
		c12.55,31.706,56.294,143.211,56.294,143.211"/>
	<polygon clip-path="url(#SVGID_2_)" fill="#FECB50" points="693.828,306.854 664.324,291.221 632.397,257.533 664.544,267.662 
		637.021,245.423 627.883,207.551 659.7,229.35 642.085,199.294 643.737,159.001 677.425,181.79 698.232,200.286 693.938,173.533 
		723.333,190.377 745.131,215.478 755.259,227.368 702.415,311.478 	"/>
	<path clip-path="url(#SVGID_2_)" fill="#1E1F57" d="M555.553,432.358c0,0-22.899-2.202-46.238,0.44
		c-23.34,2.643-35.45,12.771-41.395,24.221c-5.945,11.449-11.009,27.522-8.367,53.944c0,0-16.514,14.752-34.128,36.771
		c-17.615,22.018-16.294,51.303-7.706,79.046c8.586,27.742,23.779,45.798,23.779,45.798c-13.211,16.073-19.155,30.604-11.449,56.367
		l11.67,30.824l54.605,109.651l44.257,37.431l29.834,30.276c0,0,30.489,12.209,70.129,7.376c9.027-1.101,19.046-2.752,28.734-7.376
		c9.688-4.625,53.504-22.679,64.293-26.313c10.789-3.634,42.055-10.679,40.624,1.212l1.321-2.313l-27.853-75.192L568.764,432.798
		L555.553,432.358z"/>
	<path clip-path="url(#SVGID_2_)" fill="#1E1F57" d="M718.709,441.386c-3.468-21.468-12.22-29.56-47.395-16.018l8.588,17.504
		c0,0,15.412-15.082,15.468-14.477c0.055,0.606,0.22,18.055,0.22,18.055S706.819,436.102,718.709,441.386"/>
	<path clip-path="url(#SVGID_2_)" fill="#F432A6" d="M737.865,608.505l-0.626-70.422c-0.141-15.884-13.031-28.701-28.916-28.751
		l-77.072-0.243c-19.93-0.063-37.374,13.376-42.396,32.663l-35.957,138.081c-2.351,9.027,0.005,18.63,6.28,25.533
		c16.252,17.883,49.225,52.825,75.642,72.24c36.55,26.862,70.238,31.045,95.119,23.338c25.404-7.868,36.99-19.376,22.458-86.311
		l6.936-9.358c0,0,9.082,25.927,16.513,55.487c7.833,31.154,0.331,59.448-30.715,75.633c-31.046,16.183-68.037,8.587-105.027-13.872
		c-23.86-14.487-68.743-57.279-97.602-85.834c-16.735-16.561-23.446-40.738-17.639-63.552l36.852-144.79
		c7.536-29.611,34.008-50.479,64.56-50.893l70.182-0.953c38.139-0.518,67.7,33.191,62.206,70.936l-7.812,53.678L737.865,608.505z"/>
	<path clip-path="url(#SVGID_2_)" fill="#6B2EA1" d="M724.434,618.193l-25.321-64.955l-3.523,6.165l-50.642,0.221
		c0,0,8.367,56.807,8.587,76.183c0,0,24-1.761,40.073,0.66L724.434,618.193z"/>
	<path clip-path="url(#SVGID_2_)" fill="#6B2EA1" d="M606.415,577.679l31.707,60.77c0,0-17.175,4.185-29.725,17.836
		c0,0,11.449,7.485,16.293,18.495c15.963-4.294,35.45,7.706,32.808,32.147c0,0,10.348,5.944,11.889,17.394l-8.477,32.478
		l-39.853-31.706l-10.458-0.992l-19.267,14.863c0,0-25.779-27.011-32.155-33.597c-6.377-6.587-8.248-16.056-6.046-26.844
		c2.201-10.789,15.853-60,15.853-60L606.415,577.679z"/>
	<path clip-path="url(#SVGID_2_)" fill="#6B2EA1" d="M697.736,742.183c9.083-6.439,27.165-5.696,33.936,7.515l-0.082,7.348
		l-33.854,4.046V742.183z"/>
	<path clip-path="url(#SVGID_2_)" fill="#72D0F3" d="M608.397,657.22c0,0,13.168-19.252,47.89-21.468
		c15.523-0.991,37.981,0.33,37.981,0.33l86.697-53.174c-10.403,11.724-13.211,25.761-4.294,47.229
		c8.918,21.468,23.45,19.815,26.423,14.531L728.947,746.56c0,0-10.899-16.185-31.046-3.469l-30.385-9.907l2.312-9.413
		c0,0-1.541-12.386-12.33-16.845c1.431-17.01-9.083-37.706-32.808-32.146C624.69,674.781,619.626,663.165,608.397,657.22"/>
	<path clip-path="url(#SVGID_2_)" fill="#FFFFFF" d="M591.333,738.962l19.266-14.861l10.459,0.991l39.853,31.706l22.294-80.093
		c0,0,16.678,31.046,14.531,84.387l33.854-4.046l0.495-14.119l20.312-27.743c0,0,5.119,20.476,6.275,34.843
		c1.156,14.368,1.321,29.561-8.587,40.79c-9.908,11.229-44.486,18.914-77.449,7.43C632.342,784.21,591.333,738.962,591.333,738.962"
		/>
	<path clip-path="url(#SVGID_2_)" fill="#FFFFFF" d="M568.984,618.524l37.431-40.844l46.899,89.833c0,0,3.743-52.402-8.367-107.229
		l49.541-0.22l3.964-5.284l25.981,63.412l13.431-8.147c0,0,0.07-58.275-0.626-71.962c-0.694-13.688-7.961-26.239-25.355-28.441
		c0,0-64.514-0.44-79.266-0.661c-14.752-0.22-34.348,5.946-44.037,31.927L568.984,618.524z"/>
	<path clip-path="url(#SVGID_2_)" fill="#FECB50" d="M779.645,584.56l39.963-24.605l22.129-37.486l26.257-15.688l9.577,2.477
		l0.991,10.404l17.009,7.1l1.817,6.606l-0.33,7.431l-5.78,5.119l2.147,5.285l-1.652,4.954c0,0-24.44,35.67-25.101,36
		c-0.66,0.33-2.642,2.146-2.642,2.146s-8.587,2.479-14.367,3.139c-5.78,0.661-13.045,0.495-13.045,0.495l-34.349,47.56
		c-5.945,8.587-21.468-1.652-28.074-21.798C767.589,603.55,774.36,589.844,779.645,584.56"/>
	<path clip-path="url(#SVGID_2_)" fill="#6B2EA1" d="M616.104,478.156l-33.688-35.229c0,0,32.807,1.541,45.138,7.486l-14.533-58.569
		c0,0,35.67,21.798,57.248,63.413c0,0,11.009-14.532,25.101-26.862c0,0,0.881,30.825-2.202,47.559l-73.981,1.762L616.104,478.156z"
		/>
	<path clip-path="url(#SVGID_2_)" fill="#20C7A3" d="M585.277,492.248l-38.807-77.449c0,0,38.312,2.807,56.972,16.018
		c-19.816-24.11-19.321-47.064-22.128-77.119c12.715,2.477,44.917,16.844,57.302,28.569c12.386,11.725,31.872,39.137,41.285,60.605
		l-9.633,12.385c0,0-19.266-38.642-57.248-63.412l14.862,57.798c0,0-22.568-3.853-45.467-6.716l33.688,35.229
		C616.104,478.156,598.819,480.523,585.277,492.248"/>
	<path clip-path="url(#SVGID_2_)" fill="#20C7A3" d="M740.177,838.541c0,0-1.651,19.816-23.284,36.165l-10.074-17.174
		c0,0-9.082,30.221-30.385,46.238c0,0-21.633-16.513-26.422-55.816l-15.027,19.982c0,0-20.147-20.478-16.679-61.266
		c0,0,32.202,27.907,69.522,35.834C725.149,850.431,740.177,838.541,740.177,838.541"/>
	<path clip-path="url(#SVGID_2_)" fill="#FFFFFF" d="M477.526,521.717c-3.881-58.863,44.669-77.028,85.488-42.236
		C560.459,525.441,526.983,553.02,477.526,521.717"/>
	<path clip-path="url(#SVGID_2_)" fill="#FFFFFF" d="M695.59,446.45c15.413-15.413,53.284-5.945,50.422,52.403
		c0,0-12.331-19.706-52.514-22.128L695.59,446.45z"/>
	<path clip-path="url(#SVGID_2_)" fill="#6B2EA1" d="M534.355,488.438c1.834,9.863-3.995,19.22-13.021,20.899
		c-9.027,1.679-17.832-4.956-19.666-14.819s3.996-19.22,13.022-20.899C523.716,471.939,532.521,478.575,534.355,488.438"/>
	<path clip-path="url(#SVGID_2_)" fill="#6B2EA1" d="M724.366,458.722c0.958,6.72-2.708,12.802-8.188,13.583
		c-5.479,0.781-10.7-4.034-11.658-10.754c-0.958-6.721,2.709-12.802,8.189-13.583C718.189,447.187,723.408,452.002,724.366,458.722"
		/>
	<path clip-path="url(#SVGID_2_)" fill="#6B2EA1" d="M471.773,573.055c0,0-4.293,6.496-9.468,15.303
		c-5.174,8.808-4.183,19.376,0.991,31.267c5.174,11.889,12.44,24.109,12.44,24.109l12.331-10.129L471.773,573.055z"/>
	<path clip-path="url(#SVGID_2_)" fill="#6B2EA1" d="M540.141,612.689c0,0-56.367,44.696-79.927,68.477
		c-23.559,23.78-11.669,40.293,3.303,56.586l46.069,50.134c4.155,4.523,7.097,10.024,8.552,15.99l4.168,17.106
		c15.138,8.366,24.165,13.597,29.615,28.953c5.449,15.357-5.285,33.192-5.285,33.192l7.597,8.587
		c26.917,20.313,16.183,45.413,16.183,45.413c7.596,4.624,25.762,6.827,25.762,6.827s-6.073-20.973-13.329-46.021l-3.183-10.986
		c-9.341-32.239-19.432-67.04-20.81-71.691c-2.642-8.918-3.963-16.513-9.908-22.459c-5.945-5.944-63.082-60.77-73.981-72.33
		c-10.899-11.559-10.899-15.853-3.303-24.77c16.662-19.56,61.761-57.468,61.761-57.468L540.141,612.689z"/>
	<path clip-path="url(#SVGID_2_)" fill="#72D0F3" d="M464.563,541.79c0,0-14.532,15.357-23.945,34.844
		c-9.412,19.486-2.642,37.651,1.982,49.044c4.624,11.396,16.679,31.376,16.679,31.376l16.458-13.319c0,0-7.541-12.441-12.66-24.661
		s-6.606-20.643,0.991-34.019l7.926-12.551L464.563,541.79z"/>
	<path clip-path="url(#SVGID_2_)" fill="#F432A6" d="M652.984,943.733c0,0,63.248-11.063,86.697-17.339
		c23.449-6.274,33.193-8.588,35.174-14.037c1.982-5.448-8.781-9.066-28.238-5.283c-17.835,3.468-43.732,16.056-58.459,22.128
		C672.14,935.806,652.984,943.733,652.984,943.733"/>
	<polygon clip-path="url(#SVGID_2_)" fill="#FECB50" points="563.315,978.082 572.232,958.101 580.984,977.422 599.149,978.247 
		585.278,992.449 588.086,1013.422 570.911,996.577 550.434,1011.109 555.718,990.963 545.48,978.908 	"/>
	<path clip-path="url(#SVGID_2_)" fill="#20C7A3" d="M385.126,830.112c-32.594-38.734-41.503-85.145-41.503-85.145
		s74.097-6.918,121.819,29.515c13.152,10.041,20.999,24.203,22.88,38.466c1.176,8.914-5.971,33.755-20.452,43.684
		c-2.641,1.81-5.506,3.425-8.619,4.213C455.811,861.715,413.744,864.124,385.126,830.112"/>
	<path clip-path="url(#SVGID_2_)" fill="#72D0F3" d="M646.709,972.137c-12.551-4.789-17.34-21.469-21.633-36.495
		c-4.294-15.028-14.037-51.468-78.165-52.68c23.615-47.89-24.695-68.325-63.523-69.853c-29.395-1.156-48.55,2.972-62.807,5.669
		c16.073,0.881,31.15,13.731,39.853,26.422c9.248,13.487,13.511,23.591,26.862,29.285c7.486,3.193,4.217,10.684-2.972,8.477
		c-11.835-3.633-19.596-13.87-28.954-27.412c-6.61-9.565-25.982-31.927-47.56-31.706c-21.578,0.22-32.367,15.413-40.734,19.376
		c18.495-2.201,27.311,5.731,40.734,18.055c13.431,12.331,17.835,17.174,32.367,18.715c8.392,0.892,7.704,9.762,0.22,9.468
		c-11.229-0.439-20.477-3.742-37.431-19.376c-15.715-14.489-32.367-22.458-45.137-17.174c-12.771,5.285-16.294,20.698-24.441,27.082
		c20.698-4.403,35.401,5.1,45.138,18.937c4.183,5.944-1.982,11.01-6.606,6.605c-10.26-9.771-30.314-23.016-44.917-15.192
		c-12.33,6.604-4.183,27.082-16.954,36.771c11.669-0.055,18.605,28.513,37.596,28.844c18.991,0.33,27.226-32.265,43.761-41.285
		c5.45-2.972,9.165,3.82,4.79,7.598c-19.322,16.678-21.633,44.917-50.202,43.596c20.642,12.385,47.985,12.435,63.577-6.604
		c17.175-20.974,18.166-38.147,34.68-50.697c5.214-3.963,10.073,1.98,5.614,5.943c-24.11,21.433-28.073,63.908-57.798,68.367
		c17.339,6.441,42.441,13.871,61.596-5.449c21.142-21.323,26.229-61.327,53.01-81.412c3.962-2.974,9.117,2.183,4.954,6.274
		c-38.973,38.313-31.707,84.881-70.845,92.808c19.487,2.312,52.514,7.927,66.881-18.825s3.859-44.613,20.807-67.211
		c2.973-3.963,9.294-1.466,6.936,3.798c-19.156,42.77-5.119,55.321-21.963,72.991c19.486-9.248,49.046-23.284,56.477-47.726
		c9.191-30.228-15.523-46.898-15.523-46.898c36.66,1.65,54.991,20.146,62.917,47.724c7.927,27.579,14.863,39.303,24.111,42.441
		C650.672,984.523,653.102,974.576,646.709,972.137 M414.489,891.001c-0.602,1.335-2.151,1.948-3.499,1.415
		c-2.875-1.142-5.586-2.646-8.094-4.316c-2.513-1.668-4.835-3.487-7.092-5.222c-2.256-1.735-4.461-3.382-6.733-4.756
		c-2.269-1.379-4.606-2.477-7.042-3.238c-1.846-0.576-2.875-2.54-2.297-4.387c0.576-1.845,2.54-2.874,4.385-2.297
		c0.045,0.015,0.09,0.029,0.134,0.044l0.02,0.008c2.995,1.083,5.813,2.582,8.366,4.298c2.56,1.713,4.87,3.616,7.074,5.475
		c2.206,1.859,4.327,3.671,6.523,5.274c2.192,1.604,4.463,2.993,6.873,4.082l0.016,0.007
		C414.498,888.009,415.11,889.625,414.489,891.001 M479.735,905.124l-0.029,0.031c-2.242,2.431-4.246,5.044-5.994,7.846
		c-1.757,2.801-3.256,5.785-4.729,8.898c-1.477,3.106-2.951,6.352-4.794,9.547c-1.827,3.196-4.086,6.295-6.749,9.002l-0.014,0.013
		c-1.355,1.38-3.572,1.397-4.95,0.041c-1.379-1.354-1.397-3.571-0.041-4.949c0.028-0.028,0.066-0.066,0.094-0.094
		c2.3-2.168,4.277-4.648,6.01-7.421c1.743-2.763,3.274-5.797,4.9-8.906c1.621-3.108,3.365-6.287,5.423-9.302
		c2.048-3.018,4.402-5.854,6.979-8.436c1.052-1.054,2.76-1.055,3.813-0.002C480.682,902.417,480.709,904.066,479.735,905.124
		 M523.196,877.546c-0.733,0.994-2.102,1.248-3.142,0.632c-3.699-2.211-6.468-5.642-8.478-9.132
		c-2.035-3.518-3.476-7.157-4.903-10.631c-1.418-3.468-2.805-6.833-4.544-9.635c-1.737-2.818-3.809-4.88-6.242-5.895
		c-2.298-0.959-3.384-3.602-2.425-5.9c0.96-2.298,3.601-3.384,5.9-2.424c0.149,0.062,0.294,0.131,0.433,0.208l0.158,0.087
		c2.134,1.174,4.022,2.773,5.525,4.537c1.512,1.764,2.668,3.669,3.609,5.56c1.867,3.8,2.969,7.563,4.071,11.161
		c1.091,3.596,2.125,7.078,3.575,10.229c1.442,3.142,3.329,5.929,5.952,7.862l0.008,0.006
		C523.753,874.994,523.978,876.487,523.196,877.546"/>
	<path clip-path="url(#SVGID_2_)" fill="#F432A6" d="M991.516,163.129c0,2.341-1.897,4.239-4.238,4.239
		c-2.342,0-4.239-1.898-4.239-4.239s1.897-4.238,4.239-4.238C989.618,158.892,991.516,160.789,991.516,163.129"/>
	<path clip-path="url(#SVGID_2_)" fill="#F432A6" d="M991.516,163.129c0,2.341-1.897,4.239-4.238,4.239
		c-2.342,0-4.239-1.898-4.239-4.239s1.897-4.238,4.239-4.238C989.618,158.892,991.516,160.789,991.516,163.129"/>
	<polygon clip-path="url(#SVGID_2_)" fill="#F432A6" points="760.394,409.913 874.747,324.269 849.415,322.098 961.597,242.244 
		938.678,314.377 795.617,421.251 	"/>
	<polygon clip-path="url(#SVGID_2_)" fill="#FECB50" points="823.602,427.283 926.615,351.289 938.893,313.459 795.616,421.251 	"/>
	<polygon clip-path="url(#SVGID_2_)" fill="#FFFFFF" points="699.773,299.698 674.012,333.826 707.259,325.239 667.847,390.083 
		732.581,323.918 	"/>
	<path clip-path="url(#SVGID_2_)" fill="#F432A6" d="M738.797,224.223c-8.046-8.578-20.027-13.699-34.951-11.828
		c-34.238,4.294-42.275,44.257-20.807,69.358c21.796,25.485,62.752,50.202,62.752,50.202c20.807-18.496,51.841-47.072,58.789-67.046
		c7.926-22.789-1.982-52.844-33.028-49.101L738.797,224.223z"/>
	<path clip-path="url(#SVGID_2_)" fill="#FFFFFF" d="M749.094,240.909l51.743-59.78l-22.348-0.991l36.99-45.247l-72.77,57.908
		l26.201,1.761l-30.715,28.074C738.195,222.634,746.947,232.982,749.094,240.909"/>
	<path clip-path="url(#SVGID_2_)" fill="#F432A6" d="M373.036,410.401l-60.203-71.987c0,0-39.627,32.294-28.325,51.669
		C292.214,403.294,343.104,394.389,373.036,410.401"/>
	<path clip-path="url(#SVGID_2_)" fill="#F432A6" d="M392.232,666.632c0,2.464-1.996,4.459-4.458,4.459
		c-2.463,0-4.459-1.995-4.459-4.459c0-2.462,1.996-4.457,4.459-4.457C390.236,662.175,392.232,664.17,392.232,666.632"/>
	<path clip-path="url(#SVGID_2_)" fill="#F432A6" d="M933.222,597.275c0,2.464-1.996,4.46-4.458,4.46
		c-2.463,0-4.459-1.996-4.459-4.46c0-2.462,1.996-4.459,4.459-4.459C931.226,592.816,933.222,594.813,933.222,597.275"/>
	<path clip-path="url(#SVGID_2_)" fill="#F432A6" d="M816.305,844.652c0,2.462-1.997,4.457-4.459,4.457
		c-2.462,0-4.458-1.995-4.458-4.457c0-2.464,1.996-4.459,4.458-4.459C814.308,840.193,816.305,842.188,816.305,844.652"/>
</g>
<polyline fill="none" stroke="#F432A6" stroke-width="3" stroke-linecap="round" stroke-miterlimit="10" points="693.828,306.854 
	664.324,291.221 632.397,257.533 664.544,267.662 637.021,245.423 627.883,207.551 659.7,229.35 642.085,199.294 643.737,159.001 
	677.425,181.79 698.232,200.286 693.938,173.533 723.333,190.377 745.131,215.478 "/>
<polyline fill="none" stroke="#1E1F57" stroke-linecap="round" stroke-miterlimit="10" points="760.394,409.913 874.747,324.269 
	849.415,322.098 961.597,242.244 "/>
<line fill="none" stroke="#1E1F57" stroke-linecap="round" stroke-miterlimit="10" x1="795.617" y1="421.251" x2="938.679" y2="314.377"/>
<line fill="none" stroke="#1E1F57" stroke-linecap="round" stroke-miterlimit="10" x1="823.602" y1="427.283" x2="926.615" y2="351.289"/>
<polyline fill="none" stroke="#6B2EA1" stroke-linecap="round" stroke-miterlimit="10" points="472.324,294.083 413.866,192.688 
	482.893,216.139 416.838,158.67 399.003,105.828 "/>
<g>
	<defs>
		<rect id="SVGID_3_" y="-0.001" width="1010.129" height="1153.981"/>
	</defs>
	<clipPath id="SVGID_4_">
		<use xlink:href="#SVGID_3_"  overflow="visible"/>
	</clipPath>
	<path clip-path="url(#SVGID_4_)" fill="none" stroke="#6B2EA1" stroke-linecap="round" stroke-miterlimit="10" d="M782.122,582.744
		c-27.963,21.799,5.725,83.009,21.578,60.77"/>
	<path clip-path="url(#SVGID_4_)" fill="none" stroke="#6B2EA1" stroke-linecap="round" stroke-miterlimit="10" d="M722.452,618.853
		c-46.019,30.386,4.624,130.129,32.807,91.597"/>
	<path clip-path="url(#SVGID_4_)" fill="none" stroke="#72D0F3" stroke-linecap="round" stroke-miterlimit="10" d="M581.535,605.203
		c11.229,5.063,7.486,29.943,7.486,29.943c20.037-8.587,29.505,12.111,29.505,12.111"/>
	<path clip-path="url(#SVGID_4_)" fill="none" stroke="#72D0F3" stroke-linecap="round" stroke-miterlimit="10" d="M652.434,559.844
		c33.248,13.211,10.349,52.183,10.349,52.183s19.817-0.439,22.679,22.9"/>
	<path clip-path="url(#SVGID_4_)" fill="none" stroke="#72D0F3" stroke-linecap="round" stroke-miterlimit="10" d="M703.736,630.303
		c0.331-17.175-15.633-33.357-35.229-31.706"/>
	<path clip-path="url(#SVGID_4_)" fill="none" stroke="#72D0F3" stroke-linecap="round" stroke-miterlimit="10" d="M670.599,588.359
		c19.816-4.404,41.725,7.705,46.238,33.907"/>
	<path clip-path="url(#SVGID_4_)" fill="none" stroke="#72D0F3" stroke-linecap="round" stroke-miterlimit="10" d="M604.323,633.715
		c8.147-11.229,8.808-31.485-7.266-45.138"/>
	<path clip-path="url(#SVGID_4_)" fill="none" stroke="#72D0F3" stroke-linecap="round" stroke-miterlimit="10" d="M611.149,637.57
		c10.019-7.707,12.881-24.44,9.358-33.358"/>
	<path clip-path="url(#SVGID_4_)" fill="none" stroke="#72D0F3" stroke-linecap="round" stroke-miterlimit="10" d="M577.169,692.804
		c21.691-6.276,48.942,4.885,50.604,38.122"/>
	<path clip-path="url(#SVGID_4_)" fill="none" stroke="#72D0F3" stroke-linecap="round" stroke-miterlimit="10" d="M627.058,724.101
		c14.202-2.478,21.633,7.432,20.146,20.973"/>
	<path clip-path="url(#SVGID_4_)" fill="none" stroke="#72D0F3" stroke-linecap="round" stroke-miterlimit="10" d="M624.415,714.193
		c18.826-5.614,38.477,10.072,33.027,38.973"/>
	<path clip-path="url(#SVGID_4_)" fill="none" stroke="#72D0F3" stroke-linecap="round" stroke-miterlimit="10" d="M556.434,664.652
		c19.156,1.101,25.541,24.439,17.174,37.211c0,0,20.918,5.505,11.229,30.165"/>
	<path clip-path="url(#SVGID_4_)" fill="none" stroke="#72D0F3" stroke-linecap="round" stroke-miterlimit="10" d="M553.572,676.761
		c10.899,0.771,17.395,16.073,6.165,28.403"/>
	
		<path clip-path="url(#SVGID_4_)" fill="none" stroke="#1E1F57" stroke-width="3" stroke-linecap="round" stroke-miterlimit="10" d="
		M568.764,619.513l37.651-41.833l47.12,88.953c0,0,4.403-59.009-19.376-156.77"/>
	
		<path clip-path="url(#SVGID_4_)" fill="none" stroke="#1E1F57" stroke-width="3" stroke-linecap="round" stroke-miterlimit="10" d="
		M646.709,972.136c-12.55-4.788-17.339-21.468-21.633-36.494c-4.293-15.027-14.036-51.469-78.165-52.68
		c23.615-47.889-24.695-68.326-63.523-69.852c-29.394-1.157-48.55,2.971-62.807,5.669c16.073,0.88,31.15,13.729,39.853,26.421
		c9.248,13.487,13.511,23.591,26.862,29.286c7.487,3.191,4.217,10.683-2.972,8.476c-11.835-3.633-19.596-13.871-28.954-27.413
		c-6.61-9.563-25.982-31.926-47.559-31.706c-21.579,0.222-32.368,15.413-40.734,19.376c18.495-2.2,27.31,5.732,40.734,18.057
		c13.431,12.33,17.835,17.173,32.366,18.715c8.392,0.89,7.704,9.761,0.22,9.467c-11.229-0.439-20.477-3.743-37.431-19.376
		c-15.715-14.49-32.366-22.458-45.137-17.174c-12.771,5.285-16.294,20.698-24.44,27.083c20.697-4.404,35.4,5.098,45.137,18.935
		c4.183,5.945-1.982,11.011-6.606,6.606c-10.26-9.772-30.314-23.016-44.917-15.193c-12.33,6.606-4.183,27.083-16.954,36.771
		c11.67-0.056,18.606,28.513,37.597,28.844c18.99,0.33,27.225-32.265,43.761-41.285c5.449-2.971,9.164,3.821,4.789,7.598
		c-19.321,16.679-21.633,44.917-50.202,43.597c20.642,12.384,47.986,12.434,63.578-6.606c17.174-20.973,18.165-38.146,34.679-50.696
		c5.214-3.963,10.073,1.98,5.614,5.943c-24.11,21.433-28.073,63.908-57.798,68.367c17.34,6.441,42.441,13.871,61.597-5.449
		c21.141-21.323,26.228-61.328,53.009-81.413c3.963-2.973,9.118,2.184,4.954,6.275c-38.973,38.312-31.707,84.881-70.844,92.807
		c19.486,2.313,52.513,7.928,66.881-18.824c14.366-26.752,3.858-44.612,20.807-67.212c2.972-3.963,9.293-1.466,6.936,3.799
		c-19.156,42.77-5.12,55.32-21.964,72.99c19.487-9.248,49.046-23.283,56.477-47.725c9.191-30.228-15.523-46.899-15.523-46.899
		c36.661,1.651,54.991,20.146,62.917,47.726c7.927,27.578,14.863,39.302,24.111,42.439
		C650.672,984.523,653.102,974.576,646.709,972.136z"/>
	
		<path clip-path="url(#SVGID_4_)" fill="none" stroke="#1E1F57" stroke-width="3" stroke-linecap="round" stroke-linejoin="round" stroke-miterlimit="10" d="
		M467.87,856.63c-2.716,1.695-5.605,3.104-8.619,4.215"/>
	
		<path clip-path="url(#SVGID_4_)" fill="none" stroke="#1E1F57" stroke-width="3" stroke-linecap="round" stroke-miterlimit="10" d="
		M385.126,830.112c-32.696-38.648-41.503-85.145-41.503-85.145s74.097-6.918,121.819,29.515
		c13.152,10.041,21.128,24.188,22.88,38.466"/>
	
		<line clip-path="url(#SVGID_4_)" fill="none" stroke="#1E1F57" stroke-linecap="round" stroke-linejoin="round" stroke-miterlimit="10" x1="343.623" y1="744.968" x2="440.714" y2="815.089"/>
	
		<line clip-path="url(#SVGID_4_)" fill="none" stroke="#1E1F57" stroke-linecap="round" stroke-linejoin="round" stroke-miterlimit="10" x1="412.397" y1="751.222" x2="414.454" y2="795.966"/>
	
		<line clip-path="url(#SVGID_4_)" fill="none" stroke="#1E1F57" stroke-linecap="round" stroke-linejoin="round" stroke-miterlimit="10" x1="432.983" y1="757.22" x2="434.388" y2="810.499"/>
	
		<line clip-path="url(#SVGID_4_)" fill="none" stroke="#1E1F57" stroke-linecap="round" stroke-linejoin="round" stroke-miterlimit="10" x1="359.598" y1="790.115" x2="398.778" y2="784.945"/>
	<path clip-path="url(#SVGID_4_)" fill="none" stroke="#1E1F57" stroke-width="3" stroke-miterlimit="10" d="M384.271,868.252
		c2.995,1.083,5.813,2.582,8.366,4.298c2.56,1.713,4.87,3.616,7.074,5.474c2.206,1.86,4.327,3.672,6.523,5.275
		c2.192,1.604,4.464,2.993,6.873,4.082l0.016,0.007c1.376,0.621,1.987,2.237,1.367,3.613c-0.603,1.335-2.152,1.948-3.499,1.415
		c-2.876-1.143-5.587-2.646-8.095-4.316c-2.513-1.668-4.834-3.487-7.091-5.222c-2.257-1.735-4.461-3.382-6.734-4.756
		c-2.269-1.379-4.606-2.477-7.042-3.238c-1.845-0.576-2.874-2.54-2.298-4.387c0.577-1.845,2.541-2.874,4.386-2.297
		c0.046,0.015,0.09,0.029,0.134,0.044L384.271,868.252z"/>
	<path clip-path="url(#SVGID_4_)" fill="none" stroke="#1E1F57" stroke-width="3" stroke-miterlimit="10" d="M499.953,834.856
		c2.134,1.176,4.022,2.773,5.525,4.537c1.513,1.766,2.668,3.669,3.609,5.562c1.867,3.799,2.969,7.562,4.072,11.161
		c1.09,3.595,2.125,7.078,3.574,10.228c1.442,3.144,3.329,5.929,5.952,7.864l0.008,0.005c1.06,0.782,1.285,2.275,0.503,3.334
		c-0.733,0.995-2.101,1.248-3.141,0.631c-3.7-2.211-6.469-5.64-8.478-9.132c-2.036-3.516-3.477-7.157-4.904-10.629
		c-1.418-3.468-2.804-6.833-4.544-9.635c-1.737-2.819-3.809-4.88-6.241-5.896c-2.299-0.959-3.385-3.6-2.426-5.898
		c0.96-2.3,3.601-3.386,5.9-2.426c0.15,0.063,0.294,0.133,0.433,0.208L499.953,834.856z"/>
	
		<path clip-path="url(#SVGID_4_)" fill="none" stroke="#1E1F57" stroke-width="3" stroke-linecap="round" stroke-linejoin="round" stroke-miterlimit="10" d="
		M479.706,905.156c-2.242,2.431-4.246,5.044-5.994,7.846c-1.757,2.8-3.256,5.785-4.729,8.896c-1.477,3.107-2.95,6.354-4.794,9.548
		c-1.827,3.195-4.086,6.296-6.749,9.003l-0.013,0.013c-1.356,1.379-3.573,1.396-4.951,0.041c-1.378-1.356-1.396-3.573-0.041-4.951
		c0.028-0.028,0.066-0.065,0.095-0.092c2.299-2.168,4.277-4.65,6.009-7.421c1.744-2.765,3.274-5.797,4.9-8.907
		c1.621-3.109,3.365-6.288,5.423-9.301c2.048-3.02,4.402-5.856,6.979-8.438c1.052-1.053,2.76-1.054,3.814-0.002
		c1.027,1.026,1.054,2.674,0.08,3.733L479.706,905.156z"/>
	
		<path clip-path="url(#SVGID_4_)" fill="none" stroke="#1E1F57" stroke-linecap="round" stroke-linejoin="round" stroke-miterlimit="10" d="
		M554.975,884.285c-13.045-0.165-57.137-2.396-91.733,18.329c-16.514-9.907-37.982-4.788-50.037,7.598
		c-17.505-14.037-28.032-0.46-40.128,6.108c-19.156,10.404-29.23-6.273-61.597,10.569"/>
	
		<path clip-path="url(#SVGID_4_)" fill="none" stroke="#1E1F57" stroke-linecap="round" stroke-linejoin="round" stroke-miterlimit="10" d="
		M538.214,889.816c0,0,9.661-0.495,24.275,1.073"/>
	
		<path clip-path="url(#SVGID_4_)" fill="none" stroke="#1E1F57" stroke-linecap="round" stroke-linejoin="round" stroke-miterlimit="10" d="
		M646.929,973.127c-5.395-2.531-9.688,5.284-4.184,7.598"/>
	
		<polygon clip-path="url(#SVGID_4_)" fill="none" stroke="#1E1F57" stroke-width="3" stroke-linecap="round" stroke-miterlimit="10" points="
		563.315,978.082 572.232,958.101 580.984,977.422 599.149,978.247 585.278,992.449 588.086,1013.422 570.911,996.577 
		550.434,1011.109 555.718,990.963 545.48,978.908 	"/>
	
		<line clip-path="url(#SVGID_4_)" fill="none" stroke="#1E1F57" stroke-width="3" stroke-linecap="round" stroke-miterlimit="10" x1="533.338" y1="374.731" x2="514.8" y2="338.461"/>
	
		<line clip-path="url(#SVGID_4_)" fill="none" stroke="#1E1F57" stroke-width="3" stroke-linecap="round" stroke-miterlimit="10" x1="437.464" y1="338.415" x2="428.156" y2="330.805"/>
	
		<line clip-path="url(#SVGID_4_)" fill="none" stroke="#1E1F57" stroke-width="3" stroke-linecap="round" stroke-miterlimit="10" x1="492.233" y1="383.194" x2="449.646" y2="348.375"/>
	
		<line clip-path="url(#SVGID_4_)" fill="none" stroke="#1E1F57" stroke-width="3" stroke-linecap="round" stroke-miterlimit="10" x1="480.143" y1="418.658" x2="442.261" y2="402.941"/>
	
		<line clip-path="url(#SVGID_4_)" fill="none" stroke="#1E1F57" stroke-width="3" stroke-linecap="round" stroke-miterlimit="10" x1="877.864" y1="509.028" x2="981.607" y2="178.487"/>
	
		<line clip-path="url(#SVGID_4_)" fill="none" stroke="#1E1F57" stroke-width="3" stroke-linecap="round" stroke-miterlimit="10" x1="800.617" y1="755.146" x2="853.7" y2="586.017"/>
	
		<path clip-path="url(#SVGID_4_)" fill="none" stroke="#1E1F57" stroke-width="3" stroke-linecap="round" stroke-miterlimit="10" d="
		M653.93,635.932c16.182-1.915,31.434-0.604,38.745-0.06c1.454,0.109,2.903-0.24,4.15-0.998l121.11-73.692
		c1.206-0.733,2.209-1.758,2.918-2.979l19.528-33.642c1.069-1.841,2.598-3.372,4.438-4.442l22.049-12.833
		c1.274-0.741,2.808-0.894,4.204-0.419l4.234,1.442c2.244,0.764,3.663,2.97,3.427,5.329c-0.291,2.914-0.539,6.832-0.171,9.655
		c0.66,5.065,3.743,11.01,5.945,14.312c2.202,3.303-3.743,8.367-13.211,3.523c-7.791-3.986-10.066-12.296-8.909-20.145"/>
	
		<path clip-path="url(#SVGID_4_)" fill="none" stroke="#1E1F57" stroke-width="3" stroke-linecap="round" stroke-miterlimit="10" d="
		M608.617,656.505c7.592-9.125,18.377-14.522,29.822-17.639"/>
	
		<path clip-path="url(#SVGID_4_)" fill="none" stroke="#1E1F57" stroke-width="3" stroke-linecap="round" stroke-miterlimit="10" d="
		M729.402,746.083l107.324-147.928c0,0,15.403-0.35,24.673-2.923c1.882-0.521,3.523-1.677,4.653-3.27l25.861-36.44
		c1.325-1.869,1.664-4.294,0.786-6.41c-0.99-2.387-3.133-5.345-7.753-7.544"/>
	
		<path clip-path="url(#SVGID_4_)" fill="none" stroke="#1E1F57" stroke-width="3" stroke-linecap="round" stroke-miterlimit="10" d="
		M891.607,545.752l3.235-2.68c1.61-1.334,2.53-3.323,2.505-5.414l-0.069-5.596c-0.034-2.807-1.76-5.315-4.37-6.35l-14.016-5.556"/>
	
		<path clip-path="url(#SVGID_4_)" fill="none" stroke="#1E1F57" stroke-width="3" stroke-linecap="round" stroke-miterlimit="10" d="
		M863.699,534.358l-20.646,35.018c-1.125,2.045-0.822,4.572,0.743,6.305c3.32,3.672,9.496,9.736,16.27,12.512"/>
	<path clip-path="url(#SVGID_4_)" fill="none" stroke="#1E1F57" stroke-linecap="round" stroke-miterlimit="10" d="M856.434,547.569
		c0,0,27.578,10.899,26.917,18.826"/>
	<path clip-path="url(#SVGID_4_)" fill="none" stroke="#1E1F57" stroke-linecap="round" stroke-miterlimit="10" d="M848.837,561.441
		c0,0,25.431,13.541,23.78,20.312"/>
	<path clip-path="url(#SVGID_4_)" fill="none" stroke="#1E1F57" stroke-linecap="round" stroke-miterlimit="10" d="M845.369,530.229
		c2.808,7.597,9.908,10.239,15.853,7.266"/>
	<path clip-path="url(#SVGID_4_)" fill="none" stroke="#1E1F57" stroke-linecap="round" stroke-miterlimit="10" d="M827.7,583.57
		c0,0,1.981,10.072,9.578,14.531"/>
	<path clip-path="url(#SVGID_4_)" fill="none" stroke="#1E1F57" stroke-linecap="round" stroke-miterlimit="10" d="M821.754,574.817
		c0,0,0.661,12.55,4.459,18.991"/>
	
		<path clip-path="url(#SVGID_4_)" fill="none" stroke="#1E1F57" stroke-width="3" stroke-linecap="round" stroke-miterlimit="10" d="
		M750.851,601.116l7.812-53.678c5.494-37.745-24.067-71.454-62.206-70.936l-70.182,0.952c-30.552,0.415-57.024,21.283-64.56,50.893
		l-36.852,144.79c-5.807,22.815,0.904,46.993,17.638,63.552c28.859,28.557,73.743,71.349,97.602,85.834
		c36.991,22.459,73.982,30.057,105.028,13.872c31.046-16.183,38.548-44.477,30.715-75.633
		c-7.431-29.559-16.514-55.486-16.514-55.486"/>
	
		<path clip-path="url(#SVGID_4_)" fill="none" stroke="#1E1F57" stroke-width="3" stroke-linecap="round" stroke-miterlimit="10" d="
		M737.865,608.505l-0.626-70.422c-0.141-15.884-13.031-28.701-28.916-28.751l-77.072-0.243
		c-19.93-0.063-37.374,13.376-42.396,32.663l-35.957,138.081c-2.351,9.027,0.005,18.63,6.28,25.533
		c16.252,17.883,49.225,52.825,75.642,72.24c36.55,26.862,70.238,31.045,95.119,23.338c25.404-7.868,36.99-19.376,22.458-86.311"/>
	
		<path clip-path="url(#SVGID_4_)" fill="none" stroke="#1E1F57" stroke-width="3" stroke-linecap="round" stroke-miterlimit="10" d="
		M645.608,560.285l49.981-0.881l5.505-9.247c0,0,2.642-23.34-0.22-40.734"/>
	
		<line clip-path="url(#SVGID_4_)" fill="none" stroke="#1E1F57" stroke-width="3" stroke-linecap="round" stroke-miterlimit="10" x1="698.893" y1="555.441" x2="723.772" y2="617.532"/>
	
		<line clip-path="url(#SVGID_4_)" fill="none" stroke="#1E1F57" stroke-linecap="round" stroke-miterlimit="10" x1="608.232" y1="579.359" x2="589.489" y2="540.385"/>
	
		<line clip-path="url(#SVGID_4_)" fill="none" stroke="#1E1F57" stroke-linecap="round" stroke-miterlimit="10" x1="571.241" y1="605.532" x2="602.948" y2="568.376"/>
	
		<line clip-path="url(#SVGID_4_)" fill="none" stroke="#1E1F57" stroke-linecap="round" stroke-miterlimit="10" x1="701.094" y1="550.156" x2="643.406" y2="549.881"/>
	<path clip-path="url(#SVGID_4_)" fill="none" stroke="#1E1F57" stroke-linecap="round" stroke-miterlimit="10" d="M658.599,560.12
		l12.861-10.221c0,0,0.515-19.504-2.953-40.641"/>
	<path clip-path="url(#SVGID_4_)" fill="none" stroke="#1E1F57" stroke-linecap="round" stroke-miterlimit="10" d="M598.819,586.458
		l-11.395-0.082c0,0-4.706-7.432-6.522-14.697"/>
	
		<path clip-path="url(#SVGID_4_)" fill="none" stroke="#1E1F57" stroke-width="3" stroke-linecap="round" stroke-miterlimit="10" d="
		M591.388,738.632l18.495-14.2l10.9,0.989l39.962,31.047l22.459-79.763c0,0,24.771,46.57,9.578,125.835"/>
	
		<path clip-path="url(#SVGID_4_)" fill="none" stroke="#1E1F57" stroke-width="3" stroke-linecap="round" stroke-miterlimit="10" d="
		M737.7,797.917c0,0,1.981-16.845,0.991-35.175l-6.441-5.944l-33.853,4.129"/>
	
		<line clip-path="url(#SVGID_4_)" fill="none" stroke="#1E1F57" stroke-width="3" stroke-linecap="round" stroke-miterlimit="10" x1="732.085" y1="743.256" x2="732.25" y2="756.797"/>
	
		<line clip-path="url(#SVGID_4_)" fill="none" stroke="#1E1F57" stroke-linecap="round" stroke-miterlimit="10" x1="662.893" y1="751.733" x2="654.195" y2="789.715"/>
	
		<line clip-path="url(#SVGID_4_)" fill="none" stroke="#1E1F57" stroke-linecap="round" stroke-miterlimit="10" x1="609.883" y1="724.431" x2="659.369" y2="765.936"/>
	
		<line clip-path="url(#SVGID_4_)" fill="none" stroke="#1E1F57" stroke-linecap="round" stroke-miterlimit="10" x1="698.122" y1="769.458" x2="738.525" y2="763.514"/>
	<path clip-path="url(#SVGID_4_)" fill="none" stroke="#1E1F57" stroke-linecap="round" stroke-miterlimit="10" d="M711.113,759.219
		l9.137,6.717c0,0,1.432,20.257-2.091,36.881"/>
	<path clip-path="url(#SVGID_4_)" fill="none" stroke="#1E1F57" stroke-linecap="round" stroke-miterlimit="10" d="M651.663,750.082
		l-11.56-0.22c0,0-6.275,12.441-9.137,23.78"/>
	<path clip-path="url(#SVGID_4_)" fill="none" stroke="#1E1F57" stroke-linecap="round" stroke-miterlimit="10" d="M635.81,737.532
		l-11.119-0.66c0,0-8.257,10.459-11.89,22.68"/>
	
		<path clip-path="url(#SVGID_4_)" fill="none" stroke="#1E1F57" stroke-width="3" stroke-linecap="round" stroke-miterlimit="10" d="
		M559.682,654.908c29.89-15.853,67.376,0,75.303,50.367c20.146-4.789,32.697,5.284,34.348,19.321"/>
	
		<path clip-path="url(#SVGID_4_)" fill="none" stroke="#1E1F57" stroke-width="3" stroke-linecap="round" stroke-miterlimit="10" d="
		M697.902,742.597c14.532-8.919,27.596-2.495,33.871,6.918"/>
	
		<path clip-path="url(#SVGID_4_)" fill="none" stroke="#1E1F57" stroke-width="3" stroke-linecap="round" stroke-miterlimit="10" d="
		M624.69,674.781c19.596-4.404,34.128,10.128,33.027,31.266"/>
	
		<path clip-path="url(#SVGID_4_)" fill="none" stroke="#1E1F57" stroke-width="3" stroke-linecap="round" stroke-miterlimit="10" d="
		M585.058,491.367c0,0-25.761-53.945-38.532-75.963c0,0,29.284,1.101,56.367,14.973c-18.275-22.459-20.257-47.56-21.798-77.505
		c45.137,18.055,63.192,20.037,98.421,89.394"/>
	
		<path clip-path="url(#SVGID_4_)" fill="none" stroke="#1E1F57" stroke-width="3" stroke-linecap="round" stroke-miterlimit="10" d="
		M615.883,477.936c0,0-19.376-21.798-33.908-35.009c0,0,27.523,1.982,45.578,7.266c0,0-9.248-31.926-14.532-58.128
		c25.321,14.752,45.798,43.816,57.247,62.752c0,0,9.688-12.991,25.322-26.422c0,0,0,28.624-2.423,47.78"/>
	
		<path clip-path="url(#SVGID_4_)" fill="none" stroke="#1E1F57" stroke-width="3" stroke-linecap="round" stroke-miterlimit="10" d="
		M740.067,838.816c0,0-3.523,22.238-23.34,36.11l-10.128-16.954c0,0-8.367,27.523-30.165,46.019c0,0-21.358-14.752-26.642-56.147
		L634.819,868.1c0,0-20.366-24.481-16.395-60.767"/>
	
		<path clip-path="url(#SVGID_4_)" fill="none" stroke="#1E1F57" stroke-width="3" stroke-linecap="round" stroke-miterlimit="10" d="
		M477.526,521.717c-3.881-58.863,44.669-77.028,85.488-42.236C560.459,525.441,526.983,553.02,477.526,521.717z"/>
	
		<ellipse transform="matrix(0.9831 -0.1829 0.1829 0.9831 -81.1422 103.018)" clip-path="url(#SVGID_4_)" fill="none" stroke="#F432A6" stroke-width="3" stroke-linecap="round" stroke-miterlimit="10" cx="518.012" cy="491.478" rx="16.624" ry="18.165"/>
	
		<path clip-path="url(#SVGID_4_)" fill="none" stroke="#1E1F57" stroke-width="3" stroke-linecap="round" stroke-miterlimit="10" d="
		M695.59,446.45c15.413-15.413,53.339-5.56,50.284,52.899"/>
	
		<ellipse transform="matrix(0.99 -0.1411 0.1411 0.99 -57.7864 105.4307)" clip-path="url(#SVGID_4_)" fill="none" stroke="#F432A6" stroke-width="3" stroke-linecap="round" stroke-miterlimit="10" cx="714.443" cy="460.137" rx="10.023" ry="12.291"/>
	
		<path clip-path="url(#SVGID_4_)" fill="none" stroke="#1E1F57" stroke-width="3" stroke-linecap="round" stroke-miterlimit="10" d="
		M554.563,432.138c-44.587-0.33-113.543-11.109-91.156,105.027c5.284,27.413,24.441,96.44,24.441,96.44"/>
	
		<path clip-path="url(#SVGID_4_)" fill="none" stroke="#1E1F57" stroke-width="3" stroke-linecap="round" stroke-miterlimit="10" d="
		M671.149,425.313c25.98-9.688,43.376-11.229,47.56,14.973"/>
	
		<path clip-path="url(#SVGID_4_)" fill="none" stroke="#1E1F57" stroke-width="3" stroke-linecap="round" stroke-miterlimit="10" d="
		M546.526,587.148c0,0-57.688,44.807-94.018,76.183c-36.331,31.376-30.293,50.962-10.476,96.87"/>
	
		<path clip-path="url(#SVGID_4_)" fill="none" stroke="#1E1F57" stroke-width="3" stroke-linecap="round" stroke-miterlimit="10" d="
		M628.656,945.671c25.499-0.884,116.865-18.524,136.952-26.709c11.889-4.844,9.966-8.642,8.256-14.531
		c-1.981-6.825-25.871-69.139-25.871-69.139"/>
	
		<path clip-path="url(#SVGID_4_)" fill="none" stroke="#1E1F57" stroke-width="3" stroke-linecap="round" stroke-miterlimit="10" d="
		M571.187,937.678c13.911,5.352,30.382,7.845,47.45,8.097"/>
	<path clip-path="url(#SVGID_4_)" fill="none" stroke="#1E1F57" stroke-linecap="round" stroke-miterlimit="10" d="M635.149,945.385
		c29.063-2.313,55.156-18.495,90.495-31.706c31.321-11.709,48.22-9.248,48.881-2.644"/>
	
		<path clip-path="url(#SVGID_4_)" fill="none" stroke="#1E1F57" stroke-width="3" stroke-linecap="round" stroke-miterlimit="10" d="
		M458.893,511.624c-42.055,41.174-73.761,72.66-17.395,161.614"/>
	<path clip-path="url(#SVGID_4_)" fill="none" stroke="#1E1F57" stroke-linecap="round" stroke-miterlimit="10" d="M464.177,542.009
		c-31.926,40.074-40.954,55.266-5.064,114.936"/>
	<path clip-path="url(#SVGID_4_)" fill="none" stroke="#1E1F57" stroke-linecap="round" stroke-miterlimit="10" d="M471.664,573.275
		c-12.771,20.697-22.238,25.981,3.743,69.798"/>
	<path clip-path="url(#SVGID_4_)" fill="none" stroke="#1E1F57" stroke-linecap="round" stroke-miterlimit="10" d="M582.849,897.935
		c7.256,25.047,13.328,46.02,13.328,46.02"/>
	<path clip-path="url(#SVGID_4_)" fill="none" stroke="#1E1F57" stroke-linecap="round" stroke-miterlimit="10" d="M533.425,638.23
		c0,0-45.1,37.908-61.761,57.468c-7.596,8.917-7.596,13.211,3.303,24.77c10.898,11.561,68.036,66.386,73.981,72.33
		c5.945,5.946,7.266,13.541,9.908,22.459c1.378,4.651,11.469,39.451,20.81,71.691"/>
	<path clip-path="url(#SVGID_4_)" fill="none" stroke="#1E1F57" stroke-linecap="round" stroke-miterlimit="10" d="M540.141,612.689
		c0,0-56.367,44.696-79.927,68.477c-23.559,23.78-11.669,40.293,3.303,56.586l46.069,50.134c4.155,4.523,7.097,10.024,8.552,15.99
		l4.168,17.106"/>
	
		<path clip-path="url(#SVGID_4_)" fill="none" stroke="#1E1F57" stroke-width="3" stroke-linecap="round" stroke-miterlimit="10" d="
		M679.488,370.132c-65.207-36.973-166.418-95.614-283.127-70.104c-94.562,20.669-119.415,76.159-112.293,88.844
		c3.523,6.275,9.908,6.936,46.459,11.339c35.901,4.326,44.738,8.294,46.899,17.174c1.981,8.147-2.203,15.193-14.092,33.688
		c-44.112,68.619-58.349,140.477-6.386,191.78c-65.174-38.972-81.908-125.063-35.229-203.449c0,0-62.752,19.156-49.211,99.743
		c0,0-36.66-64.074,32.697-141.358"/>
	
		<path clip-path="url(#SVGID_4_)" fill="none" stroke="#1E1F57" stroke-width="3" stroke-linecap="round" stroke-miterlimit="10" d="
		M912.25,399.111c-10.569,29.284-72.34,61.46-225.908-25.101c-0.434-0.245-0.87-0.491-1.308-0.738"/>
	
		<line clip-path="url(#SVGID_4_)" fill="none" stroke="#1E1F57" stroke-width="3" stroke-linecap="round" stroke-miterlimit="10" x1="373.036" y1="410.401" x2="312.833" y2="338.415"/>
	
		<path clip-path="url(#SVGID_4_)" fill="none" stroke="#1E1F57" stroke-width="3" stroke-linecap="round" stroke-miterlimit="10" d="
		M792.523,152.518c-0.165-0.077-0.329-0.155-0.494-0.232c-159.413-74.862-274.348-82.789-411.522-40.514
		c-140.344,43.252-165.285,102.183-152.735,133.89c12.55,31.706,56.294,143.21,56.294,143.21"/>
	
		<path clip-path="url(#SVGID_4_)" fill="none" stroke="#1E1F57" stroke-width="3" stroke-linecap="round" stroke-miterlimit="10" d="
		M977.512,191.534c-7.191,22.917-44.06,26.45-178.46-35.969"/>
	
		<path clip-path="url(#SVGID_4_)" fill="none" stroke="#1E1F57" stroke-width="3" stroke-linecap="round" stroke-miterlimit="10" d="
		M750.231,252.781c-0.521-22.522-18.206-43.919-46.385-40.385c-34.239,4.293-42.275,44.257-20.807,69.357
		c21.796,25.485,62.752,50.202,62.752,50.202c20.807-18.495,51.841-47.071,58.789-67.046c7.926-22.789-1.982-52.843-33.028-49.101"
		/>
	
		<path clip-path="url(#SVGID_4_)" fill="none" stroke="#1E1F57" stroke-width="3" stroke-linecap="round" stroke-miterlimit="10" d="
		M748.434,266.23c0.732-2.441,1.237-4.927,1.524-7.425"/>
	
		<polyline clip-path="url(#SVGID_4_)" fill="none" stroke="#1E1F57" stroke-width="3" stroke-linecap="round" stroke-miterlimit="10" points="
		738.195,222.634 768.91,194.561 742.709,192.8 815.479,134.891 778.488,180.139 800.837,181.13 749.094,240.909 	"/>
	
		<polyline clip-path="url(#SVGID_4_)" fill="none" stroke="#1E1F57" stroke-width="3" stroke-linecap="round" stroke-miterlimit="10" points="
		699.773,299.698 674.012,333.826 707.259,325.239 667.847,390.083 732.581,323.918 	"/>
	
		<path clip-path="url(#SVGID_4_)" fill="none" stroke="#20C7A3" stroke-width="4" stroke-linecap="round" stroke-miterlimit="10" d="
		M585.612,956.374c14.966,3.229,24.649,19.954,39.322,39.615c27.108,36.325,65.144,46.364,99.477,44.898
		c55.146-2.358,113.27-50.181,113.563-120.607"/>
	
		<path clip-path="url(#SVGID_4_)" fill="none" stroke="#20C7A3" stroke-width="3" stroke-linecap="round" stroke-miterlimit="10" d="
		M624.934,995.989c12.857,16.441,55.008,19.414,86.859-13.282"/>
	
		<path clip-path="url(#SVGID_4_)" fill="none" stroke="#20C7A3" stroke-width="3" stroke-linecap="round" stroke-miterlimit="10" d="
		M643.557,1006.598c14.209,2.199,28.088-6.554,28.418-23.231"/>
	
		<path clip-path="url(#SVGID_4_)" fill="none" stroke="#20C7A3" stroke-width="3" stroke-linecap="round" stroke-miterlimit="10" d="
		M694.764,979.073c-6.11,11.063-20.98,29.668-42.444,28.788"/>
	
		<path clip-path="url(#SVGID_4_)" fill="none" stroke="#20C7A3" stroke-width="3" stroke-linecap="round" stroke-miterlimit="10" d="
		M686.465,1000.946c0,0,20.023,4.219,32.739-2.718"/>
	
		<path clip-path="url(#SVGID_4_)" fill="none" stroke="#20C7A3" stroke-width="3" stroke-linecap="round" stroke-miterlimit="10" d="
		M613.325,980.083c11.609,18.146,0.687,45.44,7.127,60.609"/>
	
		<path clip-path="url(#SVGID_4_)" fill="none" stroke="#20C7A3" stroke-width="3" stroke-linecap="round" stroke-miterlimit="10" d="
		M618.757,998.228c2.686,13.542,12.264,50.367,41.493,61.433"/>
	
		<path clip-path="url(#SVGID_4_)" fill="none" stroke="#20C7A3" stroke-width="3" stroke-linecap="round" stroke-miterlimit="10" d="
		M623.174,1014.771c5.482,13.335,13.461,21.273,30.966,23.916"/>
	
		<path clip-path="url(#SVGID_4_)" fill="none" stroke="#20C7A3" stroke-width="3" stroke-linecap="round" stroke-miterlimit="10" d="
		M649.482,1020.306c9.088,5.841,30.254,12.933,54.365,3.85"/>
	
		<path clip-path="url(#SVGID_4_)" fill="none" stroke="#20C7A3" stroke-width="3" stroke-linecap="round" stroke-miterlimit="10" d="
		M664.661,1029.373c17.253,6.673,66.433,13.277,83.442-20.574"/>
	
		<path clip-path="url(#SVGID_4_)" fill="none" stroke="#20C7A3" stroke-width="3" stroke-linecap="round" stroke-miterlimit="10" d="
		M721.516,1040.981c30.386-1.138,70.679-35.155,63.579-97.082"/>
	
		<path clip-path="url(#SVGID_4_)" fill="none" stroke="#20C7A3" stroke-width="3" stroke-linecap="round" stroke-miterlimit="10" d="
		M765.75,1017.199c11.088-12.199,8.445-33.503,2.831-51.503"/>
	
		<path clip-path="url(#SVGID_4_)" fill="none" stroke="#20C7A3" stroke-width="3" stroke-linecap="round" stroke-miterlimit="10" d="
		M777.688,998.228c3.85-10.151,18.14-17.669,22.434-30.55"/>
	
		<path clip-path="url(#SVGID_4_)" fill="none" stroke="#20C7A3" stroke-width="3" stroke-linecap="round" stroke-miterlimit="10" d="
		M825.279,973.982c4.308-9.608,6.383-23.453-3.029-42.374"/>
	
		<path clip-path="url(#SVGID_4_)" fill="none" stroke="#20C7A3" stroke-width="3" stroke-linecap="round" stroke-miterlimit="10" d="
		M816.305,988.981c5.725-8.976,17.67-22.458,31.542-30.551"/>
	
		<path clip-path="url(#SVGID_4_)" fill="none" stroke="#20C7A3" stroke-width="3" stroke-linecap="round" stroke-miterlimit="10" d="
		M785.918,1019.278c10.268-8.021,42.998-5.36,42.998-5.36"/>
	
		<path clip-path="url(#SVGID_4_)" fill="none" stroke="#20C7A3" stroke-width="3" stroke-linecap="round" stroke-miterlimit="10" d="
		M790.611,1015.821c12.978-8.51,34.28-13.604,34.28-13.604"/>
	
		<path clip-path="url(#SVGID_4_)" fill="none" stroke="#20C7A3" stroke-width="3" stroke-linecap="round" stroke-miterlimit="10" d="
		M740.681,1038.897c15.385-4.233,27.099,7.222,45.251,5.569"/>
	
		<path clip-path="url(#SVGID_4_)" fill="none" stroke="#20C7A3" stroke-width="3" stroke-linecap="round" stroke-miterlimit="10" d="
		M688.401,1037.745c18.913,3.915,29.646,16.797,33.114,31.162"/>
	
		<path clip-path="url(#SVGID_4_)" fill="none" stroke="#20C7A3" stroke-width="3" stroke-linecap="round" stroke-miterlimit="10" d="
		M692.844,1038.687c23.057,4.954,41.718,22.789,56.085,37.486"/>
	
		<path clip-path="url(#SVGID_4_)" fill="none" stroke="#20C7A3" stroke-width="3" stroke-linecap="round" stroke-miterlimit="10" d="
		M723.53,1053.327c10.371,6.663,18.13,7.653,28.866,8.646"/>
	<path clip-path="url(#SVGID_4_)" fill="#20C7A3" d="M831.332,871.292c-8.708,0.896-11.78,10.46-9.358,21.578
		c2.257,10.361,15.854,29.396,13.211,45.908l2.532,0.33c1.762-9.908,9.799-37.1,9.468-49.98
		C846.855,876.247,838.818,870.522,831.332,871.292"/>
	<path clip-path="url(#SVGID_4_)" fill="#20C7A3" d="M805.24,908.944c4.365-3.759,10.789-2.861,14.532,1.872
		c4.767,6.028,4.734,21.357,7.596,30.165l-2.312,0.66c-5.422-8.569-14.314-11.417-19.816-18.935
		C801.938,918.192,801.277,912.357,805.24,908.944"/>
	<path clip-path="url(#SVGID_4_)" fill="#20C7A3" d="M884.011,936.219c3.303,6.854,1.41,13.928-7.651,18.854
		c-11.34,6.165-30,2.119-41.56,14.586v-3.302c10.486-9.083,16.871-24.937,29.009-32.644
		C870.745,929.312,880.708,929.366,884.011,936.219"/>
	<path clip-path="url(#SVGID_4_)" fill="#20C7A3" d="M779.479,927c-5.181,1.783-4.514,8.808-1.542,13.762
		c2.973,4.954,6.826,12,6.496,20.257l2.422,0.11c0.44-7.047,4.624-18.717,3.963-24.991C790.158,929.862,786.194,924.687,779.479,927
		"/>
	<path clip-path="url(#SVGID_4_)" fill="#20C7A3" d="M804.69,953.751c-4.741-1.63-8.147,2.532-9.138,6.937
		c-0.99,4.403,0,14.202-6.055,20.697l1.432,1.65c5.504-4.624,14.73-11.96,17.174-18.716
		C809.974,959.147,808.213,954.962,804.69,953.751"/>
	<path clip-path="url(#SVGID_4_)" fill="#20C7A3" d="M759.112,944.833c-5.799,1.878-6.032,9.598-4.183,14.862
		c3.633,10.35,17.064,15.854,16.844,29.946l2.752-0.771c-1.982-10.018-0.44-24.439-1.982-32.917
		C771.002,947.477,766.598,942.412,759.112,944.833"/>
	<path clip-path="url(#SVGID_4_)" fill="#20C7A3" d="M855.442,984.577c3.017,4.776-0.55,11.341-9.248,14.423
		c-8.697,3.083-22.568,4.733-31.266,7.485l-0.77-2.422c11.009-3.853,15.193-13.211,24-18.604
		C845.855,980.744,852.8,980.393,855.442,984.577"/>
	<path clip-path="url(#SVGID_4_)" fill="#20C7A3" d="M855.773,1015.623c-0.536,5.223-5.285,7.156-12,6.717
		c-9.558-0.627-19.376-7.487-30.936-7.487l0.22-2.532c10.349,0,22.789-5.614,31.487-5.284
		C853.241,1007.366,856.213,1011.33,855.773,1015.623"/>
	<path clip-path="url(#SVGID_4_)" fill="#20C7A3" d="M817.131,1037.42c1.431,5.727-1.982,9.47-9.138,11.45
		c-7.155,1.982-26.091,1.102-40.073-5.175l0.881-2.421c10.349,1.872,23.89-5.835,32.697-8.147
		C810.305,1030.816,815.884,1032.435,817.131,1037.42"/>
	<path clip-path="url(#SVGID_4_)" fill="#20C7A3" d="M757.131,987.549c5.266,0.719,6.936,6.605,5.504,12.882
		c-1.479,6.486-7.376,15.521-25.32,23.67l-1.432-1.872c8.257-7.487,7.929-16.671,10.129-24.66
		C748.104,989.972,752.287,986.89,757.131,987.549"/>
	<path clip-path="url(#SVGID_4_)" fill="#20C7A3" d="M719.369,1013.999c3.455,3.567,1.284,9.32-2.973,11.974
		c-5.697,3.55-14.449,0.908-26.587,3.055l0.331-2.477c7.018-1.238,10.599-7.054,15.027-10.982
		C711.03,1010.366,716.81,1011.357,719.369,1013.999"/>
	<path clip-path="url(#SVGID_4_)" fill="#20C7A3" d="M734.81,987.99c1.967,3.113,0.826,7.35-2.146,9.66
		c-3.514,2.734-10.652,5.367-22.625,5.037l-0.495-2.807c5.037-1.074,9.08-9.359,14.037-12.798
		C727.626,984.274,732.828,984.852,734.81,987.99"/>
	<path clip-path="url(#SVGID_4_)" fill="#20C7A3" d="M727.048,959.008c4.707,2.478,4.293,7.598,2.56,10.816
		c-1.738,3.228-10.569,13.046-21.881,18.661l-1.899-1.982c3.22-5.283,7.576-17.863,10.156-22.459
		C718.626,959.338,722.894,956.822,727.048,959.008"/>
	<path clip-path="url(#SVGID_4_)" fill="#20C7A3" d="M702.69,962.119c3.958,1.209,4.184,6.221,2.643,10.238
		c-2.276,5.934-10.955,12.937-17.12,18.606l-2.037-1.872c3.688-6,4.349-15.798,6.991-20.752
		C695.81,963.385,698.727,960.908,702.69,962.119"/>
	<path clip-path="url(#SVGID_4_)" fill="#20C7A3" d="M670.323,956.833c-4.262,0.563-6.055,5.727-5.395,10.734
		c0.661,5.009,6.881,17.065,3.799,24.826l2.752,0.55c2.587-4.678,7.871-20.036,7.651-26.642
		C678.911,959.696,675.333,956.174,670.323,956.833"/>
	<path clip-path="url(#SVGID_4_)" fill="#20C7A3" d="M626.287,1055.311c-3.473,1.647-7.311-0.458-8.973-4.238
		c-2.394-5.449-1.541-16.788-0.495-23.504l2.752-0.165c1.321,6.495,7.707,14.146,9.303,18.55
		C630.471,1050.358,629.535,1053.769,626.287,1055.311"/>
	<path clip-path="url(#SVGID_4_)" fill="#20C7A3" d="M673.296,1044.054c-0.479,4.307-4.128,5.697-9,5.119
		c-6.077-0.721-14.367-8.01-21.468-12.056l0.743-2.641c6.523,2.394,15.688,0.742,21.798,1.485S673.791,1039.595,673.296,1044.054"/>
	<path clip-path="url(#SVGID_4_)" fill="#20C7A3" d="M695.425,1069.156c-0.496,5.944-5.12,9.247-11.973,8.917
		s-23.944-5.119-40.128-27.412l1.651-2.23c9.661,5.78,27.908,7.679,38.477,8.257S695.912,1063.303,695.425,1069.156"/>
	<path clip-path="url(#SVGID_4_)" fill="#20C7A3" d="M721.682,1086.495c-4.05-0.181-6.523-3.716-6.11-8.257
		c0.352-3.879,3.632-13.789,0-20.229l2.724-1.157c5.45,5.781,10.356,13.373,10.239,21.468
		C728.453,1084.017,725.396,1086.66,721.682,1086.495"/>
	<path clip-path="url(#SVGID_4_)" fill="#20C7A3" d="M770.122,1097.036c3.963-4.184,2.676-10.215-1.156-14.092
		c-4.679-4.733-19.211-7.65-26.036-14.696l-1.817,2.035c5.835,6.057,9.674,20.091,15.193,25.542
		C760.818,1100.283,766.879,1100.458,770.122,1097.036"/>
	<path clip-path="url(#SVGID_4_)" fill="#20C7A3" d="M775.792,1059.549c0.936,4.954-1.707,8.917-8.202,9.469
		c-8.465,0.718-11.284-2.752-27.358-7.322l0.496-2.697c8.422,2.202,16.679-4.897,23.394-5.889
		C769.494,1052.317,774.616,1053.331,775.792,1059.549"/>
</g>
</svg>
