<?xml version="1.0" encoding="utf-8"?>
<!-- Generator: Adobe Illustrator 16.0.0, SVG Export Plug-In . SVG Version: 6.00 Build 0)  -->
<!DOCTYPE svg PUBLIC "-//W3C//DTD SVG 1.1//EN" "http://www.w3.org/Graphics/SVG/1.1/DTD/svg11.dtd">
<svg version="1.1" id="Layer_1" xmlns="http://www.w3.org/2000/svg" xmlns:xlink="http://www.w3.org/1999/xlink" x="0px" y="0px"
	 width="595px" height="841px" viewBox="0 0 595 841" enable-background="new 0 0 595 841" xml:space="preserve">
<g>
	<defs>
		<path id="SVGID_1_" d="M98.09,536.8c-111.65-111.649-111.65-292.9,0-404.55c111.65-111.66,292.9-111.66,404.55,0
			c111.66,111.65,111.66,292.9,0,404.55C390.99,648.46,209.74,648.46,98.09,536.8z"/>
	</defs>
	<clipPath id="SVGID_2_">
		<use xlink:href="#SVGID_1_"  overflow="visible"/>
	</clipPath>
	<g clip-path="url(#SVGID_2_)">
		<defs>
			<path id="SVGID_3_" d="M98.09,536.8c-111.65-111.649-111.65-292.9,0-404.55c111.65-111.66,292.9-111.66,404.55,0
				c111.66,111.65,111.66,292.9,0,404.55C390.99,648.46,209.74,648.46,98.09,536.8z"/>
		</defs>
		<clipPath id="SVGID_4_">
			<use xlink:href="#SVGID_3_"  overflow="visible"/>
		</clipPath>
		<path clip-path="url(#SVGID_4_)" fill-rule="evenodd" clip-rule="evenodd" fill="#1C1F57" d="M98.09,132.25
			c111.65-111.66,292.9-111.66,404.55,0c111.66,111.65,111.66,292.9,0,404.55c-111.649,111.66-292.899,111.66-404.55,0
			C-13.56,425.15-13.56,243.9,98.09,132.25z"/>
		<path clip-path="url(#SVGID_4_)" fill-rule="evenodd" clip-rule="evenodd" fill="#692EA1" d="M123.74,160.32
			c97.99-97.99,257.04-97.99,355.029,0c97.99,97.99,97.99,257.04,0,355.03c-97.989,97.98-257.04,97.98-355.029,0
			C25.76,417.36,25.76,258.31,123.74,160.32z"/>
		<path clip-path="url(#SVGID_4_)" fill-rule="evenodd" clip-rule="evenodd" fill="#1FC7A1" d="M213.03,281.44v11.33
			c0,2.19,1.78,3.97,3.97,3.97h166.72c2.19,0,3.971-1.78,3.971-3.97v-11.33c0-2.19-1.78-3.97-3.971-3.97H217
			C214.81,277.47,213.03,279.25,213.03,281.44z"/>
		<g clip-path="url(#SVGID_4_)">
			<rect x="291.33" y="421.85" fill-rule="evenodd" clip-rule="evenodd" fill="#BD00BD" width="18.07" height="58.44"/>
			<path fill-rule="evenodd" clip-rule="evenodd" fill="#BD00BD" d="M309.3,477.45h53.96c5.5,0.229,9.19,3.63,10.141,11.859v12.66
				c-1.141,4.33-4.101,4.2-7.91,3.99H232.45c-2.92,0.14-4.72-1.65-5.46-5.28v-11.02c-0.1-6.49,4.9-10.58,12.34-12.05L309.3,477.45z"
				/>
		</g>
		<path clip-path="url(#SVGID_4_)" fill-rule="evenodd" clip-rule="evenodd" fill="#CFD1D1" d="M222.56,261.32
			c-0.92-8.92-16.1-11.37-18.5,0l0.15,71.29c5.66,58.17,46.61,88.97,96.89,90.01c51.03,0.399,90.82-40.45,95.12-87.99v-72.95
			c-1.22-8.7-15.649-11.01-18.2,0v71.13c-3,40.26-34.649,68.47-77.649,71.68c-37.62,0.77-72.75-27.3-77.7-69.86L222.56,261.32z"/>
		<g clip-path="url(#SVGID_4_)">
			<defs>
				<path id="SVGID_5_" d="M80.17,376.41v-85.7c0-8.22,5.55-14.89,12.39-14.89c6.83,0,12.38,6.67,12.38,14.89v85.7
					c0,8.22-5.55,14.89-12.39,14.89C85.72,391.3,80.17,384.63,80.17,376.41z"/>
			</defs>
			<clipPath id="SVGID_6_">
				<use xlink:href="#SVGID_5_"  overflow="visible"/>
			</clipPath>
			<path clip-path="url(#SVGID_6_)" fill-rule="evenodd" clip-rule="evenodd" fill="#03A1A1" d="M80.17,290.71v85.7
				c0,8.22,5.55,14.89,12.38,14.89h0.01c6.83,0,12.38-6.67,12.38-14.89v-85.7c0-8.22-5.55-14.89-12.38-14.89h-0.01
				C85.72,275.82,80.17,282.49,80.17,290.71z"/>
			<path clip-path="url(#SVGID_6_)" fill-rule="evenodd" clip-rule="evenodd" fill="#00FFFF" d="M79.88,266.35v85.69
				c0,8.22,5.55,14.89,12.39,14.89l0,0c6.84,0,12.38-6.67,12.38-14.89v-85.69c0-8.22-5.54-14.89-12.38-14.89l0,0
				C85.43,251.46,79.88,258.13,79.88,266.35z"/>
		</g>
		<g clip-path="url(#SVGID_4_)">
			<defs>
				<path id="SVGID_7_" d="M123.61,418.56v-85.7c0-8.21,5.55-14.89,12.39-14.89s12.39,6.68,12.39,14.89v85.7
					c0,8.22-5.55,14.89-12.39,14.89S123.61,426.78,123.61,418.56z"/>
			</defs>
			<clipPath id="SVGID_8_">
				<use xlink:href="#SVGID_7_"  overflow="visible"/>
			</clipPath>
			<path clip-path="url(#SVGID_8_)" fill-rule="evenodd" clip-rule="evenodd" fill="#9C296E" d="M123.61,332.86v85.7
				c0,8.22,5.55,14.89,12.39,14.89l0,0c6.84,0,12.39-6.67,12.39-14.89v-85.7c0-8.21-5.55-14.89-12.39-14.89l0,0
				C129.16,317.97,123.61,324.65,123.61,332.86z"/>
			<path clip-path="url(#SVGID_8_)" fill-rule="evenodd" clip-rule="evenodd" fill="#F530A6" d="M123.06,308.33v85.7
				c0,8.21,5.74,14.89,12.82,14.89l0,0c7.07,0,12.82-6.68,12.82-14.89v-85.7c0-8.22-5.75-14.89-12.82-14.89l0,0
				C128.8,293.44,123.06,300.11,123.06,308.33z"/>
		</g>
		<g clip-path="url(#SVGID_4_)">
			<defs>
				<path id="SVGID_9_" d="M165.98,376.63v-85.7c0-8.22,5.55-14.89,12.39-14.89c6.83,0,12.38,6.67,12.38,14.89v85.7
					c0,8.21-5.55,14.89-12.38,14.89C171.53,391.52,165.98,384.84,165.98,376.63z"/>
			</defs>
			<clipPath id="SVGID_10_">
				<use xlink:href="#SVGID_9_"  overflow="visible"/>
			</clipPath>
			<path clip-path="url(#SVGID_10_)" fill-rule="evenodd" clip-rule="evenodd" fill="#BF9124" d="M165.98,290.93v85.7
				c0,8.21,5.55,14.89,12.39,14.89l0,0c6.83,0,12.38-6.68,12.38-14.89v-85.7c0-8.22-5.55-14.89-12.38-14.89l0,0
				C171.53,276.04,165.98,282.71,165.98,290.93z"/>
			<path clip-path="url(#SVGID_10_)" fill-rule="evenodd" clip-rule="evenodd" fill="#FCC94F" d="M165.91,265.74v85.7
				c0,8.22,5.55,14.89,12.38,14.89l0,0c6.84,0,12.39-6.67,12.39-14.89v-85.7c0-8.21-5.55-14.89-12.39-14.89l0,0
				C171.46,250.85,165.91,257.53,165.91,265.74z"/>
		</g>
		<g clip-path="url(#SVGID_4_)">
			<g>
				<defs>
					<path id="SVGID_11_" d="M497.03,376.59v-85.7c0-8.22,5.55-14.89,12.38-14.89c6.84,0,12.39,6.67,12.39,14.89v85.7
						c0,8.22-5.55,14.89-12.39,14.89C502.58,391.48,497.03,384.81,497.03,376.59z"/>
				</defs>
				<clipPath id="SVGID_12_">
					<use xlink:href="#SVGID_11_"  overflow="visible"/>
				</clipPath>
				<path clip-path="url(#SVGID_12_)" fill-rule="evenodd" clip-rule="evenodd" fill="#03A1A1" d="M521.8,290.89v85.7
					c0,8.22-5.55,14.89-12.39,14.89l0,0c-6.83,0-12.38-6.67-12.38-14.89v-85.7c0-8.22,5.55-14.89,12.38-14.89l0,0
					C516.25,276,521.8,282.67,521.8,290.89z"/>
				<path clip-path="url(#SVGID_12_)" fill-rule="evenodd" clip-rule="evenodd" fill="#00FFFF" d="M522.08,266.53v85.7
					c0,8.22-5.55,14.89-12.38,14.89l0,0c-6.84,0-12.391-6.67-12.391-14.89v-85.7c0-8.21,5.551-14.88,12.391-14.88l0,0
					C516.53,251.65,522.08,258.32,522.08,266.53z"/>
			</g>
			<g>
				<defs>
					<path id="SVGID_13_" d="M453.58,418.75v-85.7c0-8.22,5.55-14.89,12.38-14.89c6.84,0,12.39,6.67,12.39,14.89v85.7
						c0,8.21-5.55,14.89-12.39,14.89C459.13,433.64,453.58,426.96,453.58,418.75z"/>
				</defs>
				<clipPath id="SVGID_14_">
					<use xlink:href="#SVGID_13_"  overflow="visible"/>
				</clipPath>
				<path clip-path="url(#SVGID_14_)" fill-rule="evenodd" clip-rule="evenodd" fill="#9C296E" d="M478.35,333.05v85.7
					c0,8.21-5.55,14.89-12.39,14.89l0,0c-6.83,0-12.38-6.68-12.38-14.89v-85.7c0-8.22,5.55-14.89,12.38-14.89l0,0
					C472.8,318.16,478.35,324.83,478.35,333.05z"/>
				<path clip-path="url(#SVGID_14_)" fill-rule="evenodd" clip-rule="evenodd" fill="#F530A6" d="M478.9,308.51v85.7
					c0,8.22-5.74,14.89-12.811,14.89l0,0c-7.08,0-12.82-6.67-12.82-14.89v-85.7c0-8.22,5.74-14.89,12.82-14.89l0,0
					C473.16,293.62,478.9,300.29,478.9,308.51z"/>
			</g>
			<g>
				<defs>
					<path id="SVGID_15_" d="M411.21,376.81v-85.7c0-8.22,5.55-14.89,12.38-14.89c6.84,0,12.391,6.67,12.391,14.89v85.7
						c0,8.21-5.551,14.89-12.391,14.89C416.76,391.7,411.21,385.02,411.21,376.81z"/>
				</defs>
				<clipPath id="SVGID_16_">
					<use xlink:href="#SVGID_15_"  overflow="visible"/>
				</clipPath>
				<path clip-path="url(#SVGID_16_)" fill-rule="evenodd" clip-rule="evenodd" fill="#BF9124" d="M435.98,291.11v85.7
					c0,8.21-5.551,14.89-12.381,14.89h-0.01c-6.83,0-12.38-6.68-12.38-14.89v-85.7c0-8.22,5.55-14.89,12.38-14.89h0.01
					C430.43,276.22,435.98,282.89,435.98,291.11z"/>
				<path clip-path="url(#SVGID_16_)" fill-rule="evenodd" clip-rule="evenodd" fill="#FCC94F" d="M436.06,265.93v85.7
					c0,8.22-5.55,14.89-12.39,14.89l0,0c-6.84,0-12.39-6.67-12.39-14.89v-85.7c0-8.22,5.55-14.89,12.39-14.89l0,0
					C430.51,251.04,436.06,257.71,436.06,265.93z"/>
			</g>
		</g>
		<g clip-path="url(#SVGID_4_)">
			<defs>
				<path id="SVGID_17_" d="M237.6,327.85v-102.4c0-35.56,28.12-64.42,62.76-64.42c34.649,0,62.77,28.86,62.77,64.42v102.4
					c0,35.56-28.12,64.42-62.77,64.42C265.72,392.27,237.6,363.41,237.6,327.85z"/>
			</defs>
			<clipPath id="SVGID_18_">
				<use xlink:href="#SVGID_17_"  overflow="visible"/>
			</clipPath>
			<path clip-path="url(#SVGID_18_)" fill-rule="evenodd" clip-rule="evenodd" fill="#FFFFFF" d="M237.6,225.45v102.4
				c0,35.56,28.12,64.42,62.76,64.42l0,0c34.649,0,62.77-28.86,62.77-64.42v-102.4c0-35.56-28.12-64.42-62.77-64.42l0,0
				C265.72,161.03,237.6,189.89,237.6,225.45z"/>
			
				<rect x="236.89" y="288.49" clip-path="url(#SVGID_18_)" fill-rule="evenodd" clip-rule="evenodd" fill="#CFD1D1" width="126.94" height="107.46"/>
			
				<rect x="237.6" y="288.49" clip-path="url(#SVGID_18_)" fill-rule="evenodd" clip-rule="evenodd" fill="#B0B0B0" width="125.53" height="15.14"/>
			<g clip-path="url(#SVGID_18_)">
				<defs>
					<path id="SVGID_19_" d="M227.6,262.01v-0.41c0-4.41,3.58-7.98,7.99-7.98h48.45c4.4,0,7.98,3.57,7.98,7.98v0.41
						c0,4.4-3.58,7.98-7.98,7.98h-48.45C231.18,269.99,227.6,266.41,227.6,262.01z"/>
				</defs>
				<clipPath id="SVGID_20_">
					<use xlink:href="#SVGID_19_"  overflow="visible"/>
				</clipPath>
				<path clip-path="url(#SVGID_20_)" fill-rule="evenodd" clip-rule="evenodd" fill="#CFD1D1" d="M227.6,261.6v0.41
					c0,4.4,3.58,7.98,7.99,7.98h48.45c4.4,0,7.98-3.58,7.98-7.98v-0.41c0-4.41-3.58-7.98-7.98-7.98h-48.45
					C231.18,253.62,227.6,257.19,227.6,261.6z"/>
				
					<rect x="227.55" y="251.56" clip-path="url(#SVGID_20_)" fill-rule="evenodd" clip-rule="evenodd" fill="#B0B0B0" width="65.39" height="8.53"/>
			</g>
			<g clip-path="url(#SVGID_18_)">
				<defs>
					<path id="SVGID_21_" d="M227.6,231.52v-0.41c0-4.41,3.58-7.98,7.99-7.98h48.45c4.4,0,7.98,3.57,7.98,7.98v0.41
						c0,4.4-3.58,7.98-7.98,7.98h-48.45C231.18,239.5,227.6,235.92,227.6,231.52z"/>
				</defs>
				<clipPath id="SVGID_22_">
					<use xlink:href="#SVGID_21_"  overflow="visible"/>
				</clipPath>
				<path clip-path="url(#SVGID_22_)" fill-rule="evenodd" clip-rule="evenodd" fill="#CFD1D1" d="M227.6,231.11v0.41
					c0,4.4,3.58,7.98,7.99,7.98h48.45c4.4,0,7.98-3.58,7.98-7.98v-0.41c0-4.41-3.58-7.98-7.98-7.98h-48.45
					C231.18,223.13,227.6,226.7,227.6,231.11z"/>
				
					<rect x="227.55" y="220.8" clip-path="url(#SVGID_22_)" fill-rule="evenodd" clip-rule="evenodd" fill="#B0B0B0" width="65.39" height="8.53"/>
			</g>
			<g clip-path="url(#SVGID_18_)">
				<defs>
					<path id="SVGID_23_" d="M227.57,202.11v-0.41c0-4.4,3.58-7.98,7.98-7.98H284c4.4,0,7.98,3.58,7.98,7.98v0.41
						c0,4.41-3.58,7.99-7.98,7.99h-48.45C231.15,210.1,227.57,206.52,227.57,202.11z"/>
				</defs>
				<clipPath id="SVGID_24_">
					<use xlink:href="#SVGID_23_"  overflow="visible"/>
				</clipPath>
				<path clip-path="url(#SVGID_24_)" fill-rule="evenodd" clip-rule="evenodd" fill="#CFD1D1" d="M227.57,201.7v0.41
					c0,4.41,3.58,7.99,7.98,7.99H284c4.4,0,7.98-3.58,7.98-7.99v-0.41c0-4.4-3.58-7.98-7.98-7.98h-48.45
					C231.15,193.72,227.57,197.3,227.57,201.7z"/>
				
					<rect x="227.51" y="191.09" clip-path="url(#SVGID_24_)" fill-rule="evenodd" clip-rule="evenodd" fill="#B0B0B0" width="65.39" height="8.53"/>
			</g>
			<g clip-path="url(#SVGID_18_)">
				<defs>
					<path id="SVGID_25_" d="M308.85,262.01v-0.41c0-4.41,3.58-7.98,7.99-7.98h48.45c4.4,0,7.979,3.57,7.979,7.98v0.41
						c0,4.4-3.579,7.98-7.979,7.98h-48.45C312.43,269.99,308.85,266.41,308.85,262.01z"/>
				</defs>
				<clipPath id="SVGID_26_">
					<use xlink:href="#SVGID_25_"  overflow="visible"/>
				</clipPath>
				<path clip-path="url(#SVGID_26_)" fill-rule="evenodd" clip-rule="evenodd" fill="#CFD1D1" d="M373.27,261.6v0.41
					c0,4.4-3.579,7.98-7.979,7.98h-48.45c-4.41,0-7.99-3.58-7.99-7.98v-0.41c0-4.41,3.58-7.98,7.99-7.98h48.45
					C369.69,253.62,373.27,257.19,373.27,261.6z"/>
				
					<rect x="307.94" y="251.56" clip-path="url(#SVGID_26_)" fill-rule="evenodd" clip-rule="evenodd" fill="#B0B0B0" width="65.38" height="8.53"/>
			</g>
			<g clip-path="url(#SVGID_18_)">
				<defs>
					<path id="SVGID_27_" d="M308.85,231.52v-0.41c0-4.41,3.58-7.98,7.99-7.98h48.45c4.4,0,7.979,3.57,7.979,7.98v0.41
						c0,4.4-3.579,7.98-7.979,7.98h-48.45C312.43,239.5,308.85,235.92,308.85,231.52z"/>
				</defs>
				<clipPath id="SVGID_28_">
					<use xlink:href="#SVGID_27_"  overflow="visible"/>
				</clipPath>
				<path clip-path="url(#SVGID_28_)" fill-rule="evenodd" clip-rule="evenodd" fill="#CFD1D1" d="M373.27,231.11v0.41
					c0,4.4-3.579,7.98-7.979,7.98h-48.45c-4.41,0-7.99-3.58-7.99-7.98v-0.41c0-4.41,3.58-7.98,7.99-7.98h48.45
					C369.69,223.13,373.27,226.7,373.27,231.11z"/>
				
					<rect x="307.94" y="220.8" clip-path="url(#SVGID_28_)" fill-rule="evenodd" clip-rule="evenodd" fill="#B0B0B0" width="65.38" height="8.53"/>
			</g>
			<g clip-path="url(#SVGID_18_)">
				<defs>
					<path id="SVGID_29_" d="M308.89,202.11v-0.41c0-4.4,3.58-7.98,7.98-7.98h48.45c4.41,0,7.979,3.58,7.979,7.98v0.41
						c0,4.41-3.569,7.99-7.979,7.99h-48.45C312.47,210.1,308.89,206.52,308.89,202.11z"/>
				</defs>
				<clipPath id="SVGID_30_">
					<use xlink:href="#SVGID_29_"  overflow="visible"/>
				</clipPath>
				<path clip-path="url(#SVGID_30_)" fill-rule="evenodd" clip-rule="evenodd" fill="#CFD1D1" d="M373.3,201.7v0.41
					c0,4.41-3.569,7.99-7.979,7.99h-48.45c-4.4,0-7.98-3.58-7.98-7.99v-0.41c0-4.4,3.58-7.98,7.98-7.98h48.45
					C369.73,193.72,373.3,197.3,373.3,201.7z"/>
				
					<rect x="307.98" y="191.09" clip-path="url(#SVGID_30_)" fill-rule="evenodd" clip-rule="evenodd" fill="#B0B0B0" width="65.38" height="8.53"/>
			</g>
		</g>
	</g>
	
		<path clip-path="url(#SVGID_2_)" fill-rule="evenodd" clip-rule="evenodd" fill="none" stroke="#FFFFFF" stroke-width="9.03" stroke-linecap="round" stroke-miterlimit="10" d="
		M124.89,161.83c98.03-98.04,257.16-98.04,355.19,0c98.04,98.03,98.04,257.15,0,355.189c-98.03,98.03-257.16,98.03-355.19,0
		C26.86,418.98,26.86,259.86,124.89,161.83z"/>
</g>
</svg>
