<?xml version="1.0" encoding="utf-8"?>
<!-- Generator: Adobe Illustrator 16.0.0, SVG Export Plug-In . SVG Version: 6.00 Build 0)  -->
<!DOCTYPE svg PUBLIC "-//W3C//DTD SVG 1.1//EN" "http://www.w3.org/Graphics/SVG/1.1/DTD/svg11.dtd">
<svg version="1.1" id="Layer_1" xmlns="http://www.w3.org/2000/svg" xmlns:xlink="http://www.w3.org/1999/xlink" x="0px" y="0px"
	 width="612px" height="792px" viewBox="0 0 612 792" enable-background="new 0 0 612 792" xml:space="preserve">
<g>
	<path fill-rule="evenodd" clip-rule="evenodd" fill="#FFFFFF" d="M196.111,297.542c60.655-60.555,159.122-60.555,219.778,0
		c60.656,60.553,60.656,158.855,0,219.408c-60.656,60.555-159.124,60.555-219.778,0
		C135.454,456.396,135.454,358.094,196.111,297.542L196.111,297.542z"/>
	
		<path fill-rule="evenodd" clip-rule="evenodd" fill="#010101" stroke="#010101" stroke-width="0.3037" stroke-linejoin="bevel" stroke-miterlimit="10" d="
		M420.947,413.014c-7.949,5.843-15.897,11.686-23.846,17.528c-1.672-2.925-3.765-5.013-7.113-6.681
		c-4.178-2.088-7.941-2.088-11.704-1.672c5.849-9.598,10.45-20.445,13.798-31.715c0.838-2.926-2.094-6.266-5.017-5.015
		c-18.406,7.518-30.534,21.706-40.575,37.989c4.186-18.373,9.202-35.9,15.897-53.429c19.659-2.501,39.315-5.428,58.974-8.767
		c5.441-1.251,2.935-9.184-2.085-8.346c-17.991,3.34-35.558,6.257-53.543,8.346c1.67-4.59-5.439-7.095-7.534-3.341
		c-0.83,1.675-1.668,2.925-2.507,4.177c-17.151,2.088-34.722,3.341-51.866,3.754c-5.439,0.423-5.439,8.768,0,8.345
		c15.476-0.413,31.372-1.665,46.85-2.916c-10.458,17.528-20.501,35.061-30.958,52.588c2.094-13.773,3.764-27.545,5.856-41.741
		c0.422-4.168-5.435-7.932-7.525-3.333c-7.95,14.604-15.482,29.215-23.011,43.824c1.254-12.938,3.349-26.295,6.28-39.24
		c0.83-4.584-5.44-7.922-7.534-3.331c-9.202,20.865-19.658,40.899-31.372,60.52c0-9.604,0.839-19.201,2.507-28.383
		c1.255-1.252,2.511-2.504,3.349-4.176c10.044-10.852,25.933-29.636,10.881-43.41c-1.677-1.666-5.022-1.666-6.28,0.838
		c-7.525,13.773-12.965,28.382-15.889,43.405c-1.677,1.668-3.347,3.342-4.61,4.178c-7.11,7.926-15.051,15.439-23.424,22.534
		c8.788-17.948,17.992-35.893,26.772-53.842c2.092-4.176-1.671-7.518-5.851-5.843c-12.134,5.843-23.845,12.938-34.717,21.287
		c1.254-7.93,2.509-15.858,4.177-23.789c0.84-5.015-7.108-7.518-8.365-2.089c-2.091,11.27-3.764,22.54-5.439,33.803
		c-7.112,6.688-13.797,13.357-19.66,20.875c-3.343,4.176,2.515,10.012,5.863,5.842c3.762-4.591,7.525-8.766,11.711-13.359
		c-2.514,20.454-5.026,40.492-6.694,60.523c-0.424,5.428,7.947,5.428,8.364,0c2.092-23.371,4.601-46.332,7.95-69.283
		c9.202-7.93,19.237-15.03,29.695-20.873c-10.034,20.035-19.662,40.069-29.695,59.691c-1.678,3.34,2.094,8.76,5.856,5.836
		c12.55-9.598,24.679-20.033,35.975-31.301c-1.255,10.018-1.255,20.451-0.424,30.883c0.424,4.178,5.44,5.844,7.949,2.09
		c9.201-14.188,17.568-29.217,25.518-44.236c-1.678,10.426-2.511,20.861-3.348,31.299c0,4.171,5.856,5.842,7.948,2.083
		c7.109-13.769,14.638-27.546,21.754-41.32c-1.676,13.36-3.77,26.302-5.441,39.653c-0.836,4.178,5.021,7.516,7.527,2.924
		c9.204-15.86,18.405-31.306,27.611-47.168c-4.603,15.862-7.947,32.143-10.461,48.422c-0.836,4.176,5.021,7.93,7.535,3.338
		c9.62-19.617,20.91-41.32,39.731-53.426c-5.434,15.023-13.8,28.796-24.256,40.481c-3.762,4.178,2.084,10.021,5.856,5.843
		c0.414-0.414,0.838-0.83,1.253-1.25c5.855-7.095,20.078-20.031,25.935-7.095c-8.788,6.265-17.153,12.944-25.935,19.616
		c-7.532,6.264-23.007,17.113-20.5,28.799c0.423,1.674,2.509,3.34,4.186,2.926c10.043-0.416,20.077-6.258,28.027-12.102
		c7.948-6.266,17.153-13.781,21.329-23.377c1.678-3.754,2.512-7.932,2.512-12.102c8.786-6.264,17.566-12.525,25.933-18.787
		C429.735,417.186,425.548,410.088,420.947,413.014 M276.634,376.277c1.26,5.843-2.508,12.943-7.528,19.203
		C271.199,388.801,273.708,382.543,276.634,376.277 M382.879,457.252c-7.525,7.932-19.238,17.951-30.949,20.867
		c1.67-2.916,4.602-5.42,6.27-6.67c5.441-5.854,12.137-10.857,18.409-15.863c4.601-3.34,8.788-6.682,13.38-10.018
		C388.32,450.158,385.396,453.91,382.879,457.252"/>
</g>
</svg>
