<?xml version="1.0" encoding="utf-8"?>
<!-- Generator: Adobe Illustrator 16.0.0, SVG Export Plug-In . SVG Version: 6.00 Build 0)  -->
<!DOCTYPE svg PUBLIC "-//W3C//DTD SVG 1.1//EN" "http://www.w3.org/Graphics/SVG/1.1/DTD/svg11.dtd">
<svg version="1.1" id="Layer_1" xmlns="http://www.w3.org/2000/svg" xmlns:xlink="http://www.w3.org/1999/xlink" x="0px" y="0px"
	 width="1834.13px" height="1153.98px" viewBox="0 0 1834.13 1153.98" enable-background="new 0 0 1834.13 1153.98"
	 xml:space="preserve">
<rect y="-0.002" display="none" fill="#E5E5E5" width="1834.128" height="1153.982"/>
<g>
	<defs>
		<rect id="SVGID_1_" x="-187.579" y="-118.02" width="2021.708" height="1272"/>
	</defs>
	<clipPath id="SVGID_2_">
		<use xlink:href="#SVGID_1_"  overflow="visible"/>
	</clipPath>
	<path clip-path="url(#SVGID_2_)" fill="#1E1F57" d="M1165.517,495.198l40.632-29.853l-36.02,119.411c0,0-2.671,10.678,3.64,16.987
		c6.31,6.311,17.718,4.854,17.718,4.854l75.236-0.97l-39.317,39.316c0,0-4.611,4.61-13.106,4.61h-85.915
		c0,0-9.225-1.454-13.105-8.979c-3.886-7.524-0.728-16.989-0.728-16.989l-0.972-31.31l41.743-36.647c0,0,11.057-7.741,15.048-27.91
		C1174.981,504.421,1170.129,500.295,1165.517,495.198"/>
	<path clip-path="url(#SVGID_2_)" fill="#20C7A3" d="M1157.265,573.104c-67.409,55.701-103.756-9.101-118.579-15.533h10.395
		c7.885,0,14.834-5.178,17.086-12.734l19.163-64.271c2.264-7.591-3.423-15.221-11.346-15.221H967.957l-42.229,141.617h45.577
		l13.328-44.691c36.841,26.488,53.95,59.253,99.042,61.436C1140.451,626.458,1157.265,573.104,1157.265,573.104"/>
	<path clip-path="url(#SVGID_2_)" fill="#20C7A3" d="M1094.357,506.88l-3.012,10.042c-6.695,22.316,10.016,44.775,33.313,44.775
		h10.079c15.359,0,28.902-10.076,33.314-24.786l3.013-10.043c6.694-22.315-10.017-44.775-33.315-44.775h-10.077
		C1112.312,482.093,1098.771,492.168,1094.357,506.88"/>
	<path clip-path="url(#SVGID_2_)" fill="#20C7A3" d="M1411.164,585.739l32.387-108.604c2.086-6.995,8.518-11.789,15.816-11.789
		h94.755c11.046,0,18.974,10.638,15.818,21.223l-32.387,108.604c-2.084,6.994-8.518,11.789-15.816,11.789h-94.755
		C1415.937,606.962,1408.009,596.325,1411.164,585.739"/>
	<path clip-path="url(#SVGID_2_)" fill="#20C7A3" d="M1269.635,465.346h44.741l-38.716,129.828
		c-2.086,6.994-8.519,11.788-15.818,11.788h-73.776c-11.046,0-18.974-10.637-15.818-21.223l35.901-120.393h45.043l-25.869,64.02
		l13.854-5.408l-20.022,56.065l50.481-78.271l-18.08,4.732L1269.635,465.346z"/>
	<path clip-path="url(#SVGID_2_)" fill="#20C7A3" d="M1401.479,539.776l-16.519,55.397c-2.086,6.994-8.519,11.788-15.818,11.788
		h-54.664c-11.044,0-18.973-10.637-15.815-21.223l32.386-108.604c2.085-6.994,8.518-11.789,15.816-11.789h54.663
		c11.045,0,18.976,10.638,15.818,21.223l-6.255,20.978l-43.571,19.819l10.261-34.008c1.365-4.522-2.021-9.082-6.746-9.082
		c-3.106,0-5.849,2.037-6.745,5.012l-28.148,93.304c-1.366,4.522,2.021,9.08,6.745,9.08c3.107,0,5.848-2.036,6.745-5.012
		l8.607-28.53L1401.479,539.776z"/>
	<polygon clip-path="url(#SVGID_2_)" fill="#F432A6" points="1429.664,606.633 1517.131,541.252 1489.098,539.065 1570.64,480.956 
		1569.941,486.569 1548.246,559.316 1485.317,606.962 	"/>
	<path clip-path="url(#SVGID_2_)" fill="#FECB50" d="M1548.246,559.317l-62.929,47.645l37.729-0.109c0,0,6.644,0.109,11.013-4.987
		s5.278-12.105,5.278-12.105L1548.246,559.317z"/>
	<polygon clip-path="url(#SVGID_2_)" fill="#1E1F57" points="966.771,466.438 921.672,507.946 880.284,648.788 925.97,605.869 	"/>
	<polygon clip-path="url(#SVGID_2_)" fill="#1E1F57" points="970.263,607.922 925.021,649.562 880.284,648.787 925.729,606.962 	"/>
	<path clip-path="url(#SVGID_2_)" fill="#1E1F57" d="M957.806,619.386c0,0,23.81,26.631,42.1,36.591
		c18.291,9.961,59.441,19.081,86.739-4.846c0,0,45.289-43.04,45.394-42.331c0.106,0.709-15.185,18.549-53.045,14.545
		c-37.86-4.006-64.581-39.871-94.361-61.074l-13.327,44.691L957.806,619.386z"/>
	<path clip-path="url(#SVGID_2_)" fill="#1E1F57" d="M1098.651,497.018l-25.483,23.664l-6.916,25.302
		c0,0-4.368,14.016-25.667,11.831l13.471,12.196c0,0,29.125,30.581,58.613,24.029l43.504-40.229c0,0-7.828,8.373-23.663,7.646
		c-15.837-0.729-27.223-1.078-38.408-18.568C1084.089,527.234,1095.558,507.212,1098.651,497.018"/>
	<path clip-path="url(#SVGID_2_)" fill="#1E1F57" d="M1269.149,466.317l-25.97,18.93l-16.988,43.686l12.135-4.853l-17.96,52.665
		l48.541-74.024l-16.503,2.912C1252.404,505.633,1269.394,465.588,1269.149,466.317"/>
	<path clip-path="url(#SVGID_2_)" fill="#1E1F57" d="M1332.494,472.141l-27.426,23.057l-29.124,98.538
		c0,0-0.484,10.192-12.375,12.863l-22.815,24.512c0,0-0.729,8.253,2.912,12.135c3.642,3.884,7.523,5.824,14.562,6.311
		c7.039,0.484,63.103,0.242,66.987,0.242c3.882,0,7.765-0.729,11.892-5.097c4.126-4.368,39.803-39.075,39.803-39.075
		s-2.67,0.973-7.767,1.336s-46.71,0.121-54.664,0c-7.953-0.121-11.836-3.762-14.02-8.615c-2.186-4.855-3.397-7.525-0.971-15.777
		C1301.915,574.32,1332.494,472.141,1332.494,472.141"/>
	<path clip-path="url(#SVGID_2_)" fill="#1E1F57" d="M1410.159,508.062l-41.501,45.142l-10.419,4.927l-8.606,28.531
		c0,0-0.877,6.346-7.672,5.375c-6.797-0.971-5.819-9.446-5.819-9.446l28.632-95.159c0,0,3.398-5.096,7.524-3.397
		c4.127,1.699,6.841,2.63,5.483,9.324c-1.356,6.694-10.261,34.008-10.261,34.008L1410.159,508.062z"/>
	<path clip-path="url(#SVGID_2_)" fill="#1E1F57" d="M1445.229,472.263l-31.125,25.301l-3.015,9.982l-42.433,45.657l32.157-13.228
		l-16.927,57.521c0,0-3.278,5.096-6.189,6.552l-24.209,24.211c0,0-2.003,8.919,2.911,14.197c4.916,5.278,8.374,6.552,14.927,6.916
		s102.117,0.364,105.21,0.364c3.096,0,7.464,0,11.47-3.639c4.004-3.642,42.956-42.232,42.956-42.232s-3.457,3.278-9.646,3.46
		c-6.188,0.182-90.467-0.546-95.928-0.546s-9.829-2.185-12.56-8.01c-2.731-5.824-2.548-11.831-0.364-18.386
		c2.186-6.551,30.945-104.481,30.945-104.481L1445.229,472.263z"/>
</g>
<g>
	<defs>
		<rect id="SVGID_3_" x="-187.579" y="-118.02" width="2021.708" height="1272"/>
	</defs>
	<clipPath id="SVGID_4_">
		<use xlink:href="#SVGID_3_"  overflow="visible"/>
	</clipPath>
	
		<path clip-path="url(#SVGID_4_)" fill="none" stroke="#1E1F57" stroke-width="3" stroke-linecap="round" stroke-linejoin="round" stroke-miterlimit="10" d="
		M1530.555,604.408l-43.679,42.456c-2.625,1.719-5.746,2.699-9.046,2.699h-107.803c-10.084,0-17.571-8.869-16.396-18.469
		l0.101-2.539"/>
	
		<line clip-path="url(#SVGID_4_)" fill="none" stroke="#1E1F57" stroke-width="3" stroke-linecap="round" stroke-linejoin="round" stroke-miterlimit="10" x1="1446.864" y1="471.082" x2="1413.783" y2="498.517"/>
	
		<line clip-path="url(#SVGID_4_)" fill="none" stroke="#1E1F57" stroke-width="3" stroke-linecap="round" stroke-linejoin="round" stroke-miterlimit="10" x1="925.728" y1="606.961" x2="879.442" y2="649.562"/>
	
		<polyline clip-path="url(#SVGID_4_)" fill="none" stroke="#1E1F57" stroke-width="3" stroke-linecap="round" stroke-linejoin="round" stroke-miterlimit="10" points="
		967.957,465.346 921.673,507.945 879.442,649.562 925.022,649.562 971.305,606.961 	"/>
	
		<line clip-path="url(#SVGID_4_)" fill="none" stroke="#1E1F57" stroke-width="3" stroke-linecap="round" stroke-linejoin="round" stroke-miterlimit="10" x1="1099.818" y1="496.046" x2="1073.487" y2="520.281"/>
	
		<line clip-path="url(#SVGID_4_)" fill="none" stroke="#1E1F57" stroke-width="3" stroke-linecap="round" stroke-linejoin="round" stroke-miterlimit="10" x1="1155.306" y1="554.93" x2="1111.585" y2="595.17"/>
	
		<path clip-path="url(#SVGID_4_)" fill="none" stroke="#1E1F57" stroke-width="3" stroke-linecap="round" stroke-linejoin="round" stroke-miterlimit="10" d="
		M957.115,620.022c25.383,22.439,43.548,44.507,80.275,46.286c22.447,1.088,38.649-6.595,50.033-16.282l-0.002-0.002l44.616-41.224"
		/>
	
		<path clip-path="url(#SVGID_4_)" fill="none" stroke="#1E1F57" stroke-width="3" stroke-linecap="round" stroke-linejoin="round" stroke-miterlimit="10" d="
		M1114.635,624.881l-1.031,3.458c-3.156,10.584,4.773,21.224,15.817,21.224h86.341c3.82,0,7.404-1.314,10.25-3.569l42.648-41.585"/>
	
		<path clip-path="url(#SVGID_4_)" fill="none" stroke="#1E1F57" stroke-width="3" stroke-linecap="round" stroke-linejoin="round" stroke-miterlimit="10" d="
		M1378.152,604.408l-42.647,41.587c-2.846,2.254-6.429,3.568-10.249,3.568h-68.104c-9.859,0-17.232-8.475-16.462-17.821"/>
	
		<line clip-path="url(#SVGID_4_)" fill="none" stroke="#1E1F57" stroke-width="3" stroke-linecap="round" stroke-linejoin="round" stroke-miterlimit="10" x1="1206.148" y1="465.346" x2="1166.041" y2="495.51"/>
	
		<line clip-path="url(#SVGID_4_)" fill="none" stroke="#1E1F57" stroke-width="3" stroke-linecap="round" stroke-linejoin="round" stroke-miterlimit="10" x1="1269.666" y1="465.346" x2="1243.123" y2="485.308"/>
	
		<line clip-path="url(#SVGID_4_)" fill="none" stroke="#1E1F57" stroke-width="3" stroke-linecap="round" stroke-linejoin="round" stroke-miterlimit="10" x1="1334.368" y1="471.082" x2="1305.613" y2="494.726"/>
	
		<line clip-path="url(#SVGID_4_)" fill="none" stroke="#1E1F57" stroke-width="3" stroke-linecap="round" stroke-linejoin="round" stroke-miterlimit="10" x1="1410.465" y1="507.831" x2="1366.765" y2="554.51"/>
	
		<polyline clip-path="url(#SVGID_4_)" fill="none" stroke="#1E1F57" stroke-width="5" stroke-linecap="round" stroke-linejoin="round" stroke-miterlimit="10" points="
		947.813,428.698 963.831,381.857 1012.999,381.857 1029.017,428.698 	"/>
	
		<polyline clip-path="url(#SVGID_4_)" fill="none" stroke="#1E1F57" stroke-width="5" stroke-linecap="round" stroke-linejoin="round" stroke-miterlimit="10" points="
		1061.296,381.857 1077.314,428.698 1089.308,428.698 1105.326,381.857 	"/>
	
		<path clip-path="url(#SVGID_4_)" fill="none" stroke="#1E1F57" stroke-width="5" stroke-linecap="round" stroke-linejoin="round" stroke-miterlimit="10" d="
		M1308.745,428.698l16.019-46.841h53.103c12.148,0,20.691,11.95,16.76,23.443l-3.904,11.417
		c-2.451,7.167-9.187,11.981-16.759,11.981H1308.745z"/>
	
		<path clip-path="url(#SVGID_4_)" fill="none" stroke="#1E1F57" stroke-width="5" stroke-linecap="round" stroke-linejoin="round" stroke-miterlimit="10" d="
		M1116.803,402.315l2.385-6.976c2.758-8.064,10.338-13.483,18.861-13.483h58.37c13.672,0,23.285,13.448,18.86,26.383l-2.386,6.976
		c-2.758,8.064-10.336,13.483-18.86,13.483h-58.371C1121.993,428.698,1112.379,415.25,1116.803,402.315z"/>
	
		<path clip-path="url(#SVGID_4_)" fill="none" stroke="#1E1F57" stroke-width="5" stroke-linecap="round" stroke-linejoin="round" stroke-miterlimit="10" d="
		M1414.233,402.315l2.387-6.976c2.757-8.064,10.337-13.483,18.86-13.483h30.378c13.67,0,23.283,13.448,18.86,26.383l-2.386,6.976
		c-2.758,8.064-10.338,13.483-18.86,13.483h-30.378C1419.424,428.698,1409.811,415.25,1414.233,402.315z"/>
	
		<line clip-path="url(#SVGID_4_)" fill="none" stroke="#1E1F57" stroke-width="5" stroke-linecap="round" stroke-linejoin="round" stroke-miterlimit="10" x1="958.978" y1="400.545" x2="1017.469" y2="400.545"/>
	
		<polyline clip-path="url(#SVGID_4_)" fill="none" stroke="#1E1F57" stroke-width="5" stroke-linecap="round" stroke-linejoin="round" stroke-miterlimit="10" points="
		1269.635,428.698 1229.589,428.698 1269.635,381.857 1229.589,381.857 	"/>
	
		<path clip-path="url(#SVGID_4_)" fill="none" stroke="#1E1F57" stroke-width="3" stroke-linecap="round" stroke-miterlimit="10" d="
		M1157.265,573.104c-67.409,55.701-103.756-9.101-118.579-15.533h10.395c7.885,0,14.834-5.178,17.086-12.734l19.163-64.271
		c2.264-7.591-3.423-15.221-11.346-15.221H967.957l-42.229,141.617h45.577l13.328-44.691c36.841,26.488,53.95,59.253,99.042,61.436
		C1140.451,626.458,1157.265,573.104,1157.265,573.104z"/>
	
		<path clip-path="url(#SVGID_4_)" fill="none" stroke="#1E1F57" stroke-width="3" stroke-linecap="round" stroke-linejoin="round" stroke-miterlimit="10" d="
		M1094.357,506.88l-3.012,10.042c-6.695,22.316,10.016,44.775,33.313,44.775h10.079c15.359,0,28.902-10.076,33.314-24.786
		l3.013-10.043c6.694-22.315-10.017-44.775-33.315-44.775h-10.077C1112.312,482.093,1098.771,492.168,1094.357,506.88z"/>
	
		<path clip-path="url(#SVGID_4_)" fill="none" stroke="#1E1F57" stroke-width="3" stroke-linecap="round" stroke-linejoin="round" stroke-miterlimit="10" d="
		M1411.164,585.739l32.387-108.604c2.086-6.995,8.518-11.789,15.816-11.789h94.755c11.046,0,18.974,10.638,15.818,21.223
		l-32.387,108.604c-2.084,6.994-8.518,11.789-15.816,11.789h-94.755C1415.937,606.962,1408.009,596.325,1411.164,585.739z"/>
	
		<path clip-path="url(#SVGID_4_)" fill="none" stroke="#1E1F57" stroke-width="3" stroke-linecap="round" stroke-miterlimit="10" d="
		M1269.635,465.346h44.741l-38.716,129.828c-2.086,6.994-8.519,11.788-15.818,11.788h-73.776c-11.046,0-18.974-10.637-15.818-21.223
		l35.901-120.393h45.043l-25.869,64.02l13.854-5.408l-20.022,56.065l50.481-78.271l-18.08,4.732L1269.635,465.346z"/>
	
		<path clip-path="url(#SVGID_4_)" fill="none" stroke="#1E1F57" stroke-width="3" stroke-linecap="round" stroke-linejoin="round" stroke-miterlimit="10" d="
		M1401.479,539.776l-16.519,55.397c-2.086,6.994-8.519,11.788-15.818,11.788h-54.664c-11.044,0-18.973-10.637-15.815-21.223
		l32.386-108.604c2.085-6.994,8.518-11.789,15.816-11.789h54.663c11.045,0,18.976,10.638,15.818,21.223l-6.255,20.978
		l-43.571,19.819l10.261-34.008c1.365-4.522-2.021-9.082-6.746-9.082c-3.106,0-5.849,2.037-6.745,5.012l-28.148,93.304
		c-1.366,4.522,2.021,9.08,6.745,9.08c3.107,0,5.848-2.036,6.745-5.012l8.607-28.53L1401.479,539.776z"/>
	
		<line clip-path="url(#SVGID_4_)" fill="none" stroke="#1E1F57" stroke-width="3" stroke-linecap="round" stroke-linejoin="round" stroke-miterlimit="10" x1="1007.274" y1="499.203" x2="1029.018" y2="523.23"/>
	
		<line clip-path="url(#SVGID_4_)" fill="none" stroke="#1E1F57" stroke-width="3" stroke-linecap="round" stroke-linejoin="round" stroke-miterlimit="10" x1="1029.017" y1="499.203" x2="1007.274" y2="523.23"/>
	<polyline clip-path="url(#SVGID_4_)" fill="none" stroke="#1E1F57" stroke-linecap="round" stroke-miterlimit="10" points="
		1429.371,606.852 1516.856,541.333 1488.935,538.938 1570.39,480.957 	"/>
	
		<line clip-path="url(#SVGID_4_)" fill="none" stroke="#1E1F57" stroke-linecap="round" stroke-miterlimit="10" x1="1485.317" y1="606.633" x2="1547.916" y2="559.87"/>
</g>
</svg>
