<?xml version="1.0" encoding="utf-8"?>
<!-- Generator: Adobe Illustrator 16.0.0, SVG Export Plug-In . SVG Version: 6.00 Build 0)  -->
<!DOCTYPE svg PUBLIC "-//W3C//DTD SVG 1.1//EN" "http://www.w3.org/Graphics/SVG/1.1/DTD/svg11.dtd">
<svg version="1.1" id="Layer_1" xmlns="http://www.w3.org/2000/svg" xmlns:xlink="http://www.w3.org/1999/xlink" x="0px" y="0px"
	 width="1834.13px" height="1153.98px" viewBox="0 0 1834.13 1153.98" enable-background="new 0 0 1834.13 1153.98"
	 xml:space="preserve">
<rect y="-0.002" display="none" fill="#E5E5E5" width="1834.128" height="1153.982"/>
<g display="none">
	<defs>
		<rect id="SVGID_1_" y="-0.001" width="1834.129" height="1153.981"/>
	</defs>
	<clipPath id="SVGID_2_" display="inline">
		<use xlink:href="#SVGID_1_"  overflow="visible"/>
	</clipPath>
	<path display="inline" clip-path="url(#SVGID_2_)" fill="#20C7A3" d="M305.205,397.79
		c-69.357,77.284-32.697,141.357-32.697,141.357c-13.541-80.586,49.211-99.742,49.211-99.742
		c-46.679,78.385-29.945,164.476,35.229,203.449c-51.963-51.304-37.726-123.163,6.385-191.78
		c11.89-18.495,16.074-25.541,14.092-33.688c-2.16-8.881-10.997-12.848-46.899-17.174c-36.55-4.403-42.936-5.064-46.459-11.339
		c-7.121-12.685,17.732-68.175,112.294-88.844c116.708-25.51,217.92,33.131,283.127,70.104l5.546,3.139
		c0.438,0.247,0.874,0.494,1.308,0.738c153.568,86.562,215.339,54.385,225.908,25.101l65.262-207.576
		c-7.191,22.916-44.06,26.449-178.46-35.969l-6.528-3.048c-0.165-0.077-0.329-0.155-0.494-0.232
		c-159.413-74.862-274.348-82.789-411.522-40.514c-140.344,43.252-165.285,102.183-152.735,133.89
		c12.55,31.706,56.294,143.211,56.294,143.211"/>
	<polygon display="inline" clip-path="url(#SVGID_2_)" fill="#FECB50" points="693.828,306.854 664.324,291.221 632.397,257.533 
		664.544,267.662 637.021,245.423 627.883,207.551 659.7,229.35 642.085,199.294 643.737,159.001 677.425,181.79 698.232,200.286 
		693.938,173.533 723.333,190.377 745.131,215.478 755.259,227.368 702.415,311.478 	"/>
	<path display="inline" clip-path="url(#SVGID_2_)" fill="#1E1F57" d="M555.553,432.358c0,0-22.899-2.202-46.238,0.44
		c-23.34,2.643-35.45,12.771-41.395,24.221c-5.945,11.449-11.009,27.522-8.367,53.944c0,0-16.514,14.752-34.128,36.771
		c-17.615,22.018-16.294,51.303-7.706,79.046c8.586,27.742,23.779,45.798,23.779,45.798c-13.211,16.073-19.155,30.604-11.449,56.367
		l11.67,30.824l54.605,109.651l44.257,37.431l29.834,30.276c0,0,30.489,12.209,70.129,7.376c9.027-1.101,19.046-2.752,28.734-7.376
		c9.688-4.625,53.504-22.679,64.293-26.313c10.789-3.634,42.055-10.679,40.624,1.212l1.321-2.313l-27.853-75.192L568.764,432.798
		L555.553,432.358z"/>
	<path display="inline" clip-path="url(#SVGID_2_)" fill="#1E1F57" d="M718.709,441.386c-3.468-21.468-12.22-29.56-47.395-16.018
		l8.588,17.504c0,0,15.412-15.082,15.468-14.477c0.055,0.606,0.22,18.055,0.22,18.055S706.819,436.102,718.709,441.386"/>
	<path display="inline" clip-path="url(#SVGID_2_)" fill="#1E1F57" d="M1227.552,556.321l36.862-27.083l-32.678,108.332
		c0,0-2.423,9.688,3.302,15.411c5.725,5.726,16.074,4.404,16.074,4.404l68.256-0.88l-35.67,35.669c0,0-4.184,4.183-11.89,4.183
		h-77.944c0,0-8.368-1.319-11.89-8.146c-3.524-6.826-0.66-15.413-0.66-15.413l-0.881-28.404l37.87-33.247
		c0,0,10.03-7.022,13.651-25.32C1236.139,564.688,1231.736,560.945,1227.552,556.321"/>
	<path display="inline" clip-path="url(#SVGID_2_)" fill="#20C7A3" d="M1220.065,627c-61.154,50.532-94.129-8.257-107.577-14.092
		h9.431c7.153,0,13.457-4.697,15.5-11.553l17.386-58.307c2.054-6.887-3.105-13.809-10.293-13.809h-96.189l-38.312,128.478h41.349
		l12.092-40.545c33.423,24.03,48.944,53.756,89.853,55.736C1204.813,675.403,1220.065,627,1220.065,627"/>
	<path display="inline" clip-path="url(#SVGID_2_)" fill="#20C7A3" d="M1162.995,566.919l-2.732,9.11
		c-6.074,20.246,9.087,40.621,30.223,40.621h9.144c13.935,0,26.221-9.141,30.224-22.486l2.733-9.111
		c6.073-20.245-9.087-40.621-30.225-40.621h-9.142C1179.283,544.433,1166.999,553.573,1162.995,566.919"/>
	<path display="inline" clip-path="url(#SVGID_2_)" fill="#20C7A3" d="M1450.408,638.461l29.381-98.527
		c1.893-6.346,7.728-10.695,14.35-10.695h85.963c10.021,0,17.214,9.651,14.351,19.254l-29.382,98.528
		c-1.891,6.345-7.727,10.695-14.349,10.695h-85.963C1454.737,657.716,1447.545,648.065,1450.408,638.461"/>
	<path display="inline" clip-path="url(#SVGID_2_)" fill="#20C7A3" d="M1322.01,529.239h40.59l-35.123,117.782
		c-1.893,6.345-7.729,10.694-14.351,10.694h-66.932c-10.021,0-17.213-9.65-14.351-19.254l32.57-109.223h40.863l-23.469,58.08
		l12.568-4.906l-18.165,50.863l45.798-71.009l-16.402,4.293L1322.01,529.239z"/>
	<path display="inline" clip-path="url(#SVGID_2_)" fill="#20C7A3" d="M1441.622,596.763l-14.986,50.258
		c-1.893,6.345-7.729,10.694-14.351,10.694h-49.592c-10.02,0-17.213-9.65-14.349-19.254l29.381-98.528
		c1.892-6.345,7.728-10.695,14.35-10.695h49.591c10.021,0,17.215,9.651,14.351,19.254l-5.675,19.031l-39.528,17.98l9.309-30.853
		c1.238-4.103-1.834-8.239-6.12-8.239c-2.818,0-5.306,1.848-6.119,4.547l-25.537,84.646c-1.239,4.103,1.834,8.237,6.119,8.237
		c2.819,0,5.306-1.847,6.12-4.546l7.809-25.884L1441.622,596.763z"/>
	<polygon display="inline" clip-path="url(#SVGID_2_)" fill="#F432A6" points="1467.191,657.417 1546.543,598.102 1521.11,596.119 
		1595.087,543.401 1594.453,548.493 1574.771,614.491 1517.681,657.716 	"/>
	<path display="inline" clip-path="url(#SVGID_2_)" fill="#FECB50" d="M1574.771,614.492l-57.09,43.225l34.229-0.1
		c0,0,6.027,0.1,9.99-4.524c3.964-4.624,4.789-10.982,4.789-10.982L1574.771,614.492z"/>
	<polygon display="inline" clip-path="url(#SVGID_2_)" fill="#1E1F57" points="1047.246,530.229 1006.332,567.887 968.784,695.661 
		1010.23,656.724 	"/>
	<polygon display="inline" clip-path="url(#SVGID_2_)" fill="#1E1F57" points="1050.414,658.586 1009.37,696.363 968.784,695.66 
		1010.012,657.716 	"/>
	<path display="inline" clip-path="url(#SVGID_2_)" fill="#1E1F57" d="M1039.113,668.987c0,0,21.601,24.16,38.193,33.196
		c16.594,9.036,53.926,17.311,78.691-4.396c0,0,41.087-39.047,41.182-38.403c0.097,0.644-13.775,16.828-48.123,13.195
		c-34.348-3.634-58.589-36.172-85.606-55.407l-12.091,40.545L1039.113,668.987z"/>
	<path display="inline" clip-path="url(#SVGID_2_)" fill="#1E1F57" d="M1166.891,557.973l-23.119,21.468l-6.274,22.954
		c0,0-3.963,12.716-23.285,10.733l12.221,11.064c0,0,26.423,27.743,53.175,21.799l39.468-36.496c0,0-7.102,7.596-21.468,6.937
		c-14.367-0.661-24.696-0.978-34.845-16.846C1153.68,585.385,1164.084,567.221,1166.891,557.973"/>
	<path display="inline" clip-path="url(#SVGID_2_)" fill="#1E1F57" d="M1321.569,530.12l-23.56,17.174l-15.412,39.633l11.009-4.402
		l-16.294,47.778l44.037-67.156l-14.972,2.642C1306.378,565.789,1321.791,529.458,1321.569,530.12"/>
	<path display="inline" clip-path="url(#SVGID_2_)" fill="#1E1F57" d="M1379.037,535.404l-24.881,20.917l-26.422,89.396
		c0,0-0.439,9.247-11.228,11.67l-20.698,22.237c0,0-0.661,7.487,2.642,11.009c3.304,3.523,6.826,5.284,13.211,5.726
		c6.386,0.439,57.248,0.22,60.771,0.22c3.522,0,7.045-0.661,10.789-4.624c3.743-3.963,36.109-35.449,36.109-35.449
		s-2.422,0.882-7.046,1.212c-4.624,0.329-42.376,0.109-49.592,0c-7.216-0.11-10.738-3.413-12.719-7.816
		c-1.983-4.405-3.083-6.827-0.881-14.313C1351.295,628.102,1379.037,535.404,1379.037,535.404"/>
	<path display="inline" clip-path="url(#SVGID_2_)" fill="#1E1F57" d="M1449.496,567.991l-37.65,40.954l-9.452,4.47l-7.808,25.884
		c0,0-0.796,5.757-6.961,4.877c-6.166-0.881-5.279-8.57-5.279-8.57l25.976-86.33c0,0,3.083-4.623,6.826-3.082
		c3.744,1.541,6.206,2.386,4.975,8.459c-1.23,6.073-9.309,30.853-9.309,30.853L1449.496,567.991z"/>
	<path display="inline" clip-path="url(#SVGID_2_)" fill="#1E1F57" d="M1481.313,535.514l-28.237,22.954l-2.734,9.056
		l-38.496,41.421l29.174-12l-15.356,52.185c0,0-2.974,4.623-5.615,5.943l-21.963,21.965c0,0-1.817,8.092,2.642,12.88
		c4.459,4.789,7.597,5.944,13.541,6.274c5.945,0.331,92.643,0.331,95.449,0.331c2.808,0,6.771,0,10.405-3.302
		c3.632-3.304,38.971-38.313,38.971-38.313s-3.137,2.974-8.752,3.139c-5.614,0.165-82.073-0.495-87.027-0.495
		s-8.917-1.982-11.395-7.267s-2.312-10.733-0.33-16.68c1.982-5.943,28.074-94.788,28.074-94.788L1481.313,535.514z"/>
	<path display="inline" clip-path="url(#SVGID_2_)" fill="#F432A6" d="M737.865,608.505l-0.626-70.422
		c-0.141-15.884-13.031-28.701-28.916-28.751l-77.072-0.243c-19.93-0.063-37.374,13.376-42.396,32.663l-35.957,138.081
		c-2.351,9.027,0.005,18.63,6.28,25.533c16.252,17.883,49.225,52.825,75.642,72.24c36.55,26.862,70.238,31.045,95.119,23.338
		c25.404-7.868,36.99-19.376,22.458-86.311l6.936-9.358c0,0,9.082,25.927,16.513,55.487c7.833,31.154,0.331,59.448-30.715,75.633
		c-31.046,16.183-68.037,8.587-105.027-13.872c-23.86-14.487-68.743-57.279-97.602-85.834
		c-16.735-16.561-23.446-40.738-17.639-63.552l36.852-144.79c7.536-29.611,34.008-50.479,64.56-50.893l70.182-0.953
		c38.139-0.518,67.7,33.191,62.206,70.936l-7.812,53.678L737.865,608.505z"/>
	<path display="inline" clip-path="url(#SVGID_2_)" fill="#6B2EA1" d="M724.434,618.193l-25.321-64.955l-3.523,6.165l-50.642,0.221
		c0,0,8.367,56.807,8.587,76.183c0,0,24-1.761,40.073,0.66L724.434,618.193z"/>
	<path display="inline" clip-path="url(#SVGID_2_)" fill="#6B2EA1" d="M606.415,577.679l31.707,60.77
		c0,0-17.175,4.185-29.725,17.836c0,0,11.449,7.485,16.293,18.495c15.963-4.294,35.45,7.706,32.808,32.147
		c0,0,10.348,5.944,11.889,17.394l-8.477,32.478l-39.853-31.706l-10.458-0.992l-19.267,14.863c0,0-25.779-27.011-32.155-33.597
		c-6.377-6.587-8.248-16.056-6.046-26.844c2.201-10.789,15.853-60,15.853-60L606.415,577.679z"/>
	<path display="inline" clip-path="url(#SVGID_2_)" fill="#6B2EA1" d="M697.736,742.183c9.083-6.439,27.165-5.696,33.936,7.515
		l-0.082,7.348l-33.854,4.046V742.183z"/>
	<path display="inline" clip-path="url(#SVGID_2_)" fill="#72D0F3" d="M608.397,657.22c0,0,13.168-19.252,47.89-21.468
		c15.523-0.991,37.981,0.33,37.981,0.33l86.697-53.174c-10.403,11.724-13.211,25.761-4.294,47.229
		c8.918,21.468,23.45,19.815,26.423,14.531L728.947,746.56c0,0-10.899-16.185-31.046-3.469l-30.385-9.907l2.312-9.413
		c0,0-1.541-12.386-12.33-16.845c1.431-17.01-9.083-37.706-32.808-32.146C624.69,674.781,619.626,663.165,608.397,657.22"/>
	<path display="inline" clip-path="url(#SVGID_2_)" fill="#FFFFFF" d="M591.333,738.962l19.266-14.861l10.459,0.991l39.853,31.706
		l22.294-80.093c0,0,16.678,31.046,14.531,84.387l33.854-4.046l0.495-14.119l20.312-27.743c0,0,5.119,20.476,6.275,34.843
		c1.156,14.368,1.321,29.561-8.587,40.79c-9.908,11.229-44.486,18.914-77.449,7.43C632.342,784.21,591.333,738.962,591.333,738.962"
		/>
	<path display="inline" clip-path="url(#SVGID_2_)" fill="#FFFFFF" d="M568.984,618.524l37.431-40.844l46.899,89.833
		c0,0,3.743-52.402-8.367-107.229l49.541-0.22l3.964-5.284l25.981,63.412l13.431-8.147c0,0,0.07-58.275-0.626-71.962
		c-0.694-13.688-7.961-26.239-25.355-28.441c0,0-64.514-0.44-79.266-0.661c-14.752-0.22-34.348,5.946-44.037,31.927L568.984,618.524
		z"/>
	<path display="inline" clip-path="url(#SVGID_2_)" fill="#FECB50" d="M779.645,584.56l39.963-24.605l22.129-37.486l26.257-15.688
		l9.577,2.477l0.991,10.404l17.009,7.1l1.817,6.606l-0.33,7.431l-5.78,5.119l2.147,5.285l-1.652,4.954c0,0-24.44,35.67-25.101,36
		c-0.66,0.33-2.642,2.146-2.642,2.146s-8.587,2.479-14.367,3.139c-5.78,0.661-13.045,0.495-13.045,0.495l-34.349,47.56
		c-5.945,8.587-21.468-1.652-28.074-21.798C767.589,603.55,774.36,589.844,779.645,584.56"/>
	<path display="inline" clip-path="url(#SVGID_2_)" fill="#6B2EA1" d="M616.104,478.156l-33.688-35.229
		c0,0,32.807,1.541,45.138,7.486l-14.533-58.569c0,0,35.67,21.798,57.248,63.413c0,0,11.009-14.532,25.101-26.862
		c0,0,0.881,30.825-2.202,47.559l-73.981,1.762L616.104,478.156z"/>
	<path display="inline" clip-path="url(#SVGID_2_)" fill="#20C7A3" d="M585.277,492.248l-38.807-77.449
		c0,0,38.312,2.807,56.972,16.018c-19.816-24.11-19.321-47.064-22.128-77.119c12.715,2.477,44.917,16.844,57.302,28.569
		c12.386,11.725,31.872,39.137,41.285,60.605l-9.633,12.385c0,0-19.266-38.642-57.248-63.412l14.862,57.798
		c0,0-22.568-3.853-45.467-6.716l33.688,35.229C616.104,478.156,598.819,480.523,585.277,492.248"/>
	<path display="inline" clip-path="url(#SVGID_2_)" fill="#20C7A3" d="M740.177,838.541c0,0-1.651,19.816-23.284,36.165
		l-10.074-17.174c0,0-9.082,30.221-30.385,46.238c0,0-21.633-16.513-26.422-55.816l-15.027,19.982c0,0-20.147-20.478-16.679-61.266
		c0,0,32.202,27.907,69.522,35.834C725.149,850.431,740.177,838.541,740.177,838.541"/>
	<path display="inline" clip-path="url(#SVGID_2_)" fill="#FFFFFF" d="M477.526,521.717c-3.881-58.863,44.669-77.028,85.488-42.236
		C560.459,525.441,526.983,553.02,477.526,521.717"/>
	<path display="inline" clip-path="url(#SVGID_2_)" fill="#FFFFFF" d="M695.59,446.45c15.413-15.413,53.284-5.945,50.422,52.403
		c0,0-12.331-19.706-52.514-22.128L695.59,446.45z"/>
	<path display="inline" clip-path="url(#SVGID_2_)" fill="#6B2EA1" d="M534.355,488.438c1.834,9.863-3.995,19.22-13.021,20.899
		c-9.027,1.679-17.832-4.956-19.666-14.819s3.996-19.22,13.022-20.899C523.716,471.939,532.521,478.575,534.355,488.438"/>
	<path display="inline" clip-path="url(#SVGID_2_)" fill="#6B2EA1" d="M724.366,458.722c0.958,6.72-2.708,12.802-8.188,13.583
		c-5.479,0.781-10.7-4.034-11.658-10.754c-0.958-6.721,2.709-12.802,8.189-13.583C718.189,447.187,723.408,452.002,724.366,458.722"
		/>
	<path display="inline" clip-path="url(#SVGID_2_)" fill="#6B2EA1" d="M471.773,573.055c0,0-4.293,6.496-9.468,15.303
		c-5.174,8.808-4.183,19.376,0.991,31.267c5.174,11.889,12.44,24.109,12.44,24.109l12.331-10.129L471.773,573.055z"/>
	<path display="inline" clip-path="url(#SVGID_2_)" fill="#6B2EA1" d="M540.141,612.689c0,0-56.367,44.696-79.927,68.477
		c-23.559,23.78-11.669,40.293,3.303,56.586l46.069,50.134c4.155,4.523,7.097,10.024,8.552,15.99l4.168,17.106
		c15.138,8.366,24.165,13.597,29.615,28.953c5.449,15.357-5.285,33.192-5.285,33.192l7.597,8.587
		c26.917,20.313,16.183,45.413,16.183,45.413c7.596,4.624,25.762,6.827,25.762,6.827s-6.073-20.973-13.329-46.021l-3.183-10.986
		c-9.341-32.239-19.432-67.04-20.81-71.691c-2.642-8.918-3.963-16.513-9.908-22.459c-5.945-5.944-63.082-60.77-73.981-72.33
		c-10.899-11.559-10.899-15.853-3.303-24.77c16.662-19.56,61.761-57.468,61.761-57.468L540.141,612.689z"/>
	<path display="inline" clip-path="url(#SVGID_2_)" fill="#72D0F3" d="M464.563,541.79c0,0-14.532,15.357-23.945,34.844
		c-9.412,19.486-2.642,37.651,1.982,49.044c4.624,11.396,16.679,31.376,16.679,31.376l16.458-13.319c0,0-7.541-12.441-12.66-24.661
		s-6.606-20.643,0.991-34.019l7.926-12.551L464.563,541.79z"/>
	<path display="inline" clip-path="url(#SVGID_2_)" fill="#F432A6" d="M652.984,943.733c0,0,63.248-11.063,86.697-17.339
		c23.449-6.274,33.193-8.588,35.174-14.037c1.982-5.448-8.781-9.066-28.238-5.283c-17.835,3.468-43.732,16.056-58.459,22.128
		C672.14,935.806,652.984,943.733,652.984,943.733"/>
	<polygon display="inline" clip-path="url(#SVGID_2_)" fill="#FECB50" points="563.315,978.082 572.232,958.101 580.984,977.422 
		599.149,978.247 585.278,992.449 588.086,1013.422 570.911,996.577 550.434,1011.109 555.718,990.963 545.48,978.908 	"/>
	<path display="inline" clip-path="url(#SVGID_2_)" fill="#20C7A3" d="M385.126,830.112c-32.594-38.734-41.503-85.145-41.503-85.145
		s74.097-6.918,121.819,29.515c13.152,10.041,20.999,24.203,22.88,38.466c1.176,8.914-5.971,33.755-20.452,43.684
		c-2.641,1.81-5.506,3.425-8.619,4.213C455.811,861.715,413.744,864.124,385.126,830.112"/>
	<path display="inline" clip-path="url(#SVGID_2_)" fill="#72D0F3" d="M646.709,972.137c-12.551-4.789-17.34-21.469-21.633-36.495
		c-4.294-15.028-14.037-51.468-78.165-52.68c23.615-47.89-24.695-68.325-63.523-69.853c-29.395-1.156-48.55,2.972-62.807,5.669
		c16.073,0.881,31.15,13.731,39.853,26.422c9.248,13.487,13.511,23.591,26.862,29.285c7.486,3.193,4.217,10.684-2.972,8.477
		c-11.835-3.633-19.596-13.87-28.954-27.412c-6.61-9.565-25.982-31.927-47.56-31.706c-21.578,0.22-32.367,15.413-40.734,19.376
		c18.495-2.201,27.311,5.731,40.734,18.055c13.431,12.331,17.835,17.174,32.367,18.715c8.392,0.892,7.704,9.762,0.22,9.468
		c-11.229-0.439-20.477-3.742-37.431-19.376c-15.715-14.489-32.367-22.458-45.137-17.174c-12.771,5.285-16.294,20.698-24.441,27.082
		c20.698-4.403,35.401,5.1,45.138,18.937c4.183,5.944-1.982,11.01-6.606,6.605c-10.26-9.771-30.314-23.016-44.917-15.192
		c-12.33,6.604-4.183,27.082-16.954,36.771c11.669-0.055,18.605,28.513,37.596,28.844c18.991,0.33,27.226-32.265,43.761-41.285
		c5.45-2.972,9.165,3.82,4.79,7.598c-19.322,16.678-21.633,44.917-50.202,43.596c20.642,12.385,47.985,12.435,63.577-6.604
		c17.175-20.974,18.166-38.147,34.68-50.697c5.214-3.963,10.073,1.98,5.614,5.943c-24.11,21.433-28.073,63.908-57.798,68.367
		c17.339,6.441,42.441,13.871,61.596-5.449c21.142-21.323,26.229-61.327,53.01-81.412c3.962-2.974,9.117,2.183,4.954,6.274
		c-38.973,38.313-31.707,84.881-70.845,92.808c19.487,2.312,52.514,7.927,66.881-18.825s3.859-44.613,20.807-67.211
		c2.973-3.963,9.294-1.466,6.936,3.798c-19.156,42.77-5.119,55.321-21.963,72.991c19.486-9.248,49.046-23.284,56.477-47.726
		c9.191-30.228-15.523-46.898-15.523-46.898c36.66,1.65,54.991,20.146,62.917,47.724c7.927,27.579,14.863,39.303,24.111,42.441
		C650.672,984.523,653.102,974.576,646.709,972.137 M414.489,891.001c-0.602,1.335-2.151,1.948-3.499,1.415
		c-2.875-1.142-5.586-2.646-8.094-4.316c-2.513-1.668-4.835-3.487-7.092-5.222c-2.256-1.735-4.461-3.382-6.733-4.756
		c-2.269-1.379-4.606-2.477-7.042-3.238c-1.846-0.576-2.875-2.54-2.297-4.387c0.576-1.845,2.54-2.874,4.385-2.297
		c0.045,0.015,0.09,0.029,0.134,0.044l0.02,0.008c2.995,1.083,5.813,2.582,8.366,4.298c2.56,1.713,4.87,3.616,7.074,5.475
		c2.206,1.859,4.327,3.671,6.523,5.274c2.192,1.604,4.463,2.993,6.873,4.082l0.016,0.007
		C414.498,888.009,415.11,889.625,414.489,891.001 M479.735,905.124l-0.029,0.031c-2.242,2.431-4.246,5.044-5.994,7.846
		c-1.757,2.801-3.256,5.785-4.729,8.898c-1.477,3.106-2.951,6.352-4.794,9.547c-1.827,3.196-4.086,6.295-6.749,9.002l-0.014,0.013
		c-1.355,1.38-3.572,1.397-4.95,0.041c-1.379-1.354-1.397-3.571-0.041-4.949c0.028-0.028,0.066-0.066,0.094-0.094
		c2.3-2.168,4.277-4.648,6.01-7.421c1.743-2.763,3.274-5.797,4.9-8.906c1.621-3.108,3.365-6.287,5.423-9.302
		c2.048-3.018,4.402-5.854,6.979-8.436c1.052-1.054,2.76-1.055,3.813-0.002C480.682,902.417,480.709,904.066,479.735,905.124
		 M523.196,877.546c-0.733,0.994-2.102,1.248-3.142,0.632c-3.699-2.211-6.468-5.642-8.478-9.132
		c-2.035-3.518-3.476-7.157-4.903-10.631c-1.418-3.468-2.805-6.833-4.544-9.635c-1.737-2.818-3.809-4.88-6.242-5.895
		c-2.298-0.959-3.384-3.602-2.425-5.9c0.96-2.298,3.601-3.384,5.9-2.424c0.149,0.062,0.294,0.131,0.433,0.208l0.158,0.087
		c2.134,1.174,4.022,2.773,5.525,4.537c1.512,1.764,2.668,3.669,3.609,5.56c1.867,3.8,2.969,7.563,4.071,11.161
		c1.091,3.596,2.125,7.078,3.575,10.229c1.442,3.142,3.329,5.929,5.952,7.862l0.008,0.006
		C523.753,874.994,523.978,876.487,523.196,877.546"/>
	<path display="inline" clip-path="url(#SVGID_2_)" fill="#F432A6" d="M991.516,163.129c0,2.341-1.897,4.239-4.238,4.239
		c-2.342,0-4.239-1.898-4.239-4.239s1.897-4.238,4.239-4.238C989.618,158.892,991.516,160.789,991.516,163.129"/>
	<path display="inline" clip-path="url(#SVGID_2_)" fill="#F432A6" d="M991.516,163.129c0,2.341-1.897,4.239-4.238,4.239
		c-2.342,0-4.239-1.898-4.239-4.239s1.897-4.238,4.239-4.238C989.618,158.892,991.516,160.789,991.516,163.129"/>
	<polygon display="inline" clip-path="url(#SVGID_2_)" fill="#F432A6" points="760.394,409.913 874.747,324.269 849.415,322.098 
		961.597,242.244 938.678,314.377 795.617,421.251 	"/>
	<polygon display="inline" clip-path="url(#SVGID_2_)" fill="#FECB50" points="823.602,427.283 926.615,351.289 938.893,313.459 
		795.616,421.251 	"/>
	<polygon display="inline" clip-path="url(#SVGID_2_)" fill="#FFFFFF" points="699.773,299.698 674.012,333.826 707.259,325.239 
		667.847,390.083 732.581,323.918 	"/>
	<path display="inline" clip-path="url(#SVGID_2_)" fill="#F432A6" d="M738.797,224.223c-8.046-8.578-20.027-13.699-34.951-11.828
		c-34.238,4.294-42.275,44.257-20.807,69.358c21.796,25.485,62.752,50.202,62.752,50.202c20.807-18.496,51.841-47.072,58.789-67.046
		c7.926-22.789-1.982-52.844-33.028-49.101L738.797,224.223z"/>
	<path display="inline" clip-path="url(#SVGID_2_)" fill="#FFFFFF" d="M749.094,240.909l51.743-59.78l-22.348-0.991l36.99-45.247
		l-72.77,57.908l26.201,1.761l-30.715,28.074C738.195,222.634,746.947,232.982,749.094,240.909"/>
	<path display="inline" clip-path="url(#SVGID_2_)" fill="#F432A6" d="M373.036,410.401l-60.203-71.987
		c0,0-39.627,32.294-28.325,51.669C292.214,403.294,343.104,394.389,373.036,410.401"/>
	<path display="inline" clip-path="url(#SVGID_2_)" fill="#F432A6" d="M392.232,666.632c0,2.464-1.996,4.459-4.458,4.459
		c-2.463,0-4.459-1.995-4.459-4.459c0-2.462,1.996-4.457,4.459-4.457C390.236,662.175,392.232,664.17,392.232,666.632"/>
	<path display="inline" clip-path="url(#SVGID_2_)" fill="#F432A6" d="M933.222,597.275c0,2.464-1.996,4.46-4.458,4.46
		c-2.463,0-4.459-1.996-4.459-4.46c0-2.462,1.996-4.459,4.459-4.459C931.226,592.816,933.222,594.813,933.222,597.275"/>
	<path display="inline" clip-path="url(#SVGID_2_)" fill="#F432A6" d="M816.305,844.652c0,2.462-1.997,4.457-4.459,4.457
		c-2.462,0-4.458-1.995-4.458-4.457c0-2.464,1.996-4.459,4.458-4.459C814.308,840.193,816.305,842.188,816.305,844.652"/>
</g>
<polyline display="none" fill="none" stroke="#F432A6" stroke-width="3" stroke-linecap="round" stroke-miterlimit="10" points="
	693.828,306.854 664.324,291.221 632.397,257.533 664.544,267.662 637.021,245.423 627.883,207.551 659.7,229.35 642.085,199.294 
	643.737,159.001 677.425,181.79 698.232,200.286 693.938,173.533 723.333,190.377 745.131,215.478 "/>
<polyline display="none" fill="none" stroke="#1E1F57" stroke-linecap="round" stroke-miterlimit="10" points="760.394,409.913 
	874.747,324.269 849.415,322.098 961.597,242.244 "/>
<line display="none" fill="none" stroke="#1E1F57" stroke-linecap="round" stroke-miterlimit="10" x1="795.617" y1="421.251" x2="938.679" y2="314.377"/>
<line display="none" fill="none" stroke="#1E1F57" stroke-linecap="round" stroke-miterlimit="10" x1="823.602" y1="427.283" x2="926.615" y2="351.289"/>
<g>
	<defs>
		<rect id="SVGID_3_" x="-642" y="-81.713" width="2275" height="1431.364"/>
	</defs>
	<clipPath id="SVGID_4_">
		<use xlink:href="#SVGID_3_"  overflow="visible"/>
	</clipPath>
	
		<path clip-path="url(#SVGID_4_)" fill="none" stroke="#1E1F57" stroke-width="3" stroke-linecap="round" stroke-linejoin="round" stroke-miterlimit="10" d="
		M1291.392,731.225L1242.24,779c-2.953,1.933-6.465,3.038-10.178,3.038h-121.309c-11.349,0-19.774-9.981-18.45-20.784l0.112-2.856"
		/>
	
		<line clip-path="url(#SVGID_4_)" fill="none" stroke="#1E1F57" stroke-width="3" stroke-linecap="round" stroke-linejoin="round" stroke-miterlimit="10" x1="1197.217" y1="581.196" x2="1159.991" y2="612.067"/>
	
		<line clip-path="url(#SVGID_4_)" fill="none" stroke="#1E1F57" stroke-width="3" stroke-linecap="round" stroke-linejoin="round" stroke-miterlimit="10" x1="610.788" y1="734.1" x2="558.705" y2="782.036"/>
	
		<polyline clip-path="url(#SVGID_4_)" fill="none" stroke="#1E1F57" stroke-width="3" stroke-linecap="round" stroke-linejoin="round" stroke-miterlimit="10" points="
		658.309,574.74 606.226,622.677 558.705,782.036 609.995,782.036 662.075,734.1 	"/>
	
		<line clip-path="url(#SVGID_4_)" fill="none" stroke="#1E1F57" stroke-width="3" stroke-linecap="round" stroke-linejoin="round" stroke-miterlimit="10" x1="806.69" y1="609.288" x2="777.061" y2="636.559"/>
	
		<line clip-path="url(#SVGID_4_)" fill="none" stroke="#1E1F57" stroke-width="3" stroke-linecap="round" stroke-linejoin="round" stroke-miterlimit="10" x1="869.129" y1="675.547" x2="819.931" y2="720.832"/>
	
		<path clip-path="url(#SVGID_4_)" fill="none" stroke="#1E1F57" stroke-width="3" stroke-linecap="round" stroke-linejoin="round" stroke-miterlimit="10" d="
		M646.108,748.795c28.563,25.251,49.004,50.082,90.333,52.086c25.26,1.223,43.492-7.42,56.302-18.322l-0.002-0.003l50.205-46.388"/>
	
		<path clip-path="url(#SVGID_4_)" fill="none" stroke="#1E1F57" stroke-width="3" stroke-linecap="round" stroke-linejoin="round" stroke-miterlimit="10" d="
		M823.363,754.263l-1.161,3.893c-3.552,11.91,5.372,23.883,17.801,23.883h97.158c4.299,0,8.331-1.48,11.533-4.018l47.992-46.794"/>
	
		<path clip-path="url(#SVGID_4_)" fill="none" stroke="#1E1F57" stroke-width="3" stroke-linecap="round" stroke-linejoin="round" stroke-miterlimit="10" d="
		M1119.896,731.225l-47.991,46.796c-3.202,2.537-7.233,4.018-11.532,4.018h-76.638c-11.094,0-19.393-9.538-18.524-20.054"/>
	
		<line clip-path="url(#SVGID_4_)" fill="none" stroke="#1E1F57" stroke-width="3" stroke-linecap="round" stroke-linejoin="round" stroke-miterlimit="10" x1="926.343" y1="574.74" x2="881.21" y2="608.684"/>
	
		<line clip-path="url(#SVGID_4_)" fill="none" stroke="#1E1F57" stroke-width="3" stroke-linecap="round" stroke-linejoin="round" stroke-miterlimit="10" x1="997.818" y1="574.74" x2="967.949" y2="597.204"/>
	
		<line clip-path="url(#SVGID_4_)" fill="none" stroke="#1E1F57" stroke-width="3" stroke-linecap="round" stroke-linejoin="round" stroke-miterlimit="10" x1="1070.626" y1="581.196" x2="1038.269" y2="607.803"/>
	
		<line clip-path="url(#SVGID_4_)" fill="none" stroke="#1E1F57" stroke-width="3" stroke-linecap="round" stroke-linejoin="round" stroke-miterlimit="10" x1="1156.258" y1="622.549" x2="1107.082" y2="675.076"/>
	
		<polyline clip-path="url(#SVGID_4_)" fill="none" stroke="#1E1F57" stroke-width="5" stroke-linecap="round" stroke-linejoin="round" stroke-miterlimit="10" points="
		635.64,533.501 653.665,480.792 708.994,480.792 727.019,533.501 	"/>
	
		<polyline clip-path="url(#SVGID_4_)" fill="none" stroke="#1E1F57" stroke-width="5" stroke-linecap="round" stroke-linejoin="round" stroke-miterlimit="10" points="
		763.342,480.792 781.367,533.501 794.862,533.501 812.888,480.792 	"/>
	
		<path clip-path="url(#SVGID_4_)" fill="none" stroke="#1E1F57" stroke-width="5" stroke-linecap="round" stroke-linejoin="round" stroke-miterlimit="10" d="
		M1041.793,533.501l18.025-52.71h59.756c13.67,0,23.283,13.447,18.859,26.38l-4.393,12.847c-2.759,8.064-10.338,13.483-18.86,13.483
		H1041.793z"/>
	
		<path clip-path="url(#SVGID_4_)" fill="none" stroke="#1E1F57" stroke-width="5" stroke-linecap="round" stroke-linejoin="round" stroke-miterlimit="10" d="
		M825.802,503.813l2.685-7.85c3.104-9.074,11.634-15.172,21.225-15.172h65.683c15.385,0,26.203,15.133,21.224,29.688l-2.685,7.851
		c-3.104,9.075-11.631,15.172-21.223,15.172h-65.685C831.644,533.501,820.825,518.37,825.802,503.813z"/>
	
		<path clip-path="url(#SVGID_4_)" fill="none" stroke="#1E1F57" stroke-width="5" stroke-linecap="round" stroke-linejoin="round" stroke-miterlimit="10" d="
		M1160.498,503.813l2.685-7.85c3.103-9.074,11.633-15.172,21.224-15.172h34.185c15.382,0,26.2,15.133,21.223,29.688l-2.684,7.851
		c-3.104,9.075-11.635,15.172-21.224,15.172h-34.185C1166.339,533.501,1155.521,518.37,1160.498,503.813z"/>
	
		<line clip-path="url(#SVGID_4_)" fill="none" stroke="#1E1F57" stroke-width="5" stroke-linecap="round" stroke-linejoin="round" stroke-miterlimit="10" x1="648.204" y1="501.821" x2="714.024" y2="501.821"/>
	
		<polyline clip-path="url(#SVGID_4_)" fill="none" stroke="#1E1F57" stroke-width="5" stroke-linecap="round" stroke-linejoin="round" stroke-miterlimit="10" points="
		997.783,533.501 952.72,533.501 997.783,480.792 952.72,480.792 	"/>
	
		<path clip-path="url(#SVGID_4_)" fill="none" stroke="#1E1F57" stroke-width="3" stroke-linecap="round" stroke-miterlimit="10" d="
		M871.334,696c-75.854,62.681-116.755-10.24-133.436-17.479h11.698c8.872,0,16.691-5.825,19.225-14.329l21.565-72.321
		c2.547-8.542-3.854-17.129-12.768-17.129h-119.31L610.788,734.1h51.287l14.999-50.291c41.456,29.808,60.709,66.677,111.45,69.134
		C852.414,756.039,871.334,696,871.334,696z"/>
	
		<path clip-path="url(#SVGID_4_)" fill="none" stroke="#1E1F57" stroke-width="3" stroke-linecap="round" stroke-linejoin="round" stroke-miterlimit="10" d="
		M800.545,621.478l-3.389,11.301c-7.534,25.113,11.271,50.386,37.486,50.386h11.342c17.284,0,32.523-11.338,37.489-27.892
		l3.39-11.301c7.533-25.111-11.271-50.385-37.488-50.385h-11.34C820.749,593.587,805.512,604.924,800.545,621.478z"/>
	
		<path clip-path="url(#SVGID_4_)" fill="none" stroke="#1E1F57" stroke-width="3" stroke-linecap="round" stroke-linejoin="round" stroke-miterlimit="10" d="
		M1157.044,710.218l36.443-122.211c2.347-7.873,9.585-13.267,17.799-13.267h106.626c12.43,0,21.352,11.972,17.801,23.882
		l-36.445,122.211c-2.346,7.871-9.584,13.267-17.797,13.267h-106.626C1162.414,734.1,1153.492,722.13,1157.044,710.218z"/>
	
		<path clip-path="url(#SVGID_4_)" fill="none" stroke="#1E1F57" stroke-width="3" stroke-linecap="round" stroke-miterlimit="10" d="
		M997.783,574.74h50.346l-43.565,146.093c-2.348,7.871-9.586,13.267-17.8,13.267h-83.021c-12.43,0-21.351-11.97-17.8-23.882
		l40.399-135.478h50.685l-29.109,72.042l15.59-6.085l-22.532,63.09l56.808-88.079l-20.347,5.325L997.783,574.74z"/>
	
		<path clip-path="url(#SVGID_4_)" fill="none" stroke="#1E1F57" stroke-width="3" stroke-linecap="round" stroke-linejoin="round" stroke-miterlimit="10" d="
		M1146.146,658.496l-18.589,62.338c-2.348,7.871-9.587,13.267-17.801,13.267h-61.512c-12.428,0-21.351-11.97-17.798-23.882
		l36.443-122.212c2.347-7.87,9.586-13.266,17.799-13.266h61.511c12.43,0,21.354,11.971,17.801,23.882l-7.039,23.607l-49.03,22.302
		l11.546-38.271c1.536-5.089-2.274-10.219-7.591-10.219c-3.496,0-6.58,2.293-7.59,5.641l-31.676,104.993
		c-1.536,5.087,2.275,10.216,7.591,10.216c3.496,0,6.581-2.289,7.591-5.637l9.685-32.107L1146.146,658.496z"/>
	
		<line clip-path="url(#SVGID_4_)" fill="none" stroke="#1E1F57" stroke-width="3" stroke-linecap="round" stroke-linejoin="round" stroke-miterlimit="10" x1="702.552" y1="612.838" x2="727.02" y2="639.877"/>
	
		<line clip-path="url(#SVGID_4_)" fill="none" stroke="#1E1F57" stroke-width="3" stroke-linecap="round" stroke-linejoin="round" stroke-miterlimit="10" x1="727.019" y1="612.838" x2="702.552" y2="639.877"/>
	<polyline clip-path="url(#SVGID_4_)" fill="none" stroke="#1E1F57" stroke-linecap="round" stroke-miterlimit="10" points="
		1177.531,733.977 1275.979,660.247 1244.559,657.553 1336.219,592.308 	"/>
	
		<line clip-path="url(#SVGID_4_)" fill="none" stroke="#1E1F57" stroke-linecap="round" stroke-miterlimit="10" x1="1240.487" y1="733.729" x2="1310.93" y2="681.108"/>
</g>
</svg>
