<svg id="svg" version="1.1" xmlns="http://www.w3.org/2000/svg" xmlns:xlink="http://www.w3.org/1999/xlink" width="400" height="7.14256619144603" viewBox="0, 0, 400,7.14256619144603"><g id="svgg"><path id="path0" d="M122.413 15.000 C 122.413 23.296,122.433 26.690,122.458 22.542 C 122.483 18.394,122.483 11.606,122.458 7.458 C 122.433 3.310,122.413 6.704,122.413 15.000 M153.062 0.375 C 153.117 0.581,153.163 7.331,153.164 15.375 L 153.167 30.000 168.750 30.000 L 184.333 30.000 184.333 15.000 L 184.333 0.000 168.647 0.000 L 152.961 0.000 153.062 0.375 M215.000 15.000 L 215.000 30.000 230.583 30.000 L 246.167 30.000 246.169 15.375 C 246.170 7.331,246.216 0.581,246.272 0.375 L 246.372 0.000 230.686 0.000 L 215.000 0.000 215.000 15.000 M276.833 0.343 C 276.833 0.532,276.908 0.640,277.000 0.583 C 277.092 0.527,277.167 0.372,277.167 0.240 C 277.167 0.108,277.092 0.000,277.000 0.000 C 276.908 0.000,276.833 0.154,276.833 0.343 " stroke="none" fill="#73ccf0" fill-rule="evenodd"></path><path id="path1" d="M91.226 0.625 C 91.283 0.969,91.330 7.719,91.331 15.625 L 91.333 30.000 106.833 30.000 L 122.333 30.000 122.333 15.000 L 122.333 0.000 106.728 0.000 L 91.123 0.000 91.226 0.625 M184.333 15.000 L 184.333 30.000 199.667 30.000 L 215.000 30.000 215.000 15.000 L 215.000 0.000 199.667 0.000 L 184.333 0.000 184.333 15.000 M277.167 15.000 L 277.167 30.000 292.583 30.000 L 308.000 30.000 308.002 15.375 C 308.004 7.331,308.050 0.581,308.105 0.375 L 308.206 -0.000 292.686 -0.000 L 277.167 0.000 277.167 15.000 " stroke="none" fill="#f339a2" fill-rule="evenodd"></path><path id="path2" d="M60.060 0.625 C 60.117 0.969,60.164 7.719,60.165 15.625 L 60.167 30.000 75.750 30.000 L 91.333 30.000 91.331 15.625 C 91.330 7.719,91.283 0.969,91.226 0.625 L 91.123 0.000 75.540 0.000 L 59.956 0.000 60.060 0.625 M308.105 0.375 C 308.050 0.581,308.004 7.331,308.002 15.375 L 308.000 30.000 323.498 30.000 L 338.996 30.000 339.043 15.375 C 339.068 7.331,339.153 0.581,339.231 0.375 L 339.372 0.000 323.789 0.000 L 308.206 0.000 308.105 0.375 M277.080 15.250 C 277.080 23.408,277.100 26.721,277.125 22.612 C 277.150 18.503,277.150 11.828,277.125 7.779 C 277.100 3.730,277.080 7.092,277.080 15.250 " stroke="none" fill="#6a2da1" fill-rule="evenodd"></path><path id="path3" d="M122.500 15.000 L 122.500 30.000 137.833 30.000 L 153.167 30.000 153.164 15.375 C 153.163 7.331,153.117 0.581,153.062 0.375 L 152.961 -0.000 137.731 -0.000 L 122.500 0.000 122.500 15.000 M246.272 0.375 C 246.216 0.581,246.170 7.331,246.169 15.375 L 246.167 30.000 261.583 30.000 L 277.000 30.000 277.000 15.521 C 277.000 7.557,276.953 0.807,276.896 0.521 L 276.792 0.000 261.582 0.000 L 246.372 0.000 246.272 0.375 " stroke="none" fill="#34c4a4" fill-rule="evenodd"></path><path id="path4" d="M0.000 15.000 L 0.000 30.000 30.083 30.000 L 60.167 30.000 60.165 15.625 C 60.164 7.719,60.117 0.969,60.060 0.625 L 59.956 -0.000 29.978 -0.000 L 0.000 0.000 0.000 15.000 M339.200 0.553 C 339.050 0.968,339.000 4.730,339.000 15.553 L 339.000 30.000 369.500 30.000 L 400.000 30.000 400.000 15.000 L 400.000 0.000 369.700 0.000 L 339.400 0.000 339.200 0.553 " stroke="none" fill="#1c1c54" fill-rule="evenodd"></path></g></svg>