<?xml version="1.0" encoding="utf-8"?>
<!-- Generator: Adobe Illustrator 16.0.0, SVG Export Plug-In . SVG Version: 6.00 Build 0)  -->
<!DOCTYPE svg PUBLIC "-//W3C//DTD SVG 1.1//EN" "http://www.w3.org/Graphics/SVG/1.1/DTD/svg11.dtd">
<svg version="1.1" id="Capa_1" xmlns="http://www.w3.org/2000/svg" xmlns:xlink="http://www.w3.org/1999/xlink" x="0px" y="0px"
	 width="500px" height="500px" viewBox="0 0 500 500" enable-background="new 0 0 500 500" xml:space="preserve">
<g id="XMLID_94_" display="none">
	<path id="XMLID_2_" display="inline" fill="#C3271A" d="M197.723,456.709L197.723,456.709"/>
</g>
<g id="XMLID_1424_">
	<path id="XMLID_1430_" fill="#1EC85A" d="M116.664,253.464L116.664,253.464c-32.694,0-59.197-26.503-59.197-59.197l0,0
		c0-32.693,26.503-59.197,59.197-59.197h0c32.693,0,59.197,26.503,59.197,59.197l0,0
		C175.861,226.96,149.357,253.464,116.664,253.464z"/>
	<path id="XMLID_1425_" fill="#FFFFFF" d="M116.664,159.657c-19.114,0-34.61,15.496-34.61,34.61s15.496,34.609,34.61,34.609
		c19.115,0,34.609-15.495,34.609-34.609S135.779,159.657,116.664,159.657z M132.585,209.668c-0.693,1.038-1.904,1.384-2.942,0.691
		c-8.132-5.018-18.343-6.056-30.456-3.288c-1.211,0.346-2.25-0.519-2.596-1.557c-0.346-1.211,0.519-2.25,1.558-2.595
		c13.151-2.943,24.572-1.731,33.57,3.807C132.93,207.246,133.104,208.63,132.585,209.668z M136.738,200.15
		c-0.866,1.211-2.423,1.73-3.635,0.866c-9.344-5.711-23.534-7.442-34.437-3.981c-1.385,0.346-2.941-0.347-3.288-1.73
		c-0.346-1.385,0.347-2.942,1.73-3.289c12.633-3.806,28.208-1.903,38.937,4.672C137.083,197.209,137.603,198.939,136.738,200.15z
		 M137.083,190.46c-11.075-6.576-29.591-7.269-40.146-3.981c-1.731,0.52-3.462-0.519-3.981-2.075c-0.519-1.731,0.52-3.46,2.078-3.98
		c12.286-3.635,32.533-2.942,45.339,4.672c1.557,0.865,2.076,2.942,1.211,4.5C140.717,190.807,138.642,191.325,137.083,190.46z"/>
</g>
<g id="XMLID_1122_" display="none">
	<path id="XMLID_1_" display="inline" fill="#1EB8EB" d="M92.132,456.709L92.132,456.709"/>
</g>
</svg>
